<svg xmlns="http://www.w3.org/2000/svg" xmlns:xlink="http://www.w3.org/1999/xlink" width="500" zoomAndPan="magnify" viewBox="0 0 375 374.999991" height="500" preserveAspectRatio="xMidYMid meet" version="1.0"><defs><filter x="0%" y="0%" width="100%" height="100%" id="7b54459565"><feColorMatrix values="0 0 0 0 1 0 0 0 0 1 0 0 0 0 1 0 0 0 1 0" color-interpolation-filters="sRGB"/></filter><clipPath id="fdc383e81d"><path d="M 100 50 L 375 50 L 375 325 L 100 325 Z M 100 50 " clip-rule="nonzero"/></clipPath><clipPath id="0263e40260"><path d="M 237.863281 50.175781 L 374.996094 187.695312 L 237.476562 324.828125 L 100.34375 187.308594 Z M 237.863281 50.175781 " clip-rule="nonzero"/></clipPath><mask id="8450770452"><g filter="url(#7b54459565)"><rect x="-37.5" width="450" fill="#000000" y="-37.499999" height="449.999989" fill-opacity="0.5"/></g></mask><clipPath id="d2e3e8fc2c"><path d="M 217.179688 1.019531 L 230.132812 1.019531 L 230.132812 14 L 217.179688 14 Z M 217.179688 1.019531 " clip-rule="nonzero"/></clipPath><clipPath id="9ac06a2222"><path d="M 217.179688 37 L 230.132812 37 L 230.132812 50 L 217.179688 50 Z M 217.179688 37 " clip-rule="nonzero"/></clipPath><clipPath id="b1cc8fc846"><path d="M 217.179688 73 L 230.132812 73 L 230.132812 86 L 217.179688 86 Z M 217.179688 73 " clip-rule="nonzero"/></clipPath><clipPath id="0c78e242ed"><path d="M 144.429688 109 L 157.710938 109 L 157.710938 122.003906 L 144.429688 122.003906 Z M 144.429688 109 " clip-rule="nonzero"/></clipPath><clipPath id="01c5709793"><path d="M 181 109 L 194.664062 109 L 194.664062 122.003906 L 181 122.003906 Z M 181 109 " clip-rule="nonzero"/></clipPath><clipPath id="6b0868b8f0"><path d="M 217.179688 109 L 230.132812 109 L 230.132812 122.003906 L 217.179688 122.003906 Z M 217.179688 109 " clip-rule="nonzero"/></clipPath><clipPath id="d38ef926f1"><path d="M 108.632812 109 L 121.914062 109 L 121.914062 122.003906 L 108.632812 122.003906 Z M 108.632812 109 " clip-rule="nonzero"/></clipPath><clipPath id="f8dbc7dc3e"><path d="M 72.257812 109 L 86 109 L 86 122.003906 L 72.257812 122.003906 Z M 72.257812 109 " clip-rule="nonzero"/></clipPath><clipPath id="6b0943bb60"><path d="M 0.660156 1 L 14 1 L 14 14 L 0.660156 14 Z M 0.660156 1 " clip-rule="nonzero"/></clipPath><clipPath id="cd9a6b6cf6"><path d="M 0.660156 37 L 14 37 L 14 50 L 0.660156 50 Z M 0.660156 37 " clip-rule="nonzero"/></clipPath><clipPath id="10d3a62fcc"><path d="M 0.660156 73 L 14 73 L 14 86 L 0.660156 86 Z M 0.660156 73 " clip-rule="nonzero"/></clipPath><clipPath id="2e22882b68"><path d="M 36.460938 109 L 49.738281 109 L 49.738281 122.003906 L 36.460938 122.003906 Z M 36.460938 109 " clip-rule="nonzero"/></clipPath><clipPath id="e56eb439ed"><path d="M 0.660156 109 L 13.941406 109 L 13.941406 122.003906 L 0.660156 122.003906 Z M 0.660156 109 " clip-rule="nonzero"/></clipPath><clipPath id="9c6579800f"><rect x="0" width="231" y="0" height="123"/></clipPath></defs><rect x="-37.5" width="450" fill="#ffffff" y="-37.499999" height="449.999989" fill-opacity="1"/><rect x="-37.5" width="450" fill="#ffffff" y="-37.499999" height="449.999989" fill-opacity="1"/><g clip-path="url(#fdc383e81d)"><g clip-path="url(#0263e40260)"><path fill="#6c63ff" d="M 237.863281 50.175781 L 374.996094 187.695312 L 237.476562 324.828125 L 100.34375 187.308594 Z M 237.863281 50.175781 " fill-opacity="1" fill-rule="nonzero"/></g></g><g mask="url(#8450770452)"><g transform="matrix(1, 0, 0, 1, 1, 126)"><g clip-path="url(#9c6579800f)"><path fill="#edf5fa" d="M 157.691406 7.445312 C 157.691406 3.902344 154.808594 1.019531 151.261719 1.019531 C 147.71875 1.019531 144.835938 3.902344 144.835938 7.445312 C 144.835938 10.988281 147.71875 13.875 151.261719 13.875 C 154.808594 13.875 157.691406 10.988281 157.691406 7.445312 " fill-opacity="1" fill-rule="nonzero"/><path fill="#edf5fa" d="M 194.089844 7.445312 C 194.089844 3.902344 191.207031 1.019531 187.664062 1.019531 C 184.117188 1.019531 181.238281 3.902344 181.238281 7.445312 C 181.238281 10.988281 184.117188 13.875 187.664062 13.875 C 191.207031 13.875 194.089844 10.988281 194.089844 7.445312 " fill-opacity="1" fill-rule="nonzero"/><g clip-path="url(#d2e3e8fc2c)"><path fill="#edf5fa" d="M 230.132812 7.445312 C 230.132812 3.902344 227.25 1.019531 223.707031 1.019531 C 220.164062 1.019531 217.28125 3.902344 217.28125 7.445312 C 217.28125 10.988281 220.164062 13.875 223.707031 13.875 C 227.25 13.875 230.132812 10.988281 230.132812 7.445312 " fill-opacity="1" fill-rule="nonzero"/></g><path fill="#edf5fa" d="M 115.21875 1.019531 C 111.675781 1.019531 108.792969 3.902344 108.792969 7.445312 C 108.792969 10.988281 111.675781 13.875 115.21875 13.875 C 118.765625 13.875 121.644531 10.988281 121.644531 7.445312 C 121.644531 3.902344 118.765625 1.019531 115.21875 1.019531 " fill-opacity="1" fill-rule="nonzero"/><path fill="#edf5fa" d="M 79.175781 1.019531 C 75.632812 1.019531 72.75 3.902344 72.75 7.445312 C 72.75 10.988281 75.632812 13.875 79.175781 13.875 C 82.71875 13.875 85.601562 10.988281 85.601562 7.445312 C 85.601562 3.902344 82.71875 1.019531 79.175781 1.019531 " fill-opacity="1" fill-rule="nonzero"/><path fill="#edf5fa" d="M 157.691406 43.488281 C 157.691406 39.945312 154.808594 37.0625 151.261719 37.0625 C 147.71875 37.0625 144.835938 39.945312 144.835938 43.488281 C 144.835938 47.035156 147.71875 49.917969 151.261719 49.917969 C 154.808594 49.917969 157.691406 47.035156 157.691406 43.488281 " fill-opacity="1" fill-rule="nonzero"/><path fill="#edf5fa" d="M 194.089844 43.488281 C 194.089844 39.945312 191.207031 37.0625 187.664062 37.0625 C 184.117188 37.0625 181.238281 39.945312 181.238281 43.488281 C 181.238281 47.035156 184.117188 49.917969 187.664062 49.917969 C 191.207031 49.917969 194.089844 47.035156 194.089844 43.488281 " fill-opacity="1" fill-rule="nonzero"/><g clip-path="url(#9ac06a2222)"><path fill="#edf5fa" d="M 230.132812 43.488281 C 230.132812 39.945312 227.25 37.0625 223.707031 37.0625 C 220.164062 37.0625 217.28125 39.945312 217.28125 43.488281 C 217.28125 47.035156 220.164062 49.917969 223.707031 49.917969 C 227.25 49.917969 230.132812 47.035156 230.132812 43.488281 " fill-opacity="1" fill-rule="nonzero"/></g><path fill="#edf5fa" d="M 115.21875 37.0625 C 111.675781 37.0625 108.792969 39.945312 108.792969 43.488281 C 108.792969 47.035156 111.675781 49.917969 115.21875 49.917969 C 118.765625 49.917969 121.644531 47.035156 121.644531 43.488281 C 121.644531 39.945312 118.765625 37.0625 115.21875 37.0625 " fill-opacity="1" fill-rule="nonzero"/><path fill="#edf5fa" d="M 79.175781 37.0625 C 75.632812 37.0625 72.75 39.945312 72.75 43.488281 C 72.75 47.035156 75.632812 49.917969 79.175781 49.917969 C 82.71875 49.917969 85.601562 47.035156 85.601562 43.488281 C 85.601562 39.945312 82.71875 37.0625 79.175781 37.0625 " fill-opacity="1" fill-rule="nonzero"/><path fill="#edf5fa" d="M 157.691406 79.535156 C 157.691406 75.988281 154.808594 73.105469 151.261719 73.105469 C 147.71875 73.105469 144.835938 75.988281 144.835938 79.535156 C 144.835938 83.078125 147.71875 85.960938 151.261719 85.960938 C 154.808594 85.960938 157.691406 83.078125 157.691406 79.535156 " fill-opacity="1" fill-rule="nonzero"/><path fill="#edf5fa" d="M 194.089844 79.535156 C 194.089844 75.988281 191.207031 73.105469 187.664062 73.105469 C 184.117188 73.105469 181.238281 75.988281 181.238281 79.535156 C 181.238281 83.078125 184.117188 85.960938 187.664062 85.960938 C 191.207031 85.960938 194.089844 83.078125 194.089844 79.535156 " fill-opacity="1" fill-rule="nonzero"/><g clip-path="url(#b1cc8fc846)"><path fill="#edf5fa" d="M 230.132812 79.535156 C 230.132812 75.988281 227.25 73.105469 223.707031 73.105469 C 220.164062 73.105469 217.28125 75.988281 217.28125 79.535156 C 217.28125 83.078125 220.164062 85.960938 223.707031 85.960938 C 227.25 85.960938 230.132812 83.078125 230.132812 79.535156 " fill-opacity="1" fill-rule="nonzero"/></g><path fill="#edf5fa" d="M 115.21875 73.105469 C 111.675781 73.105469 108.792969 75.988281 108.792969 79.535156 C 108.792969 83.078125 111.675781 85.960938 115.21875 85.960938 C 118.765625 85.960938 121.644531 83.078125 121.644531 79.535156 C 121.644531 75.988281 118.765625 73.105469 115.21875 73.105469 " fill-opacity="1" fill-rule="nonzero"/><path fill="#edf5fa" d="M 79.175781 73.105469 C 75.632812 73.105469 72.75 75.988281 72.75 79.535156 C 72.75 83.078125 75.632812 85.960938 79.175781 85.960938 C 82.71875 85.960938 85.601562 83.078125 85.601562 79.535156 C 85.601562 75.988281 82.71875 73.105469 79.175781 73.105469 " fill-opacity="1" fill-rule="nonzero"/><g clip-path="url(#0c78e242ed)"><path fill="#edf5fa" d="M 157.691406 115.574219 C 157.691406 112.03125 154.808594 109.148438 151.261719 109.148438 C 147.71875 109.148438 144.835938 112.03125 144.835938 115.574219 C 144.835938 119.121094 147.71875 122.003906 151.261719 122.003906 C 154.808594 122.003906 157.691406 119.121094 157.691406 115.574219 " fill-opacity="1" fill-rule="nonzero"/></g><g clip-path="url(#01c5709793)"><path fill="#edf5fa" d="M 194.089844 115.574219 C 194.089844 112.03125 191.207031 109.148438 187.664062 109.148438 C 184.117188 109.148438 181.238281 112.03125 181.238281 115.574219 C 181.238281 119.121094 184.117188 122.003906 187.664062 122.003906 C 191.207031 122.003906 194.089844 119.121094 194.089844 115.574219 " fill-opacity="1" fill-rule="nonzero"/></g><g clip-path="url(#6b0868b8f0)"><path fill="#edf5fa" d="M 230.132812 115.574219 C 230.132812 112.03125 227.25 109.148438 223.707031 109.148438 C 220.164062 109.148438 217.28125 112.03125 217.28125 115.574219 C 217.28125 119.121094 220.164062 122.003906 223.707031 122.003906 C 227.25 122.003906 230.132812 119.121094 230.132812 115.574219 " fill-opacity="1" fill-rule="nonzero"/></g><g clip-path="url(#d38ef926f1)"><path fill="#edf5fa" d="M 115.21875 109.148438 C 111.675781 109.148438 108.792969 112.03125 108.792969 115.574219 C 108.792969 119.121094 111.675781 122.003906 115.21875 122.003906 C 118.765625 122.003906 121.644531 119.121094 121.644531 115.574219 C 121.644531 112.03125 118.765625 109.148438 115.21875 109.148438 " fill-opacity="1" fill-rule="nonzero"/></g><g clip-path="url(#f8dbc7dc3e)"><path fill="#edf5fa" d="M 79.175781 109.148438 C 75.632812 109.148438 72.75 112.03125 72.75 115.574219 C 72.75 119.121094 75.632812 122.003906 79.175781 122.003906 C 82.71875 122.003906 85.601562 119.121094 85.601562 115.574219 C 85.601562 112.03125 82.71875 109.148438 79.175781 109.148438 " fill-opacity="1" fill-rule="nonzero"/></g><path fill="#edf5fa" d="M 49.558594 7.445312 C 49.558594 3.902344 46.675781 1.019531 43.132812 1.019531 C 39.585938 1.019531 36.707031 3.902344 36.707031 7.445312 C 36.707031 10.988281 39.585938 13.875 43.132812 13.875 C 46.675781 13.875 49.558594 10.988281 49.558594 7.445312 " fill-opacity="1" fill-rule="nonzero"/><g clip-path="url(#6b0943bb60)"><path fill="#edf5fa" d="M 7.089844 1.019531 C 3.542969 1.019531 0.660156 3.902344 0.660156 7.445312 C 0.660156 10.988281 3.542969 13.875 7.089844 13.875 C 10.632812 13.875 13.515625 10.988281 13.515625 7.445312 C 13.515625 3.902344 10.632812 1.019531 7.089844 1.019531 " fill-opacity="1" fill-rule="nonzero"/></g><path fill="#edf5fa" d="M 49.558594 43.488281 C 49.558594 39.945312 46.675781 37.0625 43.132812 37.0625 C 39.585938 37.0625 36.707031 39.945312 36.707031 43.488281 C 36.707031 47.035156 39.585938 49.917969 43.132812 49.917969 C 46.675781 49.917969 49.558594 47.035156 49.558594 43.488281 " fill-opacity="1" fill-rule="nonzero"/><g clip-path="url(#cd9a6b6cf6)"><path fill="#edf5fa" d="M 7.089844 37.0625 C 3.542969 37.0625 0.660156 39.945312 0.660156 43.488281 C 0.660156 47.035156 3.542969 49.917969 7.089844 49.917969 C 10.632812 49.917969 13.515625 47.035156 13.515625 43.488281 C 13.515625 39.945312 10.632812 37.0625 7.089844 37.0625 " fill-opacity="1" fill-rule="nonzero"/></g><path fill="#edf5fa" d="M 49.558594 79.535156 C 49.558594 75.988281 46.675781 73.105469 43.132812 73.105469 C 39.585938 73.105469 36.707031 75.988281 36.707031 79.535156 C 36.707031 83.078125 39.585938 85.960938 43.132812 85.960938 C 46.675781 85.960938 49.558594 83.078125 49.558594 79.535156 " fill-opacity="1" fill-rule="nonzero"/><g clip-path="url(#10d3a62fcc)"><path fill="#edf5fa" d="M 7.089844 73.105469 C 3.542969 73.105469 0.660156 75.988281 0.660156 79.535156 C 0.660156 83.078125 3.542969 85.960938 7.089844 85.960938 C 10.632812 85.960938 13.515625 83.078125 13.515625 79.535156 C 13.515625 75.988281 10.632812 73.105469 7.089844 73.105469 " fill-opacity="1" fill-rule="nonzero"/></g><g clip-path="url(#2e22882b68)"><path fill="#edf5fa" d="M 49.558594 115.574219 C 49.558594 112.03125 46.675781 109.148438 43.132812 109.148438 C 39.585938 109.148438 36.707031 112.03125 36.707031 115.574219 C 36.707031 119.121094 39.585938 122.003906 43.132812 122.003906 C 46.675781 122.003906 49.558594 119.121094 49.558594 115.574219 " fill-opacity="1" fill-rule="nonzero"/></g><g clip-path="url(#e56eb439ed)"><path fill="#edf5fa" d="M 7.089844 109.148438 C 3.542969 109.148438 0.660156 112.03125 0.660156 115.574219 C 0.660156 119.121094 3.542969 122.003906 7.089844 122.003906 C 10.632812 122.003906 13.515625 119.121094 13.515625 115.574219 C 13.515625 112.03125 10.632812 109.148438 7.089844 109.148438 " fill-opacity="1" fill-rule="nonzero"/></g></g></g></g></svg>