<svg xmlns="http://www.w3.org/2000/svg" xmlns:xlink="http://www.w3.org/1999/xlink" width="500" zoomAndPan="magnify" viewBox="0 0 375 374.999991" height="500" preserveAspectRatio="xMidYMid meet" version="1.0"><defs><clipPath id="25eb9444a3"><path d="M 57.378906 94 L 184 94 L 184 234 L 57.378906 234 Z M 57.378906 94 " clip-rule="nonzero"/></clipPath><clipPath id="6e83dfd10e"><path d="M 128 91.808594 L 144 91.808594 L 144 108 L 128 108 Z M 128 91.808594 " clip-rule="nonzero"/></clipPath><clipPath id="862da4d6db"><path d="M 190 281 L 317.628906 281 L 317.628906 283 L 190 283 Z M 190 281 " clip-rule="nonzero"/></clipPath></defs><rect x="-37.5" width="450" fill="#ffffff" y="-37.499999" height="449.999989" fill-opacity="1"/><rect x="-37.5" width="450" fill="#ffffff" y="-37.499999" height="449.999989" fill-opacity="1"/><g clip-path="url(#25eb9444a3)"><path fill="#e6e6e6" d="M 126.503906 233.007812 C 88.386719 233.007812 57.378906 202.019531 57.378906 163.933594 C 57.378906 125.84375 88.386719 94.855469 126.503906 94.855469 C 129.265625 94.855469 132.011719 95.023438 134.753906 95.355469 C 137.492188 95.6875 140.199219 96.179688 142.878906 96.832031 C 145.5625 97.488281 148.191406 98.300781 150.773438 99.269531 C 153.359375 100.238281 155.875 101.355469 158.324219 102.625 C 160.773438 103.894531 163.136719 105.304688 165.417969 106.855469 C 167.699219 108.40625 169.878906 110.089844 171.960938 111.898438 C 174.039062 113.710938 176.003906 115.640625 177.851562 117.6875 C 179.703125 119.734375 181.421875 121.882812 183.015625 124.132812 L 182.359375 124.59375 C 180.785156 122.371094 179.085938 120.246094 177.257812 118.222656 C 175.429688 116.199219 173.488281 114.292969 171.433594 112.503906 C 169.378906 110.710938 167.222656 109.050781 164.96875 107.515625 C 162.714844 105.984375 160.375 104.589844 157.957031 103.335938 C 155.535156 102.082031 153.046875 100.972656 150.496094 100.015625 C 147.941406 99.058594 145.339844 98.257812 142.691406 97.609375 C 140.042969 96.964844 137.363281 96.476562 134.65625 96.148438 C 131.949219 95.820312 129.230469 95.65625 126.503906 95.652344 C 88.828125 95.652344 58.179688 126.285156 58.179688 163.933594 C 58.179688 201.578125 88.828125 232.210938 126.503906 232.210938 C 129.121094 232.21875 131.726562 232.074219 134.324219 231.785156 C 136.925781 231.492188 139.496094 231.050781 142.042969 230.460938 C 144.59375 229.871094 147.097656 229.136719 149.558594 228.257812 C 152.023438 227.378906 154.425781 226.359375 156.773438 225.203125 C 159.117188 224.046875 161.386719 222.761719 163.582031 221.339844 C 165.78125 219.921875 167.886719 218.382812 169.90625 216.71875 C 171.921875 215.058594 173.835938 213.285156 175.652344 211.402344 C 177.464844 209.519531 179.164062 207.539062 180.746094 205.457031 L 181.382812 205.945312 C 179.777344 208.050781 178.058594 210.054688 176.226562 211.957031 C 174.390625 213.863281 172.453125 215.65625 170.414062 217.339844 C 168.371094 219.019531 166.238281 220.578125 164.015625 222.015625 C 161.796875 223.449219 159.5 224.753906 157.125 225.921875 C 154.753906 227.09375 152.320312 228.121094 149.832031 229.011719 C 147.339844 229.902344 144.804688 230.644531 142.226562 231.238281 C 139.648438 231.835938 137.046875 232.28125 134.417969 232.578125 C 131.789062 232.875 129.152344 233.019531 126.503906 233.007812 Z M 126.503906 233.007812 " fill-opacity="1" fill-rule="nonzero"/></g><path fill="#e6e6e6" d="M 155.082031 152.363281 C 154.574219 152.363281 154.085938 152.265625 153.617188 152.074219 C 153.148438 151.878906 152.734375 151.601562 152.375 151.242188 C 152.015625 150.882812 151.738281 150.46875 151.542969 150 C 151.347656 149.53125 151.25 149.042969 151.25 148.535156 C 151.25 148.027344 151.347656 147.539062 151.542969 147.070312 C 151.738281 146.601562 152.015625 146.1875 152.375 145.828125 C 152.734375 145.46875 153.148438 145.191406 153.617188 144.996094 C 154.085938 144.804688 154.574219 144.707031 155.082031 144.707031 C 155.589844 144.707031 156.082031 144.804688 156.550781 144.996094 C 157.019531 145.191406 157.433594 145.46875 157.792969 145.828125 C 158.152344 146.1875 158.429688 146.601562 158.625 147.070312 C 158.816406 147.539062 158.914062 148.027344 158.914062 148.535156 C 158.914062 149.042969 158.816406 149.53125 158.625 150 C 158.429688 150.46875 158.152344 150.882812 157.792969 151.242188 C 157.433594 151.601562 157.019531 151.878906 156.550781 152.074219 C 156.082031 152.265625 155.589844 152.363281 155.082031 152.363281 Z M 155.082031 152.363281 " fill-opacity="1" fill-rule="nonzero"/><path fill="#ffffff" d="M 156.417969 149.335938 L 155.617188 148.535156 L 156.417969 147.734375 C 156.492188 147.660156 156.53125 147.570312 156.53125 147.464844 C 156.53125 147.363281 156.496094 147.273438 156.421875 147.199219 C 156.347656 147.125 156.257812 147.085938 156.152344 147.085938 C 156.046875 147.085938 155.957031 147.125 155.886719 147.199219 L 155.082031 148 L 154.28125 147.199219 C 154.207031 147.125 154.117188 147.089844 154.015625 147.089844 C 153.910156 147.089844 153.820312 147.125 153.746094 147.199219 C 153.671875 147.273438 153.636719 147.363281 153.636719 147.464844 C 153.636719 147.570312 153.671875 147.660156 153.746094 147.734375 L 154.550781 148.535156 L 153.746094 149.335938 C 153.671875 149.410156 153.636719 149.5 153.636719 149.601562 C 153.636719 149.707031 153.675781 149.796875 153.75 149.867188 C 153.820312 149.941406 153.910156 149.980469 154.015625 149.980469 C 154.117188 149.980469 154.207031 149.945312 154.28125 149.871094 L 155.082031 149.070312 L 155.886719 149.871094 C 155.957031 149.945312 156.046875 149.980469 156.152344 149.980469 C 156.257812 149.980469 156.347656 149.945312 156.421875 149.871094 C 156.496094 149.796875 156.53125 149.707031 156.53125 149.601562 C 156.53125 149.5 156.492188 149.410156 156.417969 149.335938 Z M 156.417969 149.335938 " fill-opacity="1" fill-rule="nonzero"/><g clip-path="url(#6e83dfd10e)"><path fill="#e6e6e6" d="M 143.652344 99.527344 C 143.652344 100.027344 143.601562 100.523438 143.503906 101.011719 C 143.40625 101.503906 143.261719 101.980469 143.070312 102.441406 C 142.878906 102.90625 142.644531 103.34375 142.367188 103.761719 C 142.089844 104.175781 141.773438 104.5625 141.417969 104.914062 C 141.066406 105.269531 140.679688 105.585938 140.261719 105.863281 C 139.847656 106.140625 139.40625 106.375 138.945312 106.566406 C 138.480469 106.757812 138.003906 106.902344 137.515625 107 C 137.023438 107.097656 136.527344 107.148438 136.027344 107.148438 C 135.527344 107.148438 135.03125 107.097656 134.539062 107 C 134.046875 106.902344 133.570312 106.757812 133.109375 106.566406 C 132.644531 106.375 132.207031 106.140625 131.789062 105.863281 C 131.375 105.585938 130.988281 105.269531 130.632812 104.914062 C 130.28125 104.5625 129.964844 104.175781 129.6875 103.761719 C 129.40625 103.34375 129.171875 102.90625 128.980469 102.441406 C 128.789062 101.980469 128.644531 101.503906 128.546875 101.011719 C 128.449219 100.523438 128.402344 100.027344 128.402344 99.527344 C 128.402344 99.027344 128.449219 98.53125 128.546875 98.039062 C 128.644531 97.550781 128.789062 97.074219 128.980469 96.609375 C 129.171875 96.148438 129.40625 95.707031 129.6875 95.292969 C 129.964844 94.875 130.28125 94.492188 130.632812 94.136719 C 130.988281 93.785156 131.375 93.46875 131.789062 93.191406 C 132.207031 92.914062 132.644531 92.679688 133.109375 92.488281 C 133.570312 92.292969 134.046875 92.148438 134.539062 92.050781 C 135.03125 91.957031 135.527344 91.90625 136.027344 91.90625 C 136.527344 91.90625 137.023438 91.957031 137.515625 92.050781 C 138.003906 92.148438 138.480469 92.292969 138.945312 92.488281 C 139.40625 92.679688 139.847656 92.914062 140.261719 93.191406 C 140.679688 93.46875 141.066406 93.785156 141.417969 94.136719 C 141.773438 94.492188 142.089844 94.875 142.367188 95.292969 C 142.644531 95.707031 142.878906 96.148438 143.070312 96.609375 C 143.261719 97.074219 143.40625 97.550781 143.503906 98.039062 C 143.601562 98.53125 143.652344 99.027344 143.652344 99.527344 Z M 143.652344 99.527344 " fill-opacity="1" fill-rule="nonzero"/></g><path fill="#ffffff" d="M 134.988281 103.492188 C 134.703125 103.492188 134.476562 103.378906 134.308594 103.152344 L 132.226562 100.382812 C 132.085938 100.195312 132.035156 99.984375 132.066406 99.753906 C 132.097656 99.519531 132.210938 99.335938 132.398438 99.195312 C 132.585938 99.054688 132.792969 99 133.027344 99.035156 C 133.257812 99.066406 133.445312 99.175781 133.585938 99.363281 L 134.945312 101.175781 L 138.441406 95.9375 C 138.570312 95.746094 138.75 95.625 138.980469 95.582031 C 139.210938 95.535156 139.421875 95.578125 139.613281 95.707031 C 139.808594 95.835938 139.929688 96.015625 139.976562 96.242188 C 140.023438 96.472656 139.980469 96.683594 139.851562 96.878906 L 135.691406 103.113281 C 135.53125 103.359375 135.300781 103.484375 135.011719 103.492188 Z M 134.988281 103.492188 " fill-opacity="1" fill-rule="nonzero"/><path fill="#e6e6e6" d="M 127.027344 113.273438 L 145.363281 113.273438 C 145.632812 113.273438 145.890625 113.324219 146.140625 113.425781 C 146.386719 113.53125 146.609375 113.675781 146.796875 113.867188 C 146.988281 114.058594 147.136719 114.277344 147.238281 114.523438 C 147.339844 114.773438 147.394531 115.03125 147.394531 115.300781 L 147.394531 116.03125 C 147.394531 116.300781 147.339844 116.558594 147.238281 116.808594 C 147.136719 117.054688 146.988281 117.273438 146.796875 117.464844 C 146.609375 117.65625 146.386719 117.800781 146.140625 117.90625 C 145.890625 118.007812 145.632812 118.058594 145.363281 118.058594 L 127.027344 118.058594 C 126.757812 118.058594 126.5 118.007812 126.25 117.90625 C 126 117.800781 125.78125 117.65625 125.589844 117.464844 C 125.402344 117.273438 125.253906 117.054688 125.152344 116.808594 C 125.046875 116.558594 124.996094 116.300781 124.996094 116.03125 L 124.996094 115.300781 C 124.996094 115.03125 125.046875 114.773438 125.152344 114.523438 C 125.253906 114.277344 125.402344 114.058594 125.589844 113.867188 C 125.78125 113.675781 126 113.53125 126.25 113.425781 C 126.5 113.324219 126.757812 113.273438 127.027344 113.273438 Z M 127.027344 113.273438 " fill-opacity="1" fill-rule="nonzero"/><path fill="#e6e6e6" d="M 115.652344 122.84375 L 156.738281 122.84375 C 157.007812 122.84375 157.265625 122.894531 157.515625 123 C 157.761719 123.101562 157.984375 123.25 158.171875 123.4375 C 158.363281 123.628906 158.511719 123.847656 158.613281 124.097656 C 158.714844 124.34375 158.765625 124.605469 158.765625 124.871094 L 158.765625 125.601562 C 158.765625 125.871094 158.714844 126.128906 158.613281 126.378906 C 158.511719 126.625 158.363281 126.847656 158.171875 127.035156 C 157.984375 127.226562 157.761719 127.371094 157.515625 127.476562 C 157.265625 127.578125 157.007812 127.628906 156.738281 127.628906 L 115.652344 127.628906 C 115.382812 127.628906 115.125 127.578125 114.875 127.476562 C 114.625 127.371094 114.40625 127.226562 114.21875 127.035156 C 114.027344 126.847656 113.878906 126.625 113.777344 126.378906 C 113.675781 126.128906 113.621094 125.871094 113.621094 125.601562 L 113.621094 124.871094 C 113.621094 124.605469 113.675781 124.34375 113.777344 124.097656 C 113.878906 123.847656 114.027344 123.628906 114.21875 123.4375 C 114.40625 123.25 114.625 123.101562 114.875 123 C 115.125 122.894531 115.382812 122.84375 115.652344 122.84375 Z M 115.652344 122.84375 " fill-opacity="1" fill-rule="nonzero"/><path fill="#e6e6e6" d="M 115.652344 132.417969 L 156.738281 132.417969 C 157.007812 132.417969 157.265625 132.46875 157.515625 132.570312 C 157.761719 132.671875 157.984375 132.820312 158.171875 133.011719 C 158.363281 133.199219 158.511719 133.417969 158.613281 133.667969 C 158.714844 133.917969 158.765625 134.175781 158.765625 134.445312 L 158.765625 135.171875 C 158.765625 135.441406 158.714844 135.703125 158.613281 135.949219 C 158.511719 136.199219 158.363281 136.417969 158.171875 136.609375 C 157.984375 136.796875 157.761719 136.945312 157.515625 137.046875 C 157.265625 137.148438 157.007812 137.203125 156.738281 137.203125 L 115.652344 137.203125 C 115.382812 137.203125 115.125 137.148438 114.875 137.046875 C 114.625 136.945312 114.40625 136.796875 114.21875 136.609375 C 114.027344 136.417969 113.878906 136.199219 113.777344 135.949219 C 113.675781 135.703125 113.621094 135.441406 113.621094 135.171875 L 113.621094 134.445312 C 113.621094 134.175781 113.675781 133.917969 113.777344 133.667969 C 113.878906 133.417969 114.027344 133.199219 114.21875 133.011719 C 114.40625 132.820312 114.625 132.671875 114.875 132.570312 C 115.125 132.46875 115.382812 132.417969 115.652344 132.417969 Z M 115.652344 132.417969 " fill-opacity="1" fill-rule="nonzero"/><path fill="#e6e6e6" d="M 131.746094 234.46875 C 131.238281 234.46875 130.75 234.371094 130.28125 234.175781 C 129.8125 233.984375 129.398438 233.707031 129.039062 233.347656 C 128.679688 232.988281 128.402344 232.574219 128.207031 232.105469 C 128.011719 231.636719 127.914062 231.148438 127.914062 230.640625 C 127.914062 230.132812 128.011719 229.644531 128.207031 229.175781 C 128.402344 228.703125 128.679688 228.289062 129.039062 227.933594 C 129.398438 227.574219 129.8125 227.296875 130.28125 227.101562 C 130.75 226.90625 131.238281 226.808594 131.746094 226.808594 C 132.253906 226.808594 132.746094 226.90625 133.214844 227.101562 C 133.683594 227.296875 134.097656 227.574219 134.457031 227.933594 C 134.816406 228.289062 135.09375 228.703125 135.289062 229.175781 C 135.480469 229.644531 135.578125 230.132812 135.578125 230.640625 C 135.578125 231.148438 135.480469 231.636719 135.289062 232.105469 C 135.09375 232.574219 134.816406 232.988281 134.457031 233.347656 C 134.097656 233.707031 133.683594 233.984375 133.214844 234.175781 C 132.746094 234.371094 132.253906 234.46875 131.746094 234.46875 Z M 131.746094 234.46875 " fill-opacity="1" fill-rule="nonzero"/><path fill="#ffffff" d="M 133.085938 231.441406 L 132.28125 230.640625 L 133.085938 229.839844 C 133.15625 229.765625 133.195312 229.675781 133.191406 229.570312 C 133.191406 229.46875 133.15625 229.378906 133.082031 229.304688 C 133.007812 229.230469 132.921875 229.195312 132.816406 229.195312 C 132.710938 229.195312 132.625 229.230469 132.550781 229.304688 L 131.746094 230.105469 L 130.945312 229.304688 C 130.871094 229.230469 130.78125 229.195312 130.679688 229.195312 C 130.574219 229.195312 130.484375 229.230469 130.414062 229.304688 C 130.339844 229.378906 130.300781 229.46875 130.300781 229.570312 C 130.300781 229.675781 130.339844 229.765625 130.410156 229.839844 L 131.214844 230.640625 L 130.410156 231.441406 C 130.335938 231.515625 130.300781 231.601562 130.300781 231.707031 C 130.300781 231.8125 130.335938 231.902344 130.410156 231.976562 C 130.484375 232.050781 130.574219 232.085938 130.679688 232.085938 C 130.78125 232.085938 130.871094 232.050781 130.945312 231.976562 L 131.746094 231.171875 L 132.550781 231.976562 C 132.625 232.050781 132.710938 232.085938 132.816406 232.085938 C 132.921875 232.085938 133.011719 232.050781 133.085938 231.976562 C 133.160156 231.902344 133.195312 231.8125 133.195312 231.707031 C 133.195312 231.601562 133.160156 231.515625 133.085938 231.441406 Z M 133.085938 231.441406 " fill-opacity="1" fill-rule="nonzero"/><path fill="#e6e6e6" d="M 120.316406 181.628906 C 120.316406 182.132812 120.269531 182.625 120.171875 183.117188 C 120.074219 183.609375 119.929688 184.085938 119.734375 184.546875 C 119.542969 185.007812 119.308594 185.449219 119.03125 185.863281 C 118.753906 186.28125 118.4375 186.664062 118.082031 187.019531 C 117.730469 187.371094 117.34375 187.6875 116.925781 187.964844 C 116.511719 188.246094 116.070312 188.480469 115.609375 188.671875 C 115.148438 188.863281 114.671875 189.007812 114.179688 189.105469 C 113.6875 189.203125 113.191406 189.25 112.691406 189.25 C 112.191406 189.25 111.695312 189.203125 111.203125 189.105469 C 110.710938 189.007812 110.234375 188.863281 109.773438 188.671875 C 109.308594 188.480469 108.871094 188.246094 108.453125 187.964844 C 108.039062 187.6875 107.652344 187.371094 107.300781 187.019531 C 106.945312 186.664062 106.628906 186.28125 106.351562 185.863281 C 106.074219 185.449219 105.835938 185.007812 105.644531 184.546875 C 105.453125 184.085938 105.308594 183.609375 105.210938 183.117188 C 105.113281 182.625 105.066406 182.132812 105.066406 181.628906 C 105.066406 181.128906 105.113281 180.636719 105.210938 180.144531 C 105.308594 179.652344 105.453125 179.175781 105.644531 178.714844 C 105.835938 178.253906 106.074219 177.8125 106.351562 177.398438 C 106.628906 176.980469 106.945312 176.597656 107.300781 176.242188 C 107.652344 175.886719 108.039062 175.574219 108.453125 175.292969 C 108.871094 175.015625 109.308594 174.78125 109.773438 174.589844 C 110.234375 174.398438 110.710938 174.253906 111.203125 174.15625 C 111.695312 174.058594 112.191406 174.011719 112.691406 174.011719 C 113.191406 174.011719 113.6875 174.058594 114.179688 174.15625 C 114.671875 174.253906 115.148438 174.398438 115.609375 174.589844 C 116.070312 174.78125 116.511719 175.015625 116.925781 175.292969 C 117.34375 175.574219 117.730469 175.886719 118.082031 176.242188 C 118.4375 176.597656 118.753906 176.980469 119.03125 177.398438 C 119.308594 177.8125 119.542969 178.253906 119.734375 178.714844 C 119.929688 179.175781 120.074219 179.652344 120.171875 180.144531 C 120.269531 180.636719 120.316406 181.128906 120.316406 181.628906 Z M 120.316406 181.628906 " fill-opacity="1" fill-rule="nonzero"/><path fill="#ffffff" d="M 111.652344 185.597656 C 111.367188 185.597656 111.140625 185.484375 110.972656 185.257812 L 108.890625 182.484375 C 108.75 182.296875 108.699219 182.089844 108.730469 181.855469 C 108.765625 181.625 108.875 181.4375 109.0625 181.300781 C 109.25 181.160156 109.457031 181.105469 109.691406 181.136719 C 109.921875 181.171875 110.109375 181.28125 110.25 181.46875 L 111.609375 183.28125 L 115.105469 178.042969 C 115.234375 177.84375 115.414062 177.722656 115.644531 177.675781 C 115.875 177.628906 116.089844 177.671875 116.285156 177.800781 C 116.480469 177.933594 116.601562 178.113281 116.648438 178.34375 C 116.691406 178.574219 116.648438 178.789062 116.515625 178.984375 L 112.355469 185.21875 C 112.195312 185.460938 111.96875 185.589844 111.675781 185.597656 Z M 111.652344 185.597656 " fill-opacity="1" fill-rule="nonzero"/><path fill="#e6e6e6" d="M 103.691406 195.378906 L 122.027344 195.378906 C 122.296875 195.378906 122.554688 195.429688 122.804688 195.53125 C 123.054688 195.636719 123.273438 195.78125 123.460938 195.972656 C 123.652344 196.164062 123.800781 196.382812 123.902344 196.628906 C 124.003906 196.878906 124.058594 197.136719 124.058594 197.40625 L 124.058594 198.136719 C 124.058594 198.40625 124.003906 198.664062 123.902344 198.910156 C 123.800781 199.160156 123.652344 199.378906 123.460938 199.570312 C 123.273438 199.757812 123.054688 199.90625 122.804688 200.007812 C 122.554688 200.113281 122.296875 200.164062 122.027344 200.164062 L 103.691406 200.164062 C 103.421875 200.164062 103.164062 200.113281 102.914062 200.007812 C 102.664062 199.90625 102.445312 199.757812 102.253906 199.570312 C 102.066406 199.378906 101.917969 199.160156 101.816406 198.910156 C 101.710938 198.664062 101.660156 198.40625 101.660156 198.136719 L 101.660156 197.40625 C 101.660156 197.136719 101.710938 196.878906 101.816406 196.628906 C 101.917969 196.382812 102.066406 196.164062 102.253906 195.972656 C 102.445312 195.78125 102.664062 195.636719 102.914062 195.53125 C 103.164062 195.429688 103.421875 195.378906 103.691406 195.378906 Z M 103.691406 195.378906 " fill-opacity="1" fill-rule="nonzero"/><path fill="#e6e6e6" d="M 92.316406 204.949219 L 133.402344 204.949219 C 133.671875 204.949219 133.929688 205 134.179688 205.105469 C 134.425781 205.207031 134.648438 205.351562 134.835938 205.542969 C 135.027344 205.734375 135.175781 205.953125 135.277344 206.203125 C 135.378906 206.449219 135.433594 206.707031 135.433594 206.976562 L 135.433594 207.707031 C 135.433594 207.976562 135.378906 208.234375 135.277344 208.484375 C 135.175781 208.730469 135.027344 208.949219 134.835938 209.140625 C 134.648438 209.332031 134.425781 209.476562 134.179688 209.582031 C 133.929688 209.683594 133.671875 209.734375 133.402344 209.734375 L 92.316406 209.734375 C 92.046875 209.734375 91.789062 209.683594 91.539062 209.582031 C 91.292969 209.476562 91.070312 209.332031 90.882812 209.140625 C 90.691406 208.949219 90.542969 208.730469 90.441406 208.484375 C 90.339844 208.234375 90.289062 207.976562 90.289062 207.707031 L 90.289062 206.976562 C 90.289062 206.707031 90.339844 206.449219 90.441406 206.203125 C 90.542969 205.953125 90.691406 205.734375 90.882812 205.542969 C 91.070312 205.351562 91.292969 205.207031 91.539062 205.105469 C 91.789062 205 92.046875 204.949219 92.316406 204.949219 Z M 92.316406 204.949219 " fill-opacity="1" fill-rule="nonzero"/><path fill="#e6e6e6" d="M 92.316406 214.519531 L 133.402344 214.519531 C 133.671875 214.519531 133.929688 214.574219 134.179688 214.675781 C 134.425781 214.777344 134.648438 214.925781 134.835938 215.113281 C 135.027344 215.304688 135.175781 215.523438 135.277344 215.773438 C 135.378906 216.019531 135.433594 216.28125 135.433594 216.550781 L 135.433594 217.277344 C 135.433594 217.546875 135.378906 217.804688 135.277344 218.054688 C 135.175781 218.304688 135.027344 218.523438 134.835938 218.710938 C 134.648438 218.902344 134.425781 219.050781 134.179688 219.152344 C 133.929688 219.253906 133.671875 219.304688 133.402344 219.304688 L 92.316406 219.304688 C 92.046875 219.304688 91.789062 219.253906 91.539062 219.152344 C 91.292969 219.050781 91.070312 218.902344 90.882812 218.710938 C 90.691406 218.523438 90.542969 218.304688 90.441406 218.054688 C 90.339844 217.804688 90.289062 217.546875 90.289062 217.277344 L 90.289062 216.550781 C 90.289062 216.28125 90.339844 216.019531 90.441406 215.773438 C 90.542969 215.523438 90.691406 215.304688 90.882812 215.113281 C 91.070312 214.925781 91.292969 214.777344 91.539062 214.675781 C 91.789062 214.574219 92.046875 214.519531 92.316406 214.519531 Z M 92.316406 214.519531 " fill-opacity="1" fill-rule="nonzero"/><path fill="#e6e6e6" d="M 211.015625 218.132812 C 210.667969 218.132812 210.324219 218.097656 209.980469 218.03125 C 209.640625 217.960938 209.308594 217.863281 208.988281 217.730469 C 208.667969 217.597656 208.363281 217.433594 208.074219 217.238281 C 207.785156 217.046875 207.519531 216.828125 207.273438 216.582031 C 207.027344 216.335938 206.808594 216.070312 206.613281 215.78125 C 206.421875 215.492188 206.257812 215.1875 206.125 214.867188 C 205.992188 214.546875 205.890625 214.214844 205.824219 213.875 C 205.757812 213.535156 205.722656 213.191406 205.722656 212.84375 C 205.722656 212.496094 205.757812 212.152344 205.824219 211.8125 C 205.890625 211.472656 205.992188 211.140625 206.125 210.820312 C 206.257812 210.5 206.421875 210.195312 206.613281 209.90625 C 206.808594 209.617188 207.027344 209.351562 207.273438 209.105469 C 207.519531 208.859375 207.785156 208.640625 208.074219 208.445312 C 208.363281 208.253906 208.667969 208.089844 208.988281 207.957031 C 209.308594 207.824219 209.640625 207.726562 209.980469 207.65625 C 210.324219 207.589844 210.667969 207.554688 211.015625 207.554688 C 211.363281 207.554688 211.707031 207.589844 212.046875 207.65625 C 212.386719 207.726562 212.71875 207.824219 213.039062 207.957031 C 213.359375 208.089844 213.664062 208.253906 213.953125 208.445312 C 214.242188 208.640625 214.511719 208.859375 214.753906 209.105469 C 215 209.351562 215.222656 209.617188 215.414062 209.90625 C 215.605469 210.195312 215.769531 210.5 215.902344 210.820312 C 216.035156 211.140625 216.136719 211.472656 216.203125 211.8125 C 216.273438 212.152344 216.304688 212.496094 216.304688 212.84375 C 216.304688 213.191406 216.273438 213.535156 216.203125 213.875 C 216.136719 214.214844 216.035156 214.546875 215.902344 214.867188 C 215.769531 215.1875 215.605469 215.492188 215.414062 215.78125 C 215.222656 216.070312 215 216.335938 214.753906 216.582031 C 214.511719 216.828125 214.242188 217.046875 213.953125 217.238281 C 213.664062 217.433594 213.359375 217.597656 213.039062 217.730469 C 212.71875 217.863281 212.386719 217.960938 212.046875 218.03125 C 211.707031 218.097656 211.363281 218.132812 211.015625 218.132812 Z M 211.015625 218.132812 " fill-opacity="1" fill-rule="nonzero"/><path fill="#ffffff" d="M 212.859375 213.949219 L 211.753906 212.84375 L 212.859375 211.738281 C 212.960938 211.636719 213.011719 211.511719 213.011719 211.367188 C 213.011719 211.222656 212.960938 211.101562 212.859375 211 C 212.757812 210.898438 212.632812 210.847656 212.492188 210.847656 C 212.347656 210.847656 212.222656 210.898438 212.121094 211 L 211.015625 212.105469 L 209.90625 211 C 209.804688 210.898438 209.683594 210.847656 209.539062 210.847656 C 209.394531 210.847656 209.269531 210.898438 209.167969 211 C 209.066406 211.101562 209.015625 211.222656 209.015625 211.367188 C 209.015625 211.511719 209.066406 211.636719 209.167969 211.738281 L 210.277344 212.84375 L 209.167969 213.949219 C 209.066406 214.050781 209.015625 214.175781 209.015625 214.320312 C 209.015625 214.464844 209.066406 214.585938 209.167969 214.6875 C 209.269531 214.789062 209.394531 214.839844 209.539062 214.839844 C 209.683594 214.839844 209.804688 214.789062 209.90625 214.6875 L 211.015625 213.582031 L 212.121094 214.6875 C 212.222656 214.789062 212.347656 214.839844 212.492188 214.839844 C 212.632812 214.839844 212.757812 214.789062 212.859375 214.6875 C 212.960938 214.585938 213.011719 214.464844 213.011719 214.320312 C 213.011719 214.175781 212.960938 214.050781 212.859375 213.949219 Z M 212.859375 213.949219 " fill-opacity="1" fill-rule="nonzero"/><path fill="#6c63ff" d="M 198.488281 145.167969 C 198.488281 145.859375 198.421875 146.542969 198.289062 147.21875 C 198.152344 147.898438 197.953125 148.554688 197.6875 149.195312 C 197.425781 149.832031 197.101562 150.4375 196.714844 151.011719 C 196.332031 151.589844 195.894531 152.121094 195.40625 152.609375 C 194.917969 153.097656 194.386719 153.53125 193.808594 153.917969 C 193.234375 154.300781 192.628906 154.625 191.988281 154.890625 C 191.351562 155.152344 190.691406 155.351562 190.015625 155.488281 C 189.335938 155.621094 188.652344 155.691406 187.960938 155.691406 C 187.269531 155.691406 186.582031 155.621094 185.90625 155.488281 C 185.226562 155.351562 184.570312 155.152344 183.929688 154.890625 C 183.292969 154.625 182.683594 154.300781 182.109375 153.917969 C 181.535156 153.53125 181.003906 153.097656 180.515625 152.609375 C 180.023438 152.121094 179.589844 151.589844 179.203125 151.011719 C 178.820312 150.4375 178.496094 149.832031 178.230469 149.195312 C 177.964844 148.554688 177.765625 147.898438 177.632812 147.21875 C 177.496094 146.542969 177.429688 145.859375 177.429688 145.167969 C 177.429688 144.476562 177.496094 143.792969 177.632812 143.113281 C 177.765625 142.4375 177.964844 141.777344 178.230469 141.140625 C 178.496094 140.503906 178.820312 139.894531 179.203125 139.320312 C 179.589844 138.746094 180.023438 138.214844 180.515625 137.726562 C 181.003906 137.238281 181.535156 136.800781 182.109375 136.417969 C 182.683594 136.035156 183.292969 135.710938 183.929688 135.445312 C 184.570312 135.179688 185.226562 134.980469 185.90625 134.847656 C 186.582031 134.710938 187.269531 134.644531 187.960938 134.644531 C 188.652344 134.644531 189.335938 134.710938 190.015625 134.847656 C 190.691406 134.980469 191.351562 135.179688 191.988281 135.445312 C 192.628906 135.710938 193.234375 136.035156 193.808594 136.417969 C 194.386719 136.800781 194.917969 137.238281 195.40625 137.726562 C 195.894531 138.214844 196.332031 138.746094 196.714844 139.320312 C 197.101562 139.894531 197.425781 140.503906 197.6875 141.140625 C 197.953125 141.777344 198.152344 142.4375 198.289062 143.113281 C 198.421875 143.792969 198.488281 144.476562 198.488281 145.167969 Z M 198.488281 145.167969 " fill-opacity="1" fill-rule="nonzero"/><path fill="#ffffff" d="M 186.523438 150.644531 C 186.132812 150.644531 185.820312 150.488281 185.585938 150.175781 L 182.714844 146.347656 C 182.621094 146.222656 182.554688 146.085938 182.515625 145.9375 C 182.476562 145.785156 182.46875 145.632812 182.492188 145.480469 C 182.511719 145.328125 182.5625 145.183594 182.644531 145.050781 C 182.722656 144.914062 182.824219 144.800781 182.949219 144.710938 C 183.074219 144.617188 183.210938 144.550781 183.359375 144.511719 C 183.511719 144.472656 183.664062 144.464844 183.816406 144.488281 C 183.96875 144.507812 184.113281 144.558594 184.246094 144.640625 C 184.382812 144.71875 184.496094 144.820312 184.589844 144.945312 L 186.46875 147.449219 L 191.292969 140.210938 C 191.378906 140.082031 191.488281 139.972656 191.617188 139.886719 C 191.746094 139.800781 191.886719 139.742188 192.039062 139.710938 C 192.191406 139.679688 192.34375 139.679688 192.496094 139.710938 C 192.648438 139.742188 192.792969 139.796875 192.921875 139.886719 C 193.050781 139.972656 193.160156 140.078125 193.246094 140.207031 C 193.332031 140.335938 193.390625 140.476562 193.421875 140.628906 C 193.449219 140.785156 193.449219 140.9375 193.417969 141.089844 C 193.390625 141.242188 193.332031 141.382812 193.242188 141.511719 L 187.5 150.121094 C 187.273438 150.457031 186.960938 150.632812 186.554688 150.644531 C 186.546875 150.644531 186.535156 150.644531 186.523438 150.644531 Z M 186.523438 150.644531 " fill-opacity="1" fill-rule="nonzero"/><path fill="#3f3d56" d="M 174.757812 164.152344 L 201.625 164.152344 C 201.894531 164.152344 202.15625 164.203125 202.402344 164.304688 C 202.652344 164.410156 202.871094 164.554688 203.0625 164.746094 C 203.253906 164.933594 203.398438 165.15625 203.5 165.402344 C 203.605469 165.652344 203.65625 165.910156 203.65625 166.179688 L 203.65625 168.730469 C 203.65625 169 203.605469 169.257812 203.5 169.507812 C 203.398438 169.757812 203.253906 169.976562 203.0625 170.164062 C 202.871094 170.355469 202.652344 170.503906 202.402344 170.605469 C 202.15625 170.707031 201.894531 170.757812 201.625 170.757812 L 174.757812 170.757812 C 174.488281 170.757812 174.230469 170.707031 173.980469 170.605469 C 173.734375 170.503906 173.515625 170.355469 173.324219 170.164062 C 173.132812 169.976562 172.988281 169.757812 172.882812 169.507812 C 172.78125 169.257812 172.730469 169 172.730469 168.730469 L 172.730469 166.179688 C 172.730469 165.910156 172.78125 165.652344 172.882812 165.402344 C 172.988281 165.15625 173.132812 164.933594 173.324219 164.746094 C 173.515625 164.554688 173.734375 164.410156 173.980469 164.304688 C 174.230469 164.203125 174.488281 164.152344 174.757812 164.152344 Z M 174.757812 164.152344 " fill-opacity="1" fill-rule="nonzero"/><path fill="#3f3d56" d="M 159.050781 177.367188 L 217.332031 177.367188 C 217.601562 177.367188 217.863281 177.417969 218.109375 177.523438 C 218.359375 177.625 218.578125 177.773438 218.769531 177.960938 C 218.957031 178.152344 219.105469 178.371094 219.207031 178.621094 C 219.3125 178.867188 219.363281 179.128906 219.363281 179.398438 L 219.363281 181.949219 C 219.363281 182.21875 219.3125 182.476562 219.207031 182.726562 C 219.105469 182.972656 218.957031 183.191406 218.769531 183.382812 C 218.578125 183.574219 218.359375 183.71875 218.109375 183.824219 C 217.863281 183.925781 217.601562 183.976562 217.332031 183.976562 L 159.050781 183.976562 C 158.78125 183.976562 158.523438 183.925781 158.273438 183.824219 C 158.027344 183.71875 157.808594 183.574219 157.617188 183.382812 C 157.425781 183.191406 157.28125 182.972656 157.175781 182.726562 C 157.074219 182.476562 157.023438 182.21875 157.023438 181.949219 L 157.023438 179.398438 C 157.023438 179.128906 157.074219 178.867188 157.175781 178.621094 C 157.28125 178.371094 157.425781 178.152344 157.617188 177.960938 C 157.808594 177.773438 158.027344 177.625 158.273438 177.523438 C 158.523438 177.417969 158.78125 177.367188 159.050781 177.367188 Z M 159.050781 177.367188 " fill-opacity="1" fill-rule="nonzero"/><path fill="#3f3d56" d="M 159.050781 190.585938 L 217.332031 190.585938 C 217.601562 190.585938 217.863281 190.636719 218.109375 190.738281 C 218.359375 190.84375 218.578125 190.988281 218.769531 191.179688 C 218.957031 191.371094 219.105469 191.589844 219.207031 191.835938 C 219.3125 192.085938 219.363281 192.34375 219.363281 192.613281 L 219.363281 195.164062 C 219.363281 195.433594 219.3125 195.695312 219.207031 195.941406 C 219.105469 196.191406 218.957031 196.410156 218.769531 196.601562 C 218.578125 196.789062 218.359375 196.9375 218.109375 197.039062 C 217.863281 197.144531 217.601562 197.195312 217.332031 197.195312 L 159.050781 197.195312 C 158.78125 197.195312 158.523438 197.144531 158.273438 197.039062 C 158.027344 196.9375 157.808594 196.789062 157.617188 196.601562 C 157.425781 196.410156 157.28125 196.191406 157.175781 195.941406 C 157.074219 195.695312 157.023438 195.433594 157.023438 195.164062 L 157.023438 192.613281 C 157.023438 192.34375 157.074219 192.085938 157.175781 191.835938 C 157.28125 191.589844 157.425781 191.371094 157.617188 191.179688 C 157.808594 190.988281 158.027344 190.84375 158.273438 190.738281 C 158.523438 190.636719 158.78125 190.585938 159.050781 190.585938 Z M 159.050781 190.585938 " fill-opacity="1" fill-rule="nonzero"/><path fill="#ffb6b6" d="M 237.789062 277.375 L 232.683594 277.375 L 230.253906 257.691406 L 237.792969 257.691406 Z M 237.789062 277.375 " fill-opacity="1" fill-rule="nonzero"/><path fill="#2f2e41" d="M 237.652344 275.707031 L 232.203125 273.492188 L 232.046875 273.425781 L 229.035156 275.707031 C 228.613281 275.707031 228.199219 275.746094 227.785156 275.828125 C 227.371094 275.914062 226.972656 276.035156 226.582031 276.195312 C 226.195312 276.355469 225.824219 276.554688 225.472656 276.785156 C 225.125 277.019531 224.800781 277.285156 224.503906 277.582031 C 224.207031 277.878906 223.941406 278.203125 223.707031 278.554688 C 223.472656 278.902344 223.273438 279.273438 223.113281 279.660156 C 222.953125 280.050781 222.832031 280.449219 222.75 280.863281 C 222.667969 281.273438 222.625 281.691406 222.625 282.109375 L 222.625 282.320312 L 239.089844 282.320312 L 239.089844 275.707031 Z M 237.652344 275.707031 " fill-opacity="1" fill-rule="nonzero"/><path fill="#ffb6b6" d="M 280.953125 273.097656 L 276.074219 274.613281 L 267.910156 256.539062 L 275.105469 254.304688 Z M 280.953125 273.097656 " fill-opacity="1" fill-rule="nonzero"/><path fill="#2f2e41" d="M 280.328125 271.546875 L 274.460938 271.046875 L 274.292969 271.035156 L 272.097656 274.105469 C 271.695312 274.230469 271.308594 274.390625 270.9375 274.59375 C 270.570312 274.792969 270.222656 275.027344 269.898438 275.296875 C 269.574219 275.566406 269.28125 275.863281 269.015625 276.191406 C 268.75 276.519531 268.523438 276.867188 268.324219 277.238281 C 268.128906 277.613281 267.972656 278 267.851562 278.402344 C 267.734375 278.804688 267.65625 279.214844 267.617188 279.636719 C 267.578125 280.054688 267.582031 280.472656 267.625 280.890625 C 267.667969 281.308594 267.753906 281.71875 267.878906 282.121094 L 267.941406 282.320312 L 283.664062 277.4375 L 281.699219 271.121094 Z M 280.328125 271.546875 " fill-opacity="1" fill-rule="nonzero"/><path fill="#2f2e41" d="M 260.519531 176.546875 L 262.597656 182.449219 L 262.597656 185.640625 L 262.308594 189.148438 L 265.523438 200.851562 L 268.042969 226.65625 L 280.734375 264.855469 L 271.003906 267.65625 L 246.160156 205.242188 L 238.3125 268.371094 L 229.414062 268.132812 C 229.414062 268.132812 227.890625 264.453125 228.292969 262.453125 C 228.691406 260.453125 228.691406 262.855469 228.691406 260.453125 C 228.691406 258.054688 226.957031 259.097656 228.226562 257.175781 C 229.492188 255.253906 229.335938 253.570312 229.414062 252.414062 C 229.492188 251.253906 228.691406 204.449219 228.691406 202.851562 C 228.691406 201.25 228.414062 201.601562 228.554688 200.027344 C 228.691406 198.449219 230.453125 199.097656 229.972656 196.375 C 229.492188 193.648438 229.335938 194.125 229.414062 192.089844 C 229.492188 190.050781 230.597656 178.097656 230.597656 178.097656 Z M 260.519531 176.546875 " fill-opacity="1" fill-rule="nonzero"/><path fill="#ffb8b8" d="M 227.214844 178.464844 L 245.054688 161.277344 L 250 147.285156 L 242.707031 144.117188 C 238.960938 147.703125 234.910156 158.871094 234.910156 158.871094 L 222.636719 174.476562 C 222.539062 174.511719 222.445312 174.546875 222.351562 174.585938 C 222.074219 174.707031 221.816406 174.863281 221.582031 175.050781 C 221.34375 175.238281 221.136719 175.453125 220.953125 175.695312 C 220.773438 175.9375 220.625 176.199219 220.511719 176.476562 C 220.398438 176.757812 220.324219 177.046875 220.285156 177.347656 C 220.246094 177.644531 220.246094 177.945312 220.28125 178.246094 C 220.320312 178.542969 220.398438 178.835938 220.511719 179.113281 C 220.625 179.394531 220.769531 179.65625 220.949219 179.898438 C 221.132812 180.140625 221.339844 180.355469 221.578125 180.542969 C 221.8125 180.730469 222.070312 180.886719 222.34375 181.007812 C 222.621094 181.128906 222.910156 181.214844 223.207031 181.265625 C 223.503906 181.3125 223.804688 181.320312 224.105469 181.292969 C 224.40625 181.265625 224.699219 181.195312 224.980469 181.09375 C 225.265625 180.988281 225.53125 180.851562 225.777344 180.675781 C 226.027344 180.503906 226.246094 180.300781 226.445312 180.074219 C 226.640625 179.84375 226.800781 179.589844 226.933594 179.320312 C 227.0625 179.046875 227.160156 178.761719 227.214844 178.464844 Z M 227.214844 178.464844 " fill-opacity="1" fill-rule="nonzero"/><path fill="#6c63ff" d="M 240.652344 145.679688 L 249.90625 148.613281 L 249.941406 148.609375 C 253.382812 148.03125 256.238281 142.410156 258.03125 137.800781 C 258.175781 137.421875 258.285156 137.035156 258.359375 136.636719 C 258.429688 136.238281 258.464844 135.839844 258.464844 135.433594 C 258.460938 135.03125 258.421875 134.628906 258.34375 134.234375 C 258.265625 133.835938 258.148438 133.449219 258 133.074219 C 257.847656 132.699219 257.664062 132.34375 257.445312 132.003906 C 257.226562 131.664062 256.980469 131.34375 256.703125 131.050781 C 256.421875 130.757812 256.121094 130.492188 255.792969 130.257812 C 255.464844 130.019531 255.117188 129.816406 254.75 129.644531 C 254.203125 129.394531 253.632812 129.222656 253.035156 129.132812 C 252.441406 129.039062 251.84375 129.03125 251.246094 129.105469 C 250.652344 129.183594 250.074219 129.339844 249.519531 129.574219 C 248.96875 129.8125 248.457031 130.117188 247.988281 130.496094 L 243.238281 134.375 Z M 240.652344 145.679688 " fill-opacity="1" fill-rule="nonzero"/><path fill="#6c63ff" d="M 262.089844 184.128906 L 262.144531 184.058594 C 265.03125 180.230469 261.085938 170.757812 260.488281 169.386719 L 263.171875 168.589844 L 262.703125 163.484375 L 262.476562 161.207031 L 264.566406 159.226562 L 264.570312 159.175781 L 266.007812 148.972656 L 267.882812 142.21875 C 268.238281 140.941406 268.417969 139.640625 268.425781 138.316406 C 268.433594 136.992188 268.265625 135.6875 267.925781 134.410156 C 267.589844 133.128906 267.085938 131.914062 266.421875 130.765625 C 265.761719 129.621094 264.960938 128.578125 264.019531 127.644531 L 260.179688 123.835938 L 255.582031 116.644531 L 247.871094 116.445312 L 245.097656 121.367188 C 244.460938 121.496094 243.835938 121.683594 243.226562 121.921875 C 242.621094 122.160156 242.039062 122.449219 241.480469 122.789062 C 240.925781 123.128906 240.402344 123.515625 239.910156 123.949219 C 239.421875 124.378906 238.972656 124.851562 238.566406 125.359375 C 238.15625 125.871094 237.796875 126.410156 237.484375 126.984375 C 237.171875 127.554688 236.910156 128.148438 236.699219 128.769531 C 236.488281 129.386719 236.335938 130.015625 236.234375 130.664062 C 236.136719 131.308594 236.09375 131.957031 236.109375 132.609375 L 236.367188 145.710938 L 233.601562 161.945312 L 233.523438 164.894531 L 230.808594 167.757812 L 231.3125 170.652344 L 229.28125 171.460938 L 228.285156 175.574219 C 227.90625 176.046875 225.398438 179.214844 225.375 180.097656 C 225.375 180.230469 225.46875 180.359375 225.675781 180.507812 C 227.296875 181.667969 236.363281 184.179688 240.445312 182.671875 C 244.792969 181.0625 261.832031 184.082031 262.003906 184.113281 Z M 262.089844 184.128906 " fill-opacity="1" fill-rule="nonzero"/><path fill="#ffb8b8" d="M 243.191406 142.59375 L 239.253906 134.746094 C 233.535156 135.136719 222.1875 141.742188 222.1875 141.742188 L 200.722656 146.289062 C 200.296875 146.125 199.855469 146.039062 199.398438 146.03125 C 198.941406 146.023438 198.5 146.09375 198.066406 146.242188 C 197.636719 146.390625 197.242188 146.609375 196.886719 146.894531 C 196.535156 147.183594 196.238281 147.523438 196.003906 147.914062 C 195.769531 148.304688 195.609375 148.722656 195.523438 149.171875 C 195.4375 149.617188 195.429688 150.066406 195.5 150.519531 C 195.570312 150.96875 195.71875 151.390625 195.941406 151.789062 C 196.164062 152.1875 196.445312 152.539062 196.789062 152.835938 C 197.136719 153.136719 197.519531 153.367188 197.949219 153.527344 C 198.375 153.691406 198.816406 153.773438 199.269531 153.78125 C 199.726562 153.789062 200.171875 153.71875 200.601562 153.570312 C 201.03125 153.417969 201.425781 153.199219 201.777344 152.914062 L 229.085938 150.957031 Z M 243.191406 142.59375 " fill-opacity="1" fill-rule="nonzero"/><path fill="#6c63ff" d="M 241.601562 143.882812 L 251.886719 136.242188 L 253.699219 129.71875 C 253.875 129.078125 253.960938 128.421875 253.953125 127.757812 C 253.945312 127.09375 253.847656 126.445312 253.65625 125.804688 C 253.46875 125.167969 253.195312 124.570312 252.835938 124.011719 C 252.480469 123.449219 252.050781 122.949219 251.554688 122.507812 C 251.21875 122.214844 250.859375 121.953125 250.472656 121.726562 C 250.085938 121.5 249.683594 121.3125 249.265625 121.160156 C 248.84375 121.011719 248.414062 120.902344 247.972656 120.832031 C 247.53125 120.761719 247.085938 120.734375 246.640625 120.75 C 246.191406 120.765625 245.75 120.820312 245.316406 120.917969 C 244.878906 121.015625 244.457031 121.152344 244.046875 121.328125 C 243.636719 121.507812 243.246094 121.722656 242.875 121.972656 C 242.503906 122.222656 242.164062 122.503906 241.847656 122.820312 C 237.976562 126.679688 233.558594 132.066406 234.507812 135.800781 L 234.519531 135.839844 Z M 241.601562 143.882812 " fill-opacity="1" fill-rule="nonzero"/><path fill="#ffb8b8" d="M 261.128906 105.519531 C 261.128906 106.121094 261.070312 106.714844 260.953125 107.304688 C 260.835938 107.894531 260.660156 108.464844 260.429688 109.019531 C 260.203125 109.574219 259.917969 110.101562 259.585938 110.597656 C 259.253906 111.097656 258.871094 111.558594 258.449219 111.984375 C 258.023438 112.410156 257.5625 112.789062 257.0625 113.121094 C 256.5625 113.453125 256.035156 113.734375 255.480469 113.964844 C 254.925781 114.195312 254.355469 114.367188 253.765625 114.484375 C 253.175781 114.601562 252.582031 114.660156 251.980469 114.660156 C 251.378906 114.660156 250.785156 114.601562 250.195312 114.484375 C 249.605469 114.367188 249.035156 114.195312 248.480469 113.964844 C 247.925781 113.734375 247.398438 113.453125 246.898438 113.121094 C 246.398438 112.789062 245.9375 112.410156 245.511719 111.984375 C 245.089844 111.558594 244.707031 111.097656 244.375 110.597656 C 244.042969 110.101562 243.761719 109.574219 243.53125 109.019531 C 243.300781 108.464844 243.125 107.894531 243.007812 107.304688 C 242.890625 106.714844 242.832031 106.121094 242.832031 105.519531 C 242.832031 104.921875 242.890625 104.328125 243.007812 103.738281 C 243.125 103.148438 243.300781 102.578125 243.53125 102.023438 C 243.761719 101.46875 244.042969 100.941406 244.375 100.441406 C 244.707031 99.945312 245.089844 99.484375 245.511719 99.058594 C 245.9375 98.632812 246.398438 98.253906 246.898438 97.921875 C 247.398438 97.589844 247.925781 97.304688 248.480469 97.078125 C 249.035156 96.847656 249.605469 96.671875 250.195312 96.554688 C 250.785156 96.441406 251.378906 96.382812 251.980469 96.382812 C 252.582031 96.382812 253.175781 96.441406 253.765625 96.554688 C 254.355469 96.671875 254.925781 96.847656 255.480469 97.078125 C 256.035156 97.304688 256.5625 97.589844 257.0625 97.921875 C 257.5625 98.253906 258.023438 98.632812 258.449219 99.058594 C 258.871094 99.484375 259.253906 99.945312 259.585938 100.441406 C 259.917969 100.941406 260.203125 101.46875 260.429688 102.023438 C 260.660156 102.578125 260.835938 103.148438 260.953125 103.738281 C 261.070312 104.328125 261.128906 104.921875 261.128906 105.519531 Z M 261.128906 105.519531 " fill-opacity="1" fill-rule="nonzero"/><path fill="#2f2e41" d="M 258 115.082031 C 256.46875 114.363281 254.683594 114.796875 252.992188 114.863281 C 251.304688 114.929688 249.257812 114.296875 248.898438 112.644531 C 248.636719 111.425781 249.433594 110.085938 248.929688 108.941406 C 248.382812 107.695312 246.738281 107.519531 245.421875 107.167969 C 244.597656 106.929688 243.828125 106.570312 243.117188 106.085938 C 242.40625 105.601562 241.789062 105.019531 241.265625 104.339844 C 240.742188 103.660156 240.335938 102.917969 240.046875 102.105469 C 239.757812 101.296875 239.605469 100.464844 239.585938 99.605469 C 239.492188 100.285156 240.660156 100.511719 241.042969 99.941406 C 241.425781 99.367188 241.164062 98.578125 240.738281 98.035156 C 240.316406 97.492188 239.746094 97.058594 239.429688 96.449219 C 239.109375 95.839844 239.171875 94.9375 239.792969 94.644531 C 240.117188 95.292969 240.558594 95.847656 241.117188 96.3125 C 241.679688 96.773438 242.3125 97.097656 243.011719 97.289062 C 242.730469 96.429688 243.128906 95.464844 243.773438 94.828125 C 244.464844 94.226562 245.238281 93.769531 246.101562 93.457031 C 248.207031 92.546875 250.671875 91.636719 252.710938 92.691406 C 253.246094 92.972656 253.691406 93.355469 254.050781 93.839844 C 254.410156 94.324219 254.644531 94.863281 254.757812 95.457031 C 258.53125 95.773438 262.410156 99.863281 262.195312 103.644531 C 261.964844 107.714844 261.796875 108.042969 258.40625 114.894531 " fill-opacity="1" fill-rule="nonzero"/><path fill="#f0f0f0" d="M 303.820312 282.554688 L 290.535156 282.554688 L 290.476562 282.449219 C 290.308594 282.140625 290.144531 281.816406 289.988281 281.480469 C 288.621094 278.554688 288.042969 275.207031 287.53125 272.25 L 287.148438 270.023438 C 287.101562 269.75 287.132812 269.484375 287.25 269.226562 C 287.363281 268.972656 287.539062 268.769531 287.777344 268.621094 C 288.015625 268.476562 288.273438 268.40625 288.554688 268.417969 C 288.835938 268.425781 289.085938 268.515625 289.3125 268.679688 C 291.332031 270.148438 293.351562 271.613281 295.375 273.078125 C 296.136719 273.636719 297.011719 274.28125 297.847656 274.976562 C 297.929688 274.582031 298.015625 274.191406 298.097656 273.804688 C 298.160156 273.527344 298.289062 273.296875 298.492188 273.101562 C 298.695312 272.90625 298.933594 272.789062 299.210938 272.738281 C 299.484375 272.691406 299.75 272.726562 300.007812 272.839844 C 300.261719 272.953125 300.464844 273.128906 300.613281 273.367188 L 302.167969 275.863281 C 303.300781 277.6875 304.300781 279.480469 304.097656 281.417969 C 304.097656 281.441406 304.097656 281.464844 304.09375 281.488281 C 304.050781 281.808594 303.976562 282.117188 303.867188 282.421875 Z M 303.820312 282.554688 " fill-opacity="1" fill-rule="nonzero"/><g clip-path="url(#862da4d6db)"><path fill="#cacaca" d="M 317.152344 282.839844 L 190.910156 282.964844 C 190.78125 282.964844 190.667969 282.917969 190.574219 282.824219 C 190.480469 282.730469 190.433594 282.617188 190.433594 282.488281 C 190.433594 282.355469 190.480469 282.242188 190.574219 282.152344 C 190.667969 282.058594 190.78125 282.011719 190.910156 282.011719 L 317.152344 281.886719 C 317.285156 281.890625 317.394531 281.9375 317.488281 282.027344 C 317.582031 282.121094 317.625 282.234375 317.625 282.363281 C 317.625 282.496094 317.582031 282.605469 317.488281 282.699219 C 317.394531 282.792969 317.285156 282.839844 317.152344 282.839844 Z M 317.152344 282.839844 " fill-opacity="1" fill-rule="nonzero"/></g></svg>