<svg xmlns="http://www.w3.org/2000/svg" xmlns:xlink="http://www.w3.org/1999/xlink" width="500" zoomAndPan="magnify" viewBox="0 0 375 374.999991" height="500" preserveAspectRatio="xMidYMid meet" version="1.0"><defs><clipPath id="39359713a8"><path d="M 176 292 L 310 292 L 310 293.179688 L 176 293.179688 Z M 176 292 " clip-rule="nonzero"/></clipPath><clipPath id="0bfc8daa15"><path d="M 64.753906 91 L 210 91 L 210 93 L 64.753906 93 Z M 64.753906 91 " clip-rule="nonzero"/></clipPath><clipPath id="bb558a065d"><path d="M 71 81.679688 L 79 81.679688 L 79 89 L 71 89 Z M 71 81.679688 " clip-rule="nonzero"/></clipPath><clipPath id="12d868ae25"><path d="M 83 81.679688 L 91 81.679688 L 91 89 L 83 89 Z M 83 81.679688 " clip-rule="nonzero"/></clipPath><clipPath id="4764c9fa19"><path d="M 94 81.679688 L 102 81.679688 L 102 89 L 94 89 Z M 94 81.679688 " clip-rule="nonzero"/></clipPath></defs><rect x="-37.5" width="450" fill="#ffffff" y="-37.499999" height="449.999989" fill-opacity="1"/><rect x="-37.5" width="450" fill="#edf5fa" y="-37.499999" height="449.999989" fill-opacity="1"/><path fill="#e6e6e6" d="M 99.625 138.1875 L 80.039062 138.1875 C 79.515625 138.1875 79.011719 138.085938 78.53125 137.886719 C 78.046875 137.683594 77.621094 137.398438 77.25 137.027344 C 76.878906 136.660156 76.59375 136.230469 76.394531 135.746094 C 76.191406 135.265625 76.09375 134.761719 76.089844 134.238281 L 76.089844 115.910156 C 76.09375 115.386719 76.191406 114.882812 76.394531 114.398438 C 76.59375 113.914062 76.878906 113.488281 77.25 113.117188 C 77.621094 112.746094 78.046875 112.460938 78.53125 112.261719 C 79.011719 112.058594 79.515625 111.960938 80.039062 111.957031 L 99.625 111.957031 C 100.148438 111.960938 100.652344 112.058594 101.136719 112.261719 C 101.621094 112.460938 102.046875 112.746094 102.417969 113.117188 C 102.789062 113.488281 103.074219 113.914062 103.273438 114.398438 C 103.472656 114.882812 103.574219 115.386719 103.574219 115.910156 L 103.574219 134.238281 C 103.574219 134.761719 103.472656 135.265625 103.273438 135.746094 C 103.074219 136.230469 102.789062 136.660156 102.417969 137.027344 C 102.046875 137.398438 101.621094 137.683594 101.136719 137.886719 C 100.652344 138.085938 100.148438 138.1875 99.625 138.1875 Z M 99.625 138.1875 " fill-opacity="1" fill-rule="nonzero"/><path fill="#e6e6e6" d="M 146.851562 138.34375 L 127.265625 138.34375 C 126.742188 138.34375 126.242188 138.242188 125.757812 138.042969 C 125.273438 137.84375 124.847656 137.558594 124.476562 137.1875 C 124.105469 136.816406 123.820312 136.390625 123.621094 135.90625 C 123.417969 135.421875 123.320312 134.917969 123.320312 134.394531 L 123.320312 116.066406 C 123.320312 115.542969 123.417969 115.039062 123.621094 114.554688 C 123.820312 114.070312 124.105469 113.644531 124.476562 113.273438 C 124.847656 112.90625 125.273438 112.617188 125.757812 112.417969 C 126.242188 112.21875 126.742188 112.117188 127.265625 112.117188 L 146.851562 112.117188 C 147.375 112.117188 147.878906 112.21875 148.363281 112.417969 C 148.847656 112.617188 149.273438 112.90625 149.644531 113.273438 C 150.015625 113.644531 150.300781 114.070312 150.5 114.554688 C 150.699219 115.039062 150.800781 115.542969 150.800781 116.066406 L 150.800781 134.394531 C 150.800781 134.917969 150.699219 135.421875 150.5 135.90625 C 150.300781 136.390625 150.015625 136.816406 149.644531 137.1875 C 149.273438 137.558594 148.847656 137.84375 148.363281 138.042969 C 147.878906 138.242188 147.375 138.34375 146.851562 138.34375 Z M 146.851562 138.34375 " fill-opacity="1" fill-rule="nonzero"/><path fill="#e6e6e6" d="M 194.082031 138.503906 L 174.496094 138.503906 C 173.972656 138.503906 173.46875 138.402344 172.984375 138.203125 C 172.5 138 172.074219 137.714844 171.703125 137.34375 C 171.332031 136.976562 171.046875 136.546875 170.847656 136.0625 C 170.648438 135.582031 170.546875 135.078125 170.546875 134.554688 L 170.546875 116.222656 C 170.546875 115.699219 170.648438 115.195312 170.847656 114.714844 C 171.046875 114.230469 171.332031 113.804688 171.703125 113.433594 C 172.074219 113.0625 172.5 112.777344 172.984375 112.578125 C 173.46875 112.375 173.972656 112.273438 174.496094 112.273438 L 194.082031 112.273438 C 194.605469 112.273438 195.105469 112.375 195.589844 112.578125 C 196.074219 112.777344 196.5 113.0625 196.871094 113.433594 C 197.242188 113.804688 197.527344 114.230469 197.726562 114.714844 C 197.929688 115.195312 198.027344 115.699219 198.027344 116.222656 L 198.027344 134.554688 C 198.027344 135.078125 197.929688 135.582031 197.726562 136.0625 C 197.527344 136.546875 197.242188 136.976562 196.871094 137.34375 C 196.5 137.714844 196.074219 138 195.589844 138.203125 C 195.105469 138.402344 194.605469 138.503906 194.082031 138.503906 Z M 194.082031 138.503906 " fill-opacity="1" fill-rule="nonzero"/><path fill="#e6e6e6" d="M 99.625 179.269531 L 80.039062 179.269531 C 79.515625 179.269531 79.011719 179.167969 78.53125 178.964844 C 78.046875 178.765625 77.621094 178.480469 77.25 178.109375 C 76.878906 177.738281 76.59375 177.3125 76.394531 176.828125 C 76.191406 176.34375 76.09375 175.84375 76.089844 175.316406 L 76.089844 156.988281 C 76.09375 156.464844 76.191406 155.960938 76.394531 155.480469 C 76.59375 154.996094 76.878906 154.566406 77.25 154.199219 C 77.621094 153.828125 78.046875 153.542969 78.53125 153.339844 C 79.011719 153.140625 79.515625 153.039062 80.039062 153.039062 L 99.625 153.039062 C 100.148438 153.039062 100.652344 153.140625 101.136719 153.339844 C 101.621094 153.542969 102.046875 153.828125 102.417969 154.199219 C 102.789062 154.566406 103.074219 154.996094 103.273438 155.480469 C 103.472656 155.960938 103.574219 156.464844 103.574219 156.988281 L 103.574219 175.316406 C 103.574219 175.84375 103.472656 176.34375 103.273438 176.828125 C 103.074219 177.3125 102.789062 177.738281 102.417969 178.109375 C 102.046875 178.480469 101.621094 178.765625 101.136719 178.964844 C 100.652344 179.167969 100.148438 179.269531 99.625 179.269531 Z M 99.625 179.269531 " fill-opacity="1" fill-rule="nonzero"/><path fill="#e6e6e6" d="M 146.851562 179.425781 L 127.265625 179.425781 C 126.742188 179.425781 126.242188 179.324219 125.757812 179.125 C 125.273438 178.925781 124.847656 178.636719 124.476562 178.269531 C 124.105469 177.898438 123.820312 177.472656 123.621094 176.988281 C 123.417969 176.503906 123.320312 176 123.320312 175.476562 L 123.320312 157.148438 C 123.320312 156.625 123.417969 156.121094 123.621094 155.636719 C 123.820312 155.152344 124.105469 154.726562 124.476562 154.355469 C 124.847656 153.984375 125.273438 153.699219 125.757812 153.5 C 126.242188 153.300781 126.742188 153.199219 127.265625 153.199219 L 146.851562 153.199219 C 147.375 153.199219 147.878906 153.300781 148.363281 153.5 C 148.847656 153.699219 149.273438 153.984375 149.644531 154.355469 C 150.015625 154.726562 150.300781 155.152344 150.5 155.636719 C 150.699219 156.121094 150.800781 156.625 150.800781 157.148438 L 150.800781 175.476562 C 150.800781 176 150.699219 176.503906 150.5 176.988281 C 150.300781 177.472656 150.015625 177.898438 149.644531 178.269531 C 149.273438 178.636719 148.847656 178.925781 148.363281 179.125 C 147.878906 179.324219 147.375 179.425781 146.851562 179.425781 Z M 146.851562 179.425781 " fill-opacity="1" fill-rule="nonzero"/><path fill="#e6e6e6" d="M 194.082031 179.585938 L 174.496094 179.585938 C 173.972656 179.582031 173.46875 179.484375 172.984375 179.28125 C 172.5 179.082031 172.074219 178.796875 171.703125 178.425781 C 171.332031 178.054688 171.046875 177.628906 170.847656 177.144531 C 170.648438 176.660156 170.546875 176.15625 170.546875 175.632812 L 170.546875 157.304688 C 170.546875 156.78125 170.648438 156.277344 170.847656 155.792969 C 171.046875 155.3125 171.332031 154.882812 171.703125 154.515625 C 172.074219 154.144531 172.5 153.859375 172.984375 153.65625 C 173.46875 153.457031 173.972656 153.355469 174.496094 153.355469 L 194.082031 153.355469 C 194.605469 153.355469 195.105469 153.457031 195.589844 153.65625 C 196.074219 153.859375 196.5 154.144531 196.871094 154.515625 C 197.242188 154.882812 197.527344 155.3125 197.726562 155.792969 C 197.929688 156.277344 198.027344 156.78125 198.027344 157.304688 L 198.027344 175.632812 C 198.027344 176.15625 197.929688 176.660156 197.726562 177.144531 C 197.527344 177.628906 197.242188 178.054688 196.871094 178.425781 C 196.5 178.796875 196.074219 179.082031 195.589844 179.28125 C 195.105469 179.484375 194.605469 179.582031 194.082031 179.585938 Z M 194.082031 179.585938 " fill-opacity="1" fill-rule="nonzero"/><path fill="#e6e6e6" d="M 99.625 220.351562 L 80.039062 220.351562 C 79.515625 220.347656 79.011719 220.25 78.53125 220.046875 C 78.046875 219.847656 77.621094 219.5625 77.25 219.191406 C 76.878906 218.820312 76.59375 218.394531 76.394531 217.910156 C 76.191406 217.425781 76.09375 216.921875 76.089844 216.398438 L 76.089844 198.070312 C 76.09375 197.546875 76.191406 197.042969 76.394531 196.558594 C 76.59375 196.078125 76.878906 195.648438 77.25 195.277344 C 77.621094 194.910156 78.046875 194.625 78.53125 194.421875 C 79.011719 194.222656 79.515625 194.121094 80.039062 194.121094 L 99.625 194.121094 C 100.148438 194.121094 100.652344 194.222656 101.136719 194.421875 C 101.621094 194.625 102.046875 194.910156 102.417969 195.277344 C 102.789062 195.648438 103.074219 196.078125 103.273438 196.558594 C 103.472656 197.042969 103.574219 197.546875 103.574219 198.070312 L 103.574219 216.398438 C 103.574219 216.921875 103.472656 217.425781 103.273438 217.910156 C 103.074219 218.394531 102.789062 218.820312 102.417969 219.191406 C 102.046875 219.5625 101.621094 219.847656 101.136719 220.046875 C 100.652344 220.25 100.148438 220.347656 99.625 220.351562 Z M 99.625 220.351562 " fill-opacity="1" fill-rule="nonzero"/><path fill="#e6e6e6" d="M 146.851562 220.507812 L 127.265625 220.507812 C 126.742188 220.507812 126.242188 220.40625 125.757812 220.207031 C 125.273438 220.003906 124.847656 219.71875 124.476562 219.347656 C 124.105469 218.980469 123.820312 218.550781 123.621094 218.070312 C 123.417969 217.585938 123.320312 217.082031 123.320312 216.558594 L 123.320312 198.230469 C 123.320312 197.707031 123.417969 197.203125 123.621094 196.71875 C 123.820312 196.234375 124.105469 195.808594 124.476562 195.4375 C 124.847656 195.066406 125.273438 194.78125 125.757812 194.582031 C 126.242188 194.378906 126.742188 194.28125 127.265625 194.277344 L 146.851562 194.277344 C 147.375 194.28125 147.878906 194.378906 148.363281 194.582031 C 148.847656 194.78125 149.273438 195.066406 149.644531 195.4375 C 150.015625 195.808594 150.300781 196.234375 150.5 196.71875 C 150.699219 197.203125 150.800781 197.707031 150.800781 198.230469 L 150.800781 216.558594 C 150.800781 217.082031 150.699219 217.585938 150.5 218.070312 C 150.300781 218.550781 150.015625 218.980469 149.644531 219.347656 C 149.273438 219.71875 148.847656 220.003906 148.363281 220.207031 C 147.878906 220.40625 147.375 220.507812 146.851562 220.507812 Z M 146.851562 220.507812 " fill-opacity="1" fill-rule="nonzero"/><path fill="#e6e6e6" d="M 194.082031 220.664062 L 174.496094 220.664062 C 173.972656 220.664062 173.46875 220.5625 172.984375 220.363281 C 172.5 220.164062 172.074219 219.878906 171.703125 219.507812 C 171.332031 219.136719 171.046875 218.710938 170.847656 218.226562 C 170.648438 217.742188 170.546875 217.238281 170.546875 216.714844 L 170.546875 198.386719 C 170.546875 197.863281 170.648438 197.359375 170.847656 196.875 C 171.046875 196.390625 171.332031 195.964844 171.703125 195.59375 C 172.074219 195.226562 172.5 194.9375 172.984375 194.738281 C 173.46875 194.539062 173.972656 194.4375 174.496094 194.4375 L 194.082031 194.4375 C 194.605469 194.4375 195.105469 194.539062 195.589844 194.738281 C 196.074219 194.9375 196.5 195.226562 196.871094 195.59375 C 197.242188 195.964844 197.527344 196.390625 197.726562 196.875 C 197.929688 197.359375 198.027344 197.863281 198.027344 198.386719 L 198.027344 216.714844 C 198.027344 217.238281 197.929688 217.742188 197.726562 218.226562 C 197.527344 218.710938 197.242188 219.136719 196.871094 219.507812 C 196.5 219.878906 196.074219 220.164062 195.589844 220.363281 C 195.105469 220.5625 194.605469 220.664062 194.082031 220.664062 Z M 194.082031 220.664062 " fill-opacity="1" fill-rule="nonzero"/><path fill="#6c63ff" d="M 242.027344 251.46875 L 226.871094 263.878906 C 226.464844 264.210938 226.011719 264.453125 225.511719 264.601562 C 225.007812 264.753906 224.5 264.804688 223.976562 264.75 C 223.457031 264.699219 222.964844 264.550781 222.503906 264.304688 C 222.042969 264.054688 221.644531 263.730469 221.3125 263.324219 L 209.707031 249.140625 C 209.375 248.738281 209.136719 248.28125 208.984375 247.78125 C 208.832031 247.28125 208.785156 246.769531 208.835938 246.25 C 208.886719 245.726562 209.039062 245.234375 209.285156 244.773438 C 209.53125 244.3125 209.859375 243.914062 210.261719 243.582031 L 225.417969 231.171875 C 225.824219 230.84375 226.277344 230.601562 226.777344 230.449219 C 227.277344 230.296875 227.789062 230.25 228.3125 230.300781 C 228.832031 230.351562 229.324219 230.503906 229.785156 230.75 C 230.246094 230.996094 230.644531 231.324219 230.976562 231.726562 L 242.582031 245.910156 C 242.910156 246.316406 243.152344 246.769531 243.304688 247.269531 C 243.453125 247.773438 243.503906 248.285156 243.453125 248.804688 C 243.398438 249.324219 243.25 249.816406 243.003906 250.277344 C 242.757812 250.742188 242.429688 251.136719 242.027344 251.46875 Z M 242.027344 251.46875 " fill-opacity="1" fill-rule="nonzero"/><path fill="#f2f2f2" d="M 203.894531 276.394531 L 203.601562 269.777344 C 200.488281 268.113281 197.164062 267.273438 193.636719 267.253906 C 198.421875 271.167969 197.824219 278.714844 201.070312 283.980469 C 201.582031 284.796875 202.179688 285.546875 202.859375 286.230469 C 203.539062 286.914062 204.289062 287.511719 205.105469 288.023438 C 205.921875 288.539062 206.78125 288.957031 207.691406 289.277344 C 208.601562 289.597656 209.535156 289.8125 210.492188 289.921875 L 214.5 292.375 C 214.773438 290.84375 214.882812 289.296875 214.820312 287.742188 C 214.761719 286.1875 214.535156 284.65625 214.144531 283.148438 C 213.753906 281.640625 213.203125 280.191406 212.5 278.804688 C 211.792969 277.417969 210.945312 276.121094 209.960938 274.917969 C 208.835938 273.570312 207.5625 272.386719 206.136719 271.363281 C 205.175781 273.894531 203.894531 276.394531 203.894531 276.394531 Z M 203.894531 276.394531 " fill-opacity="1" fill-rule="nonzero"/><path fill="#ffb8b8" d="M 229.226562 231.347656 C 229.390625 231.214844 229.539062 231.0625 229.667969 230.898438 C 229.800781 230.730469 229.910156 230.550781 230.003906 230.359375 C 230.09375 230.171875 230.164062 229.972656 230.210938 229.765625 C 230.261719 229.558594 230.285156 229.347656 230.289062 229.136719 C 230.289062 228.925781 230.269531 228.714844 230.226562 228.507812 C 230.183594 228.300781 230.117188 228.101562 230.03125 227.90625 C 229.941406 227.714844 229.835938 227.535156 229.707031 227.363281 C 229.582031 227.195312 229.4375 227.042969 229.273438 226.902344 L 235.828125 209.769531 L 230.589844 210.878906 L 225.03125 227.359375 C 224.816406 227.644531 224.660156 227.960938 224.5625 228.300781 C 224.464844 228.644531 224.429688 228.996094 224.460938 229.351562 C 224.492188 229.707031 224.582031 230.042969 224.738281 230.367188 C 224.890625 230.6875 225.097656 230.972656 225.355469 231.21875 C 225.617188 231.464844 225.910156 231.65625 226.238281 231.792969 C 226.566406 231.929688 226.910156 232.007812 227.265625 232.019531 C 227.625 232.03125 227.96875 231.980469 228.308594 231.863281 C 228.644531 231.75 228.953125 231.578125 229.226562 231.347656 Z M 229.226562 231.347656 " fill-opacity="1" fill-rule="nonzero"/><path fill="#2f2e41" d="M 226.527344 212.582031 L 232.410156 188.101562 L 234.9375 180.988281 C 235.039062 180.699219 235.171875 180.421875 235.328125 180.160156 C 235.484375 179.894531 235.667969 179.652344 235.871094 179.421875 C 236.078125 179.195312 236.304688 178.992188 236.550781 178.808594 C 236.796875 178.625 237.058594 178.46875 237.335938 178.339844 C 237.613281 178.207031 237.898438 178.105469 238.195312 178.03125 C 238.496094 177.957031 238.796875 177.914062 239.101562 177.902344 C 239.410156 177.886719 239.714844 177.902344 240.015625 177.949219 C 240.320312 177.996094 240.613281 178.070312 240.902344 178.175781 C 241.671875 178.457031 242.320312 178.910156 242.851562 179.535156 C 243.382812 180.15625 243.722656 180.871094 243.878906 181.675781 L 244.511719 185.003906 L 232.734375 226.199219 L 232.710938 226.292969 L 225.042969 225.777344 Z M 226.527344 212.582031 " fill-opacity="1" fill-rule="nonzero"/><path fill="#2f2e41" d="M 250.402344 171.714844 L 237.304688 198.210938 L 229.019531 226.382812 C 246.472656 229.785156 268.375 237.070312 269.953125 226.625 C 268.980469 197.5 265.921875 188.210938 259.601562 175.582031 Z M 250.402344 171.714844 " fill-opacity="1" fill-rule="nonzero"/><path fill="#ffb6b6" d="M 238.683594 288.441406 L 234.570312 288.441406 L 232.617188 272.574219 L 238.683594 272.574219 Z M 238.683594 288.441406 " fill-opacity="1" fill-rule="nonzero"/><path fill="#2f2e41" d="M 239.734375 292.429688 L 226.472656 292.429688 L 226.472656 292.261719 C 226.472656 291.921875 226.507812 291.585938 226.574219 291.253906 C 226.640625 290.921875 226.738281 290.597656 226.867188 290.285156 C 226.996094 289.972656 227.15625 289.675781 227.34375 289.394531 C 227.53125 289.109375 227.746094 288.851562 227.984375 288.609375 C 228.226562 288.371094 228.484375 288.15625 228.765625 287.96875 C 229.050781 287.78125 229.347656 287.621094 229.660156 287.492188 C 229.972656 287.363281 230.296875 287.265625 230.628906 287.199219 C 230.960938 287.132812 231.296875 287.097656 231.632812 287.097656 L 231.636719 287.097656 L 234.058594 285.261719 L 238.574219 287.097656 L 239.734375 287.097656 Z M 239.734375 292.429688 " fill-opacity="1" fill-rule="nonzero"/><path fill="#ffb6b6" d="M 275.839844 283.09375 L 272.160156 284.929688 L 263.332031 271.601562 L 268.765625 268.894531 Z M 275.839844 283.09375 " fill-opacity="1" fill-rule="nonzero"/><path fill="#2f2e41" d="M 278.558594 286.195312 L 266.691406 292.109375 L 266.613281 291.960938 C 266.464844 291.65625 266.34375 291.34375 266.253906 291.015625 C 266.164062 290.6875 266.109375 290.355469 266.085938 290.015625 C 266.0625 289.679688 266.070312 289.339844 266.113281 289.003906 C 266.15625 288.667969 266.234375 288.339844 266.339844 288.019531 C 266.449219 287.699219 266.585938 287.390625 266.753906 287.09375 C 266.921875 286.800781 267.117188 286.527344 267.339844 286.269531 C 267.5625 286.015625 267.808594 285.78125 268.074219 285.574219 C 268.34375 285.367188 268.628906 285.1875 268.933594 285.039062 L 268.933594 285.035156 L 270.28125 282.3125 L 275.144531 281.941406 L 276.179688 281.421875 Z M 278.558594 286.195312 " fill-opacity="1" fill-rule="nonzero"/><path fill="#2f2e41" d="M 236.863281 216.378906 L 259.539062 217.175781 L 261.234375 220.324219 C 261.234375 220.324219 263.007812 233.210938 262.097656 234.121094 C 261.191406 235.03125 260.734375 235.03125 261.191406 236.621094 C 261.644531 238.214844 262.820312 253.425781 262.820312 253.425781 C 262.820312 253.425781 272.1875 272.863281 272.640625 274 C 273.097656 275.136719 273.550781 274.683594 273.097656 275.136719 C 272.695312 275.570312 272.316406 276.027344 271.960938 276.5 L 264.546875 276.5 C 264.546875 276.5 260.558594 266.433594 256.90625 262.539062 C 255.292969 260.816406 253.988281 258.890625 252.992188 256.753906 C 251.996094 254.617188 251.355469 252.378906 251.074219 250.035156 L 248.003906 235.484375 L 241.410156 257.773438 C 241.410156 257.773438 240.273438 279.835938 240.5 280.972656 L 240.726562 282.109375 L 231.992188 282.207031 C 231.992188 282.207031 231.082031 280.289062 231.539062 279.609375 C 231.992188 278.925781 231.964844 279.113281 231.410156 277.996094 C 230.855469 276.878906 231.082031 274.988281 231.082031 274.988281 C 231.082031 274.988281 234.363281 230.253906 234.363281 229.570312 C 234.378906 229.214844 234.316406 228.875 234.171875 228.550781 L 234.171875 227.621094 L 235.042969 224.339844 Z M 236.863281 216.378906 " fill-opacity="1" fill-rule="nonzero"/><path fill="#6c63ff" d="M 251.9375 175.644531 L 250.390625 171.949219 L 245.617188 172.03125 L 240.632812 179.082031 L 235.40625 201.074219 C 235.40625 201.074219 233.527344 217.140625 235.40625 217.988281 C 237.285156 218.835938 260.023438 218.386719 260.023438 218.386719 C 258.96875 209.710938 258.183594 200.882812 257.359375 195.609375 C 254.625 178.183594 253.335938 181.851562 251.9375 175.644531 Z M 251.9375 175.644531 " fill-opacity="1" fill-rule="nonzero"/><path fill="#2f2e41" d="M 245.617188 172.03125 C 245.617188 172.03125 235.324219 177.984375 234.921875 181.089844 C 234.519531 184.195312 233.171875 222.210938 233.171875 222.210938 L 236.8125 219.859375 L 237.804688 206.003906 C 237.113281 193.691406 238.804688 184.515625 242.246094 177.636719 Z M 245.617188 172.03125 " fill-opacity="1" fill-rule="nonzero"/><path fill="#ffb8b8" d="M 255.058594 163.289062 C 255.058594 163.746094 255.011719 164.203125 254.921875 164.65625 C 254.832031 165.109375 254.699219 165.546875 254.523438 165.972656 C 254.347656 166.398438 254.132812 166.800781 253.875 167.183594 C 253.621094 167.566406 253.328125 167.921875 253.003906 168.246094 C 252.679688 168.574219 252.324219 168.863281 251.941406 169.121094 C 251.558594 169.375 251.152344 169.59375 250.726562 169.769531 C 250.304688 169.945312 249.863281 170.078125 249.414062 170.167969 C 248.960938 170.257812 248.503906 170.300781 248.042969 170.300781 C 247.585938 170.300781 247.128906 170.257812 246.675781 170.167969 C 246.226562 170.078125 245.785156 169.945312 245.359375 169.769531 C 244.933594 169.59375 244.53125 169.375 244.148438 169.121094 C 243.765625 168.863281 243.410156 168.574219 243.085938 168.246094 C 242.761719 167.921875 242.46875 167.566406 242.214844 167.183594 C 241.957031 166.800781 241.742188 166.398438 241.566406 165.972656 C 241.390625 165.546875 241.257812 165.109375 241.167969 164.65625 C 241.078125 164.203125 241.03125 163.746094 241.03125 163.289062 C 241.03125 162.828125 241.078125 162.371094 241.167969 161.917969 C 241.257812 161.464844 241.390625 161.027344 241.566406 160.601562 C 241.742188 160.175781 241.957031 159.773438 242.214844 159.390625 C 242.46875 159.007812 242.761719 158.652344 243.085938 158.328125 C 243.410156 158 243.765625 157.710938 244.148438 157.453125 C 244.53125 157.199219 244.933594 156.980469 245.359375 156.804688 C 245.785156 156.628906 246.226562 156.496094 246.675781 156.40625 C 247.128906 156.316406 247.585938 156.273438 248.042969 156.273438 C 248.503906 156.273438 248.960938 156.316406 249.414062 156.40625 C 249.863281 156.496094 250.304688 156.628906 250.726562 156.804688 C 251.152344 156.980469 251.558594 157.199219 251.941406 157.453125 C 252.324219 157.710938 252.679688 158 253.003906 158.328125 C 253.328125 158.652344 253.621094 159.007812 253.875 159.390625 C 254.132812 159.773438 254.347656 160.175781 254.523438 160.601562 C 254.699219 161.027344 254.832031 161.464844 254.921875 161.917969 C 255.011719 162.371094 255.058594 162.828125 255.058594 163.289062 Z M 255.058594 163.289062 " fill-opacity="1" fill-rule="nonzero"/><path fill="#2f2e41" d="M 256.683594 162.871094 C 256.371094 164.304688 255.8125 165.636719 255.015625 166.867188 C 254.804688 167.292969 254.5 167.636719 254.109375 167.902344 C 253.90625 168.03125 253.683594 168.082031 253.445312 168.050781 C 253.207031 168.023438 253.007812 167.917969 252.84375 167.742188 L 252.671875 167.605469 C 253.011719 167.398438 253.304688 167.140625 253.558594 166.835938 C 253.824219 166.507812 253.90625 166.140625 253.792969 165.734375 C 253.730469 165.539062 253.609375 165.394531 253.429688 165.296875 C 253.25 165.203125 253.0625 165.183594 252.867188 165.238281 C 252.457031 165.398438 252.207031 165.992188 251.777344 165.902344 C 251.429688 165.824219 251.355469 165.367188 251.355469 165.007812 C 251.367188 163.125 250.457031 160.445312 249.753906 160.527344 C 249.035156 160.566406 248.335938 160.472656 247.652344 160.246094 C 246.96875 160.019531 246.269531 159.929688 245.550781 159.980469 C 245.5 159.984375 245.449219 159.996094 245.394531 160.003906 C 245.28125 159.644531 245.125 159.304688 244.925781 158.984375 C 244.949219 159.371094 244.929688 159.757812 244.871094 160.140625 C 244.304688 160.375 243.71875 160.558594 243.121094 160.691406 C 242.46875 160.785156 241.039062 162.730469 240.972656 162.53125 C 240.859375 162.171875 240.703125 161.832031 240.503906 161.511719 C 240.527344 161.898438 240.507812 162.285156 240.449219 162.667969 C 240.445312 162.683594 240.445312 162.695312 240.441406 162.710938 C 240.125 162.292969 239.933594 161.78125 240.039062 162.171875 C 238.980469 159.777344 239.394531 158.0625 241.058594 156.042969 C 241.386719 155.601562 241.804688 155.265625 242.304688 155.039062 C 242.847656 154.800781 243.359375 154.851562 243.839844 155.191406 C 244.53125 154.558594 245.335938 154.144531 246.253906 153.945312 C 247.171875 153.75 248.074219 153.800781 248.964844 154.097656 C 250.699219 154.703125 252.035156 155.054688 252.300781 156.875 C 253.734375 156.644531 255.210938 157.460938 256 158.675781 C 256.773438 159.984375 257.003906 161.382812 256.683594 162.871094 Z M 256.683594 162.871094 " fill-opacity="1" fill-rule="nonzero"/><path fill="#ffb8b8" d="M 276.335938 229.617188 C 276.414062 229.421875 276.472656 229.21875 276.507812 229.007812 C 276.539062 228.800781 276.550781 228.589844 276.539062 228.378906 C 276.527344 228.167969 276.492188 227.957031 276.4375 227.753906 C 276.378906 227.550781 276.300781 227.355469 276.199219 227.167969 C 276.101562 226.980469 275.980469 226.808594 275.84375 226.648438 C 275.703125 226.488281 275.550781 226.34375 275.378906 226.214844 C 275.210938 226.089844 275.027344 225.984375 274.835938 225.894531 C 274.644531 225.808594 274.441406 225.742188 274.234375 225.699219 L 271.707031 207.53125 L 267.65625 211.03125 L 270.738281 228.148438 C 270.6875 228.503906 270.703125 228.851562 270.785156 229.199219 C 270.863281 229.546875 271 229.871094 271.199219 230.167969 C 271.398438 230.464844 271.640625 230.71875 271.933594 230.925781 C 272.222656 231.132812 272.539062 231.28125 272.886719 231.371094 C 273.230469 231.460938 273.578125 231.488281 273.933594 231.449219 C 274.289062 231.410156 274.625 231.3125 274.945312 231.152344 C 275.261719 230.988281 275.539062 230.777344 275.78125 230.511719 C 276.019531 230.25 276.207031 229.949219 276.335938 229.617188 Z M 276.335938 229.617188 " fill-opacity="1" fill-rule="nonzero"/><path fill="#2f2e41" d="M 268.871094 222.945312 L 253.84375 182.71875 L 254.210938 179.351562 C 254.300781 178.539062 254.585938 177.800781 255.066406 177.136719 C 255.546875 176.472656 256.15625 175.96875 256.902344 175.628906 C 257.179688 175.5 257.46875 175.402344 257.769531 175.332031 C 258.066406 175.261719 258.367188 175.222656 258.675781 175.210938 C 258.980469 175.199219 259.285156 175.21875 259.585938 175.269531 C 259.890625 175.320312 260.183594 175.398438 260.472656 175.507812 C 260.757812 175.617188 261.03125 175.753906 261.289062 175.914062 C 261.550781 176.078125 261.792969 176.261719 262.015625 176.472656 C 262.238281 176.683594 262.4375 176.914062 262.617188 177.164062 C 262.792969 177.414062 262.945312 177.679688 263.070312 177.957031 L 266.15625 184.863281 L 273.953125 208.804688 L 276.476562 221.824219 Z M 268.871094 222.945312 " fill-opacity="1" fill-rule="nonzero"/><g clip-path="url(#39359713a8)"><path fill="#cccccc" d="M 309.917969 292.691406 C 309.917969 292.824219 309.871094 292.941406 309.773438 293.039062 C 309.675781 293.132812 309.5625 293.179688 309.425781 293.179688 L 177.363281 293.179688 C 177.226562 293.179688 177.113281 293.132812 177.015625 293.035156 C 176.921875 292.941406 176.875 292.824219 176.875 292.691406 C 176.875 292.554688 176.921875 292.4375 177.015625 292.34375 C 177.113281 292.246094 177.226562 292.199219 177.363281 292.199219 L 309.425781 292.199219 C 309.5625 292.199219 309.675781 292.246094 309.773438 292.34375 C 309.871094 292.4375 309.917969 292.554688 309.917969 292.691406 Z M 309.917969 292.691406 " fill-opacity="1" fill-rule="nonzero"/></g><g clip-path="url(#0bfc8daa15)"><path fill="#cacaca" d="M 208.914062 92.578125 L 65.402344 92.578125 C 65.246094 92.574219 65.117188 92.515625 65.007812 92.40625 C 64.898438 92.296875 64.84375 92.164062 64.84375 92.007812 C 64.84375 91.851562 64.898438 91.71875 65.007812 91.609375 C 65.117188 91.496094 65.246094 91.441406 65.402344 91.4375 L 208.914062 91.4375 C 209.070312 91.441406 209.203125 91.496094 209.308594 91.609375 C 209.417969 91.71875 209.472656 91.851562 209.472656 92.007812 C 209.472656 92.164062 209.417969 92.296875 209.308594 92.40625 C 209.203125 92.515625 209.070312 92.574219 208.914062 92.578125 Z M 208.914062 92.578125 " fill-opacity="1" fill-rule="nonzero"/></g><g clip-path="url(#bb558a065d)"><path fill="#3f3d56" d="M 78.515625 85.101562 C 78.515625 85.554688 78.433594 85.992188 78.261719 86.410156 C 78.09375 86.828125 77.851562 87.199219 77.539062 87.519531 C 77.222656 87.839844 76.863281 88.085938 76.453125 88.261719 C 76.042969 88.433594 75.617188 88.519531 75.171875 88.519531 C 74.730469 88.519531 74.300781 88.433594 73.890625 88.261719 C 73.480469 88.085938 73.121094 87.839844 72.808594 87.519531 C 72.492188 87.199219 72.25 86.828125 72.082031 86.410156 C 71.914062 85.992188 71.828125 85.554688 71.828125 85.101562 C 71.828125 84.648438 71.914062 84.210938 72.082031 83.792969 C 72.25 83.371094 72.492188 83.003906 72.808594 82.683594 C 73.121094 82.363281 73.480469 82.113281 73.890625 81.941406 C 74.300781 81.765625 74.730469 81.679688 75.171875 81.679688 C 75.617188 81.679688 76.042969 81.765625 76.453125 81.941406 C 76.863281 82.113281 77.222656 82.363281 77.539062 82.683594 C 77.851562 83.003906 78.09375 83.371094 78.261719 83.792969 C 78.433594 84.210938 78.515625 84.648438 78.515625 85.101562 Z M 78.515625 85.101562 " fill-opacity="1" fill-rule="nonzero"/></g><g clip-path="url(#12d868ae25)"><path fill="#3f3d56" d="M 90.070312 85.101562 C 90.070312 85.554688 89.984375 85.992188 89.816406 86.410156 C 89.648438 86.828125 89.40625 87.199219 89.089844 87.519531 C 88.777344 87.839844 88.414062 88.085938 88.007812 88.261719 C 87.597656 88.433594 87.167969 88.519531 86.726562 88.519531 C 86.28125 88.519531 85.855469 88.433594 85.445312 88.261719 C 85.035156 88.085938 84.675781 87.839844 84.359375 87.519531 C 84.046875 87.199219 83.804688 86.828125 83.636719 86.410156 C 83.464844 85.992188 83.382812 85.554688 83.382812 85.101562 C 83.382812 84.648438 83.464844 84.210938 83.636719 83.792969 C 83.804688 83.371094 84.046875 83.003906 84.359375 82.683594 C 84.675781 82.363281 85.035156 82.113281 85.445312 81.941406 C 85.855469 81.765625 86.28125 81.679688 86.726562 81.679688 C 87.167969 81.679688 87.597656 81.765625 88.007812 81.941406 C 88.414062 82.113281 88.777344 82.363281 89.089844 82.683594 C 89.40625 83.003906 89.648438 83.371094 89.816406 83.792969 C 89.984375 84.210938 90.070312 84.648438 90.070312 85.101562 Z M 90.070312 85.101562 " fill-opacity="1" fill-rule="nonzero"/></g><g clip-path="url(#4764c9fa19)"><path fill="#3f3d56" d="M 101.625 85.101562 C 101.625 85.554688 101.539062 85.992188 101.371094 86.410156 C 101.199219 86.828125 100.957031 87.199219 100.644531 87.519531 C 100.332031 87.839844 99.96875 88.085938 99.558594 88.261719 C 99.152344 88.433594 98.722656 88.519531 98.28125 88.519531 C 97.835938 88.519531 97.410156 88.433594 97 88.261719 C 96.589844 88.085938 96.230469 87.839844 95.914062 87.519531 C 95.601562 87.199219 95.359375 86.828125 95.191406 86.410156 C 95.019531 85.992188 94.933594 85.554688 94.933594 85.101562 C 94.933594 84.648438 95.019531 84.210938 95.191406 83.792969 C 95.359375 83.371094 95.601562 83.003906 95.914062 82.683594 C 96.230469 82.363281 96.589844 82.113281 97 81.941406 C 97.410156 81.765625 97.835938 81.679688 98.28125 81.679688 C 98.722656 81.679688 99.152344 81.765625 99.558594 81.941406 C 99.96875 82.113281 100.332031 82.363281 100.644531 82.683594 C 100.957031 83.003906 101.199219 83.371094 101.371094 83.792969 C 101.539062 84.210938 101.625 84.648438 101.625 85.101562 Z M 101.625 85.101562 " fill-opacity="1" fill-rule="nonzero"/></g><path fill="#3f3d56" d="M 201.957031 82.527344 L 193.75 82.527344 C 193.582031 82.53125 193.4375 82.59375 193.320312 82.714844 C 193.199219 82.835938 193.140625 82.980469 193.140625 83.148438 C 193.140625 83.320312 193.199219 83.464844 193.320312 83.585938 C 193.4375 83.707031 193.582031 83.769531 193.75 83.773438 L 201.957031 83.773438 C 202.125 83.769531 202.269531 83.707031 202.390625 83.585938 C 202.507812 83.464844 202.566406 83.320312 202.566406 83.148438 C 202.566406 82.980469 202.507812 82.835938 202.390625 82.714844 C 202.269531 82.59375 202.125 82.53125 201.957031 82.527344 Z M 201.957031 82.527344 " fill-opacity="1" fill-rule="nonzero"/><path fill="#3f3d56" d="M 201.957031 84.863281 L 193.75 84.863281 C 193.582031 84.863281 193.4375 84.925781 193.320312 85.046875 C 193.199219 85.167969 193.140625 85.3125 193.140625 85.484375 C 193.140625 85.652344 193.199219 85.796875 193.320312 85.917969 C 193.4375 86.039062 193.582031 86.101562 193.75 86.105469 L 201.957031 86.105469 C 202.125 86.101562 202.269531 86.039062 202.390625 85.917969 C 202.507812 85.796875 202.566406 85.652344 202.566406 85.484375 C 202.566406 85.3125 202.507812 85.167969 202.390625 85.046875 C 202.269531 84.925781 202.125 84.867188 201.957031 84.863281 Z M 201.957031 84.863281 " fill-opacity="1" fill-rule="nonzero"/><path fill="#3f3d56" d="M 201.957031 87.191406 L 193.75 87.191406 C 193.582031 87.195312 193.4375 87.257812 193.320312 87.378906 C 193.199219 87.5 193.140625 87.644531 193.140625 87.8125 C 193.140625 87.984375 193.199219 88.128906 193.320312 88.25 C 193.4375 88.371094 193.582031 88.433594 193.75 88.4375 L 201.957031 88.4375 C 202.125 88.433594 202.269531 88.371094 202.390625 88.25 C 202.507812 88.128906 202.566406 87.984375 202.566406 87.8125 C 202.566406 87.644531 202.507812 87.5 202.390625 87.378906 C 202.269531 87.257812 202.125 87.195312 201.957031 87.191406 Z M 201.957031 87.191406 " fill-opacity="1" fill-rule="nonzero"/></svg>