<svg xmlns="http://www.w3.org/2000/svg" xmlns:xlink="http://www.w3.org/1999/xlink" width="500" zoomAndPan="magnify" viewBox="0 0 375 374.999991" height="500" preserveAspectRatio="xMidYMid meet" version="1.0"><defs><clipPath id="85212a01c1"><path d="M 242 94.179688 L 276 94.179688 L 276 128 L 242 128 Z M 242 94.179688 " clip-rule="nonzero"/></clipPath><clipPath id="7d54312058"><path d="M 115 195 L 124 195 L 124 280.929688 L 115 280.929688 Z M 115 195 " clip-rule="nonzero"/></clipPath><clipPath id="4883d0c5a7"><path d="M 279 195 L 287 195 L 287 280.929688 L 279 280.929688 Z M 279 195 " clip-rule="nonzero"/></clipPath><clipPath id="fd89f0ecb8"><path d="M 149 202 L 221 202 L 221 280.929688 L 149 280.929688 Z M 149 202 " clip-rule="nonzero"/></clipPath><clipPath id="226ec0eaa6"><path d="M 117 273 L 125 273 L 125 280.929688 L 117 280.929688 Z M 117 273 " clip-rule="nonzero"/></clipPath><clipPath id="e1c0800b35"><path d="M 281 273 L 289 273 L 289 280.929688 L 281 280.929688 Z M 281 273 " clip-rule="nonzero"/></clipPath><clipPath id="4d9ab3f3df"><path d="M 46.902344 280 L 328.152344 280 L 328.152344 280.929688 L 46.902344 280.929688 Z M 46.902344 280 " clip-rule="nonzero"/></clipPath></defs><rect x="-37.5" width="450" fill="#ffffff" y="-37.499999" height="449.999989" fill-opacity="1"/><rect x="-37.5" width="450" fill="#edf5fa" y="-37.499999" height="449.999989" fill-opacity="1"/><path fill="#f2f2f2" d="M 189.382812 146.667969 C 186.875 142.519531 183.90625 138.089844 179.253906 136.738281 C 173.867188 135.167969 168.332031 138.285156 163.640625 141.359375 C 149.589844 150.558594 136.09375 160.507812 123.144531 171.207031 L 123.160156 171.367188 C 133.230469 170.671875 143.304688 169.976562 153.375 169.28125 C 160.652344 168.78125 168.179688 168.207031 174.613281 164.765625 C 177.050781 163.457031 179.429688 161.710938 182.195312 161.589844 C 185.632812 161.441406 188.628906 163.839844 190.980469 166.347656 C 204.90625 181.183594 208.9375 203.871094 224.558594 216.902344 C 214.691406 192.558594 202.96875 169.148438 189.382812 146.667969 Z M 189.382812 146.667969 " fill-opacity="1" fill-rule="nonzero"/><path fill="#e4e4e4" d="M 274.980469 272.496094 C 273.441406 270.550781 272.8125 270.09375 271.292969 268.132812 C 258.921875 252.128906 247.296875 235.582031 236.417969 218.5 C 229.023438 206.894531 222 195.070312 215.339844 183.019531 C 212.171875 177.292969 209.085938 171.519531 206.089844 165.703125 C 203.765625 161.191406 201.492188 156.652344 199.273438 152.085938 C 198.636719 150.785156 198.019531 149.472656 197.40625 148.160156 C 195.957031 145.074219 194.539062 141.972656 193.011719 138.925781 C 191.273438 135.453125 189.160156 131.816406 185.96875 129.484375 C 184.488281 128.355469 182.816406 127.714844 180.960938 127.554688 C 178.363281 127.386719 175.96875 128.460938 173.714844 129.632812 C 157.230469 138.234375 141.796875 149.015625 127.835938 161.285156 C 113.792969 173.621094 101.371094 187.417969 90.5625 202.675781 C 90.234375 203.144531 89.457031 202.695312 89.789062 202.222656 C 91.097656 200.371094 92.433594 198.539062 93.792969 196.726562 C 102.257812 185.464844 111.636719 175.03125 121.9375 165.421875 C 132.234375 155.8125 143.292969 147.175781 155.109375 139.511719 C 159.085938 136.933594 163.136719 134.476562 167.261719 132.140625 C 169.339844 130.960938 171.429688 129.796875 173.550781 128.707031 C 175.636719 127.636719 177.847656 126.675781 180.226562 126.640625 C 188.320312 126.511719 192.511719 135.683594 195.390625 141.855469 C 196.296875 143.800781 197.210938 145.734375 198.140625 147.667969 C 201.640625 154.996094 205.28125 162.257812 209.050781 169.453125 C 211.378906 173.894531 213.757812 178.308594 216.1875 182.699219 C 223.75 196.371094 231.789062 209.765625 240.300781 222.882812 C 251.582031 240.261719 262.769531 255.609375 275.617188 271.859375 C 275.96875 272.308594 275.335938 272.953125 274.980469 272.496094 Z M 274.980469 272.496094 " fill-opacity="1" fill-rule="nonzero"/><path fill="#e4e4e4" d="M 127.035156 156.753906 C 126.566406 156.230469 126.097656 155.707031 125.625 155.179688 C 121.890625 151.050781 117.886719 146.96875 112.757812 144.601562 C 110.285156 143.421875 107.679688 142.816406 104.941406 142.785156 C 102.140625 142.796875 99.40625 143.53125 96.820312 144.558594 C 95.597656 145.046875 94.402344 145.601562 93.222656 146.191406 C 91.878906 146.867188 90.558594 147.589844 89.242188 148.320312 C 86.773438 149.6875 84.335938 151.113281 81.933594 152.601562 C 77.148438 155.558594 72.511719 158.742188 68.027344 162.152344 C 65.703125 163.921875 63.425781 165.746094 61.195312 167.632812 C 59.121094 169.382812 57.089844 171.179688 55.101562 173.023438 C 54.675781 173.417969 54.039062 172.78125 54.464844 172.390625 C 54.988281 171.902344 55.519531 171.414062 56.050781 170.933594 C 57.546875 169.582031 59.070312 168.25 60.617188 166.949219 C 63.4375 164.570312 66.328125 162.28125 69.292969 160.085938 C 73.90625 156.667969 78.675781 153.480469 83.605469 150.527344 C 86.066406 149.054688 88.5625 147.640625 91.09375 146.289062 C 91.859375 145.882812 92.632812 145.484375 93.414062 145.105469 C 95.191406 144.210938 97.027344 143.460938 98.925781 142.859375 C 101.640625 141.980469 104.417969 141.710938 107.253906 142.042969 C 109.984375 142.441406 112.542969 143.328125 114.933594 144.703125 C 119.96875 147.515625 123.871094 151.867188 127.671875 156.117188 C 128.054688 156.546875 127.421875 157.1875 127.035156 156.753906 Z M 127.035156 156.753906 " fill-opacity="1" fill-rule="nonzero"/><path fill="#e4e4e4" d="M 230.171875 199.558594 L 242.234375 195.144531 L 248.222656 192.953125 C 250.175781 192.238281 252.121094 191.425781 254.136719 190.914062 C 255.925781 190.402344 257.710938 190.425781 259.488281 190.984375 C 261.054688 191.5625 262.445312 192.425781 263.660156 193.574219 C 264.894531 194.707031 266.035156 195.925781 267.085938 197.230469 C 268.390625 198.796875 269.671875 200.382812 270.964844 201.960938 C 276.289062 208.476562 281.578125 215.019531 286.835938 221.59375 C 292.089844 228.164062 297.3125 234.765625 302.496094 241.390625 C 307.695312 248.035156 312.859375 254.707031 317.984375 261.410156 C 318.613281 262.230469 319.242188 263.050781 319.867188 263.871094 C 320.214844 264.324219 320.996094 263.878906 320.644531 263.417969 C 315.480469 256.652344 310.277344 249.910156 305.042969 243.199219 C 299.792969 236.472656 294.507812 229.773438 289.183594 223.101562 C 283.863281 216.429688 278.503906 209.789062 273.113281 203.175781 C 271.769531 201.53125 270.421875 199.882812 269.074219 198.242188 C 267.9375 196.855469 266.8125 195.453125 265.566406 194.160156 C 263.277344 191.792969 260.414062 189.699219 256.992188 189.640625 C 254.976562 189.609375 253.027344 190.246094 251.160156 190.925781 C 249.140625 191.65625 247.128906 192.398438 245.117188 193.136719 L 232.96875 197.578125 L 229.933594 198.691406 C 229.394531 198.886719 229.628906 199.757812 230.171875 199.558594 Z M 230.171875 199.558594 " fill-opacity="1" fill-rule="nonzero"/><path fill="#f2f2f2" d="M 111.171875 149.796875 C 105.042969 146.644531 97.191406 147.261719 91.558594 151.199219 C 102.3125 153.054688 112.921875 155.53125 123.382812 158.632812 C 119.042969 156.085938 115.648438 152.097656 111.171875 149.796875 Z M 111.171875 149.796875 " fill-opacity="1" fill-rule="nonzero"/><path fill="#f2f2f2" d="M 91.5 151.191406 L 90.320312 152.148438 C 90.71875 151.8125 91.132812 151.5 91.558594 151.199219 C 91.539062 151.195312 91.519531 151.191406 91.5 151.191406 Z M 91.5 151.191406 " fill-opacity="1" fill-rule="nonzero"/><path fill="#f2f2f2" d="M 263.207031 199.601562 C 262.019531 198.15625 260.734375 196.640625 258.960938 196.054688 L 257.300781 196.121094 C 263.613281 207.277344 270.988281 217.679688 279.421875 227.328125 C 287.859375 236.976562 297.183594 245.671875 307.394531 253.414062 C 292.667969 235.476562 277.9375 217.539062 263.207031 199.601562 Z M 263.207031 199.601562 " fill-opacity="1" fill-rule="nonzero"/><path fill="#f2f2f2" d="M 160.101562 187.675781 C 160.484375 189.070312 161.097656 190.355469 161.933594 191.53125 C 162.773438 192.710938 163.789062 193.707031 164.980469 194.527344 C 165.902344 195.15625 166.992188 195.757812 167.308594 196.828125 C 167.480469 197.535156 167.386719 198.207031 167.023438 198.835938 C 166.675781 199.441406 166.253906 199.992188 165.761719 200.484375 L 165.71875 200.652344 C 163.429688 199.296875 161.253906 197.582031 159.992188 195.242188 C 158.726562 192.902344 158.550781 189.835938 160.101562 187.675781 " fill-opacity="1" fill-rule="nonzero"/><path fill="#f2f2f2" d="M 236.253906 254.050781 C 236.636719 255.445312 237.25 256.730469 238.089844 257.90625 C 238.925781 259.085938 239.941406 260.085938 241.132812 260.902344 C 242.054688 261.53125 243.148438 262.132812 243.460938 263.203125 C 243.632812 263.910156 243.539062 264.582031 243.175781 265.214844 C 242.828125 265.816406 242.40625 266.367188 241.914062 266.863281 L 241.871094 267.027344 C 239.582031 265.671875 237.40625 263.957031 236.144531 261.617188 C 234.878906 259.277344 234.703125 256.210938 236.253906 254.050781 " fill-opacity="1" fill-rule="nonzero"/><path fill="#f2f2f2" d="M 84.277344 249.472656 C 84.660156 250.867188 85.269531 252.152344 86.109375 253.332031 C 86.949219 254.507812 87.964844 255.507812 89.15625 256.324219 C 90.078125 256.953125 91.167969 257.554688 91.484375 258.625 C 91.65625 259.332031 91.5625 260.003906 91.199219 260.636719 C 90.847656 261.238281 90.425781 261.789062 89.9375 262.285156 L 89.890625 262.453125 C 87.605469 261.09375 85.429688 259.378906 84.164062 257.039062 C 82.902344 254.699219 82.722656 251.632812 84.277344 249.472656 " fill-opacity="1" fill-rule="nonzero"/><g clip-path="url(#85212a01c1)"><path fill="#6c63ff" d="M 275.835938 110.855469 C 275.835938 111.402344 275.808594 111.945312 275.753906 112.488281 C 275.699219 113.03125 275.621094 113.574219 275.515625 114.109375 C 275.40625 114.644531 275.273438 115.171875 275.117188 115.695312 C 274.957031 116.21875 274.773438 116.730469 274.566406 117.234375 C 274.355469 117.742188 274.125 118.234375 273.867188 118.714844 C 273.609375 119.195312 273.328125 119.664062 273.023438 120.121094 C 272.722656 120.574219 272.398438 121.011719 272.050781 121.433594 C 271.703125 121.855469 271.339844 122.261719 270.953125 122.644531 C 270.566406 123.03125 270.164062 123.398438 269.738281 123.746094 C 269.316406 124.089844 268.878906 124.417969 268.425781 124.71875 C 267.972656 125.023438 267.503906 125.304688 267.023438 125.5625 C 266.542969 125.820312 266.046875 126.050781 265.542969 126.261719 C 265.039062 126.46875 264.527344 126.652344 264.003906 126.8125 C 263.480469 126.972656 262.953125 127.101562 262.417969 127.210938 C 261.882812 127.316406 261.34375 127.398438 260.800781 127.449219 C 260.257812 127.503906 259.710938 127.53125 259.164062 127.53125 C 258.621094 127.53125 258.074219 127.503906 257.53125 127.449219 C 256.988281 127.398438 256.449219 127.316406 255.914062 127.210938 C 255.378906 127.101562 254.847656 126.972656 254.328125 126.8125 C 253.804688 126.652344 253.292969 126.46875 252.785156 126.261719 C 252.28125 126.050781 251.789062 125.820312 251.308594 125.5625 C 250.828125 125.304688 250.359375 125.023438 249.90625 124.71875 C 249.449219 124.417969 249.011719 124.089844 248.589844 123.746094 C 248.167969 123.398438 247.765625 123.03125 247.378906 122.644531 C 246.992188 122.261719 246.625 121.855469 246.28125 121.433594 C 245.933594 121.011719 245.609375 120.574219 245.304688 120.121094 C 245.003906 119.664062 244.722656 119.195312 244.464844 118.714844 C 244.207031 118.234375 243.976562 117.742188 243.765625 117.234375 C 243.558594 116.730469 243.375 116.21875 243.214844 115.695312 C 243.054688 115.171875 242.921875 114.644531 242.816406 114.109375 C 242.710938 113.574219 242.628906 113.03125 242.578125 112.488281 C 242.523438 111.945312 242.496094 111.402344 242.496094 110.855469 C 242.496094 110.308594 242.523438 109.765625 242.578125 109.21875 C 242.628906 108.675781 242.710938 108.136719 242.816406 107.601562 C 242.921875 107.066406 243.054688 106.535156 243.214844 106.015625 C 243.375 105.492188 243.558594 104.976562 243.765625 104.472656 C 243.976562 103.96875 244.207031 103.476562 244.464844 102.992188 C 244.722656 102.511719 245.003906 102.042969 245.304688 101.589844 C 245.609375 101.136719 245.933594 100.699219 246.28125 100.277344 C 246.625 99.855469 246.992188 99.449219 247.378906 99.0625 C 247.765625 98.675781 248.167969 98.3125 248.589844 97.964844 C 249.011719 97.617188 249.449219 97.292969 249.90625 96.988281 C 250.359375 96.6875 250.828125 96.40625 251.308594 96.148438 C 251.789062 95.890625 252.28125 95.65625 252.785156 95.449219 C 253.292969 95.238281 253.804688 95.054688 254.328125 94.898438 C 254.847656 94.738281 255.378906 94.605469 255.914062 94.5 C 256.449219 94.394531 256.988281 94.3125 257.53125 94.257812 C 258.074219 94.207031 258.621094 94.179688 259.164062 94.179688 C 259.710938 94.179688 260.257812 94.207031 260.800781 94.257812 C 261.34375 94.3125 261.882812 94.394531 262.417969 94.5 C 262.953125 94.605469 263.480469 94.738281 264.003906 94.898438 C 264.527344 95.054688 265.039062 95.238281 265.542969 95.449219 C 266.046875 95.65625 266.542969 95.890625 267.023438 96.148438 C 267.503906 96.40625 267.972656 96.6875 268.425781 96.988281 C 268.878906 97.292969 269.316406 97.617188 269.738281 97.964844 C 270.164062 98.3125 270.566406 98.675781 270.953125 99.0625 C 271.339844 99.449219 271.703125 99.855469 272.050781 100.277344 C 272.398438 100.699219 272.722656 101.136719 273.023438 101.589844 C 273.328125 102.042969 273.609375 102.511719 273.867188 102.992188 C 274.125 103.476562 274.355469 103.96875 274.566406 104.472656 C 274.773438 104.976562 274.957031 105.492188 275.117188 106.015625 C 275.273438 106.535156 275.40625 107.066406 275.515625 107.601562 C 275.621094 108.136719 275.699219 108.675781 275.753906 109.21875 C 275.808594 109.765625 275.835938 110.308594 275.835938 110.855469 Z M 275.835938 110.855469 " fill-opacity="1" fill-rule="nonzero"/></g><path fill="#f0f0f0" d="M 289.246094 98.058594 C 281.167969 96.96875 271.945312 101.335938 269.851562 109.21875 C 269.585938 108.515625 269.222656 107.875 268.753906 107.289062 C 268.285156 106.707031 267.738281 106.210938 267.113281 105.800781 C 266.484375 105.390625 265.8125 105.085938 265.089844 104.890625 C 264.367188 104.695312 263.632812 104.617188 262.882812 104.65625 C 262.136719 104.691406 261.414062 104.847656 260.714844 105.113281 C 260.015625 105.382812 259.375 105.753906 258.796875 106.226562 C 258.214844 106.699219 257.722656 107.25 257.316406 107.878906 C 256.910156 108.507812 256.609375 109.183594 256.421875 109.90625 L 257.34375 110.570312 C 266 112.441406 274.757812 113.359375 283.613281 113.320312 C 292.46875 113.277344 301.214844 112.285156 309.855469 110.332031 C 304.234375 104.425781 297.324219 99.152344 289.246094 98.058594 Z M 289.246094 98.058594 " fill-opacity="1" fill-rule="nonzero"/><path fill="#f0f0f0" d="M 254.601562 120.292969 C 246.523438 119.203125 237.300781 123.570312 235.207031 131.453125 C 234.941406 130.75 234.578125 130.109375 234.109375 129.523438 C 233.640625 128.941406 233.09375 128.441406 232.46875 128.035156 C 231.839844 127.625 231.167969 127.320312 230.445312 127.125 C 229.722656 126.929688 228.988281 126.851562 228.238281 126.890625 C 227.492188 126.925781 226.769531 127.082031 226.070312 127.347656 C 225.371094 127.617188 224.730469 127.988281 224.152344 128.460938 C 223.570312 128.933594 223.078125 129.484375 222.671875 130.113281 C 222.265625 130.742188 221.964844 131.417969 221.777344 132.140625 L 222.699219 132.804688 C 231.355469 134.675781 240.113281 135.59375 248.96875 135.554688 C 257.824219 135.511719 266.570312 134.515625 275.210938 132.566406 C 269.589844 126.660156 262.679688 121.386719 254.601562 120.292969 Z M 254.601562 120.292969 " fill-opacity="1" fill-rule="nonzero"/><path fill="#cccccc" d="M 325.109375 124.5 C 325.074219 124.5 325.042969 124.492188 325.011719 124.484375 C 238.59375 97.140625 162.425781 100.71875 113.75 108.53125 C 107.125 109.59375 100.484375 110.824219 94.007812 112.179688 C 92.355469 112.527344 90.640625 112.898438 88.910156 113.285156 C 86.84375 113.746094 84.808594 114.21875 82.851562 114.695312 C 82.007812 114.894531 81.183594 115.09375 80.371094 115.296875 C 79.144531 115.601562 77.894531 115.917969 76.558594 116.265625 C 75.066406 116.648438 73.550781 117.054688 72.050781 117.464844 C 72.046875 117.46875 72.039062 117.46875 72.035156 117.46875 C 70.339844 117.933594 68.65625 118.410156 67.027344 118.882812 C 66.144531 119.140625 65.292969 119.390625 64.476562 119.640625 C 64.386719 119.664062 64.304688 119.6875 64.222656 119.714844 L 64.046875 119.765625 C 63.945312 119.796875 63.847656 119.828125 63.746094 119.855469 L 63.738281 119.859375 L 63.472656 119.941406 C 63.15625 120.035156 62.847656 120.128906 62.546875 120.222656 C 54.523438 122.699219 50.113281 124.457031 50.070312 124.476562 C 49.988281 124.507812 49.902344 124.507812 49.820312 124.472656 C 49.734375 124.4375 49.679688 124.378906 49.644531 124.292969 C 49.609375 124.210938 49.613281 124.125 49.648438 124.042969 C 49.683594 123.960938 49.742188 123.902344 49.828125 123.867188 C 49.871094 123.851562 54.300781 122.082031 62.355469 119.597656 C 62.660156 119.503906 62.96875 119.410156 63.285156 119.316406 L 63.53125 119.238281 C 63.539062 119.234375 63.546875 119.234375 63.558594 119.230469 C 63.65625 119.203125 63.757812 119.171875 63.859375 119.140625 L 64.035156 119.085938 C 64.121094 119.0625 64.207031 119.035156 64.296875 119.011719 C 65.105469 118.765625 65.960938 118.511719 66.84375 118.257812 C 68.472656 117.78125 70.160156 117.304688 71.855469 116.839844 C 71.859375 116.839844 71.867188 116.839844 71.871094 116.835938 C 73.375 116.421875 74.898438 116.019531 76.398438 115.632812 C 77.734375 115.285156 78.984375 114.96875 80.214844 114.664062 C 81.027344 114.460938 81.855469 114.257812 82.699219 114.058594 C 84.65625 113.582031 86.699219 113.109375 88.769531 112.648438 C 90.5 112.261719 92.21875 111.886719 93.875 111.542969 C 100.359375 110.179688 107.011719 108.949219 113.644531 107.886719 C 162.394531 100.0625 238.667969 96.480469 325.207031 123.859375 C 325.386719 123.917969 325.460938 124.035156 325.433594 124.222656 C 325.402344 124.40625 325.296875 124.5 325.109375 124.5 Z M 325.109375 124.5 " fill-opacity="1" fill-rule="nonzero"/><path fill="#3f3d56" d="M 132.921875 231.457031 C 132.808594 231.121094 132.621094 230.828125 132.367188 230.582031 C 132.273438 230.496094 132.171875 230.417969 132.066406 230.351562 C 131.210938 229.78125 129.9375 229.652344 129.128906 230.351562 C 129.046875 230.421875 128.96875 230.5 128.902344 230.582031 C 128.660156 230.878906 128.410156 231.171875 128.15625 231.457031 C 127.738281 231.933594 127.308594 232.394531 126.863281 232.84375 C 126.734375 232.964844 126.605469 233.09375 126.476562 233.21875 C 126.402344 233.292969 126.328125 233.363281 126.25 233.4375 C 125.964844 233.710938 125.667969 233.976562 125.371094 234.238281 C 125.214844 234.378906 125.058594 234.515625 124.898438 234.648438 C 124.660156 234.847656 124.421875 235.050781 124.179688 235.242188 C 124.15625 235.257812 124.132812 235.273438 124.109375 235.292969 C 124.105469 235.296875 124.101562 235.304688 124.09375 235.308594 C 124.089844 235.308594 124.085938 235.308594 124.085938 235.3125 C 124.074219 235.316406 124.066406 235.324219 124.0625 235.328125 C 123.988281 235.378906 123.941406 235.410156 123.90625 235.441406 C 123.917969 235.433594 123.929688 235.425781 123.945312 235.417969 C 123.886719 235.464844 123.824219 235.511719 123.765625 235.554688 C 123.191406 235.976562 122.605469 236.382812 122.007812 236.761719 C 120.527344 237.710938 118.976562 238.535156 117.359375 239.230469 C 117.253906 239.273438 117.140625 239.320312 117.03125 239.363281 C 112.742188 241.121094 108.292969 241.773438 103.679688 241.328125 C 103.214844 241.292969 102.75 241.246094 102.289062 241.183594 C 101.75 241.105469 101.21875 241.007812 100.6875 240.902344 C 98.667969 240.5 96.707031 239.90625 94.800781 239.121094 C 92.414062 238.03125 90.164062 236.710938 88.046875 235.160156 C 87.71875 234.929688 87.390625 234.695312 87.058594 234.46875 C 87.4375 233.546875 87.804688 232.625 88.164062 231.699219 C 88.34375 231.25 88.519531 230.800781 88.6875 230.351562 C 90.023438 226.875 91.28125 223.367188 92.484375 219.84375 C 93.699219 216.277344 94.84375 212.6875 95.925781 209.082031 C 96.035156 208.714844 96.144531 208.347656 96.246094 207.980469 C 96.8125 206.074219 97.355469 204.164062 97.875 202.25 C 97.925781 202.0625 97.976562 201.878906 98.023438 201.695312 C 98.171875 201.144531 98.320312 200.597656 98.464844 200.046875 C 98.789062 198.808594 98.050781 197.324219 96.75 197.027344 C 96.4375 196.949219 96.121094 196.929688 95.800781 196.972656 C 95.480469 197.015625 95.179688 197.117188 94.898438 197.277344 C 94.617188 197.4375 94.375 197.644531 94.175781 197.894531 C 93.976562 198.148438 93.828125 198.429688 93.738281 198.742188 C 93.597656 199.273438 93.457031 199.796875 93.3125 200.328125 C 92.621094 202.886719 91.898438 205.4375 91.136719 207.980469 C 91.023438 208.347656 90.914062 208.714844 90.800781 209.082031 C 89.121094 214.621094 87.277344 220.101562 85.269531 225.53125 C 85.027344 226.1875 84.78125 226.84375 84.535156 227.496094 C 84.414062 227.816406 84.292969 228.136719 84.167969 228.457031 C 83.929688 229.089844 83.683594 229.71875 83.4375 230.351562 C 83.296875 230.71875 83.15625 231.089844 83.011719 231.457031 C 82.914062 231.6875 82.824219 231.917969 82.734375 232.148438 C 81.796875 231.8125 80.839844 231.582031 79.855469 231.457031 L 79.695312 231.4375 C 78.933594 231.34375 78.167969 231.351562 77.40625 231.457031 C 76.253906 231.589844 75.1875 231.960938 74.199219 232.570312 C 73.214844 233.179688 72.40625 233.972656 71.769531 234.941406 C 70.210938 237.398438 70.230469 240.910156 72.417969 242.996094 C 74.667969 245.140625 78.078125 245.125 80.730469 243.78125 C 82.15625 243.007812 83.304688 241.933594 84.167969 240.558594 C 84.492188 240.066406 84.792969 239.5625 85.0625 239.039062 C 85.132812 239.082031 85.199219 239.128906 85.269531 239.179688 C 85.53125 239.363281 85.792969 239.546875 86.050781 239.730469 C 87.558594 240.824219 89.136719 241.792969 90.792969 242.644531 C 94.371094 244.425781 98.144531 245.566406 102.109375 246.066406 C 102.195312 246.078125 102.28125 246.089844 102.371094 246.101562 C 102.804688 246.15625 103.242188 246.199219 103.679688 246.234375 C 106.820312 246.472656 109.933594 246.273438 113.019531 245.644531 C 116.109375 245.011719 119.050781 243.972656 121.84375 242.519531 C 122.320312 242.273438 122.789062 242.019531 123.253906 241.75 C 123.976562 241.328125 124.683594 240.886719 125.371094 240.414062 C 125.746094 240.160156 126.113281 239.902344 126.476562 239.628906 C 128.066406 238.460938 129.535156 237.15625 130.890625 235.722656 C 131.40625 235.183594 131.898438 234.625 132.367188 234.050781 C 132.824219 233.566406 133.066406 232.988281 133.085938 232.320312 C 133.082031 232.019531 133.027344 231.734375 132.921875 231.457031 Z M 78.800781 239.242188 C 78.871094 239.195312 78.9375 239.144531 79.003906 239.089844 C 78.984375 239.140625 78.890625 239.195312 78.800781 239.242188 Z M 79.851562 238.1875 C 79.773438 238.273438 79.707031 238.359375 79.632812 238.441406 C 79.402344 238.699219 79.15625 238.9375 78.894531 239.164062 C 78.859375 239.195312 78.820312 239.226562 78.78125 239.257812 C 78.777344 239.257812 78.777344 239.257812 78.777344 239.261719 C 78.730469 239.28125 78.683594 239.304688 78.640625 239.332031 C 78.5 239.417969 78.355469 239.496094 78.210938 239.566406 C 77.921875 239.675781 77.625 239.753906 77.324219 239.8125 C 77.09375 239.828125 76.859375 239.832031 76.628906 239.820312 L 76.621094 239.820312 C 76.460938 239.785156 76.304688 239.742188 76.148438 239.6875 C 76.070312 239.648438 75.992188 239.605469 75.917969 239.558594 C 75.890625 239.53125 75.863281 239.503906 75.847656 239.488281 C 75.816406 239.460938 75.785156 239.429688 75.757812 239.394531 C 75.757812 239.390625 75.757812 239.390625 75.753906 239.390625 C 75.71875 239.324219 75.679688 239.261719 75.644531 239.195312 C 75.640625 239.191406 75.640625 239.191406 75.640625 239.1875 C 75.613281 239.105469 75.589844 239.023438 75.570312 238.9375 C 75.566406 238.789062 75.566406 238.636719 75.574219 238.488281 C 75.621094 238.28125 75.679688 238.074219 75.75 237.875 C 75.816406 237.730469 75.894531 237.59375 75.976562 237.460938 C 75.984375 237.449219 76.015625 237.398438 76.050781 237.335938 C 76.054688 237.335938 76.054688 237.335938 76.054688 237.332031 C 76.105469 237.277344 76.152344 237.214844 76.207031 237.164062 C 76.292969 237.066406 76.390625 236.980469 76.484375 236.894531 C 76.667969 236.773438 76.859375 236.660156 77.054688 236.5625 C 77.367188 236.453125 77.6875 236.367188 78.011719 236.304688 C 78.496094 236.265625 78.976562 236.269531 79.453125 236.316406 C 79.910156 236.394531 80.355469 236.507812 80.792969 236.648438 C 80.527344 237.164062 80.226562 237.660156 79.890625 238.132812 C 79.875 238.152344 79.863281 238.171875 79.851562 238.1875 Z M 76.214844 237.113281 C 76.1875 237.160156 76.152344 237.199219 76.113281 237.238281 C 76.140625 237.191406 76.175781 237.148438 76.214844 237.113281 Z M 76.214844 237.113281 " fill-opacity="1" fill-rule="nonzero"/><g clip-path="url(#7d54312058)"><path fill="#3f3d56" d="M 123.097656 198.0625 C 123.066406 199.089844 123.039062 200.113281 123.007812 201.140625 C 122.945312 203.421875 122.882812 205.699219 122.816406 207.980469 C 122.746094 210.546875 122.675781 213.113281 122.601562 215.679688 C 122.5625 217.003906 122.527344 218.328125 122.488281 219.652344 C 122.386719 223.21875 122.289062 226.785156 122.1875 230.351562 C 122.179688 230.71875 122.164062 231.085938 122.15625 231.457031 C 122.105469 233.222656 122.058594 234.992188 122.007812 236.761719 C 121.953125 238.679688 121.898438 240.601562 121.84375 242.519531 C 121.804688 243.957031 121.765625 245.398438 121.722656 246.839844 C 121.429688 257.28125 121.136719 267.71875 120.84375 278.160156 C 120.835938 278.484375 120.769531 278.792969 120.644531 279.089844 C 120.515625 279.390625 120.339844 279.652344 120.109375 279.878906 C 119.882812 280.109375 119.617188 280.285156 119.320312 280.414062 C 119.023438 280.539062 118.714844 280.605469 118.390625 280.613281 C 118.066406 280.609375 117.753906 280.546875 117.457031 280.421875 C 117.15625 280.296875 116.890625 280.117188 116.664062 279.886719 C 116.433594 279.660156 116.257812 279.394531 116.132812 279.09375 C 116.007812 278.796875 115.941406 278.484375 115.941406 278.160156 C 116.101562 272.289062 116.269531 266.414062 116.4375 260.542969 C 116.582031 255.234375 116.734375 249.921875 116.882812 244.613281 C 116.933594 242.863281 116.980469 241.113281 117.03125 239.363281 C 117.105469 236.726562 117.179688 234.089844 117.253906 231.457031 C 117.261719 231.085938 117.277344 230.71875 117.285156 230.351562 C 117.292969 230.027344 117.300781 229.707031 117.3125 229.382812 C 117.457031 224.265625 117.601562 219.148438 117.742188 214.027344 C 117.800781 212.011719 117.859375 210 117.914062 207.980469 C 117.980469 205.683594 118.042969 203.386719 118.109375 201.089844 C 118.140625 200.078125 118.164062 199.070312 118.195312 198.0625 C 118.199219 197.738281 118.265625 197.429688 118.394531 197.128906 C 118.519531 196.832031 118.699219 196.570312 118.925781 196.339844 C 119.15625 196.113281 119.417969 195.933594 119.714844 195.808594 C 120.011719 195.683594 120.324219 195.617188 120.644531 195.609375 C 120.96875 195.613281 121.28125 195.675781 121.582031 195.800781 C 121.878906 195.925781 122.144531 196.105469 122.375 196.332031 C 122.601562 196.5625 122.78125 196.828125 122.90625 197.125 C 123.03125 197.425781 123.09375 197.738281 123.097656 198.0625 Z M 123.097656 198.0625 " fill-opacity="1" fill-rule="nonzero"/></g><path fill="#3f3d56" d="M 257.566406 198.742188 C 254.996094 208.484375 251.925781 218.070312 248.363281 227.496094 C 247.378906 230.09375 246.375 232.6875 245.300781 235.25 L 245.546875 234.664062 C 245.066406 235.886719 244.457031 237.042969 243.71875 238.132812 C 243.671875 238.203125 243.617188 238.273438 243.566406 238.34375 C 243.820312 238.015625 243.871094 237.953125 243.710938 238.148438 C 243.628906 238.246094 243.546875 238.347656 243.460938 238.441406 C 243.230469 238.699219 242.988281 238.9375 242.726562 239.164062 C 242.660156 239.21875 242.59375 239.273438 242.527344 239.328125 L 242.832031 239.089844 C 242.796875 239.171875 242.546875 239.285156 242.46875 239.332031 C 242.21875 239.484375 241.957031 239.617188 241.683594 239.730469 L 242.269531 239.484375 C 241.824219 239.664062 241.363281 239.789062 240.886719 239.863281 L 241.539062 239.773438 C 241.070312 239.839844 240.601562 239.84375 240.132812 239.789062 L 240.785156 239.878906 C 240.402344 239.824219 240.03125 239.726562 239.671875 239.578125 L 240.257812 239.824219 C 240.066406 239.742188 239.882812 239.644531 239.707031 239.53125 C 239.621094 239.472656 239.347656 239.269531 239.703125 239.539062 C 240.074219 239.824219 239.75 239.5625 239.675781 239.488281 C 239.613281 239.425781 239.554688 239.359375 239.492188 239.292969 C 239.203125 239 239.816406 239.804688 239.621094 239.457031 C 239.515625 239.285156 239.421875 239.105469 239.335938 238.921875 L 239.582031 239.507812 C 239.46875 239.226562 239.390625 238.9375 239.34375 238.640625 L 239.433594 239.292969 C 239.386719 238.921875 239.382812 238.550781 239.429688 238.179688 L 239.34375 238.832031 C 239.402344 238.417969 239.511719 238.015625 239.667969 237.628906 L 239.421875 238.214844 C 239.53125 237.953125 239.660156 237.703125 239.804688 237.460938 C 239.875 237.339844 239.953125 237.222656 240.042969 237.113281 C 240.058594 237.117188 239.628906 237.605469 239.859375 237.359375 C 239.917969 237.296875 239.972656 237.226562 240.035156 237.164062 C 240.132812 237.058594 240.234375 236.964844 240.335938 236.871094 C 240.679688 236.542969 239.859375 237.183594 240.253906 236.929688 C 240.539062 236.738281 240.839844 236.578125 241.152344 236.4375 L 240.566406 236.683594 C 241.089844 236.46875 241.636719 236.324219 242.199219 236.246094 L 241.546875 236.335938 C 242.253906 236.253906 242.957031 236.261719 243.660156 236.359375 L 243.007812 236.273438 C 243.898438 236.40625 244.757812 236.648438 245.585938 236.996094 L 245 236.75 C 246.761719 237.507812 248.324219 238.628906 249.878906 239.730469 C 251.386719 240.824219 252.964844 241.792969 254.621094 242.644531 C 258.199219 244.425781 261.972656 245.566406 265.9375 246.070312 C 267.34375 246.242188 268.753906 246.324219 270.171875 246.320312 C 271.585938 246.316406 272.996094 246.222656 274.402344 246.042969 C 275.808594 245.863281 277.195312 245.59375 278.566406 245.238281 C 279.9375 244.886719 281.28125 244.445312 282.601562 243.921875 C 283.917969 243.402344 285.195312 242.796875 286.4375 242.113281 C 287.679688 241.433594 288.871094 240.675781 290.019531 239.84375 C 291.164062 239.007812 292.253906 238.109375 293.289062 237.140625 C 294.324219 236.171875 295.292969 235.140625 296.195312 234.050781 C 296.65625 233.566406 296.894531 232.988281 296.914062 232.316406 C 296.910156 231.644531 296.671875 231.066406 296.195312 230.582031 C 295.296875 229.757812 293.597656 229.523438 292.730469 230.582031 C 291.90625 231.589844 291.023438 232.542969 290.082031 233.4375 C 289.640625 233.855469 289.191406 234.257812 288.726562 234.648438 C 288.460938 234.875 288.195312 235.09375 287.921875 235.308594 C 287.792969 235.410156 287.394531 235.679688 288.007812 235.242188 C 287.867188 235.34375 287.734375 235.453125 287.59375 235.554688 C 285.527344 237.078125 283.3125 238.339844 280.949219 239.335938 L 281.535156 239.089844 C 278.996094 240.15625 276.359375 240.878906 273.632812 241.253906 L 274.285156 241.167969 C 271.480469 241.535156 268.671875 241.53125 265.867188 241.15625 L 266.519531 241.242188 C 263.714844 240.855469 261.007812 240.121094 258.394531 239.027344 L 258.980469 239.277344 C 256.464844 238.160156 254.09375 236.789062 251.875 235.160156 C 250.722656 234.304688 249.511719 233.542969 248.246094 232.871094 C 246.757812 232.113281 245.183594 231.632812 243.527344 231.4375 C 240.441406 231.074219 237.296875 232.277344 235.601562 234.941406 C 234.039062 237.398438 234.0625 240.90625 236.246094 242.996094 C 238.496094 245.144531 241.90625 245.125 244.558594 243.78125 C 247.113281 242.488281 248.648438 239.796875 249.730469 237.261719 C 252.15625 231.554688 254.308594 225.714844 256.3125 219.84375 C 258.292969 214.039062 260.089844 208.171875 261.703125 202.25 C 261.902344 201.515625 262.101562 200.78125 262.292969 200.046875 C 262.621094 198.808594 261.882812 197.324219 260.582031 197.03125 C 260.269531 196.949219 259.953125 196.929688 259.632812 196.972656 C 259.308594 197.015625 259.007812 197.117188 258.726562 197.277344 C 258.445312 197.4375 258.207031 197.644531 258.003906 197.894531 C 257.804688 198.148438 257.65625 198.433594 257.566406 198.742188 Z M 257.566406 198.742188 " fill-opacity="1" fill-rule="nonzero"/><g clip-path="url(#4883d0c5a7)"><path fill="#3f3d56" d="M 282.023438 198.0625 L 281.140625 229.382812 L 280.265625 260.542969 L 279.769531 278.160156 C 279.769531 278.484375 279.835938 278.796875 279.960938 279.09375 C 280.085938 279.394531 280.261719 279.660156 280.492188 279.886719 C 280.722656 280.117188 280.984375 280.296875 281.285156 280.421875 C 281.582031 280.546875 281.894531 280.609375 282.21875 280.613281 C 282.542969 280.605469 282.851562 280.539062 283.148438 280.414062 C 283.449219 280.285156 283.710938 280.109375 283.9375 279.878906 C 284.167969 279.652344 284.34375 279.390625 284.472656 279.089844 C 284.597656 278.792969 284.664062 278.484375 284.671875 278.160156 L 285.554688 246.839844 L 286.429688 215.679688 L 286.925781 198.0625 C 286.925781 197.738281 286.859375 197.425781 286.734375 197.125 C 286.609375 196.828125 286.433594 196.5625 286.203125 196.332031 C 285.972656 196.105469 285.710938 195.925781 285.410156 195.800781 C 285.113281 195.675781 284.800781 195.613281 284.476562 195.609375 C 284.152344 195.617188 283.84375 195.683594 283.546875 195.808594 C 283.246094 195.933594 282.984375 196.113281 282.757812 196.339844 C 282.527344 196.570312 282.351562 196.832031 282.222656 197.128906 C 282.097656 197.429688 282.03125 197.738281 282.023438 198.0625 Z M 282.023438 198.0625 " fill-opacity="1" fill-rule="nonzero"/></g><path fill="#000000" d="M 197.179688 269.414062 L 197.941406 269.414062 L 197.941406 234.742188 L 215.695312 234.742188 L 215.695312 233.984375 L 197.941406 233.984375 L 197.941406 219.351562 L 211.652344 219.351562 C 211.453125 219.097656 211.246094 218.84375 211.03125 218.59375 L 197.941406 218.59375 L 197.941406 208.933594 C 197.6875 208.824219 197.433594 208.722656 197.179688 208.625 L 197.179688 218.59375 L 182.257812 218.59375 L 182.257812 206.214844 C 182.003906 206.226562 181.75 206.242188 181.496094 206.265625 L 181.496094 218.59375 L 169.59375 218.59375 L 169.59375 209.359375 C 169.335938 209.472656 169.085938 209.589844 168.835938 209.714844 L 168.835938 218.59375 L 158.828125 218.59375 L 158.828125 219.351562 L 168.835938 219.351562 L 168.835938 233.984375 L 158.828125 233.984375 L 158.828125 234.742188 L 168.835938 234.742188 L 168.835938 269.414062 L 169.59375 269.414062 L 169.59375 234.742188 C 170.375 234.742188 171.148438 234.820312 171.914062 234.972656 C 172.683594 235.125 173.425781 235.347656 174.148438 235.648438 C 174.871094 235.949219 175.558594 236.3125 176.207031 236.75 C 176.855469 237.183594 177.457031 237.675781 178.011719 238.230469 C 178.5625 238.78125 179.058594 239.382812 179.492188 240.035156 C 179.925781 240.683594 180.292969 241.371094 180.589844 242.09375 C 180.890625 242.816406 181.117188 243.5625 181.269531 244.328125 C 181.421875 245.09375 181.496094 245.867188 181.496094 246.652344 L 181.496094 269.414062 L 182.257812 269.414062 L 182.257812 234.742188 L 197.179688 234.742188 Z M 169.59375 233.984375 L 169.59375 219.351562 L 181.496094 219.351562 L 181.496094 233.984375 Z M 182.257812 233.984375 L 182.257812 219.351562 L 182.554688 219.351562 C 183.515625 219.351562 184.46875 219.445312 185.410156 219.632812 C 186.351562 219.820312 187.265625 220.097656 188.152344 220.46875 C 189.039062 220.835938 189.882812 221.285156 190.679688 221.820312 C 191.480469 222.351562 192.21875 222.960938 192.894531 223.636719 C 193.574219 224.316406 194.179688 225.058594 194.714844 225.855469 C 195.25 226.652344 195.699219 227.496094 196.066406 228.382812 C 196.433594 229.273438 196.710938 230.1875 196.898438 231.128906 C 197.085938 232.070312 197.179688 233.023438 197.179688 233.984375 Z M 182.257812 233.984375 " fill-opacity="0.2" fill-rule="nonzero"/><path fill="#3f3d56" d="M 192.53125 259.019531 C 192.050781 261.15625 191.25 263.167969 190.132812 265.050781 C 189.011719 266.933594 187.625 268.597656 185.976562 270.039062 C 185.734375 270.246094 185.492188 270.449219 185.242188 270.648438 C 184.628906 270.707031 184.023438 270.761719 183.421875 270.820312 C 182.921875 270.867188 182.425781 270.914062 181.9375 270.960938 L 181.847656 270.96875 L 181.789062 270.433594 L 181.539062 268.261719 C 181.058594 267.476562 180.667969 266.644531 180.375 265.769531 C 180.078125 264.898438 179.882812 264 179.792969 263.082031 C 179.699219 262.164062 179.707031 261.246094 179.820312 260.332031 C 179.933594 259.414062 180.148438 258.523438 180.460938 257.65625 C 181.324219 255.328125 182.886719 253.269531 184.421875 251.230469 C 186.542969 248.414062 188.605469 245.625 188.679688 242.191406 C 189.726562 243.53125 190.589844 244.984375 191.261719 246.546875 C 190.625 246.847656 190.066406 247.261719 189.589844 247.78125 C 189.453125 247.929688 189.320312 248.132812 189.414062 248.3125 C 189.492188 248.460938 189.6875 248.496094 189.855469 248.515625 C 190.265625 248.558594 190.675781 248.601562 191.085938 248.644531 C 191.414062 248.679688 191.738281 248.714844 192.066406 248.75 C 192.460938 250.050781 192.730469 251.378906 192.867188 252.730469 C 193.089844 254.84375 192.976562 256.941406 192.53125 259.019531 Z M 192.53125 259.019531 " fill-opacity="1" fill-rule="nonzero"/><path fill="#6c63ff" d="M 203.382812 250.449219 C 201.453125 251.851562 200.324219 253.871094 199.449219 256.09375 C 198.535156 256.386719 197.753906 256.882812 197.105469 257.589844 C 196.972656 257.738281 196.839844 257.945312 196.929688 258.121094 C 197.007812 258.269531 197.203125 258.304688 197.375 258.324219 C 197.78125 258.367188 198.195312 258.410156 198.601562 258.453125 C 197.726562 261.082031 196.921875 263.804688 195.375 266.023438 C 194.332031 267.507812 193.019531 268.695312 191.441406 269.589844 C 191.015625 269.832031 190.578125 270.050781 190.128906 270.242188 C 188.46875 270.367188 186.839844 270.503906 185.242188 270.648438 C 184.628906 270.707031 184.023438 270.761719 183.421875 270.820312 C 182.921875 270.867188 182.425781 270.914062 181.9375 270.960938 C 181.933594 270.78125 181.933594 270.601562 181.9375 270.421875 C 181.988281 268.027344 182.441406 265.710938 183.296875 263.472656 C 184.15625 261.234375 185.363281 259.207031 186.921875 257.386719 C 187.070312 257.21875 187.21875 257.050781 187.371094 256.882812 C 188.964844 255.183594 190.796875 253.796875 192.867188 252.730469 C 196.164062 251.015625 199.667969 250.253906 203.382812 250.449219 Z M 203.382812 250.449219 " fill-opacity="1" fill-rule="nonzero"/><path fill="#6c63ff" d="M 183.988281 269.140625 L 183.609375 270.253906 L 183.421875 270.820312 C 182.921875 270.867188 182.425781 270.914062 181.9375 270.960938 L 181.847656 270.96875 C 181.308594 271.027344 180.765625 271.082031 180.226562 271.136719 C 180.085938 270.972656 179.945312 270.808594 179.808594 270.636719 C 179.386719 270.125 178.992188 269.597656 178.625 269.046875 C 178.253906 268.5 177.914062 267.933594 177.597656 267.351562 C 177.285156 266.765625 177 266.171875 176.742188 265.558594 C 176.488281 264.949219 176.261719 264.328125 176.066406 263.695312 C 175.871094 263.0625 175.710938 262.421875 175.578125 261.773438 C 175.445312 261.125 175.34375 260.472656 175.277344 259.8125 C 175.207031 259.15625 175.171875 258.496094 175.167969 257.832031 C 175.164062 257.171875 175.195312 256.511719 175.253906 255.851562 C 175.316406 255.191406 175.410156 254.539062 175.535156 253.886719 C 175.660156 253.238281 175.816406 252.59375 176.003906 251.960938 C 176.191406 251.324219 176.410156 250.703125 176.660156 250.089844 C 176.910156 249.476562 177.1875 248.875 177.496094 248.289062 C 177.800781 247.703125 178.136719 247.132812 178.5 246.582031 C 178.863281 246.027344 179.253906 245.492188 179.667969 244.980469 C 180.085938 244.464844 180.527344 243.96875 180.988281 243.5 C 181.453125 243.027344 181.9375 242.578125 182.449219 242.152344 C 182.015625 244.414062 182.519531 246.578125 183.347656 248.726562 C 183.257812 248.761719 183.171875 248.796875 183.089844 248.835938 C 182.453125 249.136719 181.894531 249.550781 181.417969 250.070312 C 181.285156 250.21875 181.148438 250.421875 181.242188 250.601562 C 181.320312 250.75 181.515625 250.785156 181.6875 250.804688 C 182.09375 250.847656 182.507812 250.890625 182.914062 250.933594 C 183.242188 250.96875 183.566406 251 183.894531 251.039062 C 184.046875 251.054688 184.203125 251.070312 184.355469 251.085938 C 184.378906 251.136719 184.398438 251.183594 184.421875 251.230469 C 185.351562 253.25 186.355469 255.28125 186.921875 257.386719 C 187.0625 257.917969 187.175781 258.453125 187.253906 258.992188 C 187.382812 259.90625 187.402344 260.824219 187.324219 261.742188 C 187.242188 262.664062 187.0625 263.5625 186.777344 264.441406 C 186.496094 265.320312 186.117188 266.15625 185.648438 266.949219 C 185.175781 267.742188 184.621094 268.472656 183.988281 269.140625 Z M 183.988281 269.140625 " fill-opacity="1" fill-rule="nonzero"/><g clip-path="url(#fd89f0ecb8)"><path fill="#3f3d56" d="M 216.886719 221.71875 C 214.070312 216.226562 209.710938 211.609375 204.585938 208.214844 C 202.015625 206.519531 199.273438 205.164062 196.367188 204.144531 C 193.460938 203.128906 190.472656 202.480469 187.40625 202.203125 C 186.601562 202.128906 185.796875 202.085938 184.988281 202.074219 C 184.035156 202.0625 169.671875 206.207031 164.859375 209.589844 C 159.984375 212.980469 156.132812 217.289062 153.3125 222.515625 C 151.921875 225.105469 150.890625 227.832031 150.21875 230.695312 C 149.546875 233.558594 149.257812 236.457031 149.347656 239.398438 C 149.46875 242.351562 149.933594 245.253906 150.746094 248.097656 C 151.558594 250.945312 152.695312 253.652344 154.152344 256.226562 C 155.59375 258.792969 157.320312 261.148438 159.335938 263.289062 C 161.351562 265.433594 163.59375 267.300781 166.066406 268.898438 C 171.078125 272.097656 176.113281 280.582031 182.03125 280.878906 C 187.996094 281.183594 194.796875 273.179688 200.234375 270.75 C 202.953125 269.523438 205.46875 267.96875 207.78125 266.082031 C 210.09375 264.199219 212.125 262.046875 213.871094 259.628906 C 215.570312 257.261719 216.960938 254.722656 218.046875 252.015625 C 219.128906 249.308594 219.875 246.511719 220.277344 243.625 C 221.121094 237.710938 220.726562 231.613281 218.710938 225.964844 C 218.191406 224.511719 217.582031 223.09375 216.886719 221.71875 C 216.304688 220.574219 214.597656 220.148438 213.53125 220.839844 C 213.257812 221.007812 213.023438 221.222656 212.832031 221.480469 C 212.640625 221.742188 212.5 222.027344 212.417969 222.339844 C 212.339844 222.652344 212.316406 222.96875 212.355469 223.289062 C 212.398438 223.609375 212.496094 223.910156 212.652344 224.195312 C 212.992188 224.867188 213.3125 225.550781 213.605469 226.246094 L 213.359375 225.660156 C 214.472656 228.34375 215.222656 231.128906 215.605469 234.011719 L 215.519531 233.359375 C 215.925781 236.484375 215.917969 239.613281 215.496094 242.738281 L 215.582031 242.085938 C 215.160156 245.210938 214.335938 248.226562 213.113281 251.132812 L 213.363281 250.546875 C 212.734375 252.027344 212.007812 253.453125 211.179688 254.832031 C 210.761719 255.527344 210.316406 256.203125 209.847656 256.867188 C 209.640625 257.15625 209.429688 257.441406 209.214844 257.726562 C 208.933594 258.097656 209.59375 257.242188 209.304688 257.605469 C 209.257812 257.667969 209.207031 257.730469 209.160156 257.792969 C 209.011719 257.976562 208.859375 258.160156 208.707031 258.34375 C 207.6875 259.5625 206.578125 260.691406 205.378906 261.738281 C 205.082031 262 204.78125 262.253906 204.472656 262.5 C 204.320312 262.625 204.167969 262.753906 204.007812 262.867188 C 204.015625 262.863281 204.523438 262.476562 204.222656 262.699219 C 204.128906 262.773438 204.035156 262.84375 203.9375 262.914062 C 203.304688 263.382812 202.652344 263.832031 201.984375 264.253906 C 200.445312 265.222656 198.839844 266.0625 197.164062 266.773438 L 197.75 266.527344 C 194.851562 267.746094 191.84375 268.570312 188.730469 268.996094 L 189.382812 268.910156 C 186.265625 269.328125 183.152344 269.335938 180.035156 268.925781 L 180.6875 269.011719 C 177.859375 268.632812 175.125 267.894531 172.488281 266.792969 L 173.070312 267.042969 C 171.546875 266.398438 170.085938 265.636719 168.6875 264.753906 C 167.996094 264.320312 167.320312 263.855469 166.667969 263.367188 C 166.574219 263.296875 166.480469 263.226562 166.386719 263.15625 C 166.085938 262.929688 166.601562 263.324219 166.605469 263.324219 C 166.433594 263.199219 166.265625 263.066406 166.105469 262.925781 C 165.789062 262.667969 165.476562 262.402344 165.167969 262.132812 C 163.941406 261.050781 162.796875 259.882812 161.738281 258.632812 C 161.476562 258.320312 161.214844 258 160.964844 257.679688 C 160.855469 257.539062 160.652344 257.257812 161.09375 257.851562 C 161.039062 257.773438 160.976562 257.699219 160.917969 257.621094 C 160.777344 257.433594 160.640625 257.246094 160.5 257.054688 C 160.023438 256.390625 159.566406 255.710938 159.132812 255.011719 C 158.152344 253.433594 157.304688 251.785156 156.582031 250.070312 L 156.828125 250.65625 C 155.644531 247.839844 154.84375 244.914062 154.429688 241.882812 L 154.515625 242.535156 C 154.144531 239.742188 154.136719 236.949219 154.5 234.152344 L 154.414062 234.804688 C 154.785156 232.097656 155.503906 229.488281 156.570312 226.96875 L 156.320312 227.554688 C 156.988281 225.984375 157.773438 224.476562 158.675781 223.027344 C 159.125 222.300781 159.601562 221.59375 160.105469 220.90625 C 160.21875 220.75 160.335938 220.59375 160.453125 220.4375 C 160.558594 220.296875 160.847656 219.949219 160.351562 220.566406 C 160.402344 220.503906 160.449219 220.441406 160.496094 220.382812 C 160.773438 220.03125 161.054688 219.6875 161.34375 219.347656 C 162.445312 218.0625 163.628906 216.859375 164.902344 215.742188 C 165.222656 215.460938 165.550781 215.1875 165.882812 214.917969 C 166.03125 214.792969 166.183594 214.671875 166.335938 214.554688 C 166.398438 214.503906 166.457031 214.457031 166.519531 214.410156 C 165.867188 214.929688 166.339844 214.550781 166.484375 214.441406 C 167.167969 213.929688 167.871094 213.441406 168.589844 212.980469 C 170.191406 211.957031 171.867188 211.074219 173.617188 210.332031 L 173.03125 210.578125 C 175.570312 209.511719 186.804688 206.996094 188.851562 207.273438 L 188.199219 207.183594 C 191.214844 207.605469 194.125 208.410156 196.929688 209.597656 L 196.34375 209.351562 C 197.761719 209.953125 199.136719 210.644531 200.464844 211.421875 C 201.125 211.808594 201.777344 212.21875 202.414062 212.652344 C 202.714844 212.855469 203.015625 213.0625 203.308594 213.277344 C 203.457031 213.382812 203.601562 213.492188 203.75 213.601562 C 203.828125 213.660156 203.910156 213.722656 203.992188 213.78125 C 204.332031 214.039062 203.523438 213.414062 203.878906 213.695312 C 205.074219 214.632812 206.203125 215.640625 207.269531 216.722656 C 207.792969 217.253906 208.296875 217.804688 208.785156 218.371094 C 209.035156 218.660156 209.277344 218.957031 209.519531 219.257812 C 209.636719 219.40625 210.042969 219.941406 209.546875 219.285156 C 209.667969 219.445312 209.789062 219.605469 209.910156 219.765625 C 210.945312 221.167969 211.859375 222.644531 212.652344 224.195312 C 213.238281 225.335938 214.9375 225.765625 216.007812 225.074219 C 216.28125 224.90625 216.515625 224.691406 216.707031 224.429688 C 216.898438 224.171875 217.035156 223.886719 217.117188 223.574219 C 217.199219 223.261719 217.222656 222.945312 217.179688 222.621094 C 217.140625 222.300781 217.042969 222 216.886719 221.71875 Z M 216.886719 221.71875 " fill-opacity="1" fill-rule="nonzero"/></g><path fill="#3f3d56" d="M 188.324219 261.738281 C 188.0625 261.75 187.824219 261.6875 187.605469 261.546875 C 187.386719 261.410156 187.226562 261.21875 187.125 260.980469 C 187.027344 260.742188 187.003906 260.496094 187.058594 260.242188 C 187.113281 259.988281 187.238281 259.773438 187.429688 259.597656 C 187.460938 259.472656 187.480469 259.382812 187.511719 259.257812 C 187.5 259.234375 187.488281 259.207031 187.480469 259.179688 C 186.339844 256.464844 179.085938 264.027344 178.769531 266.578125 C 178.632812 267.714844 178.6875 268.839844 178.941406 269.957031 C 176.5625 264.765625 175.371094 259.316406 175.363281 253.605469 C 175.363281 252.1875 175.441406 250.777344 175.597656 249.367188 C 175.730469 248.214844 175.910156 247.066406 176.140625 245.929688 C 176.769531 242.84375 177.753906 239.875 179.085938 237.023438 C 180.421875 234.171875 182.070312 231.515625 184.035156 229.054688 C 186.28125 229.179688 188.25 228.835938 188.441406 224.480469 C 188.472656 223.707031 189.046875 223.035156 189.175781 222.273438 C 188.960938 222.300781 188.742188 222.316406 188.527344 222.332031 C 188.460938 222.335938 188.390625 222.339844 188.324219 222.34375 L 188.296875 222.34375 C 188.058594 222.355469 187.832031 222.296875 187.625 222.175781 C 187.417969 222.054688 187.257812 221.886719 187.152344 221.671875 C 187.042969 221.457031 187 221.226562 187.027344 220.988281 C 187.050781 220.75 187.140625 220.535156 187.292969 220.347656 C 187.386719 220.234375 187.476562 220.121094 187.570312 220.007812 C 187.710938 219.832031 187.855469 219.65625 187.996094 219.480469 C 188.011719 219.464844 188.027344 219.449219 188.042969 219.429688 C 188.203125 219.230469 188.367188 219.03125 188.527344 218.832031 C 188.226562 218.367188 187.839844 217.992188 187.367188 217.710938 C 185.746094 216.757812 183.511719 217.417969 182.339844 218.882812 C 181.164062 220.351562 180.941406 222.410156 181.351562 224.242188 C 181.753906 225.8125 182.410156 227.269531 183.3125 228.617188 C 183.226562 228.730469 183.132812 228.839844 183.046875 228.953125 C 181.433594 231.023438 180.042969 233.234375 178.863281 235.578125 C 179.195312 232.984375 175.132812 223.609375 173.5625 221.625 C 171.675781 219.238281 167.808594 220.277344 167.476562 223.300781 C 167.472656 223.332031 167.46875 223.359375 167.464844 223.390625 C 167.699219 223.523438 167.929688 223.660156 168.152344 223.808594 C 168.4375 224 168.648438 224.257812 168.773438 224.578125 C 168.902344 224.898438 168.929688 225.226562 168.855469 225.566406 C 168.78125 225.902344 168.617188 226.191406 168.367188 226.425781 C 168.113281 226.664062 167.816406 226.808594 167.476562 226.859375 L 167.441406 226.867188 C 164.320312 231.328125 174.332031 242.9375 176.835938 240.332031 C 175.652344 243.6875 174.917969 247.144531 174.636719 250.695312 C 174.476562 252.78125 174.484375 254.871094 174.664062 256.957031 L 174.652344 256.882812 C 174.097656 252.34375 164.542969 245.597656 161.753906 246.160156 C 160.148438 246.480469 158.5625 246.410156 158.808594 248.03125 C 158.8125 248.054688 158.816406 248.082031 158.820312 248.109375 C 159.253906 248.285156 159.675781 248.488281 160.082031 248.714844 C 160.316406 248.847656 160.542969 248.988281 160.765625 249.136719 C 161.054688 249.328125 161.261719 249.585938 161.390625 249.90625 C 161.519531 250.226562 161.546875 250.554688 161.472656 250.890625 C 161.398438 251.230469 161.234375 251.515625 160.980469 251.753906 C 160.730469 251.988281 160.433594 252.132812 160.09375 252.1875 L 160.058594 252.191406 C 160.03125 252.195312 160.011719 252.199219 159.988281 252.203125 C 158.566406 257.097656 169.109375 264.992188 175.519531 262.480469 C 176.160156 265.25 177.074219 267.921875 178.265625 270.5 L 188.078125 270.5 C 188.113281 270.390625 188.144531 270.277344 188.175781 270.171875 C 187.265625 270.226562 186.359375 270.171875 185.460938 270.007812 C 186.1875 269.113281 186.917969 268.214844 187.644531 267.320312 C 187.660156 267.304688 187.675781 267.285156 187.691406 267.269531 C 188.058594 266.8125 188.433594 266.355469 188.800781 265.898438 C 188.820312 264.492188 188.664062 263.105469 188.324219 261.738281 Z M 177.089844 239.628906 L 177.09375 239.625 L 177.089844 239.636719 Z M 174.917969 259.226562 L 174.832031 259.035156 C 174.835938 258.898438 174.835938 258.761719 174.832031 258.621094 C 174.832031 258.582031 174.824219 258.542969 174.824219 258.503906 C 174.855469 258.75 174.886719 258.992188 174.921875 259.234375 Z M 174.917969 259.226562 " fill-opacity="1" fill-rule="nonzero"/><path fill="#3f3d56" d="M 81.695312 237.71875 C 81.695312 238.195312 81.601562 238.65625 81.421875 239.097656 C 81.238281 239.539062 80.976562 239.925781 80.640625 240.261719 C 80.304688 240.601562 79.914062 240.859375 79.472656 241.042969 C 79.035156 241.226562 78.574219 241.316406 78.097656 241.316406 C 77.621094 241.316406 77.164062 241.226562 76.722656 241.042969 C 76.28125 240.859375 75.894531 240.601562 75.554688 240.261719 C 75.21875 239.925781 74.960938 239.539062 74.777344 239.097656 C 74.59375 238.65625 74.503906 238.195312 74.503906 237.71875 C 74.503906 237.242188 74.59375 236.785156 74.777344 236.34375 C 74.960938 235.902344 75.21875 235.515625 75.554688 235.175781 C 75.894531 234.839844 76.28125 234.578125 76.722656 234.398438 C 77.164062 234.214844 77.621094 234.125 78.097656 234.125 C 78.574219 234.125 79.035156 234.214844 79.472656 234.398438 C 79.914062 234.578125 80.304688 234.839844 80.640625 235.175781 C 80.976562 235.515625 81.238281 235.902344 81.421875 236.34375 C 81.601562 236.785156 81.695312 237.242188 81.695312 237.71875 Z M 81.695312 237.71875 " fill-opacity="1" fill-rule="nonzero"/><g clip-path="url(#226ec0eaa6)"><path fill="#3f3d56" d="M 124.835938 276.957031 C 124.835938 277.433594 124.746094 277.894531 124.5625 278.332031 C 124.378906 278.773438 124.121094 279.164062 123.78125 279.5 C 123.445312 279.835938 123.058594 280.097656 122.617188 280.28125 C 122.175781 280.460938 121.71875 280.554688 121.242188 280.554688 C 120.765625 280.554688 120.304688 280.460938 119.863281 280.28125 C 119.425781 280.097656 119.035156 279.835938 118.699219 279.5 C 118.363281 279.164062 118.101562 278.773438 117.917969 278.332031 C 117.738281 277.894531 117.644531 277.433594 117.644531 276.957031 C 117.644531 276.480469 117.738281 276.019531 117.917969 275.582031 C 118.101562 275.140625 118.363281 274.75 118.699219 274.414062 C 119.035156 274.078125 119.425781 273.816406 119.863281 273.632812 C 120.304688 273.453125 120.765625 273.359375 121.242188 273.359375 C 121.71875 273.359375 122.175781 273.453125 122.617188 273.632812 C 123.058594 273.816406 123.445312 274.078125 123.78125 274.414062 C 124.121094 274.75 124.378906 275.140625 124.5625 275.582031 C 124.746094 276.019531 124.835938 276.480469 124.835938 276.957031 Z M 124.835938 276.957031 " fill-opacity="1" fill-rule="nonzero"/></g><g clip-path="url(#e1c0800b35)"><path fill="#3f3d56" d="M 288.582031 276.957031 C 288.582031 277.433594 288.488281 277.894531 288.308594 278.332031 C 288.125 278.773438 287.863281 279.164062 287.527344 279.5 C 287.191406 279.835938 286.800781 280.097656 286.363281 280.28125 C 285.921875 280.460938 285.460938 280.554688 284.984375 280.554688 C 284.507812 280.554688 284.050781 280.460938 283.609375 280.28125 C 283.167969 280.097656 282.78125 279.835938 282.445312 279.5 C 282.105469 279.164062 281.847656 278.773438 281.664062 278.332031 C 281.480469 277.894531 281.390625 277.433594 281.390625 276.957031 C 281.390625 276.480469 281.480469 276.019531 281.664062 275.582031 C 281.847656 275.140625 282.105469 274.75 282.445312 274.414062 C 282.78125 274.078125 283.167969 273.816406 283.609375 273.632812 C 284.050781 273.453125 284.507812 273.359375 284.984375 273.359375 C 285.460938 273.359375 285.921875 273.453125 286.363281 273.632812 C 286.800781 273.816406 287.191406 274.078125 287.527344 274.414062 C 287.863281 274.75 288.125 275.140625 288.308594 275.582031 C 288.488281 276.019531 288.582031 276.480469 288.582031 276.957031 Z M 288.582031 276.957031 " fill-opacity="1" fill-rule="nonzero"/></g><path fill="#3f3d56" d="M 297.40625 231.179688 C 297.40625 231.65625 297.3125 232.117188 297.132812 232.558594 C 296.949219 232.996094 296.691406 233.386719 296.351562 233.722656 C 296.015625 234.0625 295.625 234.320312 295.1875 234.503906 C 294.746094 234.6875 294.285156 234.777344 293.808594 234.777344 C 293.332031 234.777344 292.875 234.6875 292.433594 234.503906 C 291.992188 234.320312 291.605469 234.0625 291.269531 233.722656 C 290.929688 233.386719 290.671875 232.996094 290.488281 232.558594 C 290.304688 232.117188 290.214844 231.65625 290.214844 231.179688 C 290.214844 230.703125 290.304688 230.246094 290.488281 229.804688 C 290.671875 229.363281 290.929688 228.976562 291.269531 228.636719 C 291.605469 228.300781 291.992188 228.039062 292.433594 227.859375 C 292.875 227.675781 293.332031 227.585938 293.808594 227.585938 C 294.285156 227.585938 294.746094 227.675781 295.1875 227.859375 C 295.625 228.039062 296.015625 228.300781 296.351562 228.636719 C 296.691406 228.976562 296.949219 229.363281 297.132812 229.804688 C 297.3125 230.246094 297.40625 230.703125 297.40625 231.179688 Z M 297.40625 231.179688 " fill-opacity="1" fill-rule="nonzero"/><path fill="#3f3d56" d="M 286.945312 197.828125 C 286.945312 198.304688 286.855469 198.765625 286.671875 199.207031 C 286.492188 199.648438 286.230469 200.035156 285.894531 200.371094 C 285.554688 200.710938 285.167969 200.96875 284.726562 201.152344 C 284.285156 201.335938 283.828125 201.425781 283.351562 201.425781 C 282.875 201.425781 282.417969 201.335938 281.976562 201.152344 C 281.535156 200.96875 281.144531 200.710938 280.808594 200.371094 C 280.472656 200.035156 280.210938 199.648438 280.03125 199.207031 C 279.847656 198.765625 279.757812 198.304688 279.757812 197.828125 C 279.757812 197.351562 279.847656 196.894531 280.03125 196.453125 C 280.210938 196.011719 280.472656 195.625 280.808594 195.285156 C 281.144531 194.949219 281.535156 194.6875 281.976562 194.507812 C 282.417969 194.324219 282.875 194.234375 283.351562 194.234375 C 283.828125 194.234375 284.285156 194.324219 284.726562 194.507812 C 285.167969 194.6875 285.554688 194.949219 285.894531 195.285156 C 286.230469 195.625 286.492188 196.011719 286.671875 196.453125 C 286.855469 196.894531 286.945312 197.351562 286.945312 197.828125 Z M 286.945312 197.828125 " fill-opacity="1" fill-rule="nonzero"/><path fill="#3f3d56" d="M 133.332031 231.179688 C 133.332031 231.484375 133.292969 231.785156 133.21875 232.078125 C 133.140625 232.371094 133.027344 232.652344 132.878906 232.917969 C 132.730469 233.183594 132.550781 233.425781 132.339844 233.644531 C 132.132812 233.867188 131.898438 234.054688 131.640625 234.214844 C 131.378906 234.375 131.105469 234.5 130.816406 234.589844 C 130.523438 234.683594 130.226562 234.734375 129.925781 234.75 C 129.621094 234.761719 129.320312 234.738281 129.023438 234.675781 C 128.726562 234.613281 128.441406 234.515625 128.167969 234.378906 C 127.894531 234.246094 127.644531 234.078125 127.414062 233.878906 C 127.183594 233.679688 126.980469 233.457031 126.808594 233.207031 C 126.636719 232.957031 126.5 232.6875 126.394531 232.402344 C 126.289062 232.117188 126.222656 231.820312 126.195312 231.519531 C 126.164062 231.214844 126.171875 230.914062 126.21875 230.613281 C 126.269531 230.3125 126.351562 230.023438 126.472656 229.746094 C 126.59375 229.464844 126.75 229.207031 126.9375 228.96875 C 127.125 228.726562 127.335938 228.515625 127.578125 228.332031 C 127.820312 228.144531 128.082031 227.992188 128.363281 227.875 C 128.640625 227.757812 128.933594 227.675781 129.234375 227.628906 C 129.535156 227.585938 129.835938 227.582031 130.136719 227.613281 C 130.441406 227.644531 130.734375 227.714844 131.015625 227.824219 C 131.300781 227.929688 131.570312 228.070312 131.816406 228.246094 C 132.066406 228.421875 132.289062 228.625 132.484375 228.855469 C 132.679688 229.089844 132.847656 229.34375 132.976562 229.617188 C 133.109375 229.890625 133.207031 230.175781 133.265625 230.472656 C 133.3125 230.707031 133.335938 230.941406 133.332031 231.179688 Z M 133.332031 231.179688 " fill-opacity="1" fill-rule="nonzero"/><path fill="#3f3d56" d="M 208.832031 208.292969 C 208.832031 208.769531 208.742188 209.226562 208.558594 209.667969 C 208.375 210.109375 208.117188 210.5 207.78125 210.835938 C 207.441406 211.171875 207.054688 211.433594 206.613281 211.617188 C 206.171875 211.796875 205.714844 211.890625 205.238281 211.890625 C 204.761719 211.890625 204.300781 211.796875 203.863281 211.617188 C 203.421875 211.433594 203.03125 211.171875 202.695312 210.835938 C 202.359375 210.5 202.097656 210.109375 201.917969 209.667969 C 201.734375 209.226562 201.640625 208.769531 201.640625 208.292969 C 201.640625 207.816406 201.734375 207.355469 201.917969 206.917969 C 202.097656 206.476562 202.359375 206.085938 202.695312 205.75 C 203.03125 205.414062 203.421875 205.152344 203.863281 204.96875 C 204.300781 204.789062 204.761719 204.695312 205.238281 204.695312 C 205.714844 204.695312 206.171875 204.789062 206.613281 204.96875 C 207.054688 205.152344 207.441406 205.414062 207.78125 205.75 C 208.117188 206.085938 208.375 206.476562 208.558594 206.917969 C 208.742188 207.355469 208.832031 207.816406 208.832031 208.292969 Z M 208.832031 208.292969 " fill-opacity="1" fill-rule="nonzero"/><path fill="#3f3d56" d="M 169.613281 208.292969 C 169.613281 208.597656 169.574219 208.894531 169.496094 209.191406 C 169.417969 209.484375 169.304688 209.765625 169.15625 210.03125 C 169.011719 210.296875 168.832031 210.539062 168.621094 210.757812 C 168.410156 210.976562 168.175781 211.167969 167.917969 211.328125 C 167.660156 211.488281 167.382812 211.613281 167.09375 211.703125 C 166.804688 211.792969 166.507812 211.847656 166.203125 211.859375 C 165.898438 211.875 165.597656 211.851562 165.300781 211.789062 C 165.003906 211.726562 164.71875 211.628906 164.445312 211.492188 C 164.171875 211.359375 163.921875 211.191406 163.691406 210.992188 C 163.460938 210.792969 163.261719 210.566406 163.089844 210.316406 C 162.914062 210.066406 162.777344 209.800781 162.671875 209.511719 C 162.570312 209.226562 162.5 208.933594 162.472656 208.628906 C 162.441406 208.328125 162.453125 208.027344 162.5 207.726562 C 162.546875 207.425781 162.632812 207.136719 162.753906 206.855469 C 162.875 206.578125 163.027344 206.320312 163.214844 206.078125 C 163.402344 205.839844 163.617188 205.628906 163.859375 205.441406 C 164.097656 205.257812 164.359375 205.105469 164.640625 204.988281 C 164.921875 204.867188 165.210938 204.785156 165.511719 204.742188 C 165.8125 204.699219 166.113281 204.691406 166.417969 204.726562 C 166.71875 204.757812 167.011719 204.828125 167.296875 204.933594 C 167.582031 205.042969 167.847656 205.183594 168.097656 205.359375 C 168.34375 205.535156 168.566406 205.738281 168.761719 205.96875 C 168.960938 206.199219 169.125 206.453125 169.257812 206.726562 C 169.390625 207.003906 169.484375 207.289062 169.542969 207.585938 C 169.589844 207.820312 169.613281 208.054688 169.613281 208.292969 Z M 169.613281 208.292969 " fill-opacity="1" fill-rule="nonzero"/><path fill="#3f3d56" d="M 123.203125 197.828125 C 123.199219 198.132812 123.164062 198.433594 123.085938 198.726562 C 123.007812 199.023438 122.894531 199.300781 122.746094 199.566406 C 122.597656 199.832031 122.421875 200.074219 122.210938 200.296875 C 122 200.515625 121.765625 200.703125 121.507812 200.863281 C 121.25 201.023438 120.972656 201.148438 120.683594 201.242188 C 120.394531 201.332031 120.097656 201.382812 119.792969 201.398438 C 119.488281 201.410156 119.1875 201.386719 118.890625 201.324219 C 118.59375 201.261719 118.308594 201.164062 118.035156 201.03125 C 117.761719 200.894531 117.511719 200.726562 117.28125 200.527344 C 117.050781 200.328125 116.851562 200.105469 116.679688 199.855469 C 116.503906 199.605469 116.367188 199.335938 116.261719 199.050781 C 116.15625 198.765625 116.089844 198.46875 116.0625 198.167969 C 116.03125 197.863281 116.042969 197.5625 116.089844 197.261719 C 116.136719 196.960938 116.21875 196.671875 116.339844 196.394531 C 116.460938 196.113281 116.617188 195.855469 116.804688 195.617188 C 116.992188 195.375 117.207031 195.164062 117.449219 194.980469 C 117.6875 194.792969 117.949219 194.640625 118.230469 194.523438 C 118.507812 194.40625 118.800781 194.324219 119.101562 194.28125 C 119.402344 194.234375 119.703125 194.230469 120.003906 194.261719 C 120.308594 194.292969 120.601562 194.363281 120.886719 194.472656 C 121.171875 194.578125 121.4375 194.71875 121.683594 194.894531 C 121.933594 195.070312 122.15625 195.273438 122.351562 195.507812 C 122.550781 195.738281 122.714844 195.992188 122.847656 196.265625 C 122.976562 196.539062 123.074219 196.824219 123.132812 197.125 C 123.179688 197.355469 123.203125 197.59375 123.203125 197.828125 Z M 123.203125 197.828125 " fill-opacity="1" fill-rule="nonzero"/><path fill="#3f3d56" d="M 246.417969 239.027344 C 246.417969 239.503906 246.328125 239.964844 246.144531 240.40625 C 245.960938 240.84375 245.703125 241.234375 245.367188 241.570312 C 245.027344 241.910156 244.640625 242.167969 244.199219 242.351562 C 243.757812 242.535156 243.300781 242.625 242.824219 242.625 C 242.347656 242.625 241.886719 242.535156 241.449219 242.351562 C 241.007812 242.167969 240.617188 241.910156 240.28125 241.570312 C 239.945312 241.234375 239.683594 240.84375 239.503906 240.40625 C 239.320312 239.964844 239.230469 239.503906 239.230469 239.027344 C 239.230469 238.550781 239.320312 238.09375 239.503906 237.652344 C 239.683594 237.210938 239.945312 236.820312 240.28125 236.484375 C 240.617188 236.148438 241.007812 235.886719 241.449219 235.707031 C 241.886719 235.523438 242.347656 235.429688 242.824219 235.429688 C 243.300781 235.429688 243.757812 235.523438 244.199219 235.707031 C 244.640625 235.886719 245.027344 236.148438 245.367188 236.484375 C 245.703125 236.820312 245.960938 237.210938 246.144531 237.652344 C 246.328125 238.09375 246.417969 238.550781 246.417969 239.027344 Z M 246.417969 239.027344 " fill-opacity="1" fill-rule="nonzero"/><path fill="#3f3d56" d="M 191.511719 204.695312 C 191.511719 205.039062 191.476562 205.378906 191.410156 205.714844 C 191.34375 206.054688 191.242188 206.378906 191.113281 206.699219 C 190.980469 207.015625 190.820312 207.316406 190.628906 207.601562 C 190.4375 207.886719 190.222656 208.152344 189.980469 208.394531 C 189.734375 208.636719 189.472656 208.855469 189.1875 209.046875 C 188.902344 209.238281 188.597656 209.398438 188.28125 209.53125 C 187.964844 209.660156 187.636719 209.761719 187.300781 209.828125 C 186.964844 209.894531 186.625 209.925781 186.28125 209.925781 C 185.9375 209.925781 185.597656 209.894531 185.261719 209.828125 C 184.925781 209.761719 184.597656 209.660156 184.28125 209.53125 C 183.960938 209.398438 183.660156 209.238281 183.375 209.046875 C 183.089844 208.855469 182.828125 208.636719 182.582031 208.394531 C 182.339844 208.152344 182.125 207.886719 181.933594 207.601562 C 181.742188 207.316406 181.582031 207.015625 181.449219 206.699219 C 181.320312 206.378906 181.21875 206.054688 181.152344 205.714844 C 181.085938 205.378906 181.050781 205.039062 181.050781 204.695312 C 181.050781 204.351562 181.085938 204.011719 181.152344 203.675781 C 181.21875 203.339844 181.320312 203.011719 181.449219 202.695312 C 181.582031 202.375 181.742188 202.074219 181.933594 201.789062 C 182.125 201.503906 182.339844 201.238281 182.582031 200.996094 C 182.828125 200.753906 183.089844 200.535156 183.375 200.347656 C 183.660156 200.15625 183.960938 199.992188 184.28125 199.863281 C 184.597656 199.730469 184.925781 199.632812 185.261719 199.566406 C 185.597656 199.496094 185.9375 199.464844 186.28125 199.464844 C 186.625 199.464844 186.964844 199.496094 187.300781 199.566406 C 187.636719 199.632812 187.964844 199.730469 188.28125 199.863281 C 188.597656 199.992188 188.902344 200.15625 189.1875 200.347656 C 189.472656 200.535156 189.734375 200.753906 189.980469 200.996094 C 190.222656 201.238281 190.4375 201.503906 190.628906 201.789062 C 190.820312 202.074219 190.980469 202.375 191.113281 202.695312 C 191.242188 203.011719 191.34375 203.339844 191.410156 203.675781 C 191.476562 204.011719 191.511719 204.351562 191.511719 204.695312 Z M 191.511719 204.695312 " fill-opacity="1" fill-rule="nonzero"/><g clip-path="url(#4d9ab3f3df)"><path fill="#cacaca" d="M 327.699219 280.828125 L 47.355469 280.929688 C 47.25 280.929688 47.15625 280.890625 47.082031 280.816406 C 47.003906 280.738281 46.96875 280.648438 46.96875 280.539062 C 46.96875 280.433594 47.003906 280.339844 47.082031 280.265625 C 47.15625 280.1875 47.25 280.152344 47.355469 280.152344 L 327.699219 280.050781 C 327.808594 280.050781 327.898438 280.089844 327.976562 280.164062 C 328.050781 280.238281 328.089844 280.332031 328.089844 280.4375 C 328.089844 280.546875 328.050781 280.636719 327.976562 280.714844 C 327.898438 280.789062 327.808594 280.828125 327.699219 280.828125 Z M 327.699219 280.828125 " fill-opacity="1" fill-rule="nonzero"/></g></svg>