<svg xmlns="http://www.w3.org/2000/svg" xmlns:xlink="http://www.w3.org/1999/xlink" width="500" zoomAndPan="magnify" viewBox="0 0 375 374.999991" height="500" preserveAspectRatio="xMidYMid meet" version="1.0"><defs><clipPath id="f788960923"><path d="M 59 94.179688 L 174 94.179688 L 174 208 L 59 208 Z M 59 94.179688 " clip-rule="nonzero"/></clipPath><clipPath id="e8196118e2"><path d="M 38.273438 107 L 68 107 L 68 146 L 38.273438 146 Z M 38.273438 107 " clip-rule="nonzero"/></clipPath><clipPath id="4b49401bd2"><path d="M 186 260 L 337.523438 260 L 337.523438 280.929688 L 186 280.929688 Z M 186 260 " clip-rule="nonzero"/></clipPath></defs><rect x="-37.5" width="450" fill="#ffffff" y="-37.499999" height="449.999989" fill-opacity="1"/><rect x="-37.5" width="450" fill="#edf5fa" y="-37.499999" height="449.999989" fill-opacity="1"/><g clip-path="url(#f788960923)"><path fill="#f2f2f2" d="M 173.429688 151.085938 C 173.429688 152.949219 173.335938 154.808594 173.152344 156.664062 C 172.972656 158.519531 172.699219 160.359375 172.335938 162.1875 C 171.972656 164.015625 171.519531 165.820312 170.980469 167.605469 C 170.4375 169.386719 169.8125 171.140625 169.097656 172.863281 C 168.386719 174.585938 167.589844 176.269531 166.710938 177.910156 C 165.832031 179.554688 164.878906 181.152344 163.84375 182.703125 C 162.808594 184.25 161.699219 185.746094 160.515625 187.1875 C 159.335938 188.628906 158.085938 190.007812 156.769531 191.324219 C 155.453125 192.644531 154.074219 193.894531 152.632812 195.074219 C 151.191406 196.257812 149.699219 197.367188 148.148438 198.402344 C 146.601562 199.4375 145.003906 200.394531 143.363281 201.273438 C 141.71875 202.152344 140.039062 202.949219 138.316406 203.660156 C 136.59375 204.375 134.84375 205 133.0625 205.542969 C 131.277344 206.082031 129.472656 206.535156 127.644531 206.898438 C 125.820312 207.261719 123.980469 207.535156 122.125 207.71875 C 120.269531 207.902344 118.414062 207.992188 116.550781 207.992188 C 114.6875 207.992188 112.828125 207.902344 110.976562 207.71875 C 109.121094 207.535156 107.28125 207.261719 105.453125 206.898438 C 103.625 206.535156 101.820312 206.082031 100.039062 205.542969 C 98.257812 205 96.503906 204.375 94.785156 203.660156 C 93.0625 202.949219 91.382812 202.152344 89.738281 201.273438 C 88.09375 200.394531 86.5 199.4375 84.949219 198.402344 C 83.402344 197.367188 81.90625 196.257812 80.46875 195.074219 C 79.027344 193.894531 77.648438 192.644531 76.332031 191.324219 C 75.015625 190.007812 73.765625 188.628906 72.582031 187.1875 C 71.402344 185.746094 70.292969 184.25 69.257812 182.703125 C 68.222656 181.152344 67.265625 179.554688 66.386719 177.910156 C 65.511719 176.269531 64.714844 174.585938 64.003906 172.863281 C 63.289062 171.140625 62.664062 169.386719 62.121094 167.605469 C 61.582031 165.820312 61.128906 164.015625 60.765625 162.1875 C 60.402344 160.359375 60.128906 158.519531 59.945312 156.664062 C 59.765625 154.808594 59.671875 152.949219 59.671875 151.085938 C 59.671875 149.222656 59.765625 147.363281 59.945312 145.507812 C 60.128906 143.652344 60.402344 141.8125 60.765625 139.984375 C 61.128906 138.15625 61.582031 136.351562 62.121094 134.566406 C 62.664062 132.78125 63.289062 131.03125 64.003906 129.308594 C 64.714844 127.585938 65.511719 125.902344 66.386719 124.261719 C 67.265625 122.617188 68.222656 121.019531 69.257812 119.46875 C 70.292969 117.921875 71.402344 116.425781 72.582031 114.984375 C 73.765625 113.542969 75.015625 112.164062 76.332031 110.847656 C 77.648438 109.527344 79.027344 108.277344 80.46875 107.097656 C 81.90625 105.914062 83.402344 104.804688 84.949219 103.769531 C 86.5 102.734375 88.09375 101.777344 89.738281 100.898438 C 91.382812 100.019531 93.0625 99.222656 94.785156 98.511719 C 96.503906 97.796875 98.257812 97.171875 100.039062 96.628906 C 101.820312 96.089844 103.625 95.636719 105.453125 95.273438 C 107.28125 94.910156 109.121094 94.636719 110.976562 94.453125 C 112.828125 94.269531 114.6875 94.179688 116.550781 94.179688 C 118.414062 94.179688 120.269531 94.269531 122.125 94.453125 C 123.980469 94.636719 125.820312 94.910156 127.644531 95.273438 C 129.472656 95.636719 131.277344 96.089844 133.0625 96.628906 C 134.84375 97.171875 136.59375 97.796875 138.316406 98.511719 C 140.039062 99.222656 141.71875 100.019531 143.363281 100.898438 C 145.003906 101.777344 146.601562 102.734375 148.148438 103.769531 C 149.699219 104.804688 151.191406 105.914062 152.632812 107.097656 C 154.074219 108.277344 155.453125 109.527344 156.769531 110.847656 C 158.085938 112.164062 159.335938 113.542969 160.515625 114.984375 C 161.699219 116.425781 162.808594 117.921875 163.84375 119.46875 C 164.878906 121.019531 165.832031 122.617188 166.710938 124.261719 C 167.589844 125.902344 168.386719 127.585938 169.097656 129.308594 C 169.8125 131.03125 170.4375 132.78125 170.980469 134.566406 C 171.519531 136.351562 171.972656 138.15625 172.335938 139.984375 C 172.699219 141.8125 172.972656 143.652344 173.152344 145.507812 C 173.335938 147.363281 173.429688 149.222656 173.429688 151.085938 Z M 173.429688 151.085938 " fill-opacity="1" fill-rule="nonzero"/></g><g clip-path="url(#e8196118e2)"><path fill="#2f2e41" d="M 38.414062 107.84375 C 38.414062 128.546875 51.398438 145.300781 67.441406 145.300781 " fill-opacity="1" fill-rule="nonzero"/></g><path fill="#6c63ff" d="M 67.441406 145.300781 C 67.441406 124.363281 81.929688 107.421875 99.832031 107.421875 " fill-opacity="1" fill-rule="nonzero"/><path fill="#6c63ff" d="M 48.929688 109.71875 C 48.929688 129.386719 57.210938 145.300781 67.441406 145.300781 " fill-opacity="1" fill-rule="nonzero"/><path fill="#2f2e41" d="M 67.441406 145.300781 C 67.441406 118.546875 84.1875 96.898438 104.882812 96.898438 " fill-opacity="1" fill-rule="nonzero"/><path fill="#a8a8a8" d="M 61.335938 145.566406 C 61.335938 145.566406 65.449219 145.4375 66.691406 144.554688 C 67.933594 143.671875 73.023438 142.617188 73.332031 144.035156 C 73.640625 145.449219 79.519531 151.082031 74.871094 151.121094 C 70.222656 151.160156 64.070312 150.398438 62.832031 149.640625 C 61.59375 148.886719 61.335938 145.566406 61.335938 145.566406 Z M 61.335938 145.566406 " fill-opacity="1" fill-rule="nonzero"/><path fill="#000000" d="M 74.953125 150.628906 C 70.304688 150.664062 64.15625 149.902344 62.917969 149.148438 C 61.972656 148.574219 61.597656 146.511719 61.472656 145.558594 C 61.386719 145.5625 61.335938 145.566406 61.335938 145.566406 C 61.335938 145.566406 61.59375 148.886719 62.832031 149.640625 C 64.070312 150.398438 70.222656 151.160156 74.871094 151.121094 C 76.210938 151.109375 76.675781 150.632812 76.648438 149.925781 C 76.464844 150.351562 75.953125 150.621094 74.953125 150.628906 Z M 74.953125 150.628906 " fill-opacity="0.2" fill-rule="nonzero"/><path fill="#3f3d56" d="M 141.382812 207.589844 C 141.382812 207.8125 141.304688 208.035156 141.144531 208.257812 C 140.984375 208.480469 140.742188 208.699219 140.425781 208.917969 C 140.105469 209.136719 139.707031 209.351562 139.234375 209.566406 C 138.757812 209.777344 138.207031 209.988281 137.582031 210.191406 C 136.957031 210.398438 136.257812 210.597656 135.488281 210.796875 C 134.71875 210.992188 133.878906 211.183594 132.96875 211.367188 C 132.058594 211.554688 131.085938 211.730469 130.050781 211.902344 C 129.011719 212.074219 127.914062 212.242188 126.757812 212.398438 C 125.601562 212.554688 124.390625 212.703125 123.128906 212.84375 C 121.863281 212.988281 120.550781 213.121094 119.191406 213.242188 C 117.832031 213.367188 116.429688 213.480469 114.988281 213.585938 C 113.546875 213.691406 112.070312 213.785156 110.558594 213.871094 C 109.046875 213.957031 107.507812 214.03125 105.945312 214.097656 C 104.378906 214.160156 102.796875 214.214844 101.191406 214.257812 C 99.585938 214.300781 97.972656 214.332031 96.34375 214.355469 C 94.714844 214.378906 93.085938 214.386719 91.449219 214.386719 C 89.8125 214.386719 88.183594 214.378906 86.554688 214.355469 C 84.925781 214.332031 83.3125 214.300781 81.707031 214.257812 C 80.101562 214.214844 78.519531 214.160156 76.953125 214.097656 C 75.390625 214.03125 73.851562 213.957031 72.339844 213.871094 C 70.828125 213.785156 69.351562 213.691406 67.910156 213.585938 C 66.46875 213.480469 65.066406 213.367188 63.707031 213.242188 C 62.347656 213.121094 61.035156 212.988281 59.769531 212.84375 C 58.507812 212.703125 57.296875 212.554688 56.140625 212.398438 C 54.984375 212.242188 53.886719 212.074219 52.847656 211.902344 C 51.8125 211.730469 50.839844 211.554688 49.929688 211.367188 C 49.019531 211.183594 48.179688 210.992188 47.410156 210.796875 C 46.640625 210.597656 45.941406 210.398438 45.316406 210.191406 C 44.691406 209.988281 44.140625 209.777344 43.664062 209.566406 C 43.191406 209.351562 42.792969 209.136719 42.472656 208.917969 C 42.15625 208.699219 41.914062 208.480469 41.753906 208.257812 C 41.59375 208.035156 41.515625 207.8125 41.515625 207.589844 C 41.515625 207.367188 41.59375 207.148438 41.753906 206.925781 C 41.914062 206.703125 42.15625 206.484375 42.472656 206.265625 C 42.792969 206.046875 43.191406 205.832031 43.664062 205.617188 C 44.140625 205.40625 44.691406 205.195312 45.316406 204.992188 C 45.941406 204.785156 46.640625 204.585938 47.410156 204.386719 C 48.179688 204.191406 49.019531 204 49.929688 203.816406 C 50.839844 203.628906 51.8125 203.453125 52.847656 203.28125 C 53.886719 203.109375 54.984375 202.941406 56.140625 202.785156 C 57.296875 202.628906 58.507812 202.480469 59.769531 202.335938 C 61.035156 202.195312 62.347656 202.0625 63.707031 201.941406 C 65.066406 201.816406 66.46875 201.703125 67.910156 201.597656 C 69.351562 201.492188 70.828125 201.398438 72.339844 201.3125 C 73.851562 201.226562 75.390625 201.152344 76.953125 201.085938 C 78.519531 201.023438 80.101562 200.96875 81.707031 200.925781 C 83.3125 200.882812 84.925781 200.847656 86.554688 200.828125 C 88.183594 200.804688 89.8125 200.796875 91.449219 200.796875 C 93.085938 200.796875 94.714844 200.804688 96.34375 200.828125 C 97.972656 200.847656 99.585938 200.882812 101.191406 200.925781 C 102.796875 200.96875 104.378906 201.023438 105.945312 201.085938 C 107.507812 201.152344 109.046875 201.226562 110.558594 201.3125 C 112.070312 201.398438 113.546875 201.492188 114.988281 201.597656 C 116.429688 201.703125 117.832031 201.816406 119.191406 201.941406 C 120.550781 202.0625 121.863281 202.195312 123.128906 202.335938 C 124.390625 202.480469 125.601562 202.628906 126.757812 202.785156 C 127.914062 202.941406 129.011719 203.109375 130.050781 203.28125 C 131.085938 203.453125 132.058594 203.628906 132.96875 203.816406 C 133.878906 204 134.71875 204.191406 135.488281 204.386719 C 136.257812 204.585938 136.957031 204.785156 137.582031 204.992188 C 138.207031 205.195312 138.757812 205.40625 139.234375 205.617188 C 139.707031 205.832031 140.105469 206.046875 140.425781 206.265625 C 140.742188 206.484375 140.984375 206.703125 141.144531 206.925781 C 141.304688 207.148438 141.382812 207.367188 141.382812 207.589844 Z M 141.382812 207.589844 " fill-opacity="1" fill-rule="nonzero"/><path fill="#000000" d="M 133.375 207.589844 C 133.375 207.777344 133.304688 207.964844 133.171875 208.152344 C 133.035156 208.335938 132.835938 208.523438 132.566406 208.703125 C 132.300781 208.886719 131.964844 209.070312 131.566406 209.25 C 131.167969 209.425781 130.707031 209.601562 130.183594 209.777344 C 129.65625 209.949219 129.070312 210.117188 128.421875 210.28125 C 127.777344 210.445312 127.070312 210.605469 126.308594 210.761719 C 125.542969 210.917969 124.726562 211.066406 123.855469 211.210938 C 122.984375 211.355469 122.066406 211.496094 121.09375 211.625 C 120.121094 211.757812 119.105469 211.882812 118.046875 212.003906 C 116.984375 212.121094 115.882812 212.234375 114.742188 212.335938 C 113.597656 212.441406 112.421875 212.535156 111.210938 212.625 C 110 212.710938 108.761719 212.792969 107.492188 212.863281 C 106.222656 212.933594 104.933594 213 103.617188 213.050781 C 102.304688 213.105469 100.976562 213.152344 99.628906 213.1875 C 98.28125 213.226562 96.925781 213.253906 95.558594 213.269531 C 94.191406 213.289062 92.824219 213.296875 91.449219 213.296875 C 90.078125 213.296875 88.707031 213.289062 87.339844 213.269531 C 85.972656 213.253906 84.617188 213.226562 83.269531 213.1875 C 81.921875 213.152344 80.59375 213.105469 79.28125 213.050781 C 77.964844 213 76.675781 212.933594 75.40625 212.863281 C 74.136719 212.792969 72.898438 212.710938 71.6875 212.625 C 70.476562 212.535156 69.300781 212.441406 68.15625 212.335938 C 67.015625 212.234375 65.914062 212.121094 64.851562 212.003906 C 63.792969 211.882812 62.777344 211.757812 61.804688 211.625 C 60.832031 211.496094 59.914062 211.355469 59.042969 211.210938 C 58.171875 211.066406 57.355469 210.917969 56.589844 210.761719 C 55.828125 210.605469 55.121094 210.445312 54.476562 210.28125 C 53.828125 210.117188 53.242188 209.949219 52.714844 209.777344 C 52.191406 209.601562 51.730469 209.425781 51.332031 209.25 C 50.933594 209.070312 50.597656 208.886719 50.332031 208.703125 C 50.0625 208.523438 49.863281 208.335938 49.726562 208.152344 C 49.59375 207.964844 49.527344 207.777344 49.527344 207.589844 C 49.527344 207.40625 49.59375 207.21875 49.726562 207.03125 C 49.863281 206.847656 50.0625 206.660156 50.332031 206.476562 C 50.597656 206.296875 50.933594 206.113281 51.332031 205.933594 C 51.730469 205.757812 52.191406 205.582031 52.714844 205.40625 C 53.242188 205.234375 53.828125 205.066406 54.476562 204.902344 C 55.121094 204.738281 55.828125 204.578125 56.589844 204.421875 C 57.355469 204.265625 58.171875 204.117188 59.042969 203.972656 C 59.914062 203.828125 60.832031 203.6875 61.804688 203.554688 C 62.777344 203.425781 63.792969 203.300781 64.851562 203.179688 C 65.914062 203.0625 67.015625 202.949219 68.15625 202.847656 C 69.300781 202.742188 70.476562 202.648438 71.6875 202.558594 C 72.898438 202.472656 74.136719 202.390625 75.40625 202.320312 C 76.675781 202.25 77.964844 202.183594 79.28125 202.132812 C 80.59375 202.078125 81.921875 202.03125 83.269531 201.996094 C 84.617188 201.957031 85.972656 201.929688 87.339844 201.914062 C 88.707031 201.894531 90.078125 201.886719 91.449219 201.886719 C 92.824219 201.886719 94.191406 201.894531 95.558594 201.914062 C 96.925781 201.929688 98.28125 201.957031 99.628906 201.996094 C 100.976562 202.03125 102.304688 202.078125 103.617188 202.132812 C 104.933594 202.183594 106.222656 202.25 107.492188 202.320312 C 108.761719 202.390625 110 202.472656 111.210938 202.558594 C 112.421875 202.648438 113.597656 202.742188 114.742188 202.847656 C 115.882812 202.949219 116.984375 203.0625 118.046875 203.179688 C 119.105469 203.300781 120.121094 203.425781 121.09375 203.554688 C 122.066406 203.6875 122.984375 203.828125 123.855469 203.972656 C 124.726562 204.117188 125.542969 204.265625 126.308594 204.421875 C 127.070312 204.578125 127.777344 204.738281 128.421875 204.902344 C 129.070312 205.066406 129.65625 205.234375 130.183594 205.40625 C 130.707031 205.582031 131.167969 205.757812 131.566406 205.933594 C 131.964844 206.113281 132.300781 206.296875 132.566406 206.476562 C 132.835938 206.660156 133.035156 206.847656 133.171875 207.03125 C 133.304688 207.21875 133.375 207.40625 133.375 207.589844 Z M 133.375 207.589844 " fill-opacity="0.1" fill-rule="nonzero"/><g clip-path="url(#4b49401bd2)"><path fill="#3f3d56" d="M 337.386719 270.644531 C 337.386719 270.980469 337.261719 271.316406 337.019531 271.652344 C 336.777344 271.988281 336.414062 272.320312 335.933594 272.648438 C 335.449219 272.980469 334.847656 273.308594 334.132812 273.628906 C 333.414062 273.953125 332.578125 274.269531 331.632812 274.578125 C 330.683594 274.890625 329.628906 275.195312 328.460938 275.492188 C 327.296875 275.789062 326.023438 276.078125 324.648438 276.359375 C 323.273438 276.636719 321.800781 276.90625 320.230469 277.167969 C 318.660156 277.429688 317 277.679688 315.25 277.917969 C 313.5 278.15625 311.667969 278.378906 309.757812 278.59375 C 307.84375 278.808594 305.855469 279.007812 303.800781 279.195312 C 301.742188 279.382812 299.621094 279.554688 297.4375 279.714844 C 295.253906 279.875 293.019531 280.015625 290.734375 280.144531 C 288.449219 280.273438 286.121094 280.386719 283.75 280.484375 C 281.382812 280.585938 278.984375 280.664062 276.558594 280.730469 C 274.128906 280.796875 271.683594 280.847656 269.222656 280.878906 C 266.757812 280.914062 264.289062 280.929688 261.816406 280.929688 C 259.339844 280.929688 256.871094 280.914062 254.40625 280.878906 C 251.945312 280.847656 249.5 280.796875 247.070312 280.730469 C 244.644531 280.664062 242.246094 280.585938 239.878906 280.484375 C 237.511719 280.386719 235.183594 280.273438 232.894531 280.144531 C 230.609375 280.015625 228.375 279.875 226.191406 279.714844 C 224.007812 279.554688 221.886719 279.382812 219.832031 279.195312 C 217.773438 279.007812 215.789062 278.808594 213.875 278.59375 C 211.960938 278.378906 210.128906 278.15625 208.378906 277.917969 C 206.628906 277.679688 204.96875 277.429688 203.398438 277.167969 C 201.828125 276.90625 200.355469 276.636719 198.980469 276.359375 C 197.605469 276.078125 196.335938 275.789062 195.167969 275.492188 C 194 275.195312 192.945312 274.890625 191.996094 274.578125 C 191.050781 274.269531 190.21875 273.953125 189.5 273.628906 C 188.78125 273.308594 188.179688 272.980469 187.699219 272.648438 C 187.214844 272.320312 186.851562 271.988281 186.609375 271.652344 C 186.367188 271.316406 186.246094 270.980469 186.246094 270.644531 C 186.246094 270.304688 186.367188 269.96875 186.609375 269.636719 C 186.851562 269.300781 187.214844 268.96875 187.699219 268.636719 C 188.179688 268.304688 188.78125 267.980469 189.5 267.65625 C 190.21875 267.335938 191.050781 267.019531 191.996094 266.707031 C 192.945312 266.394531 194 266.089844 195.167969 265.792969 C 196.335938 265.496094 197.605469 265.207031 198.980469 264.929688 C 200.355469 264.648438 201.828125 264.378906 203.398438 264.117188 C 204.96875 263.859375 206.628906 263.609375 208.378906 263.371094 C 210.128906 263.132812 211.960938 262.90625 213.875 262.691406 C 215.789062 262.476562 217.773438 262.277344 219.832031 262.089844 C 221.886719 261.902344 224.007812 261.730469 226.191406 261.570312 C 228.375 261.414062 230.609375 261.269531 232.894531 261.140625 C 235.183594 261.011719 237.511719 260.898438 239.878906 260.800781 C 242.246094 260.703125 244.644531 260.621094 247.070312 260.554688 C 249.5 260.488281 251.945312 260.441406 254.40625 260.40625 C 256.871094 260.375 259.339844 260.355469 261.816406 260.355469 C 264.289062 260.355469 266.757812 260.375 269.222656 260.40625 C 271.683594 260.441406 274.128906 260.488281 276.558594 260.554688 C 278.984375 260.621094 281.382812 260.703125 283.75 260.800781 C 286.121094 260.898438 288.449219 261.011719 290.734375 261.140625 C 293.019531 261.269531 295.253906 261.414062 297.4375 261.570312 C 299.621094 261.730469 301.742188 261.902344 303.800781 262.089844 C 305.855469 262.277344 307.84375 262.476562 309.757812 262.691406 C 311.667969 262.90625 313.5 263.132812 315.25 263.371094 C 317 263.609375 318.660156 263.859375 320.230469 264.117188 C 321.800781 264.378906 323.273438 264.648438 324.648438 264.929688 C 326.023438 265.207031 327.296875 265.496094 328.460938 265.792969 C 329.628906 266.089844 330.683594 266.394531 331.632812 266.707031 C 332.578125 267.019531 333.414062 267.335938 334.128906 267.65625 C 334.847656 267.980469 335.449219 268.304688 335.933594 268.636719 C 336.414062 268.96875 336.777344 269.300781 337.019531 269.636719 C 337.261719 269.96875 337.386719 270.304688 337.386719 270.644531 Z M 337.386719 270.644531 " fill-opacity="1" fill-rule="nonzero"/></g><path fill="#3f3d56" d="M 166.753906 266.636719 C 166.753906 266.839844 166.679688 267.039062 166.535156 267.242188 C 166.386719 267.441406 166.167969 267.644531 165.878906 267.839844 C 165.589844 268.039062 165.230469 268.234375 164.796875 268.429688 C 164.367188 268.621094 163.867188 268.8125 163.296875 269 C 162.726562 269.1875 162.09375 269.371094 161.390625 269.546875 C 160.691406 269.726562 159.925781 269.898438 159.101562 270.070312 C 158.277344 270.238281 157.390625 270.398438 156.449219 270.554688 C 155.503906 270.710938 154.507812 270.863281 153.457031 271.003906 C 152.40625 271.148438 151.304688 271.285156 150.15625 271.410156 C 149.007812 271.539062 147.8125 271.660156 146.578125 271.773438 C 145.339844 271.886719 144.066406 271.988281 142.757812 272.085938 C 141.445312 272.179688 140.101562 272.265625 138.730469 272.34375 C 137.355469 272.421875 135.957031 272.488281 134.535156 272.546875 C 133.113281 272.605469 131.671875 272.65625 130.214844 272.695312 C 128.753906 272.734375 127.285156 272.765625 125.804688 272.785156 C 124.328125 272.804688 122.84375 272.816406 121.355469 272.816406 C 119.871094 272.816406 118.386719 272.804688 116.90625 272.785156 C 115.425781 272.765625 113.957031 272.734375 112.5 272.695312 C 111.042969 272.65625 109.601562 272.605469 108.179688 272.546875 C 106.757812 272.488281 105.359375 272.421875 103.984375 272.34375 C 102.609375 272.265625 101.269531 272.179688 99.957031 272.085938 C 98.644531 271.988281 97.371094 271.886719 96.136719 271.773438 C 94.898438 271.660156 93.707031 271.539062 92.558594 271.410156 C 91.410156 271.285156 90.308594 271.148438 89.257812 271.003906 C 88.207031 270.863281 87.207031 270.710938 86.265625 270.554688 C 85.324219 270.398438 84.4375 270.238281 83.613281 270.070312 C 82.785156 269.898438 82.023438 269.726562 81.320312 269.546875 C 80.621094 269.371094 79.984375 269.1875 79.417969 269 C 78.847656 268.8125 78.347656 268.621094 77.917969 268.429688 C 77.484375 268.234375 77.125 268.039062 76.832031 267.839844 C 76.542969 267.644531 76.324219 267.441406 76.179688 267.242188 C 76.035156 267.039062 75.960938 266.839844 75.960938 266.636719 C 75.960938 266.433594 76.035156 266.230469 76.179688 266.03125 C 76.324219 265.828125 76.542969 265.628906 76.832031 265.429688 C 77.125 265.230469 77.484375 265.035156 77.917969 264.84375 C 78.347656 264.648438 78.847656 264.457031 79.417969 264.269531 C 79.984375 264.085938 80.621094 263.902344 81.320312 263.722656 C 82.023438 263.542969 82.785156 263.371094 83.613281 263.203125 C 84.4375 263.035156 85.324219 262.871094 86.265625 262.714844 C 87.207031 262.558594 88.207031 262.410156 89.257812 262.265625 C 90.308594 262.125 91.410156 261.988281 92.558594 261.859375 C 93.707031 261.730469 94.898438 261.609375 96.136719 261.5 C 97.371094 261.386719 98.644531 261.28125 99.957031 261.1875 C 101.269531 261.089844 102.609375 261.003906 103.984375 260.925781 C 105.359375 260.851562 106.757812 260.78125 108.179688 260.722656 C 109.601562 260.664062 111.042969 260.613281 112.5 260.574219 C 113.957031 260.535156 115.425781 260.507812 116.90625 260.488281 C 118.386719 260.46875 119.871094 260.457031 121.355469 260.457031 C 122.84375 260.457031 124.328125 260.46875 125.804688 260.488281 C 127.285156 260.507812 128.753906 260.535156 130.214844 260.574219 C 131.671875 260.613281 133.113281 260.664062 134.535156 260.722656 C 135.957031 260.78125 137.355469 260.851562 138.730469 260.925781 C 140.101562 261.003906 141.445312 261.089844 142.757812 261.1875 C 144.066406 261.28125 145.339844 261.386719 146.578125 261.5 C 147.8125 261.609375 149.007812 261.730469 150.15625 261.859375 C 151.304688 261.988281 152.40625 262.125 153.457031 262.265625 C 154.507812 262.410156 155.503906 262.558594 156.449219 262.714844 C 157.390625 262.871094 158.277344 263.035156 159.101562 263.203125 C 159.925781 263.371094 160.691406 263.542969 161.390625 263.722656 C 162.09375 263.902344 162.726562 264.085938 163.296875 264.269531 C 163.867188 264.457031 164.367188 264.648438 164.796875 264.84375 C 165.230469 265.035156 165.589844 265.230469 165.878906 265.429688 C 166.167969 265.628906 166.386719 265.828125 166.535156 266.03125 C 166.679688 266.230469 166.753906 266.433594 166.753906 266.636719 Z M 166.753906 266.636719 " fill-opacity="1" fill-rule="nonzero"/><path stroke-linecap="butt" transform="matrix(0.267031, 0, 0, 0.267167, 30.032152, 67.328813)" fill="none" stroke-linejoin="miter" d="M 493.999296 726.499526 C 583.993505 749.498335 757.004154 696.497266 776.006508 636.492745 " stroke="#2f2e41" stroke-width="2" stroke-opacity="1" stroke-miterlimit="10"/><path stroke-linecap="butt" transform="matrix(0.267031, 0, 0, 0.267167, 30.032152, 67.328813)" fill="none" stroke-linejoin="miter" d="M 341.000362 359.498193 C 341.000362 359.498193 471.003376 323.501329 479.005137 439.50422 C 487.006898 555.507112 371.998043 588.506674 462.006881 611.505483 " stroke="#2f2e41" stroke-width="2" stroke-opacity="1" stroke-miterlimit="10"/><path stroke-linecap="butt" transform="matrix(0.267031, 0, 0, 0.267167, 30.032152, 67.328813)" fill="none" stroke-linejoin="miter" d="M 215.400512 637.779392 C 215.400512 637.779392 254.473095 626.959863 256.872161 661.830912 C 259.285854 696.687339 224.718833 706.614987 251.766832 713.530713 " stroke="#2f2e41" stroke-width="2" stroke-opacity="1" stroke-miterlimit="10"/><path fill="#2f2e41" d="M 246.351562 244.660156 L 244.25 258.09375 C 244.25 258.09375 233.894531 263.601562 241.175781 263.761719 C 248.457031 263.925781 282.761719 263.761719 282.761719 263.761719 C 282.761719 263.761719 289.394531 263.761719 278.878906 257.933594 L 276.773438 243.847656 Z M 246.351562 244.660156 " fill-opacity="1" fill-rule="nonzero"/><path fill="#000000" d="M 239.710938 263.617188 C 241.363281 262.144531 244.25 260.609375 244.25 260.609375 L 246.351562 247.171875 L 276.773438 247.203125 L 278.878906 260.449219 C 281.328125 261.808594 282.847656 262.847656 283.738281 263.648438 C 285.089844 263.339844 286.566406 262.195312 278.878906 257.933594 L 276.773438 243.847656 L 246.351562 244.660156 L 244.25 258.09375 C 244.25 258.09375 235.546875 262.722656 239.710938 263.617188 Z M 239.710938 263.617188 " fill-opacity="0.1" fill-rule="nonzero"/><path fill="#2f2e41" d="M 197.691406 151.003906 L 325.109375 151.003906 C 325.425781 151.003906 325.738281 151.035156 326.050781 151.09375 C 326.359375 151.15625 326.660156 151.25 326.953125 151.371094 C 327.246094 151.492188 327.523438 151.640625 327.785156 151.816406 C 328.050781 151.992188 328.292969 152.191406 328.515625 152.414062 C 328.742188 152.636719 328.941406 152.882812 329.117188 153.144531 C 329.292969 153.410156 329.441406 153.6875 329.5625 153.980469 C 329.683594 154.269531 329.773438 154.574219 329.835938 154.882812 C 329.898438 155.195312 329.929688 155.507812 329.929688 155.824219 L 329.929688 241.699219 C 329.929688 242.015625 329.898438 242.328125 329.835938 242.640625 C 329.773438 242.949219 329.683594 243.25 329.5625 243.542969 C 329.441406 243.835938 329.292969 244.113281 329.117188 244.378906 C 328.941406 244.640625 328.742188 244.882812 328.515625 245.109375 C 328.292969 245.332031 328.050781 245.53125 327.785156 245.707031 C 327.523438 245.882812 327.246094 246.03125 326.953125 246.152344 C 326.660156 246.273438 326.359375 246.367188 326.050781 246.425781 C 325.738281 246.488281 325.425781 246.519531 325.109375 246.519531 L 197.691406 246.519531 C 197.375 246.519531 197.0625 246.488281 196.753906 246.425781 C 196.441406 246.367188 196.140625 246.273438 195.847656 246.152344 C 195.554688 246.03125 195.277344 245.882812 195.015625 245.707031 C 194.753906 245.53125 194.507812 245.332031 194.285156 245.109375 C 194.0625 244.882812 193.863281 244.640625 193.6875 244.378906 C 193.511719 244.113281 193.363281 243.835938 193.242188 243.542969 C 193.121094 243.25 193.027344 242.949219 192.964844 242.640625 C 192.90625 242.328125 192.875 242.015625 192.875 241.699219 L 192.875 155.824219 C 192.875 155.507812 192.90625 155.195312 192.964844 154.882812 C 193.027344 154.574219 193.121094 154.269531 193.242188 153.980469 C 193.363281 153.6875 193.511719 153.410156 193.6875 153.144531 C 193.863281 152.882812 194.0625 152.636719 194.285156 152.414062 C 194.507812 152.191406 194.753906 151.992188 195.015625 151.816406 C 195.277344 151.640625 195.554688 151.492188 195.847656 151.371094 C 196.140625 151.25 196.441406 151.15625 196.753906 151.09375 C 197.0625 151.035156 197.375 151.003906 197.691406 151.003906 Z M 197.691406 151.003906 " fill-opacity="1" fill-rule="nonzero"/><path fill="#3f3d56" d="M 197.484375 156.101562 L 325.316406 156.101562 L 325.316406 227.660156 L 197.484375 227.660156 Z M 197.484375 156.101562 " fill-opacity="1" fill-rule="nonzero"/><path fill="#f2f2f2" d="M 262.210938 153.835938 C 262.210938 154.058594 262.132812 154.25 261.972656 154.40625 C 261.816406 154.566406 261.625 154.644531 261.402344 154.644531 C 261.179688 154.644531 260.988281 154.566406 260.828125 154.40625 C 260.671875 154.25 260.59375 154.058594 260.59375 153.835938 C 260.59375 153.613281 260.671875 153.421875 260.828125 153.261719 C 260.988281 153.105469 261.179688 153.027344 261.402344 153.027344 C 261.625 153.027344 261.816406 153.105469 261.972656 153.261719 C 262.132812 153.421875 262.210938 153.613281 262.210938 153.835938 Z M 262.210938 153.835938 " fill-opacity="1" fill-rule="nonzero"/><path fill="#2f2e41" d="M 329.929688 233.324219 L 329.929688 241.699219 C 329.929688 242.015625 329.898438 242.328125 329.835938 242.640625 C 329.773438 242.949219 329.683594 243.25 329.5625 243.542969 C 329.441406 243.835938 329.292969 244.113281 329.117188 244.378906 C 328.941406 244.640625 328.742188 244.882812 328.515625 245.109375 C 328.292969 245.332031 328.050781 245.53125 327.789062 245.707031 C 327.523438 245.882812 327.246094 246.03125 326.953125 246.152344 C 326.660156 246.273438 326.359375 246.367188 326.050781 246.425781 C 325.738281 246.488281 325.425781 246.519531 325.109375 246.519531 L 197.691406 246.519531 C 197.375 246.519531 197.0625 246.488281 196.753906 246.425781 C 196.441406 246.367188 196.140625 246.273438 195.847656 246.152344 C 195.554688 246.03125 195.277344 245.882812 195.015625 245.707031 C 194.753906 245.53125 194.507812 245.332031 194.285156 245.109375 C 194.0625 244.882812 193.863281 244.640625 193.6875 244.378906 C 193.511719 244.113281 193.363281 243.835938 193.242188 243.542969 C 193.121094 243.25 193.027344 242.949219 192.964844 242.640625 C 192.90625 242.328125 192.875 242.015625 192.875 241.699219 L 192.875 233.324219 Z M 329.929688 233.324219 " fill-opacity="1" fill-rule="nonzero"/><path fill="#2f2e41" d="M 297.160156 272.503906 L 297.160156 274.125 L 210.105469 274.125 L 210.105469 272.828125 L 210.226562 272.503906 L 212.371094 266.675781 L 295.382812 266.675781 Z M 297.160156 272.503906 " fill-opacity="1" fill-rule="nonzero"/><path fill="#2f2e41" d="M 330.664062 270.917969 C 330.503906 271.597656 329.90625 272.3125 328.554688 272.988281 C 323.699219 275.417969 313.828125 272.34375 313.828125 272.34375 C 313.828125 272.34375 306.222656 271.046875 306.222656 267.648438 C 306.4375 267.5 306.660156 267.367188 306.890625 267.25 C 308.929688 266.171875 315.699219 263.503906 327.695312 267.363281 C 328.597656 267.648438 329.359375 268.144531 329.976562 268.859375 C 330.464844 269.429688 330.84375 270.152344 330.664062 270.917969 Z M 330.664062 270.917969 " fill-opacity="1" fill-rule="nonzero"/><path fill="#000000" d="M 330.664062 270.917969 C 324.722656 273.195312 319.425781 273.367188 313.988281 269.589844 C 311.25 267.6875 308.757812 267.214844 306.890625 267.25 C 308.929688 266.171875 315.699219 263.503906 327.695312 267.363281 C 328.597656 267.648438 329.359375 268.144531 329.976562 268.859375 C 330.464844 269.429688 330.84375 270.152344 330.664062 270.917969 Z M 330.664062 270.917969 " fill-opacity="0.1" fill-rule="nonzero"/><path fill="#f2f2f2" d="M 325.316406 268.941406 C 325.316406 269.027344 325.261719 269.109375 325.15625 269.191406 C 325.050781 269.269531 324.898438 269.339844 324.699219 269.402344 C 324.503906 269.460938 324.277344 269.507812 324.019531 269.539062 C 323.761719 269.574219 323.492188 269.589844 323.214844 269.589844 C 322.933594 269.589844 322.664062 269.574219 322.40625 269.539062 C 322.152344 269.507812 321.921875 269.460938 321.726562 269.402344 C 321.527344 269.339844 321.375 269.269531 321.269531 269.191406 C 321.164062 269.109375 321.109375 269.027344 321.109375 268.941406 C 321.109375 268.855469 321.164062 268.773438 321.269531 268.695312 C 321.375 268.617188 321.527344 268.546875 321.726562 268.484375 C 321.921875 268.425781 322.152344 268.378906 322.40625 268.34375 C 322.664062 268.3125 322.933594 268.296875 323.214844 268.296875 C 323.492188 268.296875 323.761719 268.3125 324.019531 268.34375 C 324.277344 268.378906 324.503906 268.425781 324.699219 268.484375 C 324.898438 268.546875 325.050781 268.617188 325.15625 268.695312 C 325.261719 268.773438 325.316406 268.855469 325.316406 268.941406 Z M 325.316406 268.941406 " fill-opacity="1" fill-rule="nonzero"/><path fill="#f2f2f2" d="M 264.476562 239.964844 C 264.476562 240.371094 264.398438 240.765625 264.242188 241.140625 C 264.085938 241.515625 263.863281 241.851562 263.574219 242.136719 C 263.285156 242.425781 262.953125 242.648438 262.578125 242.804688 C 262.199219 242.960938 261.808594 243.039062 261.402344 243.039062 C 260.992188 243.039062 260.601562 242.960938 260.226562 242.804688 C 259.847656 242.648438 259.515625 242.425781 259.226562 242.136719 C 258.9375 241.851562 258.71875 241.515625 258.5625 241.140625 C 258.40625 240.765625 258.328125 240.371094 258.328125 239.964844 C 258.328125 239.554688 258.40625 239.164062 258.5625 238.785156 C 258.71875 238.410156 258.9375 238.078125 259.226562 237.789062 C 259.515625 237.5 259.847656 237.277344 260.226562 237.121094 C 260.601562 236.964844 260.992188 236.886719 261.402344 236.886719 C 261.808594 236.886719 262.199219 236.964844 262.578125 237.121094 C 262.953125 237.277344 263.285156 237.5 263.574219 237.789062 C 263.863281 238.078125 264.085938 238.410156 264.242188 238.785156 C 264.398438 239.164062 264.476562 239.554688 264.476562 239.964844 Z M 264.476562 239.964844 " fill-opacity="1" fill-rule="nonzero"/><path fill="#000000" d="M 297.160156 272.503906 L 297.160156 274.125 L 210.105469 274.125 L 210.105469 272.828125 L 210.226562 272.503906 Z M 297.160156 272.503906 " fill-opacity="0.1" fill-rule="nonzero"/><path fill="#2f2e41" d="M 67.417969 136.660156 L 122.957031 136.660156 L 122.957031 201.3125 L 67.417969 201.3125 Z M 67.417969 136.660156 " fill-opacity="1" fill-rule="nonzero"/><path fill="#3f3d56" d="M 61.808594 130.246094 L 128.566406 130.246094 L 128.566406 153.222656 L 61.808594 153.222656 Z M 61.808594 130.246094 " fill-opacity="1" fill-rule="nonzero"/><path fill="#3f3d56" d="M 61.808594 157.496094 L 128.566406 157.496094 L 128.566406 180.472656 L 61.808594 180.472656 Z M 61.808594 157.496094 " fill-opacity="1" fill-rule="nonzero"/><path fill="#3f3d56" d="M 61.808594 184.75 L 128.566406 184.75 L 128.566406 207.726562 L 61.808594 207.726562 Z M 61.808594 184.75 " fill-opacity="1" fill-rule="nonzero"/><path fill="#6c63ff" d="M 110.941406 134.253906 L 115.214844 134.253906 L 115.214844 138.527344 L 110.941406 138.527344 Z M 110.941406 134.253906 " fill-opacity="0.4" fill-rule="nonzero"/><path fill="#6c63ff" d="M 117.085938 134.253906 L 121.355469 134.253906 L 121.355469 138.527344 L 117.085938 138.527344 Z M 117.085938 134.253906 " fill-opacity="0.8" fill-rule="nonzero"/><path fill="#6c63ff" d="M 123.226562 134.253906 L 127.5 134.253906 L 127.5 138.527344 L 123.226562 138.527344 Z M 123.226562 134.253906 " fill-opacity="1" fill-rule="nonzero"/><path fill="#6c63ff" d="M 110.941406 161.238281 L 115.214844 161.238281 L 115.214844 165.511719 L 110.941406 165.511719 Z M 110.941406 161.238281 " fill-opacity="0.4" fill-rule="nonzero"/><path fill="#6c63ff" d="M 117.085938 161.238281 L 121.355469 161.238281 L 121.355469 165.511719 L 117.085938 165.511719 Z M 117.085938 161.238281 " fill-opacity="0.8" fill-rule="nonzero"/><path fill="#6c63ff" d="M 123.226562 161.238281 L 127.5 161.238281 L 127.5 165.511719 L 123.226562 165.511719 Z M 123.226562 161.238281 " fill-opacity="1" fill-rule="nonzero"/><path fill="#6c63ff" d="M 110.941406 188.222656 L 115.214844 188.222656 L 115.214844 192.496094 L 110.941406 192.496094 Z M 110.941406 188.222656 " fill-opacity="0.4" fill-rule="nonzero"/><path fill="#6c63ff" d="M 117.085938 188.222656 L 121.355469 188.222656 L 121.355469 192.496094 L 117.085938 192.496094 Z M 117.085938 188.222656 " fill-opacity="0.8" fill-rule="nonzero"/><path fill="#6c63ff" d="M 123.226562 188.222656 L 127.5 188.222656 L 127.5 192.496094 L 123.226562 192.496094 Z M 123.226562 188.222656 " fill-opacity="1" fill-rule="nonzero"/><path fill="#2f2e41" d="M 144.054688 237.914062 C 144.054688 238.605469 144.019531 239.296875 143.953125 239.984375 C 143.886719 240.671875 143.785156 241.355469 143.648438 242.03125 C 143.515625 242.710938 143.347656 243.378906 143.144531 244.042969 C 142.945312 244.703125 142.714844 245.355469 142.449219 245.992188 C 142.183594 246.628906 141.890625 247.253906 141.5625 247.863281 C 141.238281 248.472656 140.882812 249.066406 140.5 249.640625 C 140.117188 250.214844 139.703125 250.769531 139.265625 251.304688 C 138.828125 251.839844 138.363281 252.351562 137.875 252.839844 C 137.386719 253.328125 136.875 253.792969 136.339844 254.230469 C 135.808594 254.667969 135.253906 255.082031 134.679688 255.464844 C 134.105469 255.847656 133.511719 256.203125 132.902344 256.527344 C 132.292969 256.855469 131.671875 257.148438 131.03125 257.414062 C 130.394531 257.679688 129.742188 257.910156 129.082031 258.113281 C 128.421875 258.3125 127.753906 258.480469 127.074219 258.617188 C 126.398438 258.75 125.714844 258.851562 125.027344 258.917969 C 124.339844 258.988281 123.648438 259.019531 122.957031 259.019531 C 122.269531 259.019531 121.578125 258.988281 120.890625 258.917969 C 120.203125 258.851562 119.519531 258.75 118.84375 258.617188 C 118.164062 258.480469 117.496094 258.3125 116.835938 258.113281 C 116.175781 257.910156 115.523438 257.679688 114.886719 257.414062 C 114.246094 257.148438 113.625 256.855469 113.015625 256.527344 C 112.40625 256.203125 111.8125 255.847656 111.238281 255.464844 C 110.664062 255.082031 110.109375 254.667969 109.574219 254.230469 C 109.042969 253.792969 108.53125 253.328125 108.042969 252.839844 C 107.554688 252.351562 107.089844 251.839844 106.652344 251.304688 C 106.214844 250.769531 105.800781 250.214844 105.417969 249.640625 C 105.035156 249.066406 104.679688 248.472656 104.355469 247.863281 C 104.027344 247.253906 103.734375 246.628906 103.46875 245.992188 C 103.203125 245.355469 102.972656 244.703125 102.773438 244.042969 C 102.570312 243.378906 102.402344 242.710938 102.269531 242.03125 C 102.132812 241.355469 102.03125 240.671875 101.964844 239.984375 C 101.898438 239.296875 101.863281 238.605469 101.863281 237.914062 C 101.863281 237.222656 101.898438 236.535156 101.964844 235.847656 C 102.03125 235.160156 102.132812 234.476562 102.269531 233.796875 C 102.402344 233.121094 102.570312 232.449219 102.773438 231.789062 C 102.972656 231.125 103.203125 230.476562 103.46875 229.839844 C 103.734375 229.199219 104.027344 228.574219 104.355469 227.964844 C 104.679688 227.355469 105.035156 226.765625 105.417969 226.1875 C 105.800781 225.613281 106.214844 225.058594 106.652344 224.527344 C 107.089844 223.992188 107.554688 223.480469 108.042969 222.992188 C 108.53125 222.503906 109.042969 222.039062 109.574219 221.601562 C 110.109375 221.160156 110.664062 220.75 111.238281 220.367188 C 111.8125 219.980469 112.40625 219.628906 113.015625 219.300781 C 113.625 218.976562 114.246094 218.679688 114.886719 218.414062 C 115.523438 218.152344 116.175781 217.917969 116.835938 217.71875 C 117.496094 217.515625 118.164062 217.347656 118.84375 217.214844 C 119.519531 217.078125 120.203125 216.976562 120.890625 216.910156 C 121.578125 216.84375 122.269531 216.808594 122.957031 216.808594 C 123.648438 216.808594 124.339844 216.84375 125.027344 216.910156 C 125.714844 216.976562 126.398438 217.078125 127.074219 217.214844 C 127.753906 217.347656 128.421875 217.515625 129.082031 217.71875 C 129.742188 217.917969 130.394531 218.152344 131.03125 218.414062 C 131.671875 218.679688 132.292969 218.976562 132.902344 219.300781 C 133.511719 219.628906 134.105469 219.980469 134.679688 220.367188 C 135.253906 220.75 135.808594 221.160156 136.339844 221.601562 C 136.875 222.039062 137.386719 222.503906 137.875 222.992188 C 138.363281 223.480469 138.828125 223.992188 139.265625 224.527344 C 139.703125 225.058594 140.117188 225.613281 140.5 226.1875 C 140.882812 226.765625 141.238281 227.355469 141.5625 227.964844 C 141.890625 228.574219 142.183594 229.199219 142.449219 229.839844 C 142.714844 230.476562 142.945312 231.125 143.144531 231.789062 C 143.347656 232.449219 143.515625 233.121094 143.648438 233.796875 C 143.785156 234.476562 143.886719 235.160156 143.953125 235.847656 C 144.019531 236.535156 144.054688 237.222656 144.054688 237.914062 Z M 144.054688 237.914062 " fill-opacity="1" fill-rule="nonzero"/><path fill="#2f2e41" d="M 113.347656 254.480469 L 119.753906 254.480469 L 119.753906 265.96875 L 113.347656 265.96875 Z M 113.347656 254.480469 " fill-opacity="1" fill-rule="nonzero"/><path fill="#2f2e41" d="M 126.164062 254.480469 L 132.570312 254.480469 L 132.570312 265.96875 L 126.164062 265.96875 Z M 126.164062 254.480469 " fill-opacity="1" fill-rule="nonzero"/><path fill="#2f2e41" d="M 124.027344 266.101562 C 124.027344 266.234375 123.992188 266.363281 123.925781 266.492188 C 123.855469 266.621094 123.753906 266.746094 123.621094 266.867188 C 123.484375 266.988281 123.320312 267.105469 123.128906 267.214844 C 122.933594 267.324219 122.710938 267.425781 122.460938 267.519531 C 122.214844 267.609375 121.945312 267.695312 121.652344 267.765625 C 121.363281 267.839844 121.054688 267.902344 120.730469 267.953125 C 120.40625 268.003906 120.074219 268.039062 119.726562 268.066406 C 119.382812 268.09375 119.035156 268.105469 118.6875 268.105469 C 118.335938 268.105469 117.988281 268.09375 117.644531 268.066406 C 117.300781 268.039062 116.964844 268.003906 116.644531 267.953125 C 116.320312 267.902344 116.011719 267.839844 115.71875 267.765625 C 115.429688 267.695312 115.15625 267.609375 114.910156 267.519531 C 114.660156 267.425781 114.441406 267.324219 114.246094 267.214844 C 114.050781 267.105469 113.886719 266.988281 113.753906 266.867188 C 113.617188 266.746094 113.515625 266.621094 113.449219 266.492188 C 113.378906 266.363281 113.347656 266.234375 113.347656 266.101562 C 113.347656 265.96875 113.378906 265.839844 113.449219 265.710938 C 113.515625 265.582031 113.617188 265.457031 113.753906 265.335938 C 113.886719 265.214844 114.050781 265.097656 114.246094 264.988281 C 114.441406 264.878906 114.660156 264.777344 114.910156 264.683594 C 115.15625 264.589844 115.429688 264.507812 115.71875 264.433594 C 116.011719 264.363281 116.320312 264.300781 116.644531 264.25 C 116.964844 264.199219 117.300781 264.160156 117.644531 264.136719 C 117.988281 264.109375 118.335938 264.097656 118.6875 264.097656 C 119.035156 264.097656 119.382812 264.109375 119.726562 264.136719 C 120.074219 264.160156 120.40625 264.199219 120.730469 264.25 C 121.054688 264.300781 121.363281 264.363281 121.652344 264.433594 C 121.945312 264.507812 122.214844 264.589844 122.460938 264.683594 C 122.710938 264.777344 122.933594 264.878906 123.128906 264.988281 C 123.320312 265.097656 123.484375 265.214844 123.621094 265.335938 C 123.753906 265.457031 123.855469 265.582031 123.925781 265.710938 C 123.992188 265.839844 124.027344 265.96875 124.027344 266.101562 Z M 124.027344 266.101562 " fill-opacity="1" fill-rule="nonzero"/><path fill="#2f2e41" d="M 136.84375 265.835938 C 136.84375 265.964844 136.808594 266.097656 136.742188 266.226562 C 136.671875 266.355469 136.570312 266.480469 136.4375 266.601562 C 136.304688 266.722656 136.140625 266.839844 135.945312 266.949219 C 135.75 267.058594 135.527344 267.15625 135.28125 267.25 C 135.03125 267.34375 134.761719 267.425781 134.472656 267.5 C 134.179688 267.574219 133.871094 267.636719 133.546875 267.683594 C 133.222656 267.734375 132.890625 267.773438 132.546875 267.800781 C 132.203125 267.824219 131.855469 267.839844 131.503906 267.839844 C 131.152344 267.839844 130.804688 267.824219 130.460938 267.800781 C 130.117188 267.773438 129.785156 267.734375 129.460938 267.683594 C 129.136719 267.636719 128.828125 267.574219 128.535156 267.5 C 128.246094 267.425781 127.976562 267.34375 127.726562 267.25 C 127.480469 267.15625 127.257812 267.058594 127.0625 266.949219 C 126.867188 266.839844 126.703125 266.722656 126.570312 266.601562 C 126.4375 266.480469 126.335938 266.355469 126.265625 266.226562 C 126.199219 266.097656 126.164062 265.964844 126.164062 265.835938 C 126.164062 265.703125 126.199219 265.574219 126.265625 265.441406 C 126.335938 265.3125 126.4375 265.1875 126.570312 265.066406 C 126.703125 264.945312 126.867188 264.832031 127.0625 264.722656 C 127.257812 264.613281 127.480469 264.511719 127.726562 264.417969 C 127.976562 264.324219 128.246094 264.242188 128.535156 264.167969 C 128.828125 264.09375 129.136719 264.035156 129.460938 263.984375 C 129.785156 263.933594 130.117188 263.894531 130.460938 263.867188 C 130.804688 263.84375 131.152344 263.832031 131.503906 263.832031 C 131.855469 263.832031 132.203125 263.84375 132.546875 263.867188 C 132.890625 263.894531 133.222656 263.933594 133.546875 263.984375 C 133.871094 264.035156 134.179688 264.09375 134.472656 264.167969 C 134.761719 264.242188 135.03125 264.324219 135.28125 264.417969 C 135.527344 264.511719 135.75 264.613281 135.945312 264.722656 C 136.140625 264.832031 136.304688 264.945312 136.4375 265.066406 C 136.570312 265.1875 136.671875 265.3125 136.742188 265.441406 C 136.808594 265.574219 136.84375 265.703125 136.84375 265.835938 Z M 136.84375 265.835938 " fill-opacity="1" fill-rule="nonzero"/><path fill="#ffffff" d="M 130.703125 232.570312 C 130.703125 233.046875 130.65625 233.515625 130.5625 233.980469 C 130.472656 234.445312 130.335938 234.894531 130.152344 235.332031 C 129.972656 235.769531 129.75 236.1875 129.488281 236.578125 C 129.226562 236.972656 128.925781 237.335938 128.589844 237.671875 C 128.257812 238.007812 127.890625 238.304688 127.5 238.570312 C 127.105469 238.832031 126.6875 239.054688 126.253906 239.234375 C 125.816406 239.417969 125.363281 239.554688 124.898438 239.648438 C 124.433594 239.738281 123.964844 239.785156 123.492188 239.785156 C 123.019531 239.785156 122.550781 239.738281 122.085938 239.648438 C 121.621094 239.554688 121.171875 239.417969 120.734375 239.234375 C 120.296875 239.054688 119.882812 238.832031 119.488281 238.570312 C 119.09375 238.304688 118.730469 238.007812 118.394531 237.671875 C 118.058594 237.335938 117.761719 236.972656 117.5 236.578125 C 117.234375 236.1875 117.011719 235.769531 116.832031 235.332031 C 116.652344 234.894531 116.515625 234.445312 116.421875 233.980469 C 116.328125 233.515625 116.28125 233.046875 116.28125 232.570312 C 116.28125 232.097656 116.328125 231.628906 116.421875 231.164062 C 116.515625 230.699219 116.652344 230.25 116.832031 229.8125 C 117.011719 229.375 117.234375 228.957031 117.5 228.5625 C 117.761719 228.171875 118.058594 227.804688 118.394531 227.472656 C 118.730469 227.136719 119.09375 226.835938 119.488281 226.574219 C 119.882812 226.3125 120.296875 226.089844 120.734375 225.90625 C 121.171875 225.726562 121.621094 225.589844 122.085938 225.496094 C 122.550781 225.40625 123.019531 225.359375 123.492188 225.359375 C 123.964844 225.359375 124.433594 225.40625 124.898438 225.496094 C 125.363281 225.589844 125.816406 225.726562 126.253906 225.90625 C 126.6875 226.089844 127.105469 226.3125 127.5 226.574219 C 127.890625 226.835938 128.257812 227.136719 128.589844 227.472656 C 128.925781 227.804688 129.226562 228.171875 129.488281 228.5625 C 129.75 228.957031 129.972656 229.375 130.152344 229.8125 C 130.335938 230.25 130.472656 230.699219 130.5625 231.164062 C 130.65625 231.628906 130.703125 232.097656 130.703125 232.570312 Z M 130.703125 232.570312 " fill-opacity="1" fill-rule="nonzero"/><path fill="#3f3d56" d="M 125.894531 232.570312 C 125.894531 232.890625 125.835938 233.199219 125.714844 233.492188 C 125.589844 233.785156 125.417969 234.046875 125.191406 234.273438 C 124.96875 234.496094 124.707031 234.671875 124.414062 234.792969 C 124.117188 234.914062 123.8125 234.976562 123.492188 234.976562 C 123.175781 234.976562 122.867188 234.914062 122.574219 234.792969 C 122.277344 234.671875 122.019531 234.496094 121.792969 234.273438 C 121.566406 234.046875 121.394531 233.785156 121.273438 233.492188 C 121.152344 233.199219 121.089844 232.890625 121.089844 232.570312 C 121.089844 232.253906 121.152344 231.945312 121.273438 231.652344 C 121.394531 231.355469 121.566406 231.097656 121.792969 230.871094 C 122.019531 230.644531 122.277344 230.472656 122.574219 230.351562 C 122.867188 230.226562 123.175781 230.167969 123.492188 230.167969 C 123.8125 230.167969 124.117188 230.226562 124.414062 230.351562 C 124.707031 230.472656 124.96875 230.644531 125.191406 230.871094 C 125.417969 231.097656 125.589844 231.355469 125.714844 231.652344 C 125.835938 231.945312 125.894531 232.253906 125.894531 232.570312 Z M 125.894531 232.570312 " fill-opacity="1" fill-rule="nonzero"/><path fill="#6c63ff" d="M 102.496094 218.285156 C 100.792969 210.65625 106.238281 202.941406 114.65625 201.0625 C 123.078125 199.179688 131.285156 203.84375 132.988281 211.476562 C 134.691406 219.105469 129.109375 221.921875 120.691406 223.804688 C 112.269531 225.683594 104.199219 225.917969 102.496094 218.285156 Z M 102.496094 218.285156 " fill-opacity="1" fill-rule="nonzero"/><path fill="#2f2e41" d="M 151.136719 226.507812 C 151.222656 226.707031 151.246094 226.933594 151.207031 227.179688 C 151.164062 227.429688 151.0625 227.699219 150.898438 227.988281 C 150.734375 228.277344 150.511719 228.582031 150.226562 228.898438 C 149.945312 229.21875 149.609375 229.542969 149.21875 229.878906 C 148.828125 230.210938 148.394531 230.546875 147.914062 230.886719 C 147.429688 231.222656 146.910156 231.554688 146.355469 231.882812 C 145.800781 232.214844 145.21875 232.53125 144.609375 232.835938 C 144.003906 233.144531 143.382812 233.433594 142.746094 233.707031 C 142.109375 233.976562 141.46875 234.230469 140.828125 234.457031 C 140.1875 234.6875 139.554688 234.886719 138.933594 235.0625 C 138.3125 235.238281 137.714844 235.382812 137.136719 235.5 C 136.5625 235.613281 136.015625 235.699219 135.507812 235.75 C 134.996094 235.800781 134.527344 235.820312 134.101562 235.804688 C 133.679688 235.789062 133.304688 235.742188 132.980469 235.660156 C 132.660156 235.582031 132.394531 235.46875 132.183594 235.328125 C 131.976562 235.183594 131.832031 235.011719 131.746094 234.8125 C 131.660156 234.613281 131.636719 234.386719 131.675781 234.136719 C 131.71875 233.890625 131.820312 233.621094 131.984375 233.332031 C 132.148438 233.042969 132.371094 232.738281 132.65625 232.421875 C 132.9375 232.101562 133.273438 231.777344 133.664062 231.441406 C 134.054688 231.109375 134.488281 230.773438 134.972656 230.433594 C 135.453125 230.097656 135.972656 229.765625 136.527344 229.433594 C 137.082031 229.105469 137.664062 228.789062 138.273438 228.484375 C 138.878906 228.175781 139.503906 227.886719 140.140625 227.613281 C 140.773438 227.339844 141.414062 227.089844 142.054688 226.863281 C 142.695312 226.632812 143.328125 226.433594 143.949219 226.257812 C 144.570312 226.082031 145.167969 225.9375 145.746094 225.820312 C 146.324219 225.703125 146.867188 225.621094 147.378906 225.570312 C 147.886719 225.519531 148.355469 225.5 148.78125 225.515625 C 149.207031 225.53125 149.578125 225.578125 149.902344 225.65625 C 150.222656 225.738281 150.488281 225.851562 150.699219 225.992188 C 150.90625 226.136719 151.054688 226.308594 151.136719 226.507812 Z M 151.136719 226.507812 " fill-opacity="1" fill-rule="nonzero"/><path fill="#2f2e41" d="M 111.617188 240.667969 C 111.703125 240.867188 111.726562 241.09375 111.6875 241.339844 C 111.644531 241.589844 111.542969 241.859375 111.378906 242.148438 C 111.214844 242.4375 110.988281 242.742188 110.707031 243.058594 C 110.425781 243.378906 110.089844 243.703125 109.699219 244.039062 C 109.308594 244.371094 108.875 244.707031 108.390625 245.046875 C 107.910156 245.382812 107.390625 245.714844 106.835938 246.042969 C 106.28125 246.371094 105.699219 246.691406 105.089844 246.996094 C 104.484375 247.304688 103.859375 247.59375 103.222656 247.867188 C 102.585938 248.136719 101.949219 248.386719 101.308594 248.617188 C 100.664062 248.84375 100.035156 249.046875 99.414062 249.222656 C 98.792969 249.398438 98.195312 249.542969 97.617188 249.660156 C 97.039062 249.773438 96.496094 249.859375 95.984375 249.910156 C 95.476562 249.960938 95.007812 249.980469 94.582031 249.964844 C 94.15625 249.949219 93.785156 249.902344 93.460938 249.820312 C 93.136719 249.742188 92.871094 249.628906 92.664062 249.488281 C 92.457031 249.34375 92.308594 249.171875 92.222656 248.972656 C 92.136719 248.773438 92.117188 248.546875 92.15625 248.296875 C 92.195312 248.050781 92.300781 247.78125 92.464844 247.492188 C 92.628906 247.203125 92.851562 246.898438 93.132812 246.582031 C 93.417969 246.261719 93.753906 245.9375 94.144531 245.601562 C 94.53125 245.269531 94.96875 244.933594 95.449219 244.59375 C 95.933594 244.257812 96.449219 243.921875 97.007812 243.59375 C 97.5625 243.265625 98.144531 242.949219 98.75 242.644531 C 99.359375 242.335938 99.980469 242.046875 100.617188 241.773438 C 101.253906 241.5 101.894531 241.25 102.535156 241.023438 C 103.175781 240.792969 103.808594 240.59375 104.429688 240.417969 C 105.050781 240.242188 105.648438 240.097656 106.226562 239.980469 C 106.800781 239.863281 107.34375 239.78125 107.855469 239.730469 C 108.367188 239.679688 108.835938 239.660156 109.257812 239.675781 C 109.683594 239.691406 110.058594 239.738281 110.382812 239.816406 C 110.703125 239.898438 110.96875 240.011719 111.175781 240.152344 C 111.386719 240.296875 111.53125 240.46875 111.617188 240.667969 Z M 111.617188 240.667969 " fill-opacity="1" fill-rule="nonzero"/><path fill="#ffffff" d="M 135.242188 244.058594 C 135.242188 246.125 129.925781 250.203125 124.027344 250.203125 C 118.128906 250.203125 112.542969 246.394531 112.542969 244.328125 C 112.542969 242.261719 118.128906 242.722656 124.027344 242.722656 C 129.925781 242.722656 135.242188 241.996094 135.242188 244.058594 Z M 135.242188 244.058594 " fill-opacity="1" fill-rule="nonzero"/></svg>