<svg xmlns="http://www.w3.org/2000/svg" xmlns:xlink="http://www.w3.org/1999/xlink" width="500" zoomAndPan="magnify" viewBox="0 0 375 374.999991" height="500" preserveAspectRatio="xMidYMid meet" version="1.0"><defs><clipPath id="58117f3c43"><path d="M 111 72.523438 L 134 72.523438 L 134 91 L 111 91 Z M 111 72.523438 " clip-rule="nonzero"/></clipPath><clipPath id="9d1a8c95ee"><path d="M 226 293 L 242 293 L 242 302.773438 L 226 302.773438 Z M 226 293 " clip-rule="nonzero"/></clipPath><clipPath id="1a05eb44d1"><path d="M 278 288 L 293 288 L 293 302.773438 L 278 302.773438 Z M 278 288 " clip-rule="nonzero"/></clipPath><clipPath id="77b4c83620"><path d="M 203 301 L 301.402344 301 L 301.402344 302.773438 L 203 302.773438 Z M 203 301 " clip-rule="nonzero"/></clipPath><clipPath id="069146e600"><path d="M 73.402344 234 L 172 234 L 172 236 L 73.402344 236 Z M 73.402344 234 " clip-rule="nonzero"/></clipPath></defs><rect x="-37.5" width="450" fill="#ffffff" y="-37.499999" height="449.999989" fill-opacity="1"/><rect x="-37.5" width="450" fill="#edf5fa" y="-37.499999" height="449.999989" fill-opacity="1"/><path fill="#ffb6b6" d="M 94.582031 224.746094 L 98.792969 226.78125 L 108.640625 211.472656 L 102.421875 208.464844 Z M 94.582031 224.746094 " fill-opacity="1" fill-rule="nonzero"/><path fill="#2f2e41" d="M 92.3125 229.078125 L 105.265625 235.34375 L 105.34375 235.179688 C 105.503906 234.847656 105.628906 234.503906 105.722656 234.144531 C 105.8125 233.789062 105.871094 233.425781 105.890625 233.058594 C 105.910156 232.691406 105.894531 232.324219 105.84375 231.960938 C 105.792969 231.59375 105.707031 231.238281 105.585938 230.890625 C 105.464844 230.542969 105.3125 230.210938 105.125 229.894531 C 104.941406 229.578125 104.722656 229.28125 104.480469 229.003906 C 104.234375 228.730469 103.964844 228.480469 103.671875 228.261719 C 103.378906 228.039062 103.066406 227.847656 102.734375 227.6875 L 101.234375 224.742188 L 95.957031 224.40625 L 94.824219 223.859375 Z M 92.3125 229.078125 " fill-opacity="1" fill-rule="nonzero"/><path fill="#ffb6b6" d="M 125.933594 230.453125 L 130.609375 230.453125 L 132.832031 212.375 L 125.929688 212.375 Z M 125.933594 230.453125 " fill-opacity="1" fill-rule="nonzero"/><path fill="#2f2e41" d="M 125.769531 235.34375 L 140.148438 235.339844 L 140.148438 235.160156 C 140.148438 234.789062 140.113281 234.425781 140.042969 234.066406 C 139.96875 233.703125 139.863281 233.351562 139.722656 233.011719 C 139.582031 232.671875 139.410156 232.347656 139.207031 232.042969 C 139 231.738281 138.769531 231.453125 138.507812 231.191406 C 138.25 230.933594 137.964844 230.699219 137.660156 230.496094 C 137.355469 230.289062 137.03125 230.117188 136.695312 229.976562 C 136.355469 229.835938 136.003906 229.730469 135.644531 229.65625 C 135.28125 229.585938 134.917969 229.550781 134.550781 229.550781 L 131.925781 227.550781 L 127.023438 229.550781 L 125.765625 229.550781 Z M 125.769531 235.34375 " fill-opacity="1" fill-rule="nonzero"/><path fill="#2f2e41" d="M 130.566406 146.609375 L 135.925781 183.648438 L 136.382812 191.972656 L 133.570312 217.949219 L 134.710938 220.464844 L 131.523438 222.433594 L 125.039062 222.433594 L 124.695312 194.996094 L 119.832031 172.011719 L 119.078125 198.0625 L 118.035156 200.074219 C 114.160156 208.894531 108.933594 211.78125 105.238281 218.371094 L 98.753906 214.851562 L 98.890625 212.226562 C 97.585938 211.566406 100.847656 209.632812 101.160156 208.203125 L 101.726562 205.644531 L 105.511719 197.789062 L 105.65625 195.023438 L 104.617188 176.210938 L 105.105469 150.875 L 113.613281 144.355469 Z M 130.566406 146.609375 " fill-opacity="1" fill-rule="nonzero"/><path fill="#ffb6b6" d="M 130.84375 85.660156 C 130.84375 86.214844 130.789062 86.765625 130.683594 87.308594 C 130.574219 87.851562 130.414062 88.378906 130.203125 88.894531 C 129.992188 89.40625 129.730469 89.890625 129.421875 90.351562 C 129.117188 90.8125 128.765625 91.242188 128.375 91.632812 C 127.984375 92.023438 127.558594 92.375 127.097656 92.683594 C 126.636719 92.992188 126.152344 93.25 125.640625 93.464844 C 125.128906 93.675781 124.605469 93.835938 124.0625 93.945312 C 123.519531 94.050781 122.96875 94.105469 122.417969 94.105469 C 121.863281 94.105469 121.316406 94.050781 120.773438 93.945312 C 120.230469 93.835938 119.703125 93.675781 119.191406 93.464844 C 118.679688 93.25 118.195312 92.992188 117.734375 92.683594 C 117.273438 92.375 116.847656 92.023438 116.457031 91.632812 C 116.066406 91.242188 115.71875 90.8125 115.410156 90.351562 C 115.101562 89.890625 114.84375 89.40625 114.632812 88.894531 C 114.417969 88.378906 114.261719 87.851562 114.152344 87.308594 C 114.042969 86.765625 113.988281 86.214844 113.988281 85.660156 C 113.988281 85.105469 114.042969 84.558594 114.152344 84.011719 C 114.261719 83.46875 114.417969 82.941406 114.632812 82.429688 C 114.84375 81.917969 115.101562 81.429688 115.410156 80.96875 C 115.71875 80.507812 116.066406 80.082031 116.457031 79.691406 C 116.847656 79.296875 117.273438 78.949219 117.734375 78.640625 C 118.195312 78.332031 118.679688 78.070312 119.191406 77.859375 C 119.703125 77.648438 120.230469 77.488281 120.773438 77.378906 C 121.316406 77.269531 121.863281 77.214844 122.417969 77.214844 C 122.96875 77.214844 123.519531 77.269531 124.0625 77.378906 C 124.605469 77.488281 125.128906 77.648438 125.640625 77.859375 C 126.152344 78.070312 126.636719 78.332031 127.097656 78.640625 C 127.558594 78.949219 127.984375 79.296875 128.375 79.691406 C 128.765625 80.082031 129.117188 80.507812 129.421875 80.96875 C 129.730469 81.429688 129.992188 81.917969 130.203125 82.429688 C 130.414062 82.941406 130.574219 83.46875 130.683594 84.011719 C 130.789062 84.558594 130.84375 85.105469 130.84375 85.660156 Z M 130.84375 85.660156 " fill-opacity="1" fill-rule="nonzero"/><path fill="#3f3d56" d="M 123.574219 153.445312 C 112.46875 153.445312 104.132812 149.253906 104.019531 149.195312 L 103.921875 149.144531 L 103.949219 149.035156 C 104.25 147.988281 104.53125 146.234375 104.019531 145.976562 C 103.902344 145.933594 103.828125 145.847656 103.800781 145.71875 C 103.773438 145.511719 103.984375 145.316406 104.273438 145.050781 C 104.839844 144.535156 105.613281 143.828125 105.160156 142.691406 C 104.359375 140.6875 106.609375 130.417969 106.753906 129.761719 L 105.792969 113.394531 C 105.75 112.617188 105.773438 111.847656 105.859375 111.074219 C 105.949219 110.304688 106.101562 109.546875 106.320312 108.800781 C 106.539062 108.054688 106.816406 107.335938 107.160156 106.636719 C 107.5 105.941406 107.898438 105.277344 108.351562 104.648438 C 108.804688 104.019531 109.308594 103.433594 109.863281 102.890625 C 110.417969 102.351562 111.011719 101.859375 111.652344 101.417969 C 112.289062 100.976562 112.957031 100.59375 113.664062 100.269531 C 114.367188 99.945312 115.089844 99.679688 115.839844 99.480469 L 115.859375 99.472656 L 115.882812 99.476562 C 116.195312 99.492188 116.527344 98.429688 116.777344 97.652344 C 117.148438 96.503906 117.390625 95.796875 117.808594 95.828125 C 121.039062 96.035156 123.195312 96.171875 124.628906 96.261719 C 127.347656 96.429688 127.824219 99.746094 127.882812 100.277344 C 128.613281 100.71875 129.300781 101.21875 129.949219 101.769531 C 130.597656 102.324219 131.203125 102.925781 131.757812 103.570312 C 132.3125 104.21875 132.8125 104.90625 133.261719 105.632812 C 133.710938 106.359375 134.097656 107.117188 134.429688 107.902344 C 134.757812 108.691406 135.023438 109.5 135.226562 110.328125 C 135.429688 111.15625 135.566406 111.996094 135.636719 112.847656 C 135.707031 113.699219 135.710938 114.550781 135.648438 115.402344 C 135.585938 116.253906 135.457031 117.09375 135.261719 117.925781 L 133.90625 123.769531 L 132.707031 126.578125 L 133.105469 132.117188 C 134.960938 133.664062 134.429688 136.832031 134.324219 137.367188 C 136.09375 139.203125 135.007812 141.367188 134.742188 141.824219 C 135.203125 142.386719 135.503906 143.027344 135.640625 143.742188 C 135.777344 144.457031 135.738281 145.164062 135.523438 145.859375 L 137.152344 151.167969 L 137.03125 151.210938 C 132.671875 152.71875 128.1875 153.464844 123.574219 153.445312 Z M 123.574219 153.445312 " fill-opacity="1" fill-rule="nonzero"/><path fill="#ffb6b6" d="M 175.785156 98.015625 C 175.636719 97.824219 175.472656 97.652344 175.285156 97.5 C 175.101562 97.34375 174.902344 97.210938 174.691406 97.101562 C 174.476562 96.992188 174.253906 96.90625 174.023438 96.847656 C 173.789062 96.785156 173.554688 96.75 173.316406 96.742188 C 173.074219 96.730469 172.839844 96.75 172.601562 96.792969 C 172.367188 96.835938 172.136719 96.902344 171.917969 96.996094 C 171.695312 97.089844 171.488281 97.203125 171.292969 97.34375 C 171.097656 97.484375 170.917969 97.640625 170.757812 97.820312 L 144.109375 97.964844 L 136.539062 101.628906 L 135.558594 105.832031 L 147.792969 105.320312 L 171.140625 102.644531 C 171.457031 102.898438 171.808594 103.082031 172.191406 103.207031 C 172.578125 103.328125 172.972656 103.378906 173.375 103.355469 C 173.777344 103.332031 174.164062 103.238281 174.53125 103.070312 C 174.902344 102.90625 175.230469 102.683594 175.515625 102.394531 C 175.800781 102.109375 176.027344 101.785156 176.195312 101.414062 C 176.359375 101.046875 176.457031 100.660156 176.480469 100.257812 C 176.503906 99.851562 176.457031 99.457031 176.335938 99.070312 C 176.21875 98.683594 176.03125 98.332031 175.785156 98.015625 Z M 175.785156 98.015625 " fill-opacity="1" fill-rule="nonzero"/><path fill="#3f3d56" d="M 145.84375 106.796875 L 135.472656 111.714844 L 125.855469 107.679688 L 125.84375 107.601562 C 125.753906 106.890625 125.769531 106.179688 125.894531 105.472656 C 126.015625 104.761719 126.238281 104.089844 126.5625 103.449219 C 126.886719 102.808594 127.296875 102.226562 127.792969 101.710938 C 128.292969 101.195312 128.855469 100.761719 129.480469 100.414062 C 131.503906 99.28125 133.660156 98.535156 135.945312 98.171875 C 142.304688 97.222656 143.59375 96.859375 143.609375 96.855469 L 143.746094 96.8125 Z M 145.84375 106.796875 " fill-opacity="1" fill-rule="nonzero"/><g clip-path="url(#58117f3c43)"><path fill="#2f2e41" d="M 115.273438 90.96875 C 115.167969 90.96875 115.066406 90.953125 114.964844 90.917969 C 114.570312 90.746094 114.261719 90.472656 114.039062 90.097656 C 112.546875 87.941406 111.824219 85.074219 111.898438 81.566406 C 111.925781 80.082031 112.09375 78.183594 113.132812 76.671875 C 114.003906 75.398438 115.769531 74.390625 117.414062 74.898438 C 117.394531 74.5625 117.464844 74.246094 117.625 73.949219 C 117.785156 73.652344 118.007812 73.421875 118.300781 73.253906 C 118.9375 72.921875 119.617188 72.753906 120.332031 72.738281 C 122.003906 72.582031 123.730469 72.417969 125.421875 72.738281 C 127.316406 73.101562 128.867188 74.078125 129.671875 75.425781 L 129.691406 75.46875 L 129.855469 76.265625 C 129.875 76.375 129.921875 76.472656 129.984375 76.5625 C 130.050781 76.652344 130.132812 76.722656 130.230469 76.777344 C 130.328125 76.832031 130.429688 76.863281 130.539062 76.871094 C 130.652344 76.878906 130.757812 76.863281 130.859375 76.824219 C 130.972656 76.78125 131.089844 76.769531 131.210938 76.789062 C 131.332031 76.808594 131.4375 76.855469 131.53125 76.929688 C 131.628906 77.007812 131.695312 77.101562 131.742188 77.214844 C 131.785156 77.328125 131.800781 77.445312 131.78125 77.566406 L 131.734375 77.882812 L 132.214844 77.792969 C 132.476562 77.746094 132.691406 77.824219 132.863281 78.027344 C 133.035156 78.230469 133.074219 78.457031 132.984375 78.707031 L 132.847656 79.074219 C 133.058594 79.074219 133.230469 79.152344 133.375 79.304688 C 133.472656 79.414062 133.53125 79.539062 133.546875 79.683594 C 133.5625 79.828125 133.535156 79.964844 133.464844 80.089844 C 132.921875 81.019531 132.1875 81.757812 131.265625 82.304688 C 130.765625 82.605469 130.230469 82.816406 129.660156 82.9375 C 125.953125 83.738281 122.222656 83.851562 118.472656 83.273438 C 118.695312 84.015625 118.777344 84.773438 118.722656 85.542969 C 118.691406 85.988281 118.546875 86.386719 118.289062 86.75 C 118.03125 87.109375 117.703125 87.378906 117.296875 87.554688 C 117.125 87.613281 116.949219 87.652344 116.773438 87.683594 C 116.601562 87.707031 116.4375 87.75 116.273438 87.804688 C 116.03125 87.894531 115.824219 88.039062 115.65625 88.242188 C 115.488281 88.441406 115.382812 88.671875 115.339844 88.929688 C 115.296875 89.1875 115.320312 89.4375 115.410156 89.683594 C 115.5 89.929688 115.644531 90.136719 115.847656 90.300781 L 116.214844 89.917969 L 116.097656 90.40625 C 116.042969 90.609375 115.925781 90.757812 115.738281 90.851562 C 115.59375 90.929688 115.4375 90.96875 115.273438 90.96875 Z M 115.273438 90.96875 " fill-opacity="1" fill-rule="nonzero"/></g><path fill="#e6e6e6" d="M 219.828125 146.398438 C 219.828125 147.957031 219.75 149.507812 219.59375 151.054688 C 219.441406 152.601562 219.210938 154.140625 218.902344 155.664062 C 218.59375 157.191406 218.210938 158.699219 217.753906 160.1875 C 217.296875 161.675781 216.765625 163.136719 216.164062 164.574219 C 215.5625 166.011719 214.886719 167.417969 214.144531 168.789062 C 213.402344 170.160156 212.59375 171.492188 211.714844 172.785156 C 210.839844 174.078125 209.902344 175.328125 208.902344 176.527344 C 207.902344 177.730469 206.847656 178.882812 205.730469 179.984375 C 204.617188 181.082031 203.449219 182.125 202.230469 183.113281 C 201.015625 184.097656 199.75 185.023438 198.4375 185.890625 C 197.128906 186.753906 195.777344 187.550781 194.386719 188.285156 C 193 189.019531 191.574219 189.683594 190.117188 190.277344 C 188.664062 190.871094 187.179688 191.394531 185.671875 191.847656 C 184.164062 192.300781 182.636719 192.675781 181.089844 192.980469 C 179.542969 193.285156 177.988281 193.511719 176.417969 193.664062 C 174.851562 193.816406 173.277344 193.894531 171.703125 193.894531 C 170.125 193.894531 168.554688 193.816406 166.984375 193.664062 C 165.417969 193.511719 163.859375 193.285156 162.3125 192.980469 C 160.765625 192.675781 159.238281 192.300781 157.730469 191.847656 C 156.222656 191.394531 154.742188 190.871094 153.285156 190.277344 C 151.828125 189.683594 150.40625 189.019531 149.015625 188.285156 C 147.625 187.550781 146.273438 186.753906 144.964844 185.890625 C 143.652344 185.023438 142.390625 184.097656 141.171875 183.113281 C 139.953125 182.125 138.785156 181.082031 137.671875 179.984375 C 136.558594 178.882812 135.5 177.730469 134.5 176.527344 C 133.5 175.328125 132.5625 174.078125 131.6875 172.785156 C 130.8125 171.492188 130.003906 170.160156 129.257812 168.789062 C 128.515625 167.417969 127.84375 166.011719 127.238281 164.574219 C 126.636719 163.136719 126.105469 161.675781 125.648438 160.1875 C 125.191406 158.699219 124.808594 157.191406 124.5 155.664062 C 124.195312 154.140625 123.960938 152.601562 123.808594 151.054688 C 123.652344 149.507812 123.578125 147.957031 123.578125 146.398438 C 123.578125 144.84375 123.652344 143.292969 123.808594 141.746094 C 123.960938 140.199219 124.195312 138.660156 124.5 137.136719 C 124.808594 135.609375 125.191406 134.101562 125.648438 132.613281 C 126.105469 131.125 126.636719 129.664062 127.238281 128.226562 C 127.84375 126.789062 128.515625 125.382812 129.257812 124.011719 C 130.003906 122.640625 130.8125 121.308594 131.6875 120.015625 C 132.5625 118.722656 133.5 117.472656 134.5 116.273438 C 135.5 115.070312 136.558594 113.917969 137.671875 112.816406 C 138.785156 111.71875 139.953125 110.675781 141.171875 109.6875 C 142.390625 108.703125 143.652344 107.777344 144.964844 106.910156 C 146.273438 106.046875 147.625 105.25 149.015625 104.515625 C 150.40625 103.78125 151.828125 103.117188 153.285156 102.523438 C 154.742188 101.929688 156.222656 101.40625 157.730469 100.953125 C 159.238281 100.5 160.765625 100.125 162.3125 99.820312 C 163.859375 99.515625 165.417969 99.289062 166.984375 99.136719 C 168.554688 98.984375 170.125 98.90625 171.703125 98.90625 C 173.277344 98.90625 174.851562 98.984375 176.417969 99.136719 C 177.988281 99.289062 179.542969 99.515625 181.089844 99.820312 C 182.636719 100.125 184.164062 100.5 185.671875 100.953125 C 187.179688 101.40625 188.664062 101.929688 190.117188 102.523438 C 191.574219 103.117188 193 103.78125 194.386719 104.515625 C 195.777344 105.25 197.128906 106.046875 198.4375 106.910156 C 199.75 107.777344 201.015625 108.703125 202.230469 109.6875 C 203.449219 110.675781 204.617188 111.71875 205.730469 112.816406 C 206.847656 113.917969 207.902344 115.070312 208.902344 116.273438 C 209.902344 117.472656 210.839844 118.722656 211.714844 120.015625 C 212.59375 121.308594 213.402344 122.640625 214.144531 124.011719 C 214.886719 125.382812 215.5625 126.789062 216.164062 128.226562 C 216.765625 129.664062 217.296875 131.125 217.753906 132.613281 C 218.210938 134.101562 218.59375 135.609375 218.902344 137.136719 C 219.210938 138.660156 219.441406 140.199219 219.59375 141.746094 C 219.75 143.292969 219.828125 144.84375 219.828125 146.398438 Z M 219.828125 146.398438 " fill-opacity="1" fill-rule="nonzero"/><path fill="#ffffff" d="M 211.578125 146.402344 C 211.582031 152.164062 210.367188 157.65625 207.921875 162.878906 C 207.847656 163.035156 207.773438 163.195312 207.695312 163.355469 C 205.851562 167.140625 203.464844 170.550781 200.539062 173.578125 C 197.613281 176.605469 194.292969 179.105469 190.574219 181.074219 C 190.417969 181.15625 190.261719 181.238281 190.105469 181.320312 C 187.257812 182.78125 184.28125 183.886719 181.167969 184.636719 C 178.058594 185.386719 174.902344 185.757812 171.703125 185.753906 C 169.480469 185.753906 167.269531 185.574219 165.074219 185.210938 C 164.902344 185.183594 164.726562 185.152344 164.554688 185.121094 C 160.457031 184.390625 156.566406 183.050781 152.886719 181.101562 C 149.207031 179.15625 145.910156 176.691406 142.996094 173.710938 C 142.875 173.585938 142.753906 173.457031 142.628906 173.332031 C 139.839844 170.414062 137.558594 167.140625 135.78125 163.511719 C 134.007812 159.878906 132.828125 156.066406 132.238281 152.070312 C 132.210938 151.894531 132.1875 151.71875 132.164062 151.542969 C 131.625 147.480469 131.726562 143.429688 132.464844 139.398438 C 133.199219 135.363281 134.539062 131.542969 136.484375 127.933594 C 136.566406 127.777344 136.652344 127.621094 136.738281 127.464844 C 139.769531 122.039062 143.847656 117.570312 148.976562 114.0625 C 149.121094 113.960938 149.265625 113.863281 149.410156 113.765625 C 154.355469 110.46875 159.765625 108.382812 165.640625 107.5 C 165.816406 107.476562 165.992188 107.449219 166.164062 107.425781 C 168.003906 107.171875 169.847656 107.046875 171.703125 107.050781 C 177.605469 107.039062 183.234375 108.269531 188.597656 110.746094 C 188.757812 110.820312 188.917969 110.894531 189.074219 110.972656 C 194.082031 113.367188 198.40625 116.664062 202.039062 120.867188 C 202.15625 121 202.273438 121.132812 202.382812 121.269531 C 204.558594 123.839844 206.367188 126.644531 207.8125 129.6875 C 209.257812 132.730469 210.292969 135.90625 210.914062 139.214844 L 210.914062 139.21875 C 210.949219 139.390625 210.976562 139.5625 211.007812 139.738281 C 211.386719 141.941406 211.578125 144.164062 211.578125 146.402344 Z M 211.578125 146.402344 " fill-opacity="1" fill-rule="nonzero"/><path fill="#6c63ff" d="M 175.640625 143.410156 C 176.199219 144.101562 176.542969 144.890625 176.671875 145.773438 L 195.882812 142.144531 C 195.113281 137.980469 193.363281 134.28125 190.632812 131.042969 Z M 175.640625 143.410156 " fill-opacity="1" fill-rule="nonzero"/><path fill="#cccccc" d="M 196.488281 142.480469 C 196.464844 142.304688 196.429688 142.132812 196.398438 141.960938 C 195.613281 137.707031 193.824219 133.925781 191.042969 130.621094 C 190.929688 130.484375 190.8125 130.351562 190.695312 130.21875 C 188.46875 127.675781 185.835938 125.660156 182.800781 124.179688 L 182.796875 124.179688 C 182.640625 124.101562 182.484375 124.023438 182.320312 123.949219 C 180.117188 122.9375 177.816406 122.25 175.414062 121.894531 C 173.015625 121.542969 170.613281 121.53125 168.210938 121.863281 C 168.039062 121.886719 167.863281 121.914062 167.6875 121.941406 C 164.167969 122.5 160.910156 123.753906 157.921875 125.699219 C 157.773438 125.792969 157.625 125.890625 157.480469 125.992188 C 154.191406 128.230469 151.578125 131.089844 149.648438 134.574219 C 149.5625 134.726562 149.480469 134.882812 149.394531 135.042969 C 148.207031 137.308594 147.394531 139.707031 146.957031 142.230469 C 146.519531 144.753906 146.484375 147.28125 146.839844 149.820312 C 146.863281 149.996094 146.886719 150.171875 146.921875 150.34375 C 147.320312 152.785156 148.074219 155.117188 149.175781 157.328125 C 150.28125 159.542969 151.6875 161.546875 153.394531 163.332031 C 153.515625 163.460938 153.636719 163.589844 153.761719 163.710938 C 155.5625 165.53125 157.589844 167.039062 159.847656 168.234375 C 162.105469 169.433594 164.488281 170.269531 166.996094 170.738281 C 167.171875 170.773438 167.347656 170.804688 167.523438 170.832031 C 170.195312 171.277344 172.875 171.292969 175.554688 170.882812 C 178.234375 170.46875 180.785156 169.648438 183.203125 168.421875 C 183.359375 168.34375 183.515625 168.261719 183.671875 168.175781 C 185.960938 166.949219 188.007812 165.402344 189.816406 163.539062 C 191.621094 161.675781 193.105469 159.582031 194.261719 157.253906 C 194.34375 157.09375 194.417969 156.9375 194.492188 156.777344 C 195.539062 154.550781 196.230469 152.21875 196.570312 149.78125 C 196.910156 147.34375 196.882812 144.910156 196.488281 142.480469 Z M 194.011719 156.558594 C 193.9375 156.71875 193.859375 156.878906 193.78125 157.035156 C 192.648438 159.308594 191.195312 161.355469 189.425781 163.175781 C 187.660156 165 185.65625 166.507812 183.421875 167.707031 C 183.265625 167.789062 183.109375 167.871094 182.953125 167.953125 C 180.585938 169.15625 178.09375 169.957031 175.46875 170.359375 C 172.847656 170.761719 170.226562 170.746094 167.613281 170.308594 C 167.4375 170.28125 167.257812 170.253906 167.085938 170.21875 C 164.632812 169.757812 162.304688 168.941406 160.097656 167.769531 C 157.894531 166.597656 155.910156 165.125 154.152344 163.351562 C 154.023438 163.226562 153.902344 163.101562 153.78125 162.972656 C 152.113281 161.226562 150.738281 159.269531 149.65625 157.105469 C 148.574219 154.941406 147.839844 152.667969 147.445312 150.28125 C 147.414062 150.109375 147.386719 149.933594 147.363281 149.757812 C 147.015625 147.277344 147.050781 144.800781 147.476562 142.332031 C 147.90625 139.863281 148.699219 137.519531 149.859375 135.300781 C 149.941406 135.144531 150.023438 134.988281 150.113281 134.832031 C 152.003906 131.417969 154.5625 128.613281 157.789062 126.425781 C 157.9375 126.324219 158.082031 126.226562 158.230469 126.132812 C 161.148438 124.234375 164.324219 123.015625 167.761719 122.464844 C 167.933594 122.4375 168.109375 122.410156 168.285156 122.390625 C 170.636719 122.0625 172.988281 122.074219 175.335938 122.421875 C 177.683594 122.769531 179.9375 123.4375 182.09375 124.433594 C 182.253906 124.503906 182.414062 124.582031 182.570312 124.65625 C 185.535156 126.105469 188.109375 128.070312 190.289062 130.554688 C 190.40625 130.6875 190.519531 130.824219 190.632812 130.960938 C 193.359375 134.195312 195.109375 137.894531 195.882812 142.058594 C 195.914062 142.230469 195.941406 142.402344 195.96875 142.578125 C 196.351562 144.953125 196.378906 147.332031 196.042969 149.714844 C 195.710938 152.097656 195.03125 154.378906 194.011719 156.558594 Z M 194.011719 156.558594 " fill-opacity="1" fill-rule="nonzero"/><path fill="#cccccc" d="M 169.863281 142.445312 L 169.433594 142.753906 L 157.789062 126.425781 L 157.480469 125.992188 L 148.976562 114.0625 C 149.121094 113.960938 149.265625 113.863281 149.410156 113.765625 L 157.921875 125.699219 L 158.230469 126.132812 Z M 169.863281 142.445312 " fill-opacity="1" fill-rule="nonzero"/><path fill="#cccccc" d="M 167.785156 144.558594 L 167.527344 145.023438 L 149.859375 135.300781 L 149.394531 135.042969 L 136.484375 127.933594 C 136.566406 127.777344 136.652344 127.621094 136.738281 127.464844 L 149.648438 134.574219 L 150.113281 134.832031 Z M 167.785156 144.558594 " fill-opacity="1" fill-rule="nonzero"/><path fill="#cccccc" d="M 167.558594 147.917969 L 147.445312 150.28125 L 146.921875 150.34375 L 132.238281 152.070312 C 132.210938 151.894531 132.1875 151.71875 132.164062 151.542969 L 146.839844 149.820312 L 147.363281 149.757812 L 167.496094 147.390625 Z M 167.558594 147.917969 " fill-opacity="1" fill-rule="nonzero"/><path fill="#cccccc" d="M 168.855469 149.695312 L 154.152344 163.351562 L 153.761719 163.710938 L 142.996094 173.710938 C 142.875 173.585938 142.753906 173.457031 142.628906 173.332031 L 153.394531 163.332031 L 153.78125 162.972656 L 168.496094 149.308594 Z M 168.855469 149.695312 " fill-opacity="1" fill-rule="nonzero"/><path fill="#cccccc" d="M 189.074219 110.972656 L 182.800781 124.179688 L 182.796875 124.179688 L 182.570312 124.65625 L 173.992188 142.714844 L 173.515625 142.488281 L 182.09375 124.433594 L 182.320312 123.949219 L 188.597656 110.746094 C 188.757812 110.820312 188.917969 110.894531 189.074219 110.972656 Z M 189.074219 110.972656 " fill-opacity="1" fill-rule="nonzero"/><path fill="#cccccc" d="M 202.382812 121.269531 L 191.042969 130.621094 L 190.632812 130.960938 L 175.128906 143.742188 L 174.792969 143.335938 L 190.289062 130.554688 L 190.695312 130.21875 L 202.039062 120.867188 C 202.15625 121 202.273438 121.132812 202.382812 121.269531 Z M 202.382812 121.269531 " fill-opacity="1" fill-rule="nonzero"/><path fill="#cccccc" d="M 211.007812 139.738281 L 196.488281 142.480469 L 195.96875 142.578125 L 176.097656 146.335938 L 176 145.816406 L 195.882812 142.058594 L 196.398438 141.960938 L 210.914062 139.21875 C 210.949219 139.390625 210.976562 139.5625 211.007812 139.738281 Z M 211.007812 139.738281 " fill-opacity="1" fill-rule="nonzero"/><path fill="#cccccc" d="M 207.921875 162.878906 C 207.847656 163.035156 207.773438 163.195312 207.695312 163.355469 L 194.261719 157.253906 L 193.78125 157.035156 L 175.640625 148.796875 L 175.859375 148.3125 L 194.011719 156.558594 L 194.492188 156.777344 Z M 207.921875 162.878906 " fill-opacity="1" fill-rule="nonzero"/><path fill="#cccccc" d="M 190.574219 181.074219 C 190.417969 181.15625 190.261719 181.238281 190.105469 181.320312 L 183.203125 168.421875 L 182.953125 167.953125 L 173.519531 150.324219 L 173.988281 150.074219 L 183.421875 167.707031 L 183.671875 168.175781 Z M 190.574219 181.074219 " fill-opacity="1" fill-rule="nonzero"/><path fill="#cccccc" d="M 170.933594 150.75 L 167.613281 170.308594 L 167.523438 170.832031 L 165.074219 185.210938 C 164.902344 185.183594 164.726562 185.152344 164.554688 185.121094 L 166.996094 170.738281 L 167.089844 170.21875 L 170.410156 150.660156 Z M 170.933594 150.75 " fill-opacity="1" fill-rule="nonzero"/><path fill="#cccccc" d="M 171.085938 142.144531 L 170.5625 142.21875 L 167.761719 122.464844 L 167.6875 121.941406 L 165.640625 107.5 C 165.816406 107.476562 165.992188 107.449219 166.164062 107.425781 L 168.210938 121.863281 L 168.285156 122.390625 Z M 171.085938 142.144531 " fill-opacity="1" fill-rule="nonzero"/><path fill="#3f3d56" d="M 176.726562 146.398438 C 176.726562 146.726562 176.695312 147.046875 176.628906 147.367188 C 176.566406 147.6875 176.46875 147.996094 176.34375 148.296875 C 176.21875 148.597656 176.0625 148.882812 175.878906 149.15625 C 175.695312 149.425781 175.488281 149.675781 175.253906 149.90625 C 175.019531 150.136719 174.765625 150.34375 174.492188 150.523438 C 174.21875 150.703125 173.929688 150.855469 173.625 150.980469 C 173.320312 151.105469 173.003906 151.199219 172.683594 151.261719 C 172.359375 151.328125 172.03125 151.359375 171.703125 151.359375 C 171.371094 151.359375 171.046875 151.328125 170.722656 151.261719 C 170.398438 151.199219 170.085938 151.105469 169.78125 150.980469 C 169.472656 150.855469 169.183594 150.703125 168.910156 150.523438 C 168.636719 150.34375 168.382812 150.136719 168.148438 149.90625 C 167.917969 149.675781 167.707031 149.425781 167.523438 149.15625 C 167.339844 148.882812 167.1875 148.597656 167.058594 148.296875 C 166.933594 147.996094 166.839844 147.6875 166.773438 147.367188 C 166.710938 147.046875 166.679688 146.726562 166.679688 146.398438 C 166.679688 146.074219 166.710938 145.753906 166.773438 145.433594 C 166.839844 145.113281 166.933594 144.804688 167.058594 144.503906 C 167.1875 144.203125 167.339844 143.917969 167.523438 143.644531 C 167.707031 143.375 167.917969 143.125 168.148438 142.894531 C 168.382812 142.664062 168.636719 142.457031 168.910156 142.277344 C 169.183594 142.097656 169.472656 141.945312 169.78125 141.820312 C 170.085938 141.695312 170.398438 141.601562 170.722656 141.539062 C 171.046875 141.472656 171.371094 141.441406 171.703125 141.441406 C 172.03125 141.441406 172.359375 141.472656 172.683594 141.539062 C 173.003906 141.601562 173.320312 141.695312 173.625 141.820312 C 173.929688 141.945312 174.21875 142.097656 174.492188 142.277344 C 174.765625 142.457031 175.019531 142.664062 175.253906 142.894531 C 175.488281 143.125 175.695312 143.375 175.878906 143.644531 C 176.0625 143.917969 176.21875 144.203125 176.34375 144.503906 C 176.46875 144.804688 176.566406 145.113281 176.628906 145.433594 C 176.695312 145.753906 176.726562 146.074219 176.726562 146.398438 Z M 176.726562 146.398438 " fill-opacity="1" fill-rule="nonzero"/><path fill="#a0616a" d="M 275.050781 285.003906 L 271.292969 288.15625 L 257.355469 275.125 L 262.90625 270.464844 Z M 275.050781 285.003906 " fill-opacity="1" fill-rule="nonzero"/><path fill="#2f2e41" d="M 278.46875 288.824219 L 266.90625 298.527344 L 266.785156 298.378906 C 266.535156 298.085938 266.320312 297.765625 266.136719 297.425781 C 265.949219 297.089844 265.800781 296.734375 265.683594 296.367188 C 265.570312 295.996094 265.488281 295.621094 265.449219 295.238281 C 265.40625 294.855469 265.402344 294.46875 265.4375 294.085938 C 265.472656 293.699219 265.542969 293.320312 265.648438 292.949219 C 265.757812 292.582031 265.902344 292.222656 266.078125 291.882812 C 266.257812 291.539062 266.46875 291.21875 266.710938 290.917969 C 266.953125 290.613281 267.21875 290.339844 267.515625 290.09375 L 268.285156 286.714844 L 273.570312 285.011719 L 274.578125 284.164062 Z M 278.46875 288.824219 " fill-opacity="1" fill-rule="nonzero"/><path fill="#a0616a" d="M 241.453125 297.035156 L 236.550781 297.035156 L 234.214844 278.074219 L 241.457031 278.078125 Z M 241.453125 297.035156 " fill-opacity="1" fill-rule="nonzero"/><g clip-path="url(#9d1a8c95ee)"><path fill="#2f2e41" d="M 241.625 302.164062 L 226.542969 302.164062 L 226.542969 301.972656 C 226.542969 301.585938 226.582031 301.203125 226.65625 300.824219 C 226.730469 300.445312 226.84375 300.078125 226.992188 299.71875 C 227.136719 299.363281 227.320312 299.023438 227.535156 298.703125 C 227.746094 298.382812 227.992188 298.085938 228.261719 297.8125 C 228.535156 297.539062 228.832031 297.292969 229.152344 297.082031 C 229.472656 296.867188 229.8125 296.683594 230.167969 296.535156 C 230.523438 296.386719 230.890625 296.277344 231.269531 296.203125 C 231.648438 296.125 232.027344 296.089844 232.414062 296.089844 L 235.171875 293.992188 L 240.308594 296.089844 L 241.625 296.089844 Z M 241.625 302.164062 " fill-opacity="1" fill-rule="nonzero"/></g><path fill="#2f2e41" d="M 253.722656 206.308594 C 254.90625 207.792969 254.3125 212.839844 254.3125 212.839844 L 254.605469 244.265625 C 259.640625 248.421875 263.496094 265.675781 263.496094 265.675781 L 268.304688 274.542969 C 267.710938 276.324219 263.867188 283.289062 262.683594 282.992188 C 262.132812 282.851562 255.292969 276.527344 250.742188 267.148438 C 245.484375 256.3125 242.464844 242.226562 242.464844 242.226562 C 242.464844 242.226562 243.058594 282.597656 243.058594 284.378906 C 243.058594 286.160156 235.0625 285.269531 233.285156 285.269531 C 231.507812 285.269531 222.359375 212.542969 222.359375 212.542969 L 222.359375 208.386719 L 223.839844 206.308594 C 223.839844 206.308594 252.535156 204.824219 253.722656 206.308594 Z M 253.722656 206.308594 " fill-opacity="1" fill-rule="nonzero"/><path fill="#3f3d56" d="M 190.046875 139.207031 L 186.457031 140.886719 L 190.457031 140.046875 C 190.457031 140.046875 193.402344 140.167969 193.402344 138.964844 L 198.191406 136.328125 C 198.191406 136.328125 202.261719 138.488281 203.457031 137.285156 C 204.65625 136.085938 202.5 133.6875 202.5 133.6875 C 202.5 133.6875 203.941406 132.890625 203.820312 132.566406 C 203.699219 132.246094 201.78125 132.726562 201.78125 132.726562 C 201.78125 132.726562 197.230469 130.085938 197.472656 134.648438 L 192.683594 137.828125 C 192.683594 137.828125 190.289062 137.765625 190.046875 139.207031 Z M 190.046875 139.207031 " fill-opacity="1" fill-rule="nonzero"/><path fill="#6c63ff" d="M 255.367188 216.585938 C 249.082031 219.710938 241.601562 220.65625 234.554688 219.824219 C 228.480469 219.109375 227.21875 212.308594 221.582031 209.894531 C 223.363281 204.765625 223.382812 197.957031 223.082031 196.046875 C 222.566406 192.78125 222.472656 170.039062 224.359375 167.667969 C 226.832031 164.5625 230.609375 162.902344 230.4375 158.929688 L 230.96875 159.476562 C 230.300781 157.710938 231.59375 155.695312 233.300781 154.898438 C 235.003906 154.097656 236.972656 154.199219 238.851562 154.316406 C 240.433594 154.417969 242.015625 154.515625 243.597656 154.617188 C 243.386719 155.273438 243.339844 155.941406 243.449219 156.621094 C 243.5625 157.300781 243.824219 157.917969 244.234375 158.46875 C 247.039062 157.695312 249.996094 159.753906 251.25 162.382812 C 252.5 165.011719 252.46875 168.046875 252.414062 170.960938 C 252.347656 174.328125 254.84375 198 251.828125 199.496094 C 253.382812 199.890625 255.582031 208.203125 254.253906 207.300781 C 254.867188 207.734375 254.71875 211.757812 255.367188 216.585938 Z M 255.367188 216.585938 " fill-opacity="1" fill-rule="nonzero"/><path fill="#a0616a" d="M 194.265625 135.289062 C 194.605469 135.1875 194.949219 135.128906 195.300781 135.105469 C 195.652344 135.078125 196.003906 135.09375 196.355469 135.148438 C 196.703125 135.199219 197.042969 135.292969 197.371094 135.417969 C 197.703125 135.546875 198.011719 135.710938 198.308594 135.90625 C 198.601562 136.101562 198.871094 136.328125 199.113281 136.582031 C 199.359375 136.839844 199.574219 137.117188 199.757812 137.421875 C 199.941406 137.722656 200.089844 138.042969 200.203125 138.375 C 200.316406 138.710938 200.390625 139.054688 200.429688 139.40625 L 227.101562 162.90625 L 222.285156 166.113281 L 195.8125 144.835938 C 195.21875 144.859375 194.640625 144.777344 194.078125 144.589844 C 193.511719 144.402344 193 144.121094 192.539062 143.746094 C 192.078125 143.371094 191.695312 142.921875 191.398438 142.40625 C 191.101562 141.890625 190.90625 141.339844 190.808594 140.75 C 190.714844 140.164062 190.726562 139.578125 190.84375 138.992188 C 190.964844 138.410156 191.183594 137.867188 191.5 137.363281 C 191.820312 136.859375 192.21875 136.429688 192.691406 136.070312 C 193.167969 135.714844 193.691406 135.453125 194.265625 135.289062 Z M 194.265625 135.289062 " fill-opacity="1" fill-rule="nonzero"/><path fill="#6c63ff" d="M 222.988281 155.328125 C 222.402344 155.359375 208.621094 145.28125 208.265625 145.75 L 207.339844 150.78125 L 204.792969 154.160156 L 210.300781 160.011719 L 211.875 161.304688 L 212.886719 162.375 C 212.53125 162.851562 214.878906 165.394531 215.007812 165.972656 C 215.140625 166.574219 215.472656 167.027344 216.015625 167.320312 L 224.976562 172.195312 C 225.273438 172.414062 225.585938 172.605469 225.921875 172.761719 C 226.253906 172.921875 226.597656 173.046875 226.957031 173.136719 C 227.3125 173.226562 227.675781 173.28125 228.042969 173.300781 C 228.410156 173.320312 228.777344 173.300781 229.144531 173.246094 C 229.507812 173.195312 229.863281 173.105469 230.210938 172.980469 C 230.558594 172.859375 230.890625 172.703125 231.207031 172.511719 C 231.523438 172.324219 231.820312 172.105469 232.09375 171.859375 C 232.367188 171.613281 232.613281 171.339844 232.832031 171.042969 C 233.054688 170.75 233.242188 170.433594 233.402344 170.101562 C 233.5625 169.765625 233.6875 169.421875 233.777344 169.0625 C 233.867188 168.707031 233.921875 168.34375 233.941406 167.972656 C 233.960938 167.605469 233.945312 167.238281 233.894531 166.871094 C 233.839844 166.507812 233.753906 166.148438 233.632812 165.800781 C 233.507812 165.453125 233.355469 165.121094 233.164062 164.800781 C 232.976562 164.484375 232.761719 164.1875 232.515625 163.914062 C 232.269531 163.636719 232 163.390625 231.703125 163.167969 L 230.382812 161.828125 L 228.355469 159.769531 L 224.566406 155.925781 C 224.132812 155.480469 223.605469 155.28125 222.988281 155.328125 Z M 222.988281 155.328125 " fill-opacity="1" fill-rule="nonzero"/><path fill="#a0616a" d="M 247.578125 141.914062 C 247.578125 142.550781 247.515625 143.1875 247.390625 143.8125 C 247.265625 144.441406 247.082031 145.050781 246.839844 145.640625 C 246.59375 146.230469 246.292969 146.792969 245.941406 147.324219 C 245.585938 147.859375 245.183594 148.351562 244.730469 148.800781 C 244.28125 149.253906 243.789062 149.660156 243.257812 150.015625 C 242.726562 150.371094 242.167969 150.667969 241.578125 150.914062 C 240.988281 151.160156 240.378906 151.34375 239.753906 151.46875 C 239.125 151.59375 238.496094 151.65625 237.855469 151.65625 C 237.21875 151.65625 236.585938 151.59375 235.960938 151.46875 C 235.332031 151.34375 234.726562 151.160156 234.136719 150.914062 C 233.546875 150.667969 232.984375 150.371094 232.453125 150.015625 C 231.925781 149.660156 231.433594 149.253906 230.980469 148.800781 C 230.53125 148.351562 230.128906 147.859375 229.773438 147.324219 C 229.417969 146.792969 229.117188 146.230469 228.875 145.640625 C 228.628906 145.050781 228.445312 144.441406 228.320312 143.8125 C 228.195312 143.1875 228.132812 142.550781 228.132812 141.914062 C 228.132812 141.273438 228.195312 140.640625 228.320312 140.011719 C 228.445312 139.382812 228.628906 138.773438 228.875 138.183594 C 229.117188 137.59375 229.417969 137.03125 229.773438 136.5 C 230.128906 135.96875 230.53125 135.476562 230.980469 135.023438 C 231.433594 134.570312 231.925781 134.167969 232.453125 133.8125 C 232.984375 133.457031 233.546875 133.15625 234.136719 132.910156 C 234.726562 132.667969 235.332031 132.480469 235.960938 132.355469 C 236.585938 132.230469 237.21875 132.167969 237.855469 132.167969 C 238.496094 132.167969 239.125 132.230469 239.753906 132.355469 C 240.378906 132.480469 240.988281 132.667969 241.578125 132.910156 C 242.167969 133.15625 242.726562 133.457031 243.257812 133.8125 C 243.789062 134.167969 244.28125 134.570312 244.730469 135.023438 C 245.183594 135.476562 245.585938 135.96875 245.941406 136.5 C 246.292969 137.03125 246.59375 137.59375 246.839844 138.183594 C 247.082031 138.773438 247.265625 139.382812 247.390625 140.011719 C 247.515625 140.640625 247.578125 141.273438 247.578125 141.914062 Z M 247.578125 141.914062 " fill-opacity="1" fill-rule="nonzero"/><path fill="#2f2e41" d="M 249.453125 138.828125 C 248.914062 136.675781 246.898438 134.800781 244.695312 135.019531 C 244.96875 133.363281 243.867188 131.695312 242.382812 130.914062 C 240.902344 130.132812 239.128906 130.101562 237.476562 130.371094 C 236.515625 130.546875 235.566406 130.769531 234.628906 131.039062 C 233.832031 131.253906 230.101562 129.972656 229.3125 130.207031 C 228.636719 130.40625 227.011719 132.832031 226.496094 133.316406 C 225.984375 133.800781 225.710938 134.617188 226.054688 135.234375 C 226.394531 135.839844 227.167969 136.039062 227.859375 136.097656 C 228.554688 136.152344 229.300781 136.144531 229.875 136.535156 C 230.613281 137.039062 230.824219 138.042969 230.792969 138.9375 C 230.765625 139.832031 230.558594 140.738281 230.726562 141.617188 C 230.890625 142.496094 231.601562 143.375 232.496094 143.316406 C 233.164062 142.609375 234.382812 142.65625 235.148438 143.253906 C 235.519531 143.578125 235.804688 143.964844 236.007812 144.414062 C 236.207031 144.867188 236.308594 145.335938 236.300781 145.832031 C 236.285156 146.808594 236.136719 147.765625 235.855469 148.703125 C 235.695312 149.347656 235.574219 150.125 236.046875 150.585938 C 236.332031 150.816406 236.660156 150.953125 237.019531 150.996094 C 238.425781 151.292969 243.691406 150.886719 245.097656 151.1875 L 244.988281 150.972656 C 246.003906 149.003906 247.355469 147.21875 248.351562 145.242188 C 249.351562 143.261719 249.996094 140.976562 249.453125 138.828125 Z M 249.453125 138.828125 " fill-opacity="1" fill-rule="nonzero"/><path fill="#a0616a" d="M 264.378906 219.296875 C 264.035156 219.214844 263.703125 219.097656 263.386719 218.941406 C 263.070312 218.785156 262.773438 218.597656 262.496094 218.378906 C 262.21875 218.15625 261.96875 217.910156 261.746094 217.632812 C 261.523438 217.359375 261.335938 217.0625 261.175781 216.746094 C 261.019531 216.429688 260.898438 216.097656 260.8125 215.753906 C 260.726562 215.414062 260.679688 215.0625 260.671875 214.710938 C 260.664062 214.355469 260.691406 214.003906 260.761719 213.65625 C 260.828125 213.308594 260.933594 212.972656 261.074219 212.648438 L 249.613281 178.964844 L 255.382812 178.585938 L 267.773438 210.246094 C 268.300781 210.519531 268.765625 210.878906 269.160156 211.324219 C 269.558594 211.765625 269.863281 212.265625 270.074219 212.824219 C 270.289062 213.378906 270.394531 213.957031 270.398438 214.550781 C 270.402344 215.148438 270.296875 215.726562 270.085938 216.28125 C 269.878906 216.839844 269.578125 217.34375 269.183594 217.789062 C 268.789062 218.238281 268.332031 218.597656 267.804688 218.878906 C 267.277344 219.15625 266.71875 219.328125 266.128906 219.402344 C 265.539062 219.476562 264.957031 219.441406 264.378906 219.296875 Z M 264.378906 219.296875 " fill-opacity="1" fill-rule="nonzero"/><path fill="#6c63ff" d="M 246.957031 183.367188 C 247.480469 183.628906 254.429688 199.246094 254.96875 199.015625 L 258.273438 195.113281 L 262.160156 193.453125 L 260.289062 185.632812 L 259.566406 183.726562 L 259.21875 182.292969 C 259.761719 182.054688 258.988281 178.679688 259.164062 178.113281 C 259.351562 177.523438 259.285156 176.96875 258.960938 176.441406 L 253.609375 167.742188 C 253.460938 167.40625 253.28125 167.085938 253.074219 166.78125 C 252.863281 166.476562 252.625 166.199219 252.359375 165.941406 C 252.09375 165.683594 251.808594 165.457031 251.496094 165.257812 C 251.1875 165.058594 250.859375 164.890625 250.519531 164.753906 C 250.175781 164.617188 249.824219 164.515625 249.460938 164.453125 C 249.097656 164.386719 248.730469 164.355469 248.363281 164.363281 C 247.996094 164.367188 247.628906 164.410156 247.269531 164.488281 C 246.910156 164.566406 246.5625 164.675781 246.222656 164.824219 C 245.882812 164.972656 245.5625 165.148438 245.261719 165.359375 C 244.957031 165.570312 244.675781 165.804688 244.421875 166.070312 C 244.164062 166.335938 243.9375 166.625 243.734375 166.933594 C 243.535156 167.246094 243.367188 167.570312 243.230469 167.914062 C 243.09375 168.257812 242.992188 168.609375 242.925781 168.972656 C 242.859375 169.335938 242.828125 169.703125 242.835938 170.074219 C 242.839844 170.441406 242.878906 170.808594 242.957031 171.167969 C 243.035156 171.53125 243.144531 171.878906 243.292969 172.21875 L 243.773438 174.039062 L 244.507812 176.835938 L 245.882812 182.058594 C 246.042969 182.660156 246.398438 183.097656 246.957031 183.367188 Z M 246.957031 183.367188 " fill-opacity="1" fill-rule="nonzero"/><g clip-path="url(#1a05eb44d1)"><path fill="#f0f0f0" d="M 291.308594 296.589844 L 288.601562 292.226562 L 288.0625 294.71875 C 287.964844 295.15625 287.871094 295.597656 287.785156 296.039062 C 287.015625 295.382812 286.195312 294.773438 285.394531 294.1875 C 282.9375 292.398438 280.476562 290.609375 278.019531 288.816406 L 278.789062 293.285156 C 279.265625 296.039062 279.761719 298.847656 280.933594 301.367188 C 281.0625 301.652344 281.203125 301.933594 281.355469 302.207031 L 292.785156 302.207031 C 292.878906 301.953125 292.941406 301.6875 292.976562 301.417969 C 292.976562 301.402344 292.980469 301.382812 292.980469 301.367188 C 293.15625 299.660156 292.214844 298.050781 291.308594 296.589844 Z M 291.308594 296.589844 " fill-opacity="1" fill-rule="nonzero"/></g><g clip-path="url(#77b4c83620)"><path fill="#cacaca" d="M 300.984375 302.636719 L 204.121094 302.742188 C 204.003906 302.742188 203.90625 302.703125 203.824219 302.621094 C 203.742188 302.539062 203.699219 302.441406 203.699219 302.324219 C 203.699219 302.210938 203.742188 302.109375 203.824219 302.027344 C 203.90625 301.945312 204.003906 301.90625 204.121094 301.90625 L 300.984375 301.796875 C 301.101562 301.796875 301.199219 301.839844 301.28125 301.921875 C 301.363281 302.003906 301.402344 302.101562 301.402344 302.214844 C 301.402344 302.332031 301.363281 302.429688 301.28125 302.511719 C 301.199219 302.59375 301.101562 302.636719 300.984375 302.636719 Z M 300.984375 302.636719 " fill-opacity="1" fill-rule="nonzero"/></g><path fill="#f0f0f0" d="M 161.011719 229.535156 L 158.304688 225.175781 L 157.761719 227.667969 C 157.667969 228.101562 157.574219 228.546875 157.484375 228.988281 C 156.714844 228.328125 155.898438 227.71875 155.097656 227.136719 C 152.636719 225.347656 150.179688 223.554688 147.722656 221.761719 L 148.492188 226.234375 C 148.96875 228.988281 149.460938 231.796875 150.636719 234.3125 C 150.765625 234.597656 150.90625 234.878906 151.058594 235.152344 L 162.488281 235.152344 C 162.582031 234.898438 162.644531 234.636719 162.675781 234.367188 C 162.679688 234.347656 162.683594 234.332031 162.679688 234.3125 C 162.859375 232.605469 161.917969 230.996094 161.011719 229.535156 Z M 161.011719 229.535156 " fill-opacity="1" fill-rule="nonzero"/><g clip-path="url(#069146e600)"><path fill="#cacaca" d="M 170.6875 235.582031 L 73.820312 235.691406 C 73.707031 235.691406 73.609375 235.648438 73.527344 235.566406 C 73.445312 235.484375 73.40625 235.386719 73.40625 235.273438 C 73.40625 235.15625 73.445312 235.058594 73.527344 234.976562 C 73.609375 234.894531 73.707031 234.851562 73.820312 234.851562 L 170.6875 234.746094 C 170.804688 234.742188 170.902344 234.785156 170.984375 234.867188 C 171.066406 234.949219 171.109375 235.046875 171.109375 235.164062 C 171.109375 235.28125 171.066406 235.378906 170.984375 235.460938 C 170.902344 235.542969 170.804688 235.582031 170.6875 235.582031 Z M 170.6875 235.582031 " fill-opacity="1" fill-rule="nonzero"/></g><path fill="#ffb6b6" d="M 125.886719 154.648438 C 125.660156 154.574219 125.441406 154.476562 125.234375 154.355469 C 125.027344 154.234375 124.835938 154.089844 124.660156 153.925781 C 124.484375 153.761719 124.332031 153.582031 124.195312 153.382812 C 124.058594 153.183594 123.945312 152.976562 123.855469 152.753906 C 123.769531 152.527344 123.703125 152.300781 123.664062 152.0625 C 123.625 151.824219 123.613281 151.585938 123.625 151.347656 C 123.636719 151.105469 123.675781 150.871094 123.742188 150.640625 C 123.804688 150.40625 123.894531 150.1875 124.007812 149.972656 L 115.148438 124.789062 L 116.035156 116.410156 L 119.648438 114.066406 L 123.296875 125.777344 L 128.667969 148.707031 C 129.011719 148.921875 129.304688 149.1875 129.550781 149.511719 C 129.796875 149.832031 129.972656 150.1875 130.089844 150.574219 C 130.203125 150.964844 130.246094 151.359375 130.214844 151.761719 C 130.183594 152.167969 130.082031 152.550781 129.910156 152.917969 C 129.742188 153.285156 129.507812 153.609375 129.21875 153.890625 C 128.929688 154.171875 128.597656 154.390625 128.226562 154.550781 C 127.855469 154.710938 127.46875 154.796875 127.066406 154.816406 C 126.664062 154.832031 126.269531 154.777344 125.886719 154.648438 Z M 125.886719 154.648438 " fill-opacity="1" fill-rule="nonzero"/><path fill="#3f3d56" d="M 110.375 107.597656 L 118.753906 104.347656 L 123.617188 120.597656 L 112.390625 124.164062 Z M 110.375 107.597656 " fill-opacity="1" fill-rule="nonzero"/></svg>