<svg xmlns="http://www.w3.org/2000/svg" xmlns:xlink="http://www.w3.org/1999/xlink" width="500" zoomAndPan="magnify" viewBox="0 0 375 374.999991" height="500" preserveAspectRatio="xMidYMid meet" version="1.0"><defs><clipPath id="b1aec6a0f2"><path d="M 285 294 L 314.753906 294 L 314.753906 337.5 L 285 337.5 Z M 285 294 " clip-rule="nonzero"/></clipPath><clipPath id="35f4042e81"><path d="M 214 336 L 314.753906 336 L 314.753906 337.5 L 214 337.5 Z M 214 336 " clip-rule="nonzero"/></clipPath><clipPath id="ae396ad6f9"><path d="M 60.503906 75 L 81 75 L 81 94 L 60.503906 94 Z M 60.503906 75 " clip-rule="nonzero"/></clipPath><clipPath id="073427ee16"><path d="M 128 37.5 L 133 37.5 L 133 75 L 128 75 Z M 128 37.5 " clip-rule="nonzero"/></clipPath></defs><rect x="-37.5" width="450" fill="#ffffff" y="-37.499999" height="449.999989" fill-opacity="1"/><rect x="-37.5" width="450" fill="#edf5fa" y="-37.499999" height="449.999989" fill-opacity="1"/><g clip-path="url(#b1aec6a0f2)"><path fill="#f0f0f0" d="M 310.273438 331.519531 C 308.824219 333.472656 307.070312 335.101562 305.015625 336.402344 C 304.582031 336.675781 304.136719 336.933594 303.6875 337.175781 L 293.035156 337.175781 C 293.160156 336.917969 293.285156 336.660156 293.40625 336.402344 C 294.226562 334.671875 294.90625 332.890625 295.449219 331.050781 C 295.992188 329.214844 296.390625 327.347656 296.640625 325.453125 C 296.890625 323.554688 296.996094 321.648438 296.949219 319.734375 C 296.902344 317.820312 296.710938 315.921875 296.367188 314.039062 C 296.023438 312.152344 295.539062 310.308594 294.910156 308.5 C 294.277344 306.691406 293.511719 304.945312 292.609375 303.253906 C 291.707031 301.566406 290.679688 299.957031 289.523438 298.429688 C 288.371094 296.902344 287.105469 295.46875 285.730469 294.140625 C 292.167969 296.125 298.117188 300 302.011719 305.492188 C 303.921875 308.191406 305.238281 311.15625 305.96875 314.382812 C 306.289062 311.1875 306.199219 308.003906 305.695312 304.832031 C 305.195312 301.664062 304.296875 298.609375 303 295.667969 C 308.226562 299.917969 312.296875 305.734375 313.851562 312.28125 C 315.402344 318.835938 314.277344 326.105469 310.273438 331.519531 Z M 310.273438 331.519531 " fill-opacity="1" fill-rule="nonzero"/></g><g clip-path="url(#35f4042e81)"><path fill="#3f3d56" d="M 314.589844 337.5 L 214.867188 337.5 L 214.867188 336.6875 L 314.738281 336.6875 Z M 314.589844 337.5 " fill-opacity="1" fill-rule="nonzero"/></g><path fill="#6c63ff" d="M 179.976562 139.261719 C 179.976562 154.195312 174.753906 166.949219 164.816406 176.4375 C 157.761719 183.175781 146.894531 192.617188 146.894531 202.601562 L 146.894531 210.863281 L 113.816406 210.863281 L 113.816406 202.601562 C 113.816406 192.511719 102.90625 183.050781 95.894531 176.4375 C 86.179688 167.28125 80.734375 153.664062 80.734375 139.261719 L 80.734375 138.957031 C 80.738281 137.332031 80.824219 135.714844 80.988281 134.097656 C 81.152344 132.480469 81.394531 130.878906 81.714844 129.289062 C 82.039062 127.695312 82.4375 126.125 82.914062 124.574219 C 83.390625 123.019531 83.941406 121.496094 84.570312 119.996094 C 85.195312 118.5 85.894531 117.035156 86.664062 115.605469 C 87.433594 114.175781 88.273438 112.789062 89.179688 111.441406 C 90.085938 110.09375 91.058594 108.792969 92.09375 107.542969 C 93.128906 106.289062 94.222656 105.09375 95.375 103.949219 C 96.527344 102.804688 97.734375 101.71875 98.992188 100.691406 C 100.253906 99.664062 101.558594 98.703125 102.914062 97.804688 C 104.269531 96.90625 105.664062 96.078125 107.097656 95.316406 C 108.535156 94.558594 110.003906 93.867188 111.507812 93.25 C 113.011719 92.632812 114.539062 92.09375 116.097656 91.625 C 117.652344 91.160156 119.230469 90.769531 120.824219 90.457031 C 122.417969 90.148438 124.027344 89.914062 125.644531 89.761719 C 127.261719 89.605469 128.882812 89.53125 130.507812 89.535156 C 132.132812 89.542969 133.753906 89.625 135.371094 89.789062 C 136.988281 89.953125 138.59375 90.195312 140.1875 90.519531 C 141.777344 90.839844 143.351562 91.238281 144.90625 91.714844 C 146.460938 92.191406 147.988281 92.742188 149.488281 93.367188 C 150.984375 93.992188 152.453125 94.691406 153.882812 95.460938 C 155.3125 96.230469 156.703125 97.070312 158.050781 97.976562 C 159.398438 98.882812 160.699219 99.851562 161.953125 100.886719 C 163.207031 101.917969 164.40625 103.011719 165.550781 104.164062 C 166.699219 105.316406 167.785156 106.519531 168.8125 107.777344 C 169.839844 109.035156 170.800781 110.34375 171.699219 111.695312 C 172.597656 113.046875 173.429688 114.441406 174.191406 115.875 C 174.953125 117.308594 175.640625 118.777344 176.257812 120.277344 C 176.875 121.78125 177.417969 123.308594 177.886719 124.863281 C 178.351562 126.417969 178.742188 127.992188 179.054688 129.585938 C 179.367188 131.179688 179.601562 132.785156 179.753906 134.402344 C 179.910156 136.019531 179.984375 137.636719 179.976562 139.261719 Z M 179.976562 139.261719 " fill-opacity="1" fill-rule="nonzero"/><path fill="#3f3d56" d="M 146.894531 212.023438 C 146.742188 212.023438 146.59375 211.992188 146.453125 211.933594 C 146.308594 211.875 146.183594 211.789062 146.074219 211.683594 C 145.964844 211.574219 145.882812 211.449219 145.824219 211.304688 C 145.765625 211.164062 145.734375 211.015625 145.734375 210.863281 L 145.734375 202.601562 C 145.734375 192.890625 155.324219 183.824219 162.324219 177.203125 C 162.902344 176.652344 163.46875 176.121094 164.011719 175.601562 C 173.695312 166.351562 178.816406 153.785156 178.816406 139.261719 C 178.816406 112.117188 157.53125 90.851562 130.355469 90.851562 L 130.21875 90.851562 C 128.640625 90.855469 127.066406 90.933594 125.492188 91.089844 C 123.921875 91.246094 122.359375 91.476562 120.8125 91.785156 C 119.261719 92.09375 117.734375 92.476562 116.222656 92.933594 C 114.710938 93.394531 113.226562 93.925781 111.765625 94.527344 C 110.308594 95.132812 108.882812 95.804688 107.488281 96.546875 C 106.09375 97.289062 104.742188 98.101562 103.429688 98.976562 C 102.113281 99.851562 100.847656 100.789062 99.625 101.789062 C 98.402344 102.789062 97.234375 103.84375 96.113281 104.957031 C 94.996094 106.074219 93.933594 107.238281 92.929688 108.457031 C 91.925781 109.675781 90.984375 110.9375 90.105469 112.25 C 89.222656 113.558594 88.410156 114.90625 87.664062 116.296875 C 86.914062 117.6875 86.238281 119.109375 85.628906 120.566406 C 85.019531 122.023438 84.484375 123.503906 84.023438 125.011719 C 83.558594 126.519531 83.171875 128.046875 82.859375 129.59375 C 82.542969 131.140625 82.308594 132.699219 82.148438 134.269531 C 81.988281 135.839844 81.902344 137.410156 81.898438 138.988281 L 81.898438 139.261719 C 81.898438 153.484375 87.289062 166.726562 96.695312 175.597656 C 97.171875 176.046875 97.667969 176.507812 98.175781 176.984375 C 105.265625 183.617188 114.976562 192.699219 114.976562 202.601562 L 114.976562 210.863281 C 114.976562 211.015625 114.949219 211.164062 114.886719 211.304688 C 114.828125 211.449219 114.746094 211.574219 114.636719 211.683594 C 114.527344 211.789062 114.402344 211.875 114.261719 211.933594 C 114.117188 211.992188 113.96875 212.023438 113.816406 212.023438 C 113.664062 212.023438 113.515625 211.992188 113.371094 211.933594 C 113.230469 211.875 113.105469 211.789062 112.996094 211.683594 C 112.886719 211.574219 112.800781 211.449219 112.742188 211.304688 C 112.683594 211.164062 112.65625 211.015625 112.65625 210.863281 L 112.65625 202.601562 C 112.65625 193.703125 103.371094 185.019531 96.585938 178.675781 C 96.078125 178.195312 95.582031 177.734375 95.101562 177.28125 C 85.234375 167.976562 79.574219 154.117188 79.574219 139.261719 L 79.574219 138.980469 C 79.652344 111.132812 102.359375 88.53125 130.214844 88.53125 L 130.359375 88.53125 C 132.015625 88.523438 133.664062 88.59375 135.3125 88.75 C 136.960938 88.902344 138.59375 89.136719 140.21875 89.449219 C 141.84375 89.761719 143.449219 90.15625 145.035156 90.628906 C 146.621094 91.097656 148.179688 91.648438 149.710938 92.273438 C 151.242188 92.894531 152.738281 93.59375 154.203125 94.367188 C 155.664062 95.136719 157.085938 95.980469 158.46875 96.890625 C 159.847656 97.800781 161.179688 98.777344 162.464844 99.820312 C 163.75 100.859375 164.980469 101.964844 166.15625 103.125 C 167.332031 104.289062 168.449219 105.503906 169.503906 106.777344 C 170.558594 108.050781 171.550781 109.371094 172.476562 110.742188 C 173.402344 112.109375 174.261719 113.519531 175.046875 114.976562 C 175.835938 116.429688 176.550781 117.917969 177.191406 119.441406 C 177.832031 120.964844 178.398438 122.515625 178.886719 124.09375 C 179.375 125.671875 179.785156 127.273438 180.113281 128.890625 C 180.445312 130.511719 180.695312 132.144531 180.867188 133.785156 C 181.039062 135.429688 181.128906 137.078125 181.136719 138.730469 C 181.136719 138.910156 181.136719 139.085938 181.136719 139.261719 C 181.136719 154.433594 175.769531 167.582031 165.617188 177.277344 C 165.070312 177.796875 164.503906 178.335938 163.917969 178.886719 C 157.226562 185.21875 148.054688 193.886719 148.054688 202.601562 L 148.054688 210.863281 C 148.054688 211.015625 148.027344 211.164062 147.96875 211.304688 C 147.910156 211.449219 147.824219 211.574219 147.714844 211.683594 C 147.605469 211.789062 147.480469 211.875 147.339844 211.933594 C 147.195312 211.992188 147.046875 212.023438 146.894531 212.023438 Z M 146.894531 212.023438 " fill-opacity="1" fill-rule="nonzero"/><path fill="#6c63ff" d="M 141.382812 226.902344 L 119.328125 226.902344 C 119.070312 226.902344 118.824219 226.851562 118.589844 226.753906 C 118.351562 226.65625 118.140625 226.515625 117.960938 226.335938 C 117.777344 226.152344 117.640625 225.945312 117.542969 225.707031 C 117.441406 225.472656 117.394531 225.226562 117.394531 224.96875 C 117.394531 224.710938 117.441406 224.464844 117.542969 224.230469 C 117.640625 223.992188 117.777344 223.78125 117.960938 223.601562 C 118.140625 223.421875 118.351562 223.28125 118.589844 223.183594 C 118.824219 223.085938 119.070312 223.035156 119.328125 223.035156 L 141.382812 223.035156 C 141.640625 223.035156 141.886719 223.085938 142.125 223.183594 C 142.359375 223.28125 142.570312 223.421875 142.75 223.601562 C 142.933594 223.78125 143.074219 223.992188 143.171875 224.230469 C 143.269531 224.464844 143.316406 224.710938 143.316406 224.96875 C 143.316406 225.226562 143.269531 225.472656 143.171875 225.707031 C 143.074219 225.945312 142.933594 226.152344 142.75 226.335938 C 142.570312 226.515625 142.359375 226.65625 142.125 226.753906 C 141.886719 226.851562 141.640625 226.902344 141.382812 226.902344 Z M 141.382812 226.902344 " fill-opacity="1" fill-rule="nonzero"/><path fill="#3f3d56" d="M 132.726562 239.851562 L 127.980469 239.851562 C 126.300781 239.851562 124.742188 239.417969 123.300781 238.554688 C 123.085938 238.429688 122.933594 238.25 122.839844 238.019531 C 122.75 237.785156 122.738281 237.550781 122.8125 237.3125 C 122.875 237.066406 123.007812 236.867188 123.210938 236.714844 C 123.414062 236.558594 123.640625 236.484375 123.894531 236.484375 L 136.8125 236.484375 C 137.066406 236.484375 137.296875 236.558594 137.496094 236.714844 C 137.699219 236.867188 137.832031 237.066406 137.898438 237.3125 C 137.96875 237.550781 137.960938 237.785156 137.867188 238.019531 C 137.777344 238.25 137.621094 238.429688 137.40625 238.554688 C 135.96875 239.417969 134.40625 239.851562 132.726562 239.851562 Z M 132.726562 239.851562 " fill-opacity="1" fill-rule="nonzero"/><path fill="#3f3d56" d="M 141.386719 233.003906 L 119.203125 233.003906 L 119.132812 232.855469 C 118.992188 232.277344 119.109375 231.753906 119.480469 231.289062 C 119.859375 230.808594 120.351562 230.570312 120.960938 230.574219 L 139.75 230.574219 C 140.355469 230.570312 140.851562 230.808594 141.226562 231.289062 C 141.597656 231.746094 141.714844 232.261719 141.578125 232.835938 L 141.546875 232.984375 Z M 141.386719 233.003906 " fill-opacity="1" fill-rule="nonzero"/><g clip-path="url(#ae396ad6f9)"><path fill="#e4e4e4" d="M 79.050781 93.707031 C 78.566406 93.707031 78.144531 93.546875 77.777344 93.230469 L 61.164062 78.742188 C 60.972656 78.570312 60.824219 78.371094 60.710938 78.144531 C 60.601562 77.914062 60.535156 77.671875 60.519531 77.417969 C 60.503906 77.164062 60.539062 76.917969 60.621094 76.675781 C 60.703125 76.4375 60.828125 76.21875 60.996094 76.027344 C 61.160156 75.835938 61.359375 75.683594 61.585938 75.570312 C 61.816406 75.457031 62.058594 75.390625 62.3125 75.371094 C 62.566406 75.351562 62.8125 75.382812 63.054688 75.460938 C 63.296875 75.542969 63.515625 75.664062 63.710938 75.828125 L 80.324219 90.316406 C 80.628906 90.582031 80.828125 90.910156 80.925781 91.300781 C 81.027344 91.691406 81.003906 92.074219 80.863281 92.453125 C 80.71875 92.828125 80.484375 93.132812 80.152344 93.363281 C 79.820312 93.589844 79.453125 93.707031 79.050781 93.707031 Z M 79.050781 93.707031 " fill-opacity="1" fill-rule="nonzero"/></g><path fill="#e4e4e4" d="M 178.90625 93.707031 C 178.503906 93.707031 178.136719 93.589844 177.804688 93.363281 C 177.472656 93.132812 177.234375 92.828125 177.09375 92.453125 C 176.953125 92.074219 176.929688 91.691406 177.03125 91.300781 C 177.128906 90.910156 177.328125 90.582031 177.632812 90.316406 L 194.246094 75.828125 C 194.441406 75.664062 194.660156 75.539062 194.898438 75.460938 C 195.140625 75.382812 195.390625 75.351562 195.644531 75.371094 C 195.898438 75.386719 196.140625 75.453125 196.367188 75.566406 C 196.597656 75.683594 196.792969 75.835938 196.960938 76.027344 C 197.128906 76.21875 197.253906 76.433594 197.335938 76.675781 C 197.417969 76.917969 197.449219 77.164062 197.433594 77.417969 C 197.417969 77.671875 197.355469 77.914062 197.242188 78.140625 C 197.132812 78.371094 196.980469 78.570312 196.789062 78.738281 L 180.175781 93.226562 C 179.8125 93.546875 179.390625 93.707031 178.90625 93.707031 Z M 178.90625 93.707031 " fill-opacity="1" fill-rule="nonzero"/><path fill="#6c63ff" d="M 146.894531 220.042969 L 113.8125 220.042969 C 113.558594 220.042969 113.3125 219.992188 113.074219 219.894531 C 112.835938 219.796875 112.628906 219.65625 112.445312 219.476562 C 112.265625 219.292969 112.125 219.085938 112.027344 218.847656 C 111.929688 218.613281 111.878906 218.367188 111.878906 218.109375 C 111.878906 217.851562 111.929688 217.605469 112.027344 217.371094 C 112.125 217.132812 112.265625 216.925781 112.445312 216.742188 C 112.628906 216.5625 112.835938 216.421875 113.074219 216.324219 C 113.3125 216.226562 113.558594 216.175781 113.8125 216.175781 L 146.894531 216.175781 C 147.152344 216.175781 147.398438 216.226562 147.636719 216.324219 C 147.875 216.421875 148.082031 216.5625 148.265625 216.742188 C 148.445312 216.925781 148.585938 217.132812 148.683594 217.371094 C 148.78125 217.605469 148.832031 217.851562 148.832031 218.109375 C 148.832031 218.367188 148.78125 218.613281 148.683594 218.847656 C 148.585938 219.085938 148.445312 219.292969 148.265625 219.476562 C 148.082031 219.65625 147.875 219.796875 147.636719 219.894531 C 147.398438 219.992188 147.152344 220.042969 146.894531 220.042969 Z M 146.894531 220.042969 " fill-opacity="1" fill-rule="nonzero"/><path fill="#e6e6e6" d="M 129.542969 169.554688 L 122.664062 210.863281 L 118.734375 210.863281 L 125.722656 168.917969 C 125.765625 168.667969 125.855469 168.429688 125.992188 168.214844 C 126.125 167.996094 126.300781 167.8125 126.507812 167.664062 C 126.714844 167.515625 126.945312 167.410156 127.195312 167.351562 C 127.445312 167.292969 127.699219 167.285156 127.949219 167.328125 C 128.203125 167.371094 128.441406 167.460938 128.65625 167.59375 C 128.875 167.730469 129.058594 167.902344 129.207031 168.113281 C 129.355469 168.320312 129.460938 168.550781 129.519531 168.800781 C 129.578125 169.050781 129.585938 169.300781 129.542969 169.554688 Z M 129.542969 169.554688 " fill-opacity="1" fill-rule="nonzero"/><path fill="#e6e6e6" d="M 142.765625 210.863281 L 138.835938 210.863281 L 131.957031 169.554688 C 131.914062 169.300781 131.921875 169.050781 131.980469 168.800781 C 132.039062 168.550781 132.144531 168.320312 132.292969 168.113281 C 132.441406 167.902344 132.625 167.730469 132.84375 167.59375 C 133.0625 167.460938 133.296875 167.371094 133.550781 167.328125 C 133.804688 167.285156 134.054688 167.292969 134.304688 167.351562 C 134.554688 167.410156 134.785156 167.515625 134.992188 167.664062 C 135.203125 167.8125 135.375 167.996094 135.507812 168.214844 C 135.644531 168.429688 135.734375 168.667969 135.777344 168.917969 Z M 142.765625 210.863281 " fill-opacity="1" fill-rule="nonzero"/><path fill="#e6e6e6" d="M 117.78125 168.171875 C 117.78125 167.917969 117.832031 167.671875 117.929688 167.433594 C 118.027344 167.195312 118.167969 166.988281 118.347656 166.808594 C 118.53125 166.625 118.738281 166.484375 118.976562 166.386719 C 119.214844 166.289062 119.460938 166.242188 119.71875 166.242188 L 140.996094 166.242188 C 141.25 166.242188 141.5 166.289062 141.734375 166.386719 C 141.972656 166.484375 142.179688 166.625 142.363281 166.808594 C 142.542969 166.988281 142.683594 167.195312 142.78125 167.433594 C 142.878906 167.671875 142.929688 167.917969 142.929688 168.171875 C 142.929688 168.429688 142.878906 168.675781 142.78125 168.914062 C 142.683594 169.148438 142.542969 169.359375 142.363281 169.539062 C 142.179688 169.722656 141.972656 169.859375 141.734375 169.960938 C 141.5 170.058594 141.25 170.105469 140.996094 170.105469 L 119.71875 170.105469 C 119.460938 170.105469 119.214844 170.058594 118.976562 169.960938 C 118.738281 169.859375 118.53125 169.722656 118.347656 169.539062 C 118.167969 169.359375 118.027344 169.148438 117.929688 168.914062 C 117.832031 168.675781 117.78125 168.429688 117.78125 168.171875 Z M 117.78125 168.171875 " fill-opacity="1" fill-rule="nonzero"/><g clip-path="url(#073427ee16)"><path fill="#e4e4e4" d="M 130.355469 74.414062 C 130.097656 74.414062 129.851562 74.363281 129.617188 74.265625 C 129.378906 74.167969 129.167969 74.027344 128.988281 73.847656 C 128.804688 73.667969 128.667969 73.457031 128.570312 73.21875 C 128.46875 72.984375 128.421875 72.738281 128.421875 72.480469 L 128.421875 39.433594 C 128.421875 39.175781 128.46875 38.929688 128.570312 38.691406 C 128.667969 38.457031 128.804688 38.246094 128.988281 38.066406 C 129.167969 37.886719 129.378906 37.746094 129.617188 37.648438 C 129.851562 37.550781 130.097656 37.5 130.355469 37.5 C 130.613281 37.5 130.859375 37.550781 131.097656 37.648438 C 131.332031 37.746094 131.542969 37.886719 131.722656 38.066406 C 131.90625 38.246094 132.046875 38.457031 132.144531 38.691406 C 132.242188 38.929688 132.289062 39.175781 132.289062 39.433594 L 132.289062 72.480469 C 132.289062 72.738281 132.242188 72.984375 132.144531 73.21875 C 132.046875 73.457031 131.90625 73.667969 131.722656 73.847656 C 131.542969 74.027344 131.332031 74.167969 131.097656 74.265625 C 130.859375 74.363281 130.613281 74.414062 130.355469 74.414062 Z M 130.355469 74.414062 " fill-opacity="1" fill-rule="nonzero"/></g><path fill="#feb8b8" d="M 288.5 332.09375 L 283.753906 332.09375 L 281.5 313.8125 L 288.5 313.8125 Z M 288.5 332.09375 " fill-opacity="1" fill-rule="nonzero"/><path fill="#2f2e41" d="M 289.707031 336.6875 L 274.414062 336.6875 L 274.414062 336.492188 C 274.414062 336.101562 274.449219 335.714844 274.527344 335.332031 C 274.601562 334.949219 274.714844 334.578125 274.867188 334.21875 C 275.015625 333.855469 275.199219 333.511719 275.417969 333.1875 C 275.632812 332.863281 275.878906 332.5625 276.15625 332.289062 C 276.433594 332.011719 276.734375 331.765625 277.058594 331.546875 C 277.382812 331.332031 277.726562 331.148438 278.085938 331 C 278.449219 330.847656 278.820312 330.734375 279.203125 330.660156 C 279.585938 330.582031 279.976562 330.546875 280.367188 330.546875 L 289.707031 330.546875 Z M 289.707031 336.6875 " fill-opacity="1" fill-rule="nonzero"/><path fill="#feb8b8" d="M 252.460938 331.9375 L 247.878906 330.710938 L 250.425781 312.472656 L 257.1875 314.277344 Z M 252.460938 331.9375 " fill-opacity="1" fill-rule="nonzero"/><path fill="#2f2e41" d="M 252.441406 336.6875 L 237.667969 332.738281 L 237.714844 332.550781 C 237.816406 332.175781 237.953125 331.8125 238.128906 331.460938 C 238.300781 331.109375 238.503906 330.78125 238.742188 330.46875 C 238.980469 330.160156 239.246094 329.875 239.539062 329.617188 C 239.832031 329.359375 240.148438 329.136719 240.488281 328.9375 C 240.828125 328.742188 241.179688 328.582031 241.550781 328.457031 C 241.921875 328.332031 242.300781 328.242188 242.6875 328.191406 C 243.074219 328.140625 243.464844 328.128906 243.855469 328.152344 C 244.242188 328.179688 244.628906 328.242188 245.003906 328.34375 L 254.03125 330.753906 Z M 252.441406 336.6875 " fill-opacity="1" fill-rule="nonzero"/><path fill="#2f2e41" d="M 291.226562 229.65625 L 295.199219 234.269531 L 290.0625 327.980469 L 279.085938 327.980469 L 273.550781 255.871094 L 256.394531 329.914062 L 244.980469 327.117188 L 255.359375 233.074219 Z M 291.226562 229.65625 " fill-opacity="1" fill-rule="nonzero"/><path fill="#e6e6e6" d="M 258.011719 169.15625 L 268.9375 163.679688 L 285.746094 163.972656 L 300.210938 171.367188 L 291.980469 212.421875 L 295.535156 233.828125 C 288.664062 235.578125 281.6875 236.484375 274.597656 236.542969 C 267.507812 236.601562 260.515625 235.8125 253.617188 234.175781 L 253.507812 234.148438 C 253.507812 234.148438 261.675781 205.191406 258.199219 196.351562 Z M 258.011719 169.15625 " fill-opacity="1" fill-rule="nonzero"/><path fill="#feb8b8" d="M 289.628906 147.277344 C 289.625 146.734375 289.589844 146.199219 289.515625 145.664062 C 289.445312 145.128906 289.335938 144.601562 289.195312 144.082031 C 289.054688 143.558594 288.878906 143.050781 288.671875 142.550781 C 288.460938 142.054688 288.222656 141.570312 287.949219 141.105469 C 287.679688 140.636719 287.378906 140.191406 287.046875 139.765625 C 286.71875 139.335938 286.359375 138.933594 285.976562 138.550781 C 285.59375 138.171875 285.1875 137.816406 284.757812 137.492188 C 284.328125 137.164062 283.878906 136.863281 283.410156 136.597656 C 282.945312 136.328125 282.460938 136.089844 281.960938 135.886719 C 281.460938 135.679688 280.949219 135.507812 280.425781 135.371094 C 279.90625 135.230469 279.375 135.125 278.839844 135.058594 C 278.304688 134.988281 277.765625 134.953125 277.226562 134.953125 C 276.6875 134.957031 276.148438 134.992188 275.613281 135.0625 C 275.078125 135.136719 274.546875 135.242188 274.027344 135.382812 C 273.503906 135.523438 272.996094 135.695312 272.496094 135.902344 C 271.996094 136.109375 271.515625 136.347656 271.046875 136.621094 C 270.578125 136.890625 270.128906 137.191406 269.703125 137.519531 C 269.273438 137.847656 268.871094 138.203125 268.488281 138.585938 C 268.105469 138.96875 267.75 139.371094 267.421875 139.800781 C 267.09375 140.230469 266.792969 140.675781 266.523438 141.144531 C 266.253906 141.613281 266.015625 142.09375 265.808594 142.59375 C 265.601562 143.09375 265.429688 143.601562 265.289062 144.125 C 265.152344 144.644531 265.046875 145.175781 264.976562 145.710938 C 264.90625 146.246094 264.871094 146.78125 264.871094 147.320312 C 264.871094 147.859375 264.90625 148.398438 264.976562 148.933594 C 265.046875 149.46875 265.152344 149.996094 265.289062 150.519531 C 265.429688 151.039062 265.601562 151.550781 265.808594 152.046875 C 266.015625 152.546875 266.253906 153.03125 266.523438 153.5 C 266.792969 153.964844 267.09375 154.414062 267.421875 154.84375 C 267.75 155.269531 268.105469 155.675781 268.488281 156.058594 C 268.871094 156.441406 269.273438 156.796875 269.703125 157.125 C 270.128906 157.453125 270.578125 157.753906 271.046875 158.023438 C 271.515625 158.292969 271.996094 158.53125 272.496094 158.738281 C 272.996094 158.949219 273.503906 159.121094 274.027344 159.261719 C 274.546875 159.402344 275.078125 159.507812 275.613281 159.578125 C 276.148438 159.652344 276.6875 159.6875 277.226562 159.6875 C 277.765625 159.6875 278.304688 159.65625 278.839844 159.585938 C 279.375 159.515625 279.90625 159.414062 280.425781 159.273438 C 280.949219 159.136719 281.460938 158.964844 281.960938 158.757812 C 282.460938 158.550781 282.945312 158.316406 283.410156 158.046875 C 283.878906 157.777344 284.328125 157.480469 284.757812 157.152344 C 285.1875 156.824219 285.59375 156.472656 285.976562 156.089844 C 286.359375 155.710938 286.71875 155.304688 287.046875 154.878906 C 287.378906 154.453125 287.679688 154.003906 287.949219 153.539062 C 288.222656 153.070312 288.460938 152.589844 288.671875 152.089844 C 288.878906 151.59375 289.054688 151.082031 289.195312 150.5625 C 289.335938 150.042969 289.445312 149.515625 289.515625 148.980469 C 289.589844 148.445312 289.625 147.90625 289.628906 147.367188 Z M 289.628906 147.277344 " fill-opacity="1" fill-rule="nonzero"/><path fill="#feb8b8" d="M 256.503906 199.089844 C 256.621094 199.390625 256.769531 199.675781 256.949219 199.945312 C 257.128906 200.214844 257.335938 200.460938 257.570312 200.683594 C 257.804688 200.910156 258.0625 201.105469 258.339844 201.273438 C 258.617188 201.441406 258.90625 201.574219 259.214844 201.679688 C 259.523438 201.78125 259.835938 201.851562 260.160156 201.886719 C 260.480469 201.921875 260.804688 201.921875 261.125 201.886719 C 261.449219 201.847656 261.761719 201.777344 262.070312 201.675781 C 262.375 201.570312 262.667969 201.433594 262.945312 201.265625 L 285.136719 212.984375 L 285.855469 207.582031 L 264.289062 194.878906 C 263.976562 194.433594 263.59375 194.058594 263.140625 193.753906 C 262.6875 193.449219 262.195312 193.234375 261.664062 193.109375 C 261.132812 192.984375 260.597656 192.960938 260.058594 193.03125 C 259.515625 193.105469 259.003906 193.269531 258.523438 193.527344 C 258.046875 193.789062 257.625 194.125 257.269531 194.539062 C 256.914062 194.949219 256.640625 195.414062 256.457031 195.925781 C 256.269531 196.4375 256.179688 196.964844 256.1875 197.511719 C 256.195312 198.058594 256.300781 198.582031 256.5 199.089844 Z M 256.503906 199.089844 " fill-opacity="1" fill-rule="nonzero"/><path fill="#feb8b8" d="M 286.074219 200.023438 C 285.894531 200.292969 285.683594 200.539062 285.449219 200.761719 C 285.214844 200.984375 284.960938 201.179688 284.683594 201.347656 C 284.402344 201.511719 284.113281 201.648438 283.804688 201.75 C 283.496094 201.855469 283.183594 201.921875 282.859375 201.957031 C 282.539062 201.992188 282.214844 201.988281 281.894531 201.953125 C 281.570312 201.917969 281.257812 201.847656 280.949219 201.742188 C 280.644531 201.636719 280.351562 201.496094 280.074219 201.328125 C 279.800781 201.160156 279.542969 200.960938 279.3125 200.738281 L 255.089844 207.320312 L 255.300781 200.464844 L 279.394531 194.214844 C 279.800781 193.847656 280.257812 193.566406 280.765625 193.367188 C 281.273438 193.167969 281.800781 193.066406 282.34375 193.058594 C 282.890625 193.054688 283.421875 193.148438 283.933594 193.335938 C 284.445312 193.523438 284.90625 193.796875 285.316406 194.15625 C 285.730469 194.511719 286.0625 194.933594 286.320312 195.414062 C 286.578125 195.894531 286.742188 196.40625 286.8125 196.945312 C 286.882812 197.488281 286.851562 198.023438 286.726562 198.550781 C 286.597656 199.082031 286.382812 199.574219 286.074219 200.023438 Z M 286.074219 200.023438 " fill-opacity="1" fill-rule="nonzero"/><path fill="#e6e6e6" d="M 295.488281 171.664062 L 300.207031 171.367188 C 300.207031 171.367188 305.738281 178.65625 302.671875 186.566406 C 302.671875 186.566406 303.203125 214.976562 290.957031 213.808594 C 278.710938 212.640625 274.839844 212.640625 274.839844 212.640625 L 278.515625 202.398438 L 286.742188 199.863281 C 286.742188 199.863281 284.207031 188.691406 289.003906 184.046875 Z M 295.488281 171.664062 " fill-opacity="1" fill-rule="nonzero"/><path fill="#e6e6e6" d="M 261.386719 171.414062 L 260.71875 167.996094 C 260.71875 167.996094 250.875 167.765625 248.929688 182.664062 C 248.929688 182.664062 240.078125 204.964844 248.753906 207.835938 C 257.429688 210.707031 266.972656 207.835938 266.972656 207.835938 L 266.253906 198.003906 L 256.710938 196.058594 C 256.710938 196.058594 261.640625 189.683594 258.957031 184.15625 Z M 261.386719 171.414062 " fill-opacity="1" fill-rule="nonzero"/><path fill="#2f2e41" d="M 281.535156 153.347656 C 280.625 152.992188 279.617188 153.011719 278.652344 152.832031 C 275.214844 152.199219 272.558594 148.695312 272.886719 145.214844 C 272.96875 144.761719 272.976562 144.304688 272.910156 143.851562 C 272.667969 142.855469 271.566406 142.324219 270.550781 142.203125 C 269.535156 142.085938 268.488281 142.238281 267.5 141.972656 C 265.976562 141.566406 264.835938 140.175781 264.449219 138.648438 C 264.113281 137.054688 264.277344 135.511719 264.941406 134.023438 L 265.414062 135.011719 C 265.917969 134.476562 266.238281 133.851562 266.382812 133.136719 C 266.804688 133.15625 267.191406 133.28125 267.546875 133.507812 C 267.902344 133.734375 268.183594 134.03125 268.382812 134.402344 C 268.996094 134.671875 268.917969 133.277344 269.53125 133 C 269.8125 132.933594 270.085938 132.96875 270.34375 133.105469 C 271.6875 133.558594 273.109375 132.882812 274.441406 132.398438 C 276.78125 131.550781 279.183594 131.273438 281.65625 131.574219 C 283.273438 131.769531 284.90625 132.25 286.167969 133.28125 C 287.171875 134.191406 287.964844 135.257812 288.546875 136.480469 C 290.101562 139.382812 291.273438 142.582031 291.242188 145.875 C 291.210938 148.632812 290.414062 151.148438 288.855469 153.421875 C 288.0625 154.574219 285.5 158.578125 283.792969 158.136719 C 281.652344 157.585938 284.097656 154.351562 281.535156 153.347656 Z M 281.535156 153.347656 " fill-opacity="1" fill-rule="nonzero"/></svg>