<svg xmlns="http://www.w3.org/2000/svg" xmlns:xlink="http://www.w3.org/1999/xlink" width="500" zoomAndPan="magnify" viewBox="0 0 375 374.999991" height="500" preserveAspectRatio="xMidYMid meet" version="1.0"><defs><clipPath id="96a3063fa3"><path d="M 255 230 L 299.582031 230 L 299.582031 257 L 255 257 Z M 255 230 " clip-rule="nonzero"/></clipPath><clipPath id="ac00d737fe"><path d="M 75.332031 257 L 299.582031 257 L 299.582031 259 L 75.332031 259 Z M 75.332031 257 " clip-rule="nonzero"/></clipPath><clipPath id="52d6a3f818"><path d="M 101 82.632812 L 140 82.632812 L 140 117 L 101 117 Z M 101 82.632812 " clip-rule="nonzero"/></clipPath><clipPath id="678a7b7f92"><path d="M 196 82.632812 L 235 82.632812 L 235 117 L 196 117 Z M 196 82.632812 " clip-rule="nonzero"/></clipPath><clipPath id="e024a0d619"><path d="M 191 281 L 206 281 L 206 292.632812 L 191 292.632812 Z M 191 281 " clip-rule="nonzero"/></clipPath><clipPath id="f65fb355b1"><path d="M 218 280 L 232 280 L 232 292.632812 L 218 292.632812 Z M 218 280 " clip-rule="nonzero"/></clipPath></defs><rect x="-37.5" width="450" fill="#ffffff" y="-37.499999" height="449.999989" fill-opacity="1"/><rect x="-37.5" width="450" fill="#edf5fa" y="-37.499999" height="449.999989" fill-opacity="1"/><g clip-path="url(#96a3063fa3)"><path fill="#f2f2f2" d="M 282.589844 243.289062 L 292.644531 244.863281 C 296.101562 240.671875 298.378906 235.914062 299.480469 230.59375 C 292.128906 236.621094 280.945312 233.417969 272.03125 236.710938 C 270.644531 237.234375 269.332031 237.90625 268.097656 238.726562 C 266.863281 239.546875 265.734375 240.492188 264.710938 241.566406 C 263.6875 242.640625 262.796875 243.816406 262.039062 245.089844 C 261.277344 246.363281 260.671875 247.707031 260.214844 249.121094 L 255.300781 254.417969 C 257.523438 255.296875 259.816406 255.929688 262.175781 256.316406 C 264.539062 256.699219 266.914062 256.824219 269.300781 256.695312 C 271.691406 256.5625 274.039062 256.175781 276.34375 255.535156 C 278.648438 254.894531 280.855469 254.011719 282.972656 252.890625 C 285.339844 251.601562 287.511719 250.042969 289.488281 248.203125 C 285.96875 245.984375 282.589844 243.289062 282.589844 243.289062 Z M 282.589844 243.289062 " fill-opacity="1" fill-rule="nonzero"/></g><path fill="#f2f2f2" d="M 279.019531 227.179688 L 288.722656 224.097656 C 289.949219 218.800781 289.871094 213.527344 288.488281 208.269531 C 284.589844 216.953125 273.15625 219.078125 266.640625 226.007812 C 265.632812 227.097656 264.757812 228.285156 264.015625 229.570312 C 263.277344 230.855469 262.6875 232.207031 262.25 233.625 C 261.8125 235.042969 261.539062 236.492188 261.425781 237.972656 C 261.316406 239.453125 261.371094 240.925781 261.589844 242.394531 L 259.546875 249.332031 C 261.933594 249.125 264.265625 248.667969 266.550781 247.957031 C 268.835938 247.246094 271.015625 246.296875 273.097656 245.113281 C 275.175781 243.929688 277.101562 242.535156 278.882812 240.929688 C 280.660156 239.328125 282.242188 237.550781 283.636719 235.601562 C 285.183594 233.394531 286.433594 231.023438 287.382812 228.5 C 283.246094 228.085938 279.019531 227.179688 279.019531 227.179688 Z M 279.019531 227.179688 " fill-opacity="1" fill-rule="nonzero"/><g clip-path="url(#ac00d737fe)"><path fill="#cccccc" d="M 299.535156 257.625 C 299.535156 257.734375 299.5 257.828125 299.421875 257.90625 C 299.34375 257.980469 299.25 258.019531 299.140625 258.019531 L 75.773438 258.019531 C 75.664062 258.019531 75.570312 257.980469 75.492188 257.902344 C 75.414062 257.828125 75.375 257.734375 75.375 257.625 C 75.375 257.515625 75.414062 257.421875 75.492188 257.34375 C 75.570312 257.265625 75.664062 257.230469 75.773438 257.230469 L 299.140625 257.230469 C 299.25 257.230469 299.34375 257.265625 299.421875 257.34375 C 299.496094 257.421875 299.535156 257.515625 299.535156 257.625 Z M 299.535156 257.625 " fill-opacity="1" fill-rule="nonzero"/></g><path fill="#e6e6e6" d="M 239.265625 169.320312 C 239.265625 170.488281 239.234375 171.65625 239.179688 172.824219 C 239.121094 173.992188 239.035156 175.160156 238.921875 176.324219 C 238.808594 177.488281 238.664062 178.648438 238.492188 179.804688 C 238.320312 180.960938 238.121094 182.113281 237.894531 183.257812 C 237.667969 184.40625 237.410156 185.546875 237.128906 186.679688 C 236.84375 187.8125 236.53125 188.941406 236.195312 190.058594 C 235.855469 191.179688 235.488281 192.289062 235.09375 193.390625 C 234.703125 194.488281 234.28125 195.582031 233.835938 196.660156 C 233.386719 197.742188 232.914062 198.808594 232.417969 199.867188 C 231.917969 200.925781 231.394531 201.96875 230.84375 203 C 230.292969 204.03125 229.71875 205.046875 229.117188 206.050781 C 228.515625 207.054688 227.890625 208.039062 227.242188 209.011719 C 226.59375 209.984375 225.921875 210.941406 225.226562 211.878906 C 224.53125 212.820312 223.816406 213.742188 223.074219 214.644531 C 222.332031 215.546875 221.570312 216.433594 220.789062 217.300781 C 220.003906 218.167969 219.199219 219.011719 218.375 219.839844 C 217.546875 220.667969 216.703125 221.472656 215.835938 222.257812 C 214.972656 223.042969 214.089844 223.804688 213.1875 224.546875 C 212.285156 225.289062 211.363281 226.007812 210.425781 226.707031 C 209.488281 227.402344 208.535156 228.074219 207.566406 228.726562 C 206.59375 229.375 205.609375 230 204.605469 230.601562 C 203.605469 231.203125 202.589844 231.777344 201.5625 232.328125 C 200.53125 232.878906 199.488281 233.40625 198.433594 233.90625 C 197.378906 234.40625 196.3125 234.878906 195.234375 235.328125 C 194.15625 235.773438 193.066406 236.195312 191.964844 236.589844 C 190.867188 236.984375 189.757812 237.351562 188.640625 237.6875 C 187.523438 238.027344 186.402344 238.339844 185.269531 238.625 C 184.136719 238.910156 182.996094 239.164062 181.851562 239.394531 C 180.707031 239.621094 179.558594 239.820312 178.402344 239.992188 C 177.25 240.164062 176.089844 240.308594 174.929688 240.421875 C 173.765625 240.535156 172.601562 240.621094 171.4375 240.679688 C 170.269531 240.738281 169.105469 240.765625 167.9375 240.765625 C 166.769531 240.765625 165.601562 240.738281 164.4375 240.679688 C 163.269531 240.621094 162.105469 240.535156 160.945312 240.421875 C 159.785156 240.308594 158.625 240.164062 157.472656 239.992188 C 156.316406 239.820312 155.167969 239.621094 154.019531 239.394531 C 152.875 239.164062 151.738281 238.910156 150.605469 238.625 C 149.472656 238.339844 148.347656 238.027344 147.230469 237.6875 C 146.113281 237.351562 145.007812 236.984375 143.90625 236.589844 C 142.808594 236.195312 141.71875 235.773438 140.640625 235.328125 C 139.5625 234.878906 138.496094 234.40625 137.441406 233.90625 C 136.386719 233.40625 135.34375 232.878906 134.3125 232.328125 C 133.285156 231.777344 132.269531 231.203125 131.265625 230.601562 C 130.265625 230 129.28125 229.375 128.308594 228.726562 C 127.339844 228.074219 126.382812 227.402344 125.445312 226.707031 C 124.507812 226.007812 123.589844 225.289062 122.6875 224.546875 C 121.785156 223.804688 120.902344 223.042969 120.035156 222.257812 C 119.171875 221.472656 118.324219 220.667969 117.5 219.839844 C 116.675781 219.011719 115.871094 218.167969 115.085938 217.300781 C 114.300781 216.433594 113.539062 215.546875 112.800781 214.644531 C 112.058594 213.742188 111.339844 212.820312 110.644531 211.878906 C 109.949219 210.941406 109.277344 209.984375 108.628906 209.011719 C 107.980469 208.039062 107.355469 207.054688 106.757812 206.050781 C 106.15625 205.046875 105.582031 204.03125 105.03125 203 C 104.480469 201.96875 103.957031 200.925781 103.457031 199.867188 C 102.957031 198.808594 102.484375 197.742188 102.039062 196.660156 C 101.589844 195.582031 101.171875 194.488281 100.777344 193.390625 C 100.386719 192.289062 100.019531 191.179688 99.679688 190.058594 C 99.339844 188.941406 99.03125 187.8125 98.746094 186.679688 C 98.460938 185.546875 98.207031 184.40625 97.980469 183.257812 C 97.75 182.113281 97.550781 180.960938 97.378906 179.804688 C 97.210938 178.648438 97.066406 177.488281 96.953125 176.324219 C 96.835938 175.160156 96.753906 173.992188 96.695312 172.824219 C 96.636719 171.65625 96.609375 170.488281 96.609375 169.320312 C 96.609375 168.152344 96.636719 166.980469 96.695312 165.8125 C 96.753906 164.644531 96.835938 163.480469 96.953125 162.316406 C 97.066406 161.152344 97.210938 159.992188 97.378906 158.835938 C 97.550781 157.679688 97.75 156.527344 97.980469 155.382812 C 98.207031 154.234375 98.460938 153.09375 98.746094 151.960938 C 99.03125 150.824219 99.339844 149.699219 99.679688 148.582031 C 100.019531 147.460938 100.386719 146.351562 100.777344 145.25 C 101.171875 144.148438 101.589844 143.058594 102.039062 141.980469 C 102.484375 140.898438 102.957031 139.828125 103.457031 138.773438 C 103.957031 137.714844 104.480469 136.671875 105.03125 135.640625 C 105.582031 134.609375 106.15625 133.59375 106.757812 132.589844 C 107.355469 131.585938 107.980469 130.597656 108.628906 129.625 C 109.277344 128.65625 109.949219 127.699219 110.644531 126.757812 C 111.339844 125.820312 112.058594 124.898438 112.800781 123.996094 C 113.539062 123.089844 114.300781 122.207031 115.085938 121.339844 C 115.871094 120.472656 116.675781 119.625 117.5 118.800781 C 118.324219 117.972656 119.171875 117.167969 120.035156 116.382812 C 120.902344 115.597656 121.785156 114.832031 122.6875 114.089844 C 123.589844 113.351562 124.507812 112.628906 125.445312 111.933594 C 126.382812 111.238281 127.339844 110.5625 128.308594 109.914062 C 129.28125 109.265625 130.265625 108.640625 131.265625 108.039062 C 132.269531 107.4375 133.285156 106.863281 134.3125 106.308594 C 135.34375 105.757812 136.386719 105.234375 137.441406 104.734375 C 138.496094 104.234375 139.5625 103.761719 140.640625 103.3125 C 141.71875 102.863281 142.808594 102.445312 143.90625 102.050781 C 145.007812 101.65625 146.113281 101.289062 147.230469 100.949219 C 148.347656 100.609375 149.472656 100.300781 150.605469 100.015625 C 151.738281 99.730469 152.875 99.476562 154.019531 99.246094 C 155.167969 99.019531 156.316406 98.820312 157.472656 98.648438 C 158.625 98.476562 159.785156 98.332031 160.945312 98.21875 C 162.105469 98.101562 163.269531 98.015625 164.4375 97.960938 C 165.601562 97.902344 166.769531 97.875 167.9375 97.875 C 169.105469 97.875 170.269531 97.902344 171.4375 97.960938 C 172.601562 98.015625 173.765625 98.101562 174.929688 98.21875 C 176.089844 98.332031 177.25 98.476562 178.402344 98.648438 C 179.558594 98.820312 180.707031 99.019531 181.851562 99.246094 C 182.996094 99.476562 184.136719 99.730469 185.269531 100.015625 C 186.402344 100.300781 187.523438 100.609375 188.640625 100.949219 C 189.757812 101.289062 190.867188 101.65625 191.964844 102.050781 C 193.066406 102.445312 194.15625 102.863281 195.234375 103.3125 C 196.3125 103.761719 197.378906 104.234375 198.433594 104.734375 C 199.488281 105.234375 200.53125 105.757812 201.5625 106.308594 C 202.589844 106.863281 203.605469 107.4375 204.605469 108.039062 C 205.609375 108.640625 206.59375 109.265625 207.566406 109.914062 C 208.535156 110.5625 209.488281 111.238281 210.425781 111.933594 C 211.363281 112.628906 212.285156 113.351562 213.1875 114.089844 C 214.089844 114.832031 214.972656 115.597656 215.835938 116.382812 C 216.703125 117.167969 217.546875 117.972656 218.375 118.800781 C 219.199219 119.625 220.003906 120.472656 220.789062 121.339844 C 221.570312 122.207031 222.332031 123.089844 223.074219 123.996094 C 223.816406 124.898438 224.53125 125.820312 225.226562 126.757812 C 225.921875 127.699219 226.59375 128.65625 227.242188 129.625 C 227.890625 130.597656 228.515625 131.585938 229.117188 132.589844 C 229.71875 133.59375 230.292969 134.609375 230.84375 135.640625 C 231.394531 136.671875 231.917969 137.714844 232.417969 138.773438 C 232.914062 139.828125 233.386719 140.898438 233.835938 141.980469 C 234.28125 143.058594 234.703125 144.148438 235.09375 145.25 C 235.488281 146.351562 235.855469 147.460938 236.195312 148.582031 C 236.53125 149.699219 236.84375 150.824219 237.128906 151.960938 C 237.410156 153.09375 237.667969 154.234375 237.894531 155.382812 C 238.121094 156.527344 238.320312 157.679688 238.492188 158.835938 C 238.664062 159.992188 238.808594 161.152344 238.921875 162.316406 C 239.035156 163.480469 239.121094 164.644531 239.179688 165.8125 C 239.234375 166.980469 239.265625 168.152344 239.265625 169.320312 Z M 239.265625 169.320312 " fill-opacity="1" fill-rule="nonzero"/><path fill="#ffffff" d="M 229.3125 169.320312 C 229.3125 171.710938 229.175781 174.089844 228.902344 176.464844 C 228.625 178.839844 228.210938 181.1875 227.660156 183.515625 C 227.113281 185.839844 226.429688 188.125 225.613281 190.371094 C 224.796875 192.617188 223.851562 194.808594 222.78125 196.945312 C 221.707031 199.078125 220.515625 201.144531 219.203125 203.140625 C 217.890625 205.136719 216.464844 207.046875 214.929688 208.878906 C 213.394531 210.707031 211.757812 212.441406 210.019531 214.078125 C 208.28125 215.714844 206.457031 217.246094 204.539062 218.671875 C 204.027344 219.054688 203.5 219.429688 202.972656 219.796875 C 201.699219 220.6875 200.390625 221.523438 199.050781 222.3125 C 197.710938 223.101562 196.339844 223.839844 194.945312 224.523438 C 193.550781 225.210938 192.128906 225.839844 190.6875 226.417969 C 189.242188 226.996094 187.777344 227.515625 186.296875 227.980469 C 184.8125 228.449219 183.3125 228.855469 181.800781 229.207031 C 180.285156 229.558594 178.757812 229.851562 177.222656 230.089844 C 175.6875 230.324219 174.144531 230.5 172.59375 230.621094 C 171.042969 230.738281 169.492188 230.796875 167.9375 230.796875 C 166.382812 230.796875 164.832031 230.738281 163.28125 230.621094 C 161.730469 230.5 160.1875 230.324219 158.652344 230.089844 C 157.113281 229.851562 155.589844 229.558594 154.074219 229.207031 C 152.558594 228.855469 151.0625 228.449219 149.578125 227.980469 C 148.09375 227.515625 146.632812 226.996094 145.1875 226.417969 C 143.742188 225.839844 142.324219 225.210938 140.929688 224.523438 C 139.53125 223.839844 138.164062 223.101562 136.824219 222.3125 C 135.484375 221.523438 134.175781 220.6875 132.898438 219.796875 C 132.371094 219.429688 131.847656 219.054688 131.332031 218.671875 C 130.378906 217.957031 129.441406 217.21875 128.527344 216.453125 C 127.613281 215.6875 126.722656 214.894531 125.855469 214.074219 C 124.988281 213.257812 124.144531 212.414062 123.328125 211.546875 C 122.507812 210.679688 121.714844 209.785156 120.949219 208.871094 C 120.183594 207.957031 119.441406 207.023438 118.730469 206.066406 C 118.019531 205.109375 117.335938 204.132812 116.679688 203.136719 C 116.023438 202.136719 115.398438 201.121094 114.800781 200.089844 C 114.203125 199.054688 113.636719 198.003906 113.101562 196.9375 C 112.566406 195.871094 112.0625 194.789062 111.589844 193.695312 C 111.117188 192.597656 110.679688 191.488281 110.269531 190.367188 C 109.863281 189.246094 109.488281 188.113281 109.144531 186.96875 C 108.804688 185.828125 108.496094 184.675781 108.21875 183.511719 C 107.945312 182.351562 107.703125 181.183594 107.496094 180.007812 C 107.289062 178.832031 107.117188 177.648438 106.976562 176.464844 C 106.839844 175.277344 106.734375 174.089844 106.664062 172.898438 C 106.597656 171.707031 106.5625 170.511719 106.5625 169.320312 C 106.5625 168.125 106.597656 166.933594 106.664062 165.742188 C 106.734375 164.550781 106.839844 163.359375 106.976562 162.175781 C 107.117188 160.988281 107.289062 159.808594 107.496094 158.632812 C 107.703125 157.457031 107.945312 156.289062 108.21875 155.128906 C 108.496094 153.964844 108.804688 152.8125 109.144531 151.667969 C 109.488281 150.527344 109.863281 149.394531 110.269531 148.269531 C 110.679688 147.148438 111.117188 146.039062 111.589844 144.945312 C 112.0625 143.847656 112.566406 142.765625 113.101562 141.699219 C 113.636719 140.632812 114.203125 139.585938 114.800781 138.550781 C 115.398438 137.515625 116.023438 136.5 116.679688 135.503906 C 117.335938 134.507812 118.019531 133.53125 118.730469 132.574219 C 119.441406 131.617188 120.183594 130.679688 120.949219 129.765625 C 121.714844 128.851562 122.507812 127.960938 123.328125 127.09375 C 124.144531 126.226562 124.988281 125.382812 125.855469 124.566406 C 126.722656 123.746094 127.613281 122.953125 128.527344 122.1875 C 129.441406 121.421875 130.378906 120.679688 131.332031 119.96875 C 131.847656 119.582031 132.371094 119.207031 132.898438 118.84375 C 134.175781 117.953125 135.484375 117.113281 136.824219 116.324219 C 138.164062 115.535156 139.53125 114.800781 140.929688 114.113281 C 142.324219 113.429688 143.742188 112.796875 145.1875 112.222656 C 146.632812 111.644531 148.09375 111.121094 149.578125 110.65625 C 151.0625 110.191406 152.558594 109.78125 154.074219 109.429688 C 155.589844 109.078125 157.113281 108.785156 158.652344 108.550781 C 160.1875 108.316406 161.730469 108.136719 163.28125 108.019531 C 164.832031 107.902344 166.382812 107.84375 167.9375 107.84375 C 169.492188 107.84375 171.042969 107.902344 172.59375 108.019531 C 174.144531 108.136719 175.6875 108.316406 177.222656 108.550781 C 178.757812 108.785156 180.285156 109.078125 181.800781 109.429688 C 183.3125 109.78125 184.8125 110.191406 186.296875 110.65625 C 187.777344 111.121094 189.242188 111.644531 190.6875 112.222656 C 192.128906 112.796875 193.550781 113.429688 194.945312 114.113281 C 196.339844 114.800781 197.710938 115.535156 199.050781 116.324219 C 200.390625 117.113281 201.699219 117.953125 202.972656 118.84375 C 203.5 119.207031 204.027344 119.582031 204.539062 119.96875 C 206.457031 121.394531 208.28125 122.925781 210.019531 124.5625 C 211.757812 126.199219 213.394531 127.933594 214.929688 129.761719 C 216.464844 131.589844 217.890625 133.503906 219.203125 135.5 C 220.515625 137.496094 221.707031 139.5625 222.78125 141.695312 C 223.851562 143.832031 224.796875 146.023438 225.613281 148.265625 C 226.429688 150.511719 227.113281 152.800781 227.660156 155.125 C 228.210938 157.449219 228.625 159.800781 228.902344 162.175781 C 229.175781 164.546875 229.3125 166.929688 229.3125 169.320312 Z M 229.3125 169.320312 " fill-opacity="1" fill-rule="nonzero"/><path fill="#6c63ff" d="M 224.003906 169.320312 C 224.003906 171.160156 223.914062 172.992188 223.734375 174.824219 C 223.554688 176.65625 223.285156 178.472656 222.925781 180.277344 C 222.570312 182.078125 222.121094 183.863281 221.589844 185.621094 C 221.058594 187.382812 220.4375 189.113281 219.734375 190.8125 C 219.035156 192.511719 218.25 194.171875 217.382812 195.792969 C 216.519531 197.414062 215.574219 198.992188 214.554688 200.519531 C 213.535156 202.050781 212.441406 203.527344 211.277344 204.945312 C 210.113281 206.367188 208.878906 207.730469 207.582031 209.03125 C 206.285156 210.332031 204.925781 211.566406 203.503906 212.730469 C 202.085938 213.898438 200.613281 214.992188 199.085938 216.015625 C 197.558594 217.035156 195.984375 217.980469 194.367188 218.847656 C 192.746094 219.714844 191.089844 220.5 189.394531 221.203125 C 187.695312 221.910156 185.96875 222.527344 184.210938 223.0625 C 182.457031 223.59375 180.675781 224.042969 178.875 224.402344 C 177.074219 224.757812 175.261719 225.027344 173.433594 225.210938 C 171.605469 225.390625 169.773438 225.480469 167.9375 225.480469 C 166.101562 225.480469 164.269531 225.390625 162.441406 225.210938 C 160.613281 225.027344 158.800781 224.757812 157 224.402344 C 155.199219 224.042969 153.417969 223.59375 151.660156 223.0625 C 149.902344 222.527344 148.175781 221.910156 146.480469 221.203125 C 144.785156 220.5 143.125 219.714844 141.507812 218.847656 C 139.886719 217.980469 138.3125 217.035156 136.789062 216.015625 C 135.261719 214.992188 133.789062 213.898438 132.367188 212.730469 C 130.949219 211.566406 129.589844 210.332031 128.292969 209.03125 C 126.992188 207.730469 125.761719 206.367188 124.597656 204.945312 C 123.429688 203.527344 122.339844 202.050781 121.320312 200.519531 C 120.296875 198.992188 119.355469 197.414062 118.488281 195.792969 C 117.625 194.171875 116.839844 192.511719 116.136719 190.8125 C 115.433594 189.113281 114.816406 187.382812 114.285156 185.621094 C 113.75 183.863281 113.304688 182.078125 112.945312 180.277344 C 112.589844 178.472656 112.320312 176.65625 112.140625 174.824219 C 111.960938 172.992188 111.871094 171.160156 111.871094 169.320312 C 111.871094 167.480469 111.960938 165.644531 112.140625 163.816406 C 112.320312 161.984375 112.589844 160.167969 112.945312 158.363281 C 113.304688 156.558594 113.75 154.777344 114.285156 153.015625 C 114.816406 151.257812 115.433594 149.527344 116.136719 147.828125 C 116.839844 146.128906 117.625 144.46875 118.488281 142.847656 C 119.355469 141.222656 120.296875 139.648438 121.320312 138.117188 C 122.339844 136.589844 123.429688 135.113281 124.597656 133.691406 C 125.761719 132.269531 126.992188 130.910156 128.292969 129.609375 C 129.589844 128.308594 130.949219 127.074219 132.367188 125.90625 C 133.789062 124.742188 135.261719 123.648438 136.789062 122.625 C 138.3125 121.601562 139.886719 120.660156 141.507812 119.792969 C 143.125 118.925781 144.785156 118.140625 146.480469 117.433594 C 148.175781 116.730469 149.902344 116.113281 151.660156 115.578125 C 153.417969 115.042969 155.199219 114.597656 157 114.238281 C 158.800781 113.878906 160.613281 113.609375 162.441406 113.429688 C 164.269531 113.25 166.101562 113.160156 167.9375 113.160156 C 169.773438 113.160156 171.605469 113.25 173.433594 113.429688 C 175.261719 113.609375 177.074219 113.878906 178.875 114.238281 C 180.675781 114.597656 182.457031 115.042969 184.210938 115.578125 C 185.96875 116.113281 187.695312 116.730469 189.394531 117.433594 C 191.089844 118.140625 192.746094 118.925781 194.367188 119.792969 C 195.984375 120.660156 197.558594 121.601562 199.085938 122.625 C 200.613281 123.648438 202.085938 124.742188 203.503906 125.90625 C 204.925781 127.074219 206.285156 128.308594 207.582031 129.609375 C 208.878906 130.910156 210.113281 132.269531 211.277344 133.691406 C 212.441406 135.113281 213.535156 136.589844 214.554688 138.121094 C 215.574219 139.648438 216.519531 141.222656 217.382812 142.847656 C 218.25 144.46875 219.035156 146.128906 219.734375 147.828125 C 220.4375 149.527344 221.058594 151.257812 221.589844 153.015625 C 222.121094 154.777344 222.570312 156.558594 222.925781 158.363281 C 223.285156 160.167969 223.554688 161.984375 223.734375 163.816406 C 223.914062 165.644531 224.003906 167.480469 224.003906 169.320312 Z M 224.003906 169.320312 " fill-opacity="1" fill-rule="nonzero"/><path fill="#000000" d="M 168.082031 113.316406 C 167.234375 113.316406 166.386719 113.339844 165.546875 113.375 C 167.300781 113.53125 169.039062 113.765625 170.769531 114.085938 C 172.5 114.402344 174.210938 114.800781 175.902344 115.28125 C 177.59375 115.761719 179.257812 116.320312 180.898438 116.957031 C 182.539062 117.59375 184.144531 118.304688 185.71875 119.09375 C 187.289062 119.878906 188.824219 120.738281 190.316406 121.671875 C 191.808594 122.605469 193.25 123.605469 194.648438 124.671875 C 196.046875 125.742188 197.390625 126.875 198.683594 128.070312 C 199.976562 129.265625 201.207031 130.515625 202.382812 131.828125 C 203.554688 133.140625 204.667969 134.503906 205.710938 135.917969 C 206.757812 137.335938 207.734375 138.796875 208.644531 140.304688 C 209.550781 141.8125 210.386719 143.363281 211.152344 144.949219 C 211.914062 146.535156 212.601562 148.15625 213.210938 149.804688 C 213.824219 151.457031 214.355469 153.132812 214.808594 154.835938 C 215.261719 156.539062 215.636719 158.257812 215.925781 159.992188 C 216.21875 161.730469 216.429688 163.476562 216.558594 165.234375 C 216.683594 166.992188 216.730469 168.75 216.691406 170.511719 C 216.65625 172.273438 216.535156 174.027344 216.332031 175.777344 C 216.132812 177.527344 215.847656 179.261719 215.480469 180.984375 C 215.117188 182.707031 214.671875 184.410156 214.144531 186.089844 C 213.621094 187.773438 213.019531 189.425781 212.339844 191.050781 C 211.65625 192.671875 210.902344 194.261719 210.074219 195.816406 C 209.242188 197.367188 208.34375 198.878906 207.371094 200.347656 C 206.398438 201.816406 205.363281 203.234375 204.257812 204.605469 C 203.152344 205.972656 201.984375 207.289062 200.757812 208.550781 C 199.527344 209.808594 198.242188 211.011719 196.902344 212.148438 C 195.5625 213.289062 194.167969 214.363281 192.726562 215.371094 C 191.285156 216.378906 189.800781 217.316406 188.269531 218.183594 C 186.738281 219.050781 185.171875 219.847656 183.566406 220.566406 C 181.960938 221.285156 180.328125 221.929688 178.664062 222.496094 C 176.996094 223.0625 175.308594 223.550781 173.597656 223.957031 C 171.886719 224.363281 170.160156 224.6875 168.421875 224.933594 C 166.679688 225.179688 164.929688 225.339844 163.171875 225.417969 C 164.792969 225.558594 166.429688 225.636719 168.082031 225.636719 C 169.917969 225.636719 171.75 225.546875 173.578125 225.367188 C 175.40625 225.1875 177.21875 224.917969 179.019531 224.558594 C 180.820312 224.199219 182.601562 223.753906 184.359375 223.21875 C 186.117188 222.683594 187.84375 222.066406 189.539062 221.363281 C 191.234375 220.65625 192.894531 219.871094 194.511719 219.003906 C 196.132812 218.136719 197.707031 217.195312 199.230469 216.171875 C 200.757812 215.148438 202.230469 214.054688 203.652344 212.890625 C 205.070312 211.722656 206.429688 210.488281 207.730469 209.1875 C 209.027344 207.886719 210.257812 206.527344 211.421875 205.105469 C 212.589844 203.683594 213.679688 202.207031 214.703125 200.675781 C 215.722656 199.148438 216.664062 197.574219 217.53125 195.949219 C 218.394531 194.328125 219.179688 192.667969 219.882812 190.96875 C 220.585938 189.269531 221.203125 187.539062 221.734375 185.777344 C 222.269531 184.019531 222.714844 182.238281 223.074219 180.433594 C 223.429688 178.628906 223.699219 176.8125 223.878906 174.980469 C 224.058594 173.152344 224.148438 171.316406 224.148438 169.476562 C 224.148438 167.636719 224.058594 165.800781 223.878906 163.972656 C 223.699219 162.140625 223.429688 160.324219 223.074219 158.519531 C 222.714844 156.714844 222.269531 154.933594 221.734375 153.175781 C 221.203125 151.414062 220.585938 149.683594 219.882812 147.984375 C 219.179688 146.285156 218.394531 144.625 217.53125 143.003906 C 216.664062 141.382812 215.722656 139.804688 214.703125 138.277344 C 213.679688 136.746094 212.589844 135.269531 211.421875 133.847656 C 210.257812 132.425781 209.027344 131.066406 207.730469 129.765625 C 206.429688 128.464844 205.070312 127.230469 203.652344 126.066406 C 202.230469 124.898438 200.757812 123.804688 199.230469 122.78125 C 197.707031 121.761719 196.132812 120.816406 194.511719 119.949219 C 192.894531 119.082031 191.234375 118.296875 189.539062 117.59375 C 187.84375 116.886719 186.117188 116.269531 184.359375 115.734375 C 182.601562 115.203125 180.820312 114.753906 179.019531 114.394531 C 177.21875 114.039062 175.40625 113.769531 173.578125 113.585938 C 171.75 113.40625 169.917969 113.316406 168.082031 113.316406 Z M 168.082031 113.316406 " fill-opacity="0.2" fill-rule="nonzero"/><path fill="#ffffff" d="M 168.101562 109.171875 C 167.859375 109.171875 167.628906 109.21875 167.40625 109.3125 C 167.179688 109.40625 166.984375 109.539062 166.8125 109.707031 C 166.640625 109.878906 166.511719 110.078125 166.417969 110.300781 C 166.324219 110.523438 166.277344 110.757812 166.277344 111 L 166.277344 118.976562 C 166.277344 119.21875 166.324219 119.449219 166.417969 119.675781 C 166.507812 119.898438 166.640625 120.097656 166.8125 120.269531 C 166.984375 120.4375 167.179688 120.570312 167.40625 120.664062 C 167.628906 120.757812 167.859375 120.804688 168.101562 120.804688 C 168.34375 120.804688 168.578125 120.757812 168.800781 120.664062 C 169.023438 120.570312 169.222656 120.4375 169.394531 120.269531 C 169.5625 120.097656 169.695312 119.898438 169.789062 119.675781 C 169.882812 119.449219 169.925781 119.21875 169.925781 118.976562 L 169.925781 111 C 169.925781 110.757812 169.878906 110.523438 169.789062 110.300781 C 169.695312 110.078125 169.5625 109.878906 169.390625 109.707031 C 169.222656 109.539062 169.023438 109.40625 168.800781 109.3125 C 168.578125 109.21875 168.34375 109.171875 168.101562 109.171875 Z M 168.101562 109.171875 " fill-opacity="1" fill-rule="nonzero"/><path fill="#ffffff" d="M 204.539062 119.96875 C 204.027344 119.582031 203.5 119.207031 202.972656 118.84375 C 202.652344 118.820312 202.347656 118.882812 202.054688 119.023438 C 201.765625 119.164062 201.53125 119.371094 201.347656 119.636719 L 196.867188 126.226562 C 196.730469 126.425781 196.636719 126.644531 196.589844 126.882812 C 196.539062 127.121094 196.539062 127.355469 196.582031 127.59375 C 196.628906 127.832031 196.71875 128.050781 196.851562 128.253906 C 196.984375 128.457031 197.148438 128.625 197.347656 128.761719 C 197.546875 128.898438 197.765625 128.992188 198.003906 129.042969 C 198.238281 129.089844 198.476562 129.09375 198.714844 129.046875 C 198.953125 129.003906 199.171875 128.914062 199.375 128.78125 C 199.578125 128.648438 199.746094 128.484375 199.882812 128.285156 L 204.363281 121.695312 C 204.539062 121.441406 204.640625 121.160156 204.671875 120.855469 C 204.703125 120.546875 204.65625 120.253906 204.539062 119.96875 Z M 204.539062 119.96875 " fill-opacity="1" fill-rule="nonzero"/><path fill="#ffffff" d="M 224.902344 150.015625 C 224.8125 149.792969 224.683594 149.59375 224.511719 149.421875 C 224.34375 149.25 224.144531 149.117188 223.921875 149.019531 C 223.699219 148.925781 223.46875 148.878906 223.226562 148.878906 C 222.984375 148.875 222.75 148.921875 222.527344 149.011719 L 215.148438 152.011719 C 214.925781 152.105469 214.726562 152.234375 214.554688 152.40625 C 214.382812 152.574219 214.25 152.773438 214.15625 152.996094 C 214.0625 153.21875 214.011719 153.453125 214.011719 153.695312 C 214.011719 153.9375 214.054688 154.167969 214.144531 154.394531 C 214.238281 154.617188 214.367188 154.816406 214.539062 154.988281 C 214.707031 155.164062 214.902344 155.296875 215.125 155.390625 C 215.347656 155.484375 215.582031 155.53125 215.824219 155.535156 C 216.066406 155.535156 216.296875 155.492188 216.523438 155.398438 L 223.902344 152.398438 C 224.125 152.308594 224.324219 152.175781 224.496094 152.003906 C 224.667969 151.835938 224.800781 151.636719 224.894531 151.414062 C 224.988281 151.191406 225.035156 150.957031 225.035156 150.714844 C 225.039062 150.472656 224.992188 150.242188 224.902344 150.015625 Z M 224.902344 150.015625 " fill-opacity="1" fill-rule="nonzero"/><path fill="#ffffff" d="M 139.007812 126.226562 L 134.523438 119.636719 C 134.34375 119.371094 134.109375 119.164062 133.816406 119.023438 C 133.527344 118.882812 133.222656 118.820312 132.898438 118.84375 C 132.371094 119.207031 131.847656 119.582031 131.332031 119.96875 C 131.214844 120.253906 131.171875 120.546875 131.203125 120.855469 C 131.234375 121.160156 131.335938 121.441406 131.507812 121.695312 L 135.992188 128.285156 C 136.128906 128.484375 136.296875 128.648438 136.5 128.78125 C 136.703125 128.914062 136.921875 129.003906 137.160156 129.046875 C 137.398438 129.09375 137.632812 129.089844 137.871094 129.042969 C 138.105469 128.992188 138.324219 128.898438 138.523438 128.761719 C 138.726562 128.625 138.890625 128.457031 139.023438 128.253906 C 139.15625 128.050781 139.246094 127.832031 139.289062 127.59375 C 139.335938 127.355469 139.332031 127.121094 139.285156 126.882812 C 139.234375 126.644531 139.144531 126.425781 139.007812 126.226562 Z M 139.007812 126.226562 " fill-opacity="1" fill-rule="nonzero"/><path fill="#ffffff" d="M 120.722656 152.011719 L 113.347656 149.011719 C 113.121094 148.921875 112.890625 148.878906 112.648438 148.878906 C 112.40625 148.882812 112.171875 148.929688 111.949219 149.023438 C 111.726562 149.117188 111.53125 149.25 111.363281 149.421875 C 111.191406 149.597656 111.0625 149.792969 110.972656 150.019531 C 110.878906 150.242188 110.835938 150.476562 110.835938 150.71875 C 110.839844 150.960938 110.886719 151.191406 110.980469 151.417969 C 111.074219 151.640625 111.207031 151.835938 111.378906 152.007812 C 111.550781 152.175781 111.75 152.308594 111.972656 152.398438 L 119.351562 155.398438 C 119.574219 155.492188 119.808594 155.535156 120.050781 155.535156 C 120.292969 155.53125 120.523438 155.484375 120.746094 155.390625 C 120.96875 155.296875 121.167969 155.164062 121.335938 154.988281 C 121.507812 154.816406 121.636719 154.617188 121.726562 154.394531 C 121.820312 154.167969 121.863281 153.9375 121.863281 153.695312 C 121.859375 153.453125 121.8125 153.21875 121.71875 152.996094 C 121.625 152.773438 121.492188 152.574219 121.320312 152.40625 C 121.148438 152.234375 120.949219 152.105469 120.722656 152.011719 Z M 120.722656 152.011719 " fill-opacity="1" fill-rule="nonzero"/><path fill="#ffffff" d="M 168.101562 217.835938 C 167.859375 217.835938 167.628906 217.882812 167.40625 217.976562 C 167.179688 218.070312 166.984375 218.203125 166.8125 218.371094 C 166.640625 218.542969 166.511719 218.742188 166.417969 218.964844 C 166.324219 219.1875 166.277344 219.421875 166.277344 219.664062 L 166.277344 227.640625 C 166.277344 227.882812 166.324219 228.113281 166.417969 228.339844 C 166.507812 228.5625 166.640625 228.761719 166.8125 228.933594 C 166.984375 229.101562 167.179688 229.234375 167.40625 229.328125 C 167.628906 229.421875 167.859375 229.46875 168.101562 229.46875 C 168.34375 229.46875 168.578125 229.421875 168.800781 229.328125 C 169.023438 229.234375 169.222656 229.101562 169.394531 228.933594 C 169.5625 228.761719 169.695312 228.5625 169.789062 228.339844 C 169.882812 228.113281 169.925781 227.882812 169.925781 227.640625 L 169.925781 219.664062 C 169.925781 219.421875 169.878906 219.1875 169.789062 218.964844 C 169.695312 218.742188 169.5625 218.542969 169.390625 218.371094 C 169.222656 218.203125 169.023438 218.070312 168.800781 217.976562 C 168.578125 217.882812 168.34375 217.835938 168.101562 217.835938 Z M 168.101562 217.835938 " fill-opacity="1" fill-rule="nonzero"/><path fill="#ffffff" d="M 204.363281 216.945312 L 199.882812 210.355469 C 199.746094 210.15625 199.578125 209.988281 199.375 209.855469 C 199.171875 209.722656 198.953125 209.636719 198.714844 209.589844 C 198.476562 209.542969 198.238281 209.546875 198.003906 209.597656 C 197.765625 209.644531 197.546875 209.738281 197.347656 209.875 C 197.148438 210.011719 196.980469 210.179688 196.847656 210.382812 C 196.714844 210.585938 196.625 210.804688 196.582031 211.042969 C 196.535156 211.28125 196.539062 211.519531 196.589844 211.757812 C 196.636719 211.996094 196.730469 212.214844 196.867188 212.414062 L 201.347656 219.003906 C 201.53125 219.269531 201.765625 219.472656 202.054688 219.617188 C 202.347656 219.757812 202.652344 219.816406 202.972656 219.796875 C 203.5 219.429688 204.027344 219.054688 204.539062 218.671875 C 204.65625 218.386719 204.703125 218.09375 204.671875 217.785156 C 204.640625 217.480469 204.535156 217.199219 204.363281 216.945312 Z M 204.363281 216.945312 " fill-opacity="1" fill-rule="nonzero"/><path fill="#ffffff" d="M 223.902344 186.242188 L 216.523438 183.238281 C 216.296875 183.148438 216.066406 183.105469 215.824219 183.105469 C 215.582031 183.105469 215.347656 183.15625 215.125 183.25 C 214.902344 183.34375 214.707031 183.476562 214.539062 183.648438 C 214.367188 183.824219 214.238281 184.019531 214.144531 184.246094 C 214.054688 184.46875 214.011719 184.703125 214.011719 184.945312 C 214.011719 185.1875 214.0625 185.421875 214.15625 185.644531 C 214.25 185.867188 214.382812 186.0625 214.554688 186.234375 C 214.726562 186.40625 214.925781 186.535156 215.148438 186.625 L 222.527344 189.628906 C 222.75 189.71875 222.984375 189.761719 223.226562 189.761719 C 223.46875 189.757812 223.699219 189.710938 223.925781 189.617188 C 224.148438 189.523438 224.34375 189.390625 224.511719 189.21875 C 224.683594 189.042969 224.8125 188.847656 224.90625 188.621094 C 224.996094 188.398438 225.039062 188.164062 225.039062 187.921875 C 225.039062 187.679688 224.988281 187.445312 224.894531 187.222656 C 224.800781 187 224.667969 186.804688 224.496094 186.632812 C 224.324219 186.460938 224.125 186.332031 223.902344 186.242188 Z M 223.902344 186.242188 " fill-opacity="1" fill-rule="nonzero"/><path fill="#ffffff" d="M 138.527344 209.875 C 138.328125 209.738281 138.109375 209.644531 137.871094 209.597656 C 137.632812 209.546875 137.398438 209.542969 137.160156 209.589844 C 136.921875 209.636719 136.703125 209.722656 136.5 209.855469 C 136.296875 209.988281 136.128906 210.15625 135.992188 210.355469 L 131.507812 216.945312 C 131.335938 217.199219 131.234375 217.480469 131.203125 217.785156 C 131.171875 218.09375 131.214844 218.386719 131.332031 218.671875 C 131.847656 219.054688 132.371094 219.429688 132.898438 219.796875 C 133.222656 219.816406 133.527344 219.757812 133.816406 219.617188 C 134.109375 219.472656 134.34375 219.269531 134.523438 219.003906 L 139.007812 212.414062 C 139.144531 212.214844 139.238281 211.996094 139.285156 211.757812 C 139.335938 211.519531 139.335938 211.28125 139.292969 211.042969 C 139.246094 210.804688 139.15625 210.585938 139.023438 210.382812 C 138.894531 210.179688 138.726562 210.011719 138.527344 209.875 Z M 138.527344 209.875 " fill-opacity="1" fill-rule="nonzero"/><path fill="#ffffff" d="M 121.726562 184.242188 C 121.636719 184.019531 121.503906 183.820312 121.335938 183.648438 C 121.164062 183.476562 120.96875 183.34375 120.746094 183.25 C 120.523438 183.15625 120.292969 183.105469 120.050781 183.105469 C 119.808594 183.105469 119.574219 183.148438 119.351562 183.238281 L 111.972656 186.242188 C 111.75 186.332031 111.550781 186.464844 111.378906 186.632812 C 111.207031 186.804688 111.074219 187 110.980469 187.222656 C 110.886719 187.445312 110.839844 187.679688 110.835938 187.921875 C 110.835938 188.164062 110.878906 188.398438 110.972656 188.621094 C 111.0625 188.84375 111.191406 189.042969 111.363281 189.214844 C 111.53125 189.386719 111.726562 189.523438 111.949219 189.617188 C 112.171875 189.710938 112.40625 189.757812 112.648438 189.761719 C 112.890625 189.761719 113.121094 189.71875 113.347656 189.628906 L 120.722656 186.625 C 120.949219 186.535156 121.144531 186.402344 121.316406 186.234375 C 121.488281 186.0625 121.621094 185.867188 121.714844 185.640625 C 121.808594 185.417969 121.859375 185.1875 121.859375 184.945312 C 121.863281 184.703125 121.816406 184.46875 121.726562 184.242188 Z M 121.726562 184.242188 " fill-opacity="1" fill-rule="nonzero"/><path fill="#3f3d56" d="M 170.46875 168.414062 C 170.554688 168.914062 170.539062 169.410156 170.425781 169.902344 C 170.316406 170.398438 170.113281 170.851562 169.820312 171.261719 C 169.527344 171.675781 169.167969 172.019531 168.738281 172.289062 C 168.308594 172.558594 167.847656 172.734375 167.347656 172.820312 L 134.96875 178.335938 C 134.472656 178.421875 133.976562 178.410156 133.480469 178.296875 C 132.988281 178.183594 132.535156 177.980469 132.121094 177.6875 C 131.710938 177.394531 131.367188 177.035156 131.101562 176.605469 C 130.832031 176.175781 130.652344 175.710938 130.570312 175.210938 C 130.484375 174.710938 130.496094 174.214844 130.609375 173.722656 C 130.722656 173.226562 130.925781 172.773438 131.21875 172.359375 C 131.511719 171.945312 131.871094 171.605469 132.300781 171.335938 C 132.726562 171.066406 133.191406 170.886719 133.691406 170.804688 L 166.070312 165.285156 C 166.566406 165.203125 167.0625 165.214844 167.558594 165.328125 C 168.050781 165.441406 168.503906 165.644531 168.914062 165.9375 C 169.328125 166.230469 169.667969 166.59375 169.9375 167.019531 C 170.207031 167.449219 170.386719 167.914062 170.46875 168.414062 Z M 170.46875 168.414062 " fill-opacity="1" fill-rule="nonzero"/><path fill="#3f3d56" d="M 204.546875 204.34375 C 204.316406 204.578125 204.046875 204.761719 203.742188 204.886719 C 203.4375 205.015625 203.121094 205.078125 202.792969 205.082031 C 202.460938 205.082031 202.144531 205.019531 201.839844 204.894531 C 201.535156 204.769531 201.265625 204.59375 201.03125 204.359375 L 166.175781 169.71875 C 165.941406 169.488281 165.757812 169.21875 165.632812 168.914062 C 165.503906 168.609375 165.4375 168.292969 165.4375 167.960938 C 165.4375 167.628906 165.5 167.3125 165.625 167.007812 C 165.75 166.699219 165.925781 166.429688 166.160156 166.195312 C 166.390625 165.960938 166.660156 165.78125 166.964844 165.652344 C 167.269531 165.523438 167.585938 165.460938 167.917969 165.457031 C 168.246094 165.457031 168.5625 165.519531 168.871094 165.644531 C 169.175781 165.769531 169.445312 165.949219 169.679688 166.179688 L 204.535156 200.820312 C 204.769531 201.054688 204.949219 201.324219 205.074219 201.628906 C 205.203125 201.933594 205.269531 202.25 205.269531 202.582031 C 205.269531 202.910156 205.207031 203.230469 205.082031 203.535156 C 204.957031 203.839844 204.78125 204.109375 204.546875 204.34375 Z M 204.546875 204.34375 " fill-opacity="1" fill-rule="nonzero"/><path fill="#cccccc" d="M 172.25 169.320312 C 172.25 169.601562 172.222656 169.882812 172.167969 170.164062 C 172.113281 170.441406 172.03125 170.710938 171.921875 170.972656 C 171.8125 171.234375 171.679688 171.484375 171.523438 171.71875 C 171.367188 171.957031 171.1875 172.175781 170.988281 172.375 C 170.785156 172.574219 170.570312 172.753906 170.332031 172.910156 C 170.097656 173.070312 169.847656 173.203125 169.585938 173.3125 C 169.324219 173.417969 169.054688 173.5 168.777344 173.558594 C 168.5 173.613281 168.21875 173.640625 167.9375 173.640625 C 167.652344 173.640625 167.375 173.613281 167.09375 173.558594 C 166.816406 173.5 166.546875 173.417969 166.285156 173.3125 C 166.023438 173.203125 165.777344 173.070312 165.539062 172.910156 C 165.304688 172.753906 165.085938 172.574219 164.886719 172.375 C 164.6875 172.175781 164.507812 171.957031 164.351562 171.71875 C 164.195312 171.484375 164.0625 171.234375 163.953125 170.972656 C 163.84375 170.710938 163.761719 170.441406 163.707031 170.164062 C 163.652344 169.882812 163.625 169.601562 163.625 169.320312 C 163.625 169.035156 163.652344 168.753906 163.707031 168.476562 C 163.761719 168.199219 163.84375 167.929688 163.953125 167.667969 C 164.0625 167.40625 164.195312 167.15625 164.351562 166.917969 C 164.507812 166.683594 164.6875 166.464844 164.886719 166.265625 C 165.085938 166.066406 165.304688 165.886719 165.539062 165.726562 C 165.777344 165.570312 166.023438 165.4375 166.285156 165.328125 C 166.546875 165.21875 166.816406 165.136719 167.09375 165.082031 C 167.375 165.027344 167.652344 165 167.9375 165 C 168.21875 165 168.5 165.027344 168.777344 165.082031 C 169.054688 165.136719 169.324219 165.21875 169.585938 165.328125 C 169.847656 165.4375 170.097656 165.570312 170.332031 165.726562 C 170.570312 165.886719 170.785156 166.066406 170.988281 166.265625 C 171.1875 166.464844 171.367188 166.683594 171.523438 166.917969 C 171.679688 167.15625 171.8125 167.40625 171.921875 167.667969 C 172.03125 167.929688 172.113281 168.199219 172.167969 168.476562 C 172.222656 168.753906 172.25 169.035156 172.25 169.320312 Z M 172.25 169.320312 " fill-opacity="1" fill-rule="nonzero"/><g clip-path="url(#52d6a3f818)"><path fill="#e6e6e6" d="M 138.230469 94.410156 C 131.609375 104.835938 121.507812 111.753906 109.050781 116.300781 C 108.804688 116.488281 108.527344 116.617188 108.226562 116.695312 C 107.925781 116.773438 107.621094 116.789062 107.316406 116.746094 C 107.007812 116.699219 106.71875 116.597656 106.453125 116.441406 C 106.1875 116.28125 105.960938 116.078125 105.773438 115.828125 C 99.007812 106.777344 100.535156 93.84375 109.464844 86.929688 C 110.003906 86.515625 110.5625 86.125 111.136719 85.765625 C 111.714844 85.40625 112.308594 85.074219 112.917969 84.769531 C 113.527344 84.46875 114.152344 84.199219 114.789062 83.957031 C 115.421875 83.71875 116.070312 83.507812 116.726562 83.332031 C 117.382812 83.15625 118.046875 83.015625 118.71875 82.90625 C 119.390625 82.792969 120.066406 82.71875 120.746094 82.675781 C 121.421875 82.632812 122.101562 82.621094 122.78125 82.648438 C 123.460938 82.671875 124.140625 82.730469 124.8125 82.820312 C 125.488281 82.914062 126.15625 83.039062 126.816406 83.195312 C 127.476562 83.351562 128.128906 83.542969 128.773438 83.765625 C 129.414062 83.988281 130.046875 84.242188 130.664062 84.527344 C 131.28125 84.8125 131.882812 85.128906 132.46875 85.472656 C 133.054688 85.816406 133.625 86.191406 134.175781 86.589844 C 134.722656 86.992188 135.253906 87.421875 135.757812 87.875 C 136.265625 88.328125 136.75 88.804688 137.210938 89.308594 C 137.671875 89.808594 138.105469 90.332031 138.511719 90.875 L 138.699219 91.128906 C 138.886719 91.375 139.019531 91.652344 139.09375 91.953125 C 139.171875 92.253906 139.1875 92.558594 139.144531 92.867188 C 139.101562 93.175781 139 93.460938 138.839844 93.730469 C 138.683594 93.996094 138.476562 94.222656 138.230469 94.410156 Z M 138.230469 94.410156 " fill-opacity="1" fill-rule="nonzero"/></g><g clip-path="url(#678a7b7f92)"><path fill="#e6e6e6" d="M 197.359375 90.875 C 197.769531 90.332031 198.203125 89.808594 198.664062 89.308594 C 199.121094 88.804688 199.605469 88.328125 200.113281 87.875 C 200.621094 87.421875 201.148438 86.992188 201.699219 86.589844 C 202.25 86.191406 202.816406 85.816406 203.402344 85.472656 C 203.988281 85.128906 204.59375 84.8125 205.210938 84.527344 C 205.828125 84.242188 206.457031 83.988281 207.101562 83.765625 C 207.742188 83.542969 208.394531 83.351562 209.058594 83.195312 C 209.71875 83.039062 210.386719 82.914062 211.0625 82.820312 C 211.734375 82.730469 212.410156 82.671875 213.089844 82.648438 C 213.769531 82.621094 214.449219 82.632812 215.128906 82.675781 C 215.808594 82.71875 216.484375 82.792969 217.152344 82.90625 C 217.824219 83.015625 218.488281 83.15625 219.144531 83.332031 C 219.804688 83.507812 220.449219 83.71875 221.085938 83.957031 C 221.722656 84.199219 222.347656 84.46875 222.957031 84.769531 C 223.566406 85.074219 224.160156 85.40625 224.734375 85.765625 C 225.3125 86.125 225.871094 86.515625 226.410156 86.929688 C 235.339844 93.84375 236.867188 106.777344 230.101562 115.828125 C 229.914062 116.078125 229.6875 116.28125 229.421875 116.441406 C 229.152344 116.597656 228.867188 116.699219 228.558594 116.746094 C 228.25 116.789062 227.945312 116.773438 227.644531 116.695312 C 227.34375 116.617188 227.070312 116.488281 226.820312 116.300781 C 215.257812 111.867188 205.773438 104.191406 197.644531 94.410156 C 197.394531 94.222656 197.191406 93.996094 197.035156 93.730469 C 196.875 93.460938 196.773438 93.175781 196.730469 92.867188 C 196.683594 92.558594 196.703125 92.253906 196.777344 91.953125 C 196.855469 91.652344 196.988281 91.375 197.171875 91.128906 Z M 197.359375 90.875 " fill-opacity="1" fill-rule="nonzero"/></g><path fill="#e6e6e6" d="M 194.457031 231.21875 C 194.246094 231.335938 194.066406 231.492188 193.917969 231.679688 C 193.769531 231.871094 193.660156 232.082031 193.59375 232.316406 C 193.527344 232.550781 193.511719 232.785156 193.539062 233.027344 C 193.566406 233.269531 193.640625 233.492188 193.757812 233.707031 L 204.289062 252.554688 C 204.40625 252.765625 204.5625 252.945312 204.75 253.09375 C 204.941406 253.246094 205.152344 253.351562 205.382812 253.417969 C 205.617188 253.484375 205.851562 253.503906 206.09375 253.472656 C 206.332031 253.445312 206.558594 253.371094 206.769531 253.253906 C 206.980469 253.136719 207.160156 252.980469 207.308594 252.792969 C 207.460938 252.601562 207.566406 252.390625 207.632812 252.15625 C 207.699219 251.925781 207.71875 251.6875 207.691406 251.449219 C 207.664062 251.207031 207.589844 250.980469 207.472656 250.769531 L 196.941406 231.921875 C 196.824219 231.710938 196.667969 231.527344 196.480469 231.378906 C 196.289062 231.230469 196.078125 231.121094 195.84375 231.054688 C 195.613281 230.988281 195.375 230.96875 195.136719 231 C 194.894531 231.027344 194.667969 231.101562 194.457031 231.21875 Z M 194.457031 231.21875 " fill-opacity="1" fill-rule="nonzero"/><path fill="#e6e6e6" d="M 138.929688 231.921875 L 128.402344 250.769531 C 128.28125 250.980469 128.210938 251.207031 128.179688 251.449219 C 128.152344 251.6875 128.171875 251.925781 128.238281 252.160156 C 128.304688 252.390625 128.410156 252.605469 128.5625 252.792969 C 128.710938 252.984375 128.890625 253.140625 129.101562 253.257812 C 129.3125 253.375 129.539062 253.449219 129.78125 253.476562 C 130.019531 253.503906 130.257812 253.488281 130.488281 253.421875 C 130.722656 253.355469 130.933594 253.246094 131.125 253.097656 C 131.3125 252.945312 131.46875 252.765625 131.585938 252.554688 L 142.117188 233.707031 C 142.234375 233.492188 142.308594 233.269531 142.335938 233.027344 C 142.363281 232.785156 142.347656 232.550781 142.28125 232.316406 C 142.214844 232.082031 142.105469 231.871094 141.957031 231.679688 C 141.808594 231.488281 141.625 231.335938 141.414062 231.214844 C 141.203125 231.097656 140.980469 231.023438 140.738281 230.996094 C 140.496094 230.96875 140.261719 230.988281 140.027344 231.054688 C 139.796875 231.117188 139.582031 231.226562 139.394531 231.378906 C 139.203125 231.527344 139.050781 231.707031 138.929688 231.921875 Z M 138.929688 231.921875 " fill-opacity="1" fill-rule="nonzero"/><path fill="#e6e6e6" d="M 212.0625 251.730469 C 212.0625 252.101562 212.023438 252.46875 211.953125 252.832031 C 211.878906 253.199219 211.773438 253.550781 211.632812 253.894531 C 211.488281 254.238281 211.316406 254.5625 211.109375 254.871094 C 210.90625 255.179688 210.671875 255.464844 210.410156 255.726562 C 210.148438 255.988281 209.863281 256.222656 209.554688 256.429688 C 209.246094 256.636719 208.921875 256.808594 208.578125 256.949219 C 208.238281 257.09375 207.882812 257.199219 207.519531 257.273438 C 207.15625 257.34375 206.792969 257.382812 206.421875 257.382812 C 206.050781 257.382812 205.683594 257.34375 205.320312 257.273438 C 204.957031 257.199219 204.605469 257.09375 204.261719 256.949219 C 203.921875 256.808594 203.59375 256.636719 203.289062 256.429688 C 202.980469 256.222656 202.695312 255.988281 202.433594 255.726562 C 202.171875 255.464844 201.9375 255.179688 201.730469 254.871094 C 201.527344 254.5625 201.351562 254.238281 201.210938 253.894531 C 201.070312 253.550781 200.960938 253.199219 200.890625 252.832031 C 200.816406 252.46875 200.78125 252.101562 200.78125 251.730469 C 200.78125 251.359375 200.816406 250.992188 200.890625 250.628906 C 200.960938 250.265625 201.070312 249.914062 201.210938 249.570312 C 201.351562 249.226562 201.527344 248.902344 201.730469 248.59375 C 201.9375 248.285156 202.171875 248 202.433594 247.738281 C 202.695312 247.476562 202.980469 247.242188 203.289062 247.035156 C 203.59375 246.828125 203.921875 246.65625 204.261719 246.511719 C 204.605469 246.371094 204.957031 246.261719 205.320312 246.191406 C 205.683594 246.117188 206.050781 246.082031 206.421875 246.082031 C 206.792969 246.082031 207.15625 246.117188 207.519531 246.191406 C 207.882812 246.261719 208.238281 246.371094 208.578125 246.511719 C 208.921875 246.65625 209.246094 246.828125 209.554688 247.035156 C 209.863281 247.242188 210.148438 247.476562 210.410156 247.738281 C 210.671875 248 210.90625 248.285156 211.109375 248.59375 C 211.316406 248.902344 211.488281 249.226562 211.632812 249.570312 C 211.773438 249.914062 211.878906 250.265625 211.953125 250.628906 C 212.023438 250.992188 212.0625 251.359375 212.0625 251.730469 Z M 212.0625 251.730469 " fill-opacity="1" fill-rule="nonzero"/><path fill="#e6e6e6" d="M 216.042969 107.179688 C 216.042969 107.550781 216.003906 107.917969 215.933594 108.28125 C 215.859375 108.644531 215.753906 108.996094 215.613281 109.339844 C 215.472656 109.683594 215.296875 110.007812 215.089844 110.316406 C 214.886719 110.625 214.652344 110.910156 214.390625 111.171875 C 214.128906 111.433594 213.84375 111.667969 213.535156 111.875 C 213.226562 112.082031 212.902344 112.253906 212.558594 112.398438 C 212.21875 112.539062 211.867188 112.648438 211.503906 112.71875 C 211.140625 112.792969 210.773438 112.828125 210.402344 112.828125 C 210.03125 112.828125 209.664062 112.792969 209.300781 112.71875 C 208.9375 112.648438 208.585938 112.539062 208.242188 112.398438 C 207.902344 112.253906 207.578125 112.082031 207.269531 111.875 C 206.960938 111.667969 206.675781 111.433594 206.414062 111.171875 C 206.152344 110.910156 205.917969 110.625 205.710938 110.316406 C 205.507812 110.007812 205.332031 109.683594 205.191406 109.339844 C 205.050781 108.996094 204.941406 108.644531 204.871094 108.28125 C 204.796875 107.917969 204.761719 107.550781 204.761719 107.179688 C 204.761719 106.808594 204.796875 106.441406 204.871094 106.078125 C 204.941406 105.710938 205.050781 105.359375 205.191406 105.015625 C 205.332031 104.675781 205.507812 104.347656 205.710938 104.039062 C 205.917969 103.730469 206.152344 103.445312 206.414062 103.183594 C 206.675781 102.921875 206.960938 102.6875 207.269531 102.480469 C 207.578125 102.273438 207.902344 102.101562 208.242188 101.960938 C 208.585938 101.816406 208.9375 101.710938 209.300781 101.636719 C 209.664062 101.566406 210.03125 101.53125 210.402344 101.53125 C 210.773438 101.53125 211.140625 101.566406 211.503906 101.636719 C 211.867188 101.710938 212.21875 101.816406 212.558594 101.960938 C 212.902344 102.101562 213.226562 102.273438 213.535156 102.480469 C 213.84375 102.6875 214.128906 102.921875 214.390625 103.183594 C 214.652344 103.445312 214.886719 103.730469 215.089844 104.039062 C 215.296875 104.347656 215.472656 104.675781 215.613281 105.015625 C 215.753906 105.359375 215.859375 105.710938 215.933594 106.078125 C 216.003906 106.441406 216.042969 106.808594 216.042969 107.179688 Z M 216.042969 107.179688 " fill-opacity="1" fill-rule="nonzero"/><path fill="#e6e6e6" d="M 173.246094 93.886719 C 173.246094 94.257812 173.207031 94.625 173.136719 94.988281 C 173.0625 95.351562 172.957031 95.707031 172.816406 96.046875 C 172.675781 96.390625 172.5 96.714844 172.292969 97.023438 C 172.089844 97.332031 171.855469 97.617188 171.59375 97.882812 C 171.332031 98.144531 171.046875 98.378906 170.738281 98.582031 C 170.429688 98.789062 170.105469 98.964844 169.761719 99.105469 C 169.421875 99.246094 169.070312 99.355469 168.707031 99.425781 C 168.34375 99.5 167.976562 99.535156 167.605469 99.535156 C 167.234375 99.535156 166.867188 99.5 166.503906 99.425781 C 166.140625 99.355469 165.789062 99.246094 165.445312 99.105469 C 165.105469 98.964844 164.78125 98.789062 164.472656 98.582031 C 164.164062 98.378906 163.878906 98.144531 163.617188 97.882812 C 163.355469 97.617188 163.121094 97.332031 162.914062 97.023438 C 162.710938 96.714844 162.535156 96.390625 162.394531 96.046875 C 162.253906 95.707031 162.144531 95.351562 162.074219 94.988281 C 162 94.625 161.964844 94.257812 161.964844 93.886719 C 161.964844 93.515625 162 93.148438 162.074219 92.785156 C 162.144531 92.421875 162.253906 92.066406 162.394531 91.722656 C 162.535156 91.382812 162.710938 91.054688 162.914062 90.746094 C 163.121094 90.4375 163.355469 90.152344 163.617188 89.890625 C 163.878906 89.628906 164.164062 89.394531 164.472656 89.1875 C 164.78125 88.984375 165.105469 88.808594 165.445312 88.667969 C 165.789062 88.523438 166.140625 88.417969 166.503906 88.34375 C 166.867188 88.273438 167.234375 88.238281 167.605469 88.238281 C 167.976562 88.238281 168.34375 88.273438 168.707031 88.34375 C 169.070312 88.417969 169.421875 88.523438 169.761719 88.667969 C 170.105469 88.808594 170.429688 88.984375 170.738281 89.1875 C 171.046875 89.394531 171.332031 89.628906 171.59375 89.890625 C 171.855469 90.152344 172.089844 90.4375 172.292969 90.746094 C 172.5 91.054688 172.675781 91.382812 172.816406 91.722656 C 172.957031 92.066406 173.0625 92.421875 173.136719 92.785156 C 173.207031 93.148438 173.246094 93.515625 173.246094 93.886719 Z M 173.246094 93.886719 " fill-opacity="1" fill-rule="nonzero"/><path fill="#e6e6e6" d="M 132.4375 106.515625 C 132.4375 106.886719 132.402344 107.253906 132.332031 107.617188 C 132.257812 107.980469 132.152344 108.332031 132.007812 108.675781 C 131.867188 109.019531 131.695312 109.34375 131.488281 109.652344 C 131.28125 109.960938 131.046875 110.246094 130.785156 110.507812 C 130.523438 110.769531 130.238281 111.003906 129.933594 111.210938 C 129.625 111.417969 129.300781 111.589844 128.957031 111.734375 C 128.613281 111.875 128.261719 111.980469 127.898438 112.054688 C 127.535156 112.128906 127.167969 112.164062 126.796875 112.164062 C 126.429688 112.164062 126.0625 112.128906 125.699219 112.054688 C 125.335938 111.980469 124.984375 111.875 124.640625 111.734375 C 124.296875 111.589844 123.972656 111.417969 123.664062 111.210938 C 123.359375 111.003906 123.074219 110.769531 122.8125 110.507812 C 122.550781 110.246094 122.316406 109.960938 122.109375 109.652344 C 121.902344 109.34375 121.730469 109.019531 121.589844 108.675781 C 121.445312 108.332031 121.339844 107.980469 121.265625 107.617188 C 121.195312 107.253906 121.160156 106.886719 121.160156 106.515625 C 121.160156 106.144531 121.195312 105.777344 121.265625 105.410156 C 121.339844 105.046875 121.445312 104.695312 121.589844 104.351562 C 121.730469 104.007812 121.902344 103.683594 122.109375 103.375 C 122.316406 103.066406 122.550781 102.78125 122.8125 102.519531 C 123.074219 102.257812 123.359375 102.023438 123.664062 101.816406 C 123.972656 101.609375 124.296875 101.4375 124.640625 101.292969 C 124.984375 101.152344 125.335938 101.046875 125.699219 100.972656 C 126.0625 100.902344 126.429688 100.863281 126.796875 100.863281 C 127.167969 100.863281 127.535156 100.902344 127.898438 100.972656 C 128.261719 101.046875 128.613281 101.152344 128.957031 101.292969 C 129.300781 101.4375 129.625 101.609375 129.933594 101.816406 C 130.238281 102.023438 130.523438 102.257812 130.785156 102.519531 C 131.046875 102.78125 131.28125 103.066406 131.488281 103.375 C 131.695312 103.683594 131.867188 104.007812 132.007812 104.351562 C 132.152344 104.695312 132.257812 105.046875 132.332031 105.410156 C 132.402344 105.777344 132.4375 106.144531 132.4375 106.515625 Z M 132.4375 106.515625 " fill-opacity="1" fill-rule="nonzero"/><path fill="#e6e6e6" d="M 136.089844 251.730469 C 136.089844 252.101562 136.050781 252.46875 135.980469 252.832031 C 135.90625 253.199219 135.800781 253.550781 135.660156 253.894531 C 135.515625 254.238281 135.34375 254.5625 135.136719 254.871094 C 134.933594 255.179688 134.699219 255.464844 134.4375 255.726562 C 134.175781 255.988281 133.890625 256.222656 133.582031 256.429688 C 133.273438 256.636719 132.949219 256.808594 132.605469 256.949219 C 132.265625 257.09375 131.910156 257.199219 131.546875 257.273438 C 131.183594 257.34375 130.820312 257.382812 130.449219 257.382812 C 130.078125 257.382812 129.710938 257.34375 129.347656 257.273438 C 128.984375 257.199219 128.632812 257.09375 128.289062 256.949219 C 127.949219 256.808594 127.621094 256.636719 127.316406 256.429688 C 127.007812 256.222656 126.722656 255.988281 126.460938 255.726562 C 126.199219 255.464844 125.964844 255.179688 125.757812 254.871094 C 125.554688 254.5625 125.378906 254.238281 125.238281 253.894531 C 125.097656 253.550781 124.988281 253.199219 124.917969 252.832031 C 124.84375 252.46875 124.808594 252.101562 124.808594 251.730469 C 124.808594 251.359375 124.84375 250.992188 124.917969 250.628906 C 124.988281 250.265625 125.097656 249.914062 125.238281 249.570312 C 125.378906 249.226562 125.554688 248.902344 125.757812 248.59375 C 125.964844 248.285156 126.199219 248 126.460938 247.738281 C 126.722656 247.476562 127.007812 247.242188 127.316406 247.035156 C 127.621094 246.828125 127.949219 246.65625 128.289062 246.511719 C 128.632812 246.371094 128.984375 246.261719 129.347656 246.191406 C 129.710938 246.117188 130.078125 246.082031 130.449219 246.082031 C 130.820312 246.082031 131.183594 246.117188 131.546875 246.191406 C 131.910156 246.261719 132.265625 246.371094 132.605469 246.511719 C 132.949219 246.65625 133.273438 246.828125 133.582031 247.035156 C 133.890625 247.242188 134.175781 247.476562 134.4375 247.738281 C 134.699219 248 134.933594 248.285156 135.136719 248.59375 C 135.34375 248.902344 135.515625 249.226562 135.660156 249.570312 C 135.800781 249.914062 135.90625 250.265625 135.980469 250.628906 C 136.050781 250.992188 136.089844 251.359375 136.089844 251.730469 Z M 136.089844 251.730469 " fill-opacity="1" fill-rule="nonzero"/><path fill="#ffb7b7" d="M 201.996094 201.167969 C 202.109375 201.34375 202.238281 201.503906 202.382812 201.648438 C 202.527344 201.796875 202.6875 201.921875 202.863281 202.035156 C 203.039062 202.144531 203.222656 202.234375 203.417969 202.304688 C 203.609375 202.375 203.808594 202.425781 204.015625 202.453125 C 204.21875 202.476562 204.425781 202.480469 204.632812 202.464844 C 204.835938 202.445312 205.039062 202.40625 205.234375 202.34375 C 205.429688 202.277344 205.617188 202.195312 205.796875 202.09375 C 205.976562 201.988281 206.140625 201.867188 206.292969 201.726562 L 215.144531 206.476562 L 214.667969 201.269531 L 206.335938 197.558594 C 206.085938 197.320312 205.796875 197.132812 205.476562 196.996094 C 205.15625 196.863281 204.824219 196.789062 204.476562 196.777344 C 204.128906 196.765625 203.789062 196.816406 203.460938 196.929688 C 203.132812 197.042969 202.832031 197.210938 202.566406 197.433594 C 202.296875 197.65625 202.078125 197.917969 201.910156 198.222656 C 201.738281 198.523438 201.625 198.847656 201.574219 199.191406 C 201.519531 199.535156 201.53125 199.878906 201.605469 200.21875 C 201.675781 200.558594 201.808594 200.875 201.996094 201.167969 Z M 201.996094 201.167969 " fill-opacity="1" fill-rule="nonzero"/><path fill="#3f3d56" d="M 208.445312 202.984375 L 211.914062 198.191406 L 228.621094 206.101562 L 249.410156 202.191406 C 249.925781 202.097656 250.441406 202.058594 250.964844 202.074219 C 251.488281 202.09375 252 202.167969 252.507812 202.296875 C 253.015625 202.429688 253.5 202.613281 253.964844 202.851562 C 254.429688 203.089844 254.863281 203.375 255.269531 203.710938 C 255.671875 204.046875 256.03125 204.417969 256.351562 204.832031 C 256.671875 205.246094 256.945312 205.691406 257.167969 206.164062 C 257.390625 206.636719 257.558594 207.128906 257.671875 207.640625 C 257.789062 208.152344 257.847656 208.667969 257.847656 209.191406 C 257.847656 209.660156 257.800781 210.125 257.710938 210.585938 C 257.621094 211.042969 257.488281 211.488281 257.308594 211.921875 C 257.128906 212.355469 256.910156 212.765625 256.652344 213.15625 C 256.390625 213.546875 256.097656 213.90625 255.769531 214.238281 C 255.4375 214.570312 255.078125 214.867188 254.691406 215.128906 C 254.300781 215.390625 253.890625 215.609375 253.460938 215.789062 C 253.03125 215.96875 252.585938 216.105469 252.125 216.199219 C 251.667969 216.292969 251.203125 216.339844 250.738281 216.339844 L 226.910156 216.386719 Z M 208.445312 202.984375 " fill-opacity="1" fill-rule="nonzero"/><path fill="#ffb7b7" d="M 203.105469 285.804688 L 199.59375 284.125 L 204.414062 269.433594 L 209.59375 271.914062 Z M 203.105469 285.804688 " fill-opacity="1" fill-rule="nonzero"/><path fill="#ffb7b7" d="M 226.628906 283.4375 C 226.371094 283.597656 226.117188 283.753906 225.859375 283.910156 C 225.347656 284.226562 224.828125 284.535156 224.308594 284.839844 C 224.050781 284.992188 223.785156 285.144531 223.527344 285.292969 L 223.527344 285.300781 L 223.511719 285.304688 L 223.507812 285.308594 L 223.109375 285.40625 L 222.539062 283.898438 L 222.277344 283.203125 L 221.90625 282.21875 L 221.226562 280.421875 L 217.644531 270.945312 L 223.210938 269.570312 L 223.421875 270.425781 L 223.527344 270.847656 L 225.472656 278.753906 L 225.871094 280.367188 L 225.882812 280.417969 L 226.121094 281.382812 L 226.328125 282.21875 L 226.558594 283.15625 Z M 226.628906 283.4375 " fill-opacity="1" fill-rule="nonzero"/><path fill="#2f2e41" d="M 259.851562 250.164062 C 259.5 250.730469 259.136719 251.296875 258.773438 251.855469 C 258.101562 252.898438 257.40625 253.925781 256.695312 254.941406 C 256.695312 254.941406 256.691406 254.941406 256.691406 254.945312 C 256.273438 255.332031 255.816406 255.664062 255.324219 255.945312 C 255.304688 255.960938 255.28125 255.96875 255.257812 255.984375 C 254.894531 256.183594 254.511719 256.339844 254.109375 256.445312 C 253.964844 256.480469 253.820312 256.515625 253.675781 256.554688 C 253.152344 256.675781 252.636719 256.78125 252.125 256.875 C 251.214844 257.039062 250.3125 257.15625 249.414062 257.226562 C 249.34375 257.234375 249.269531 257.238281 249.199219 257.246094 C 245.507812 257.515625 241.917969 257.078125 238.171875 256.363281 C 236.320312 256.011719 234.433594 255.59375 232.476562 255.15625 C 231.835938 255.011719 231.195312 254.871094 230.546875 254.726562 C 230.496094 254.71875 230.445312 254.703125 230.394531 254.695312 C 229.464844 254.492188 228.523438 254.289062 227.554688 254.089844 C 226.339844 253.839844 225.082031 253.597656 223.78125 253.367188 L 223.871094 255.207031 C 223.949219 256.632812 224.242188 258.011719 224.742188 259.347656 C 225.300781 260.976562 225.742188 262.269531 224.8125 264.957031 L 224.363281 266.257812 C 224.597656 266.914062 224.675781 267.585938 224.59375 268.277344 C 224.515625 268.96875 224.285156 269.605469 223.90625 270.1875 L 223.816406 270.324219 L 227.554688 279.804688 L 227.796875 280.417969 L 225.882812 280.417969 L 223.527344 280.421875 L 219.535156 280.421875 L 213.773438 268.84375 L 213.5 268.292969 L 213.5 268.261719 L 214.09375 246.019531 C 214.101562 245.820312 214.117188 245.621094 214.144531 245.425781 C 214.25 244.527344 214.523438 243.679688 214.96875 242.890625 C 215.417969 242.101562 215.996094 241.429688 216.710938 240.871094 C 217.398438 240.335938 218.160156 239.953125 219 239.722656 C 219.839844 239.492188 220.691406 239.433594 221.554688 239.546875 L 223.527344 239.800781 L 227.554688 240.324219 L 230.394531 240.691406 L 230.449219 240.699219 L 238.820312 241.785156 L 239.417969 239.332031 L 239.53125 239.289062 L 243.054688 237.996094 L 255.238281 233.523438 L 255.269531 233.511719 L 256.070312 233.21875 L 256.167969 233.371094 C 256.195312 233.417969 256.222656 233.464844 256.25 233.511719 C 257.042969 234.9375 257.683594 236.429688 258.175781 237.988281 C 258.996094 240.53125 259.671875 243.109375 260.199219 245.726562 C 260.222656 245.839844 260.242188 245.941406 260.257812 246.035156 L 260.265625 246.0625 C 260.273438 246.109375 260.28125 246.136719 260.28125 246.144531 C 260.5625 247.316406 260.367188 248.746094 259.851562 250.164062 Z M 259.851562 250.164062 " fill-opacity="1" fill-rule="nonzero"/><path fill="#2f2e41" d="M 260.367188 241.964844 C 260.328125 241.800781 260.277344 241.632812 260.226562 241.46875 C 259.816406 240.238281 259.34375 239.03125 258.800781 237.851562 C 258.191406 236.507812 257.460938 235.070312 256.59375 233.511719 C 256.171875 232.757812 255.722656 231.976562 255.238281 231.160156 C 254.996094 230.753906 254.742188 230.339844 254.484375 229.914062 C 254.472656 229.894531 254.460938 229.875 254.449219 229.859375 L 254.375 229.734375 L 242.316406 231.351562 L 237.828125 231.953125 L 237.558594 234.191406 L 237.496094 234.746094 C 237.492188 234.746094 237.492188 234.746094 237.496094 234.75 L 237.316406 236.261719 L 237.316406 236.265625 L 237.074219 238.261719 L 237.054688 238.261719 L 230.390625 237.394531 L 223.527344 236.503906 L 219.839844 236.027344 C 218.976562 235.914062 218.125 235.972656 217.285156 236.203125 C 216.445312 236.433594 215.679688 236.816406 214.996094 237.355469 C 214.28125 237.910156 213.699219 238.582031 213.253906 239.375 C 212.808594 240.164062 212.53125 241.007812 212.425781 241.910156 C 212.402344 242.089844 212.386719 242.273438 212.378906 242.457031 L 208.898438 250.71875 C 206.804688 255.683594 205.496094 260.851562 204.964844 266.21875 L 202.414062 274.386719 L 202.777344 274.421875 L 208.1875 274.925781 L 209.613281 275.058594 L 212.757812 270.460938 C 213.117188 269.9375 213.457031 269.398438 213.773438 268.84375 C 214.296875 267.941406 214.757812 267.007812 215.164062 266.046875 L 221.964844 249.835938 C 222.488281 249.925781 223.011719 250.011719 223.527344 250.09375 C 225.910156 250.480469 228.199219 250.796875 230.390625 251.039062 C 237.523438 251.835938 243.699219 251.898438 249.195312 251.222656 C 250.742188 251.035156 252.234375 250.785156 253.671875 250.480469 C 254.203125 250.367188 254.722656 250.25 255.238281 250.121094 C 255.359375 250.09375 255.476562 250.0625 255.597656 250.03125 C 256.679688 249.753906 257.628906 249.230469 258.445312 248.46875 C 259.261719 247.703125 259.84375 246.789062 260.195312 245.726562 C 260.617188 244.488281 260.675781 243.234375 260.367188 241.964844 Z M 260.367188 241.964844 " fill-opacity="1" fill-rule="nonzero"/><g clip-path="url(#e024a0d619)"><path fill="#2f2e41" d="M 204.222656 283.40625 L 200.429688 281.582031 L 199.832031 281.296875 L 198.882812 283.636719 L 192.242188 285.097656 C 191.90625 285.171875 191.625 285.339844 191.394531 285.597656 C 191.167969 285.859375 191.039062 286.160156 191.011719 286.503906 C 190.980469 286.847656 191.054688 287.167969 191.234375 287.464844 C 191.414062 287.757812 191.664062 287.972656 191.984375 288.101562 L 198.472656 290.753906 L 200.53125 288.894531 L 200.027344 291.386719 L 202.46875 292.386719 L 205.148438 283.847656 Z M 204.222656 283.40625 " fill-opacity="1" fill-rule="nonzero"/></g><path fill="#2f2e41" d="M 227.554688 279.804688 L 227.796875 280.417969 L 227.554688 280.417969 Z M 227.554688 279.804688 " fill-opacity="1" fill-rule="nonzero"/><g clip-path="url(#f65fb355b1)"><path fill="#2f2e41" d="M 226.234375 280.546875 L 222.253906 281.929688 L 221.632812 282.144531 L 222.597656 284.476562 L 218.910156 290.195312 C 218.722656 290.488281 218.636719 290.804688 218.660156 291.148438 C 218.679688 291.492188 218.800781 291.800781 219.019531 292.066406 C 219.242188 292.328125 219.519531 292.503906 219.855469 292.585938 C 220.191406 292.667969 220.515625 292.644531 220.835938 292.511719 L 227.308594 289.824219 L 227.464844 287.054688 L 228.855469 289.179688 L 231.296875 288.167969 L 227.199219 280.214844 Z M 226.234375 280.546875 " fill-opacity="1" fill-rule="nonzero"/></g><path fill="#3f3d56" d="M 259.375 245.707031 C 259.136719 245.707031 258.910156 245.648438 258.695312 245.539062 L 237.703125 234.550781 L 237.460938 233.554688 L 237.003906 230.410156 L 237.011719 230.378906 L 239.007812 221.160156 C 238.972656 221.082031 238.894531 220.949219 238.808594 220.804688 C 237.917969 219.292969 235.203125 214.6875 240.382812 208.347656 L 249.46875 197.734375 L 257.269531 197.398438 L 257.359375 197.511719 C 258.402344 198.824219 259.269531 200.242188 259.964844 201.765625 C 260.65625 203.292969 261.152344 204.878906 261.453125 206.53125 C 261.753906 208.179688 261.851562 209.839844 261.742188 211.511719 C 261.636719 213.183594 261.324219 214.820312 260.8125 216.414062 L 260 231.109375 L 260.871094 234.078125 C 261.394531 235.871094 261.316406 237.636719 260.632812 239.375 L 260.832031 244.179688 C 260.839844 244.378906 260.808594 244.570312 260.738281 244.757812 C 260.667969 244.945312 260.5625 245.109375 260.425781 245.253906 C 260.289062 245.398438 260.128906 245.507812 259.945312 245.585938 C 259.765625 245.664062 259.574219 245.703125 259.375 245.707031 Z M 259.375 245.707031 " fill-opacity="1" fill-rule="nonzero"/><path fill="#ffb7b7" d="M 241.164062 257.824219 C 241.34375 257.71875 241.507812 257.59375 241.660156 257.453125 C 241.808594 257.3125 241.941406 257.15625 242.058594 256.984375 C 242.175781 256.816406 242.273438 256.632812 242.351562 256.441406 C 242.425781 256.25 242.484375 256.050781 242.515625 255.847656 C 242.550781 255.644531 242.5625 255.4375 242.550781 255.230469 C 242.539062 255.023438 242.503906 254.824219 242.449219 254.625 C 242.394531 254.425781 242.316406 254.234375 242.21875 254.050781 C 242.121094 253.867188 242.003906 253.699219 241.871094 253.542969 L 246.917969 244.847656 L 241.707031 245.140625 L 237.714844 253.351562 C 237.464844 253.597656 237.269531 253.878906 237.125 254.195312 C 236.980469 254.511719 236.894531 254.84375 236.871094 255.1875 C 236.847656 255.535156 236.886719 255.878906 236.988281 256.210938 C 237.089844 256.542969 237.246094 256.847656 237.457031 257.125 C 237.671875 257.398438 237.925781 257.628906 238.222656 257.808594 C 238.519531 257.992188 238.835938 258.113281 239.179688 258.179688 C 239.519531 258.242188 239.863281 258.246094 240.203125 258.183594 C 240.546875 258.121094 240.867188 258.003906 241.164062 257.824219 Z M 241.164062 257.824219 " fill-opacity="1" fill-rule="nonzero"/><path fill="#3f3d56" d="M 243.203125 251.433594 L 238.539062 247.792969 L 247.011719 231.34375 L 243.835938 210.394531 C 243.757812 209.878906 243.738281 209.359375 243.773438 208.835938 C 243.808594 208.3125 243.902344 207.800781 244.050781 207.300781 C 244.199219 206.796875 244.398438 206.316406 244.652344 205.859375 C 244.90625 205.402344 245.207031 204.976562 245.554688 204.585938 C 245.902344 204.195312 246.289062 203.84375 246.710938 203.539062 C 247.136719 203.230469 247.589844 202.976562 248.070312 202.769531 C 248.550781 202.5625 249.046875 202.410156 249.558594 202.3125 C 250.074219 202.214844 250.59375 202.175781 251.113281 202.195312 C 251.582031 202.210938 252.042969 202.269531 252.5 202.378906 C 252.953125 202.484375 253.394531 202.636719 253.820312 202.828125 C 254.246094 203.023438 254.648438 203.253906 255.027344 203.527344 C 255.410156 203.800781 255.757812 204.109375 256.078125 204.449219 C 256.398438 204.792969 256.679688 205.164062 256.925781 205.558594 C 257.175781 205.957031 257.378906 206.375 257.542969 206.8125 C 257.710938 207.253906 257.832031 207.703125 257.90625 208.164062 C 257.984375 208.625 258.015625 209.089844 258 209.558594 L 257.214844 233.410156 Z M 243.203125 251.433594 " fill-opacity="1" fill-rule="nonzero"/><path fill="#2f2e41" d="M 244.464844 193.324219 L 244.464844 185.59375 C 244.464844 184.914062 244.53125 184.238281 244.664062 183.570312 C 244.796875 182.90625 244.992188 182.257812 245.25 181.628906 C 245.511719 181 245.828125 180.402344 246.207031 179.835938 C 246.582031 179.269531 247.011719 178.746094 247.492188 178.265625 C 247.972656 177.785156 248.492188 177.355469 249.058594 176.976562 C 249.621094 176.597656 250.21875 176.277344 250.84375 176.015625 C 251.472656 175.757812 252.121094 175.558594 252.785156 175.425781 C 253.453125 175.292969 254.125 175.226562 254.804688 175.226562 C 255.484375 175.226562 256.15625 175.292969 256.820312 175.425781 C 257.488281 175.554688 258.132812 175.753906 258.761719 176.011719 C 259.390625 176.273438 259.984375 176.589844 260.550781 176.96875 C 261.117188 177.347656 261.636719 177.777344 262.117188 178.257812 C 262.597656 178.738281 263.027344 179.261719 263.40625 179.824219 C 263.785156 180.390625 264.101562 180.988281 264.363281 181.617188 C 264.625 182.246094 264.820312 182.890625 264.953125 183.558594 C 265.085938 184.226562 265.152344 184.898438 265.152344 185.578125 L 265.152344 185.59375 C 266.976562 189.398438 265.835938 191.207031 265.152344 193.324219 C 265.152344 193.507812 265.117188 193.6875 265.046875 193.855469 C 264.976562 194.027344 264.875 194.175781 264.746094 194.308594 C 264.617188 194.4375 264.464844 194.539062 264.296875 194.609375 C 264.125 194.679688 263.949219 194.714844 263.765625 194.714844 L 245.855469 194.714844 C 245.671875 194.714844 245.496094 194.679688 245.324219 194.609375 C 245.15625 194.539062 245.003906 194.4375 244.875 194.308594 C 244.742188 194.179688 244.644531 194.027344 244.574219 193.855469 C 244.503906 193.6875 244.46875 193.507812 244.464844 193.324219 Z M 244.464844 193.324219 " fill-opacity="1" fill-rule="nonzero"/><path fill="#ffb7b7" d="M 259.160156 186.457031 C 259.160156 186.96875 259.109375 187.472656 259.011719 187.972656 C 258.914062 188.472656 258.765625 188.957031 258.570312 189.425781 C 258.375 189.898438 258.136719 190.34375 257.855469 190.765625 C 257.574219 191.191406 257.253906 191.582031 256.894531 191.941406 C 256.535156 192.300781 256.144531 192.625 255.71875 192.90625 C 255.296875 193.191406 254.851562 193.429688 254.382812 193.625 C 253.910156 193.816406 253.425781 193.964844 252.929688 194.066406 C 252.429688 194.164062 251.925781 194.214844 251.417969 194.214844 C 250.910156 194.214844 250.40625 194.164062 249.90625 194.066406 C 249.410156 193.964844 248.925781 193.816406 248.457031 193.625 C 247.984375 193.429688 247.539062 193.191406 247.117188 192.90625 C 246.695312 192.625 246.304688 192.300781 245.945312 191.941406 C 245.585938 191.582031 245.261719 191.191406 244.980469 190.765625 C 244.699219 190.34375 244.460938 189.898438 244.265625 189.425781 C 244.070312 188.957031 243.925781 188.472656 243.824219 187.972656 C 243.726562 187.472656 243.675781 186.96875 243.675781 186.457031 C 243.675781 185.949219 243.726562 185.445312 243.824219 184.945312 C 243.925781 184.445312 244.070312 183.960938 244.265625 183.492188 C 244.460938 183.019531 244.699219 182.574219 244.980469 182.148438 C 245.261719 181.726562 245.585938 181.335938 245.945312 180.976562 C 246.304688 180.613281 246.695312 180.292969 247.117188 180.011719 C 247.539062 179.726562 247.984375 179.488281 248.457031 179.292969 C 248.925781 179.097656 249.410156 178.953125 249.90625 178.851562 C 250.40625 178.753906 250.910156 178.703125 251.417969 178.703125 C 251.925781 178.703125 252.429688 178.753906 252.929688 178.851562 C 253.425781 178.953125 253.910156 179.097656 254.382812 179.292969 C 254.851562 179.488281 255.296875 179.726562 255.71875 180.011719 C 256.144531 180.292969 256.535156 180.613281 256.894531 180.976562 C 257.253906 181.335938 257.574219 181.726562 257.855469 182.148438 C 258.136719 182.574219 258.375 183.019531 258.570312 183.492188 C 258.765625 183.960938 258.914062 184.445312 259.011719 184.945312 C 259.109375 185.445312 259.160156 185.949219 259.160156 186.457031 Z M 259.160156 186.457031 " fill-opacity="1" fill-rule="nonzero"/><path fill="#2f2e41" d="M 259.519531 188.492188 C 259.449219 188.480469 259.382812 188.464844 259.3125 188.453125 C 258.101562 188.238281 256.894531 188.027344 255.691406 187.8125 L 255.582031 185.078125 L 254.121094 187.527344 C 250.792969 188.632812 247.679688 188.007812 244.753906 186.628906 C 243.785156 186.167969 242.847656 185.652344 241.945312 185.078125 C 242.195312 183.546875 242.761719 182.144531 243.644531 180.871094 C 244.527344 179.59375 245.640625 178.574219 246.988281 177.804688 C 247.097656 177.742188 247.203125 177.6875 247.316406 177.628906 C 247.316406 177.628906 247.320312 177.628906 247.320312 177.625 C 247.507812 177.539062 247.699219 177.453125 247.890625 177.375 C 248.644531 177.082031 249.421875 176.898438 250.226562 176.824219 C 251.027344 176.75 251.828125 176.792969 252.617188 176.945312 C 253.410156 177.097656 254.167969 177.359375 254.886719 177.730469 C 255.601562 178.097656 256.257812 178.558594 256.84375 179.113281 C 259.207031 181.375 260.269531 185.105469 259.519531 188.492188 Z M 259.519531 188.492188 " fill-opacity="1" fill-rule="nonzero"/></svg>