<svg xmlns="http://www.w3.org/2000/svg" xmlns:xlink="http://www.w3.org/1999/xlink" width="500" zoomAndPan="magnify" viewBox="0 0 375 187.499995" height="250" preserveAspectRatio="xMidYMid meet" version="1.0"><defs><filter x="0%" y="0%" width="100%" height="100%" id="e3f372b615"><feColorMatrix values="0 0 0 0 1 0 0 0 0 1 0 0 0 0 1 0 0 0 1 0" color-interpolation-filters="sRGB"/></filter><clipPath id="733e56c69e"><path d="M 71 1.242188 L 312.773438 1.242188 L 312.773438 33 L 71 33 Z M 71 1.242188 " clip-rule="nonzero"/></clipPath><clipPath id="2ec7566c6c"><path d="M 62.195312 64 L 303 64 L 303 102 L 62.195312 102 Z M 62.195312 64 " clip-rule="nonzero"/></clipPath><clipPath id="c2b0d8f14c"><path d="M 62.195312 32 L 312.773438 32 L 312.773438 64 L 62.195312 64 Z M 62.195312 32 " clip-rule="nonzero"/></clipPath><mask id="4fc6499353"><g filter="url(#e3f372b615)"><rect x="-37.5" width="450" fill="#000000" y="-18.749999" height="224.999994" fill-opacity="0.1"/></g></mask><clipPath id="e4c96325b2"><path d="M 0.488281 3 L 43 3 L 43 53.25 L 0.488281 53.25 Z M 0.488281 3 " clip-rule="nonzero"/></clipPath><clipPath id="782e311f30"><path d="M 35 0.351562 L 44.53125 0.351562 L 44.53125 11 L 35 11 Z M 35 0.351562 " clip-rule="nonzero"/></clipPath><clipPath id="b2a52b21d0"><path d="M 35 0.351562 L 44.53125 0.351562 L 44.53125 11 L 35 11 Z M 35 0.351562 " clip-rule="nonzero"/></clipPath><clipPath id="39af7392e9"><rect x="0" width="45" y="0" height="54"/></clipPath><mask id="df43aba19d"><g filter="url(#e3f372b615)"><rect x="-37.5" width="450" fill="#000000" y="-18.749999" height="224.999994" fill-opacity="0.1"/></g></mask><clipPath id="7289fc90a0"><path d="M 0.632812 5 L 32 5 L 32 64.03125 L 0.632812 64.03125 Z M 0.632812 5 " clip-rule="nonzero"/></clipPath><clipPath id="8d2833b665"><path d="M 24 0.601562 L 32 0.601562 L 32 13 L 24 13 Z M 24 0.601562 " clip-rule="nonzero"/></clipPath><clipPath id="e54c8a61cf"><path d="M 24 11 L 34.859375 11 L 34.859375 21 L 24 21 Z M 24 11 " clip-rule="nonzero"/></clipPath><clipPath id="b6cf5ef5f3"><path d="M 0.632812 43 L 9 43 L 9 54 L 0.632812 54 Z M 0.632812 43 " clip-rule="nonzero"/></clipPath><clipPath id="e5d899f1eb"><rect x="0" width="35" y="0" height="65"/></clipPath></defs><path fill="#6c63ff" d="M 64.921875 99.566406 C 68.886719 116.535156 77.277344 131.203125 90.542969 138.316406 C 118.105469 153.089844 180.269531 145.46875 226.664062 136.714844 C 232.480469 135.621094 238.171875 134.046875 243.726562 132 C 249.285156 129.953125 254.636719 127.457031 259.777344 124.515625 C 264.917969 121.574219 269.777344 118.222656 274.359375 114.464844 C 278.941406 110.707031 283.179688 106.597656 287.074219 102.128906 Z M 64.921875 99.566406 " fill-opacity="0.1" fill-rule="nonzero"/><g clip-path="url(#733e56c69e)"><path fill="#6c63ff" d="M 308.207031 19.699219 L 282.753906 19.699219 C 282.460938 19.699219 282.179688 19.644531 281.910156 19.535156 C 281.640625 19.421875 281.402344 19.261719 281.195312 19.054688 C 280.992188 18.847656 280.832031 18.609375 280.71875 18.339844 C 280.609375 18.070312 280.550781 17.789062 280.550781 17.496094 C 280.550781 17.207031 280.609375 16.925781 280.71875 16.65625 C 280.832031 16.382812 280.992188 16.144531 281.195312 15.941406 C 281.402344 15.734375 281.640625 15.574219 281.910156 15.460938 C 282.179688 15.351562 282.460938 15.292969 282.753906 15.292969 L 287.152344 15.292969 C 286.863281 15.292969 286.582031 15.238281 286.3125 15.125 C 286.042969 15.015625 285.804688 14.855469 285.597656 14.648438 C 285.390625 14.441406 285.230469 14.203125 285.121094 13.933594 C 285.007812 13.664062 284.953125 13.382812 284.953125 13.089844 C 284.953125 12.796875 285.007812 12.519531 285.121094 12.246094 C 285.230469 11.976562 285.390625 11.738281 285.597656 11.53125 C 285.804688 11.328125 286.042969 11.167969 286.3125 11.054688 C 286.582031 10.945312 286.863281 10.886719 287.152344 10.886719 L 284.011719 10.886719 C 283.71875 10.886719 283.4375 10.832031 283.167969 10.71875 C 282.898438 10.609375 282.660156 10.449219 282.457031 10.242188 C 282.25 10.035156 282.089844 9.796875 281.976562 9.527344 C 281.867188 9.257812 281.8125 8.976562 281.8125 8.683594 C 281.8125 8.390625 281.867188 8.109375 281.976562 7.839844 C 282.089844 7.570312 282.25 7.332031 282.457031 7.125 C 282.660156 6.917969 282.898438 6.761719 283.167969 6.648438 C 283.4375 6.535156 283.71875 6.480469 284.011719 6.480469 L 297.296875 6.480469 C 294.347656 5.109375 290.902344 4.132812 286.933594 3.621094 C 250.707031 -1.039062 237.773438 2.042969 233.210938 5.21875 C 227.582031 9.132812 221.300781 12.007812 214.589844 13.394531 C 192.238281 18.011719 150.433594 23.566406 112.546875 11.613281 C 93.714844 5.667969 79.71875 15.710938 71.332031 32.488281 L 312.628906 32.488281 C 312.3125 27.613281 311.367188 23.113281 309.636719 19.171875 C 309.226562 19.523438 308.75 19.703125 308.207031 19.699219 Z M 308.207031 19.699219 " fill-opacity="0.1" fill-rule="nonzero"/></g><g clip-path="url(#2ec7566c6c)"><path fill="#6c63ff" d="M 62.761719 64.15625 C 61.78125 74.066406 62.109375 83.933594 63.746094 93.757812 L 287.242188 101.945312 C 293.492188 94.746094 298.667969 86.839844 302.769531 78.230469 Z M 151.15625 85.273438 L 146.753906 85.273438 C 147.046875 85.273438 147.328125 85.332031 147.597656 85.441406 C 147.867188 85.554688 148.105469 85.714844 148.3125 85.921875 C 148.519531 86.128906 148.675781 86.367188 148.789062 86.636719 C 148.898438 86.90625 148.957031 87.1875 148.957031 87.480469 C 148.957031 87.769531 148.898438 88.050781 148.789062 88.320312 C 148.675781 88.589844 148.519531 88.828125 148.3125 89.035156 C 148.105469 89.242188 147.867188 89.402344 147.597656 89.515625 C 147.328125 89.625 147.046875 89.683594 146.753906 89.683594 L 121.300781 89.683594 C 121.007812 89.683594 120.726562 89.625 120.457031 89.515625 C 120.1875 89.402344 119.949219 89.242188 119.746094 89.035156 C 119.539062 88.828125 119.378906 88.589844 119.265625 88.320312 C 119.15625 88.050781 119.101562 87.769531 119.101562 87.480469 C 119.101562 87.1875 119.15625 86.90625 119.265625 86.636719 C 119.378906 86.367188 119.539062 86.128906 119.746094 85.921875 C 119.949219 85.714844 120.1875 85.554688 120.457031 85.441406 C 120.726562 85.332031 121.007812 85.273438 121.300781 85.273438 L 125.699219 85.273438 C 125.410156 85.273438 125.128906 85.21875 124.859375 85.109375 C 124.589844 84.996094 124.351562 84.835938 124.144531 84.628906 C 123.9375 84.421875 123.78125 84.183594 123.667969 83.914062 C 123.554688 83.644531 123.5 83.363281 123.5 83.070312 C 123.5 82.78125 123.554688 82.5 123.667969 82.230469 C 123.78125 81.957031 123.9375 81.71875 124.144531 81.515625 C 124.351562 81.308594 124.589844 81.148438 124.859375 81.035156 C 125.128906 80.925781 125.410156 80.867188 125.699219 80.867188 L 122.558594 80.867188 C 122.265625 80.867188 121.984375 80.8125 121.714844 80.699219 C 121.445312 80.589844 121.207031 80.429688 121.003906 80.222656 C 120.796875 80.015625 120.636719 79.777344 120.527344 79.507812 C 120.414062 79.238281 120.359375 78.957031 120.359375 78.664062 C 120.359375 78.371094 120.414062 78.089844 120.527344 77.820312 C 120.636719 77.550781 120.796875 77.3125 121.003906 77.105469 C 121.207031 76.898438 121.445312 76.742188 121.714844 76.628906 C 121.984375 76.515625 122.265625 76.460938 122.558594 76.460938 L 148.015625 76.460938 C 148.304688 76.460938 148.585938 76.515625 148.855469 76.628906 C 149.125 76.742188 149.363281 76.898438 149.570312 77.105469 C 149.777344 77.3125 149.933594 77.550781 150.046875 77.820312 C 150.160156 78.089844 150.214844 78.371094 150.214844 78.664062 C 150.214844 78.957031 150.160156 79.238281 150.046875 79.507812 C 149.933594 79.777344 149.777344 80.015625 149.570312 80.222656 C 149.363281 80.429688 149.125 80.589844 148.855469 80.699219 C 148.585938 80.8125 148.304688 80.867188 148.015625 80.867188 L 151.15625 80.867188 C 151.449219 80.867188 151.730469 80.925781 152 81.035156 C 152.269531 81.148438 152.503906 81.308594 152.710938 81.515625 C 152.917969 81.71875 153.078125 81.957031 153.1875 82.230469 C 153.300781 82.5 153.355469 82.78125 153.355469 83.070312 C 153.355469 83.363281 153.300781 83.644531 153.1875 83.914062 C 153.078125 84.183594 152.917969 84.421875 152.710938 84.628906 C 152.503906 84.835938 152.269531 84.996094 152 85.109375 C 151.730469 85.21875 151.449219 85.273438 151.15625 85.273438 Z M 151.15625 85.273438 " fill-opacity="0.1" fill-rule="nonzero"/></g><g clip-path="url(#c2b0d8f14c)"><path fill="#6c63ff" d="M 312.640625 32.640625 L 68.636719 38.585938 C 65.667969 46.222656 63.710938 54.863281 62.796875 63.816406 L 308.363281 63.816406 C 309.96875 58.550781 311.152344 53.1875 311.910156 47.734375 C 312.640625 42.46875 312.933594 37.382812 312.640625 32.640625 Z M 112.335938 52.117188 L 107.933594 52.117188 C 108.226562 52.117188 108.507812 52.171875 108.777344 52.28125 C 109.046875 52.394531 109.285156 52.554688 109.488281 52.761719 C 109.695312 52.96875 109.855469 53.207031 109.964844 53.476562 C 110.078125 53.746094 110.132812 54.027344 110.132812 54.320312 C 110.132812 54.609375 110.078125 54.890625 109.964844 55.160156 C 109.855469 55.433594 109.695312 55.671875 109.488281 55.875 C 109.285156 56.082031 109.046875 56.242188 108.777344 56.355469 C 108.507812 56.464844 108.226562 56.523438 107.933594 56.523438 L 82.476562 56.523438 C 82.1875 56.523438 81.90625 56.464844 81.636719 56.355469 C 81.367188 56.242188 81.128906 56.082031 80.921875 55.875 C 80.714844 55.671875 80.558594 55.433594 80.445312 55.160156 C 80.332031 54.890625 80.277344 54.609375 80.277344 54.320312 C 80.277344 54.027344 80.332031 53.746094 80.445312 53.476562 C 80.558594 53.207031 80.714844 52.96875 80.921875 52.761719 C 81.128906 52.554688 81.367188 52.394531 81.636719 52.28125 C 81.90625 52.171875 82.1875 52.117188 82.476562 52.117188 L 86.878906 52.117188 C 86.585938 52.117188 86.304688 52.058594 86.035156 51.949219 C 85.765625 51.835938 85.53125 51.675781 85.324219 51.46875 C 85.117188 51.261719 84.957031 51.023438 84.847656 50.753906 C 84.734375 50.484375 84.679688 50.203125 84.679688 49.910156 C 84.679688 49.621094 84.734375 49.339844 84.847656 49.070312 C 84.957031 48.796875 85.117188 48.558594 85.324219 48.355469 C 85.53125 48.148438 85.765625 47.988281 86.035156 47.875 C 86.304688 47.765625 86.585938 47.707031 86.878906 47.707031 L 83.738281 47.707031 C 83.445312 47.707031 83.164062 47.652344 82.894531 47.539062 C 82.625 47.429688 82.386719 47.269531 82.179688 47.0625 C 81.972656 46.855469 81.816406 46.617188 81.703125 46.347656 C 81.59375 46.078125 81.535156 45.796875 81.535156 45.503906 C 81.535156 45.214844 81.59375 44.933594 81.703125 44.660156 C 81.816406 44.390625 81.972656 44.152344 82.179688 43.945312 C 82.386719 43.742188 82.625 43.582031 82.894531 43.46875 C 83.164062 43.359375 83.445312 43.300781 83.738281 43.300781 L 109.191406 43.300781 C 109.484375 43.300781 109.765625 43.359375 110.035156 43.46875 C 110.304688 43.582031 110.542969 43.742188 110.75 43.945312 C 110.953125 44.152344 111.113281 44.390625 111.226562 44.660156 C 111.335938 44.933594 111.390625 45.214844 111.390625 45.503906 C 111.390625 45.796875 111.335938 46.078125 111.226562 46.347656 C 111.113281 46.617188 110.953125 46.855469 110.75 47.0625 C 110.542969 47.269531 110.304688 47.429688 110.035156 47.539062 C 109.765625 47.652344 109.484375 47.707031 109.191406 47.707031 L 112.335938 47.707031 C 112.625 47.707031 112.90625 47.765625 113.175781 47.875 C 113.445312 47.988281 113.683594 48.148438 113.890625 48.355469 C 114.097656 48.558594 114.253906 48.796875 114.367188 49.070312 C 114.480469 49.339844 114.535156 49.621094 114.535156 49.910156 C 114.535156 50.203125 114.480469 50.484375 114.367188 50.753906 C 114.253906 51.023438 114.097656 51.261719 113.890625 51.46875 C 113.683594 51.675781 113.445312 51.835938 113.175781 51.949219 C 112.90625 52.058594 112.625 52.117188 112.335938 52.117188 Z M 112.335938 52.117188 " fill-opacity="0.1" fill-rule="nonzero"/></g><g mask="url(#4fc6499353)"><g transform="matrix(1, 0, 0, 1, 214, 93)"><g clip-path="url(#39af7392e9)"><g clip-path="url(#e4c96325b2)"><path stroke-linecap="butt" transform="matrix(0.228363, 0, 0, 0.228688, -163.533637, -102.287406)" fill="none" stroke-linejoin="miter" d="M 728.992371 669.333113 C 728.992371 669.333113 757.199218 599.830078 809.866823 574.054684 C 820.951139 568.725378 830.906496 561.773366 839.732896 553.21573 C 848.559295 544.658094 855.79489 534.921862 861.473892 524.007033 C 866.776574 513.570475 871.087141 502.72397 874.405593 491.501682 " stroke="#535461" stroke-width="2" stroke-opacity="1" stroke-miterlimit="10"/></g><g clip-path="url(#782e311f30)"><path fill="#6c63ff" d="M 43.703125 6.351562 C 42.449219 7.929688 35.960938 10.238281 35.960938 10.238281 C 35.960938 10.238281 36.742188 3.378906 37.996094 1.8125 C 38.308594 1.464844 38.671875 1.1875 39.089844 0.980469 C 39.503906 0.773438 39.945312 0.652344 40.410156 0.613281 C 40.875 0.574219 41.328125 0.621094 41.773438 0.757812 C 42.21875 0.890625 42.625 1.105469 42.988281 1.394531 C 43.351562 1.683594 43.648438 2.03125 43.882812 2.4375 C 44.113281 2.839844 44.261719 3.273438 44.328125 3.734375 C 44.394531 4.195312 44.375 4.652344 44.269531 5.105469 C 44.160156 5.558594 43.972656 5.976562 43.707031 6.359375 Z M 43.703125 6.351562 " fill-opacity="1" fill-rule="nonzero"/></g><path fill="#6c63ff" d="M 41.476562 18.851562 C 39.566406 19.492188 32.871094 17.894531 32.871094 17.894531 C 32.871094 17.894531 37.246094 12.570312 39.15625 11.929688 C 39.601562 11.808594 40.058594 11.777344 40.519531 11.832031 C 40.980469 11.886719 41.414062 12.023438 41.824219 12.242188 C 42.230469 12.464844 42.585938 12.75 42.882812 13.105469 C 43.183594 13.460938 43.40625 13.859375 43.554688 14.300781 C 43.703125 14.742188 43.765625 15.191406 43.742188 15.65625 C 43.714844 16.121094 43.605469 16.5625 43.414062 16.988281 C 43.222656 17.410156 42.957031 17.78125 42.625 18.105469 C 42.289062 18.425781 41.90625 18.675781 41.476562 18.851562 Z M 41.476562 18.851562 " fill-opacity="1" fill-rule="nonzero"/><path fill="#6c63ff" d="M 29.40625 33.625 C 27.433594 33.214844 22.460938 28.449219 22.460938 28.449219 C 22.460938 28.449219 28.917969 26.0625 30.890625 26.472656 C 31.335938 26.597656 31.746094 26.800781 32.113281 27.082031 C 32.484375 27.359375 32.789062 27.699219 33.03125 28.09375 C 33.269531 28.492188 33.429688 28.917969 33.511719 29.375 C 33.589844 29.832031 33.582031 30.289062 33.488281 30.742188 C 33.390625 31.195312 33.21875 31.617188 32.964844 32.007812 C 32.710938 32.394531 32.394531 32.722656 32.015625 32.988281 C 31.636719 33.257812 31.21875 33.445312 30.769531 33.554688 C 30.320312 33.664062 29.863281 33.6875 29.40625 33.621094 Z M 29.40625 33.625 " fill-opacity="1" fill-rule="nonzero"/><path fill="#6c63ff" d="M 17.757812 42.746094 C 15.746094 42.671875 10.039062 38.820312 10.039062 38.820312 C 10.039062 38.820312 16.003906 35.382812 18.015625 35.445312 C 18.265625 35.4375 18.511719 35.457031 18.757812 35.5 C 19.007812 35.542969 19.246094 35.609375 19.476562 35.703125 C 19.710938 35.796875 19.929688 35.910156 20.140625 36.050781 C 20.347656 36.1875 20.542969 36.34375 20.71875 36.523438 C 20.894531 36.699219 21.050781 36.894531 21.1875 37.101562 C 21.324219 37.3125 21.4375 37.535156 21.53125 37.765625 C 21.621094 38 21.6875 38.238281 21.730469 38.488281 C 21.773438 38.734375 21.789062 38.980469 21.78125 39.234375 C 21.773438 39.484375 21.738281 39.730469 21.679688 39.972656 C 21.621094 40.214844 21.535156 40.449219 21.429688 40.675781 C 21.320312 40.902344 21.191406 41.117188 21.039062 41.316406 C 20.890625 41.515625 20.71875 41.699219 20.53125 41.863281 C 20.34375 42.027344 20.140625 42.171875 19.921875 42.292969 C 19.703125 42.414062 19.476562 42.515625 19.238281 42.589844 C 19 42.667969 18.753906 42.71875 18.503906 42.742188 C 18.257812 42.769531 18.007812 42.769531 17.757812 42.746094 Z M 17.757812 42.746094 " fill-opacity="1" fill-rule="nonzero"/><path fill="#6c63ff" d="M 26.636719 13.429688 C 26.894531 15.429688 31.253906 20.761719 31.253906 20.761719 C 31.253906 20.761719 34.125 14.496094 33.871094 12.496094 C 33.78125 12.039062 33.613281 11.617188 33.359375 11.226562 C 33.109375 10.835938 32.796875 10.503906 32.421875 10.230469 C 32.046875 9.960938 31.632812 9.765625 31.183594 9.652344 C 30.734375 9.539062 30.277344 9.511719 29.816406 9.570312 C 29.359375 9.628906 28.925781 9.773438 28.519531 9.996094 C 28.113281 10.21875 27.761719 10.511719 27.464844 10.871094 C 27.171875 11.230469 26.953125 11.628906 26.808594 12.070312 C 26.667969 12.511719 26.609375 12.964844 26.636719 13.429688 Z M 26.636719 13.429688 " fill-opacity="1" fill-rule="nonzero"/><path fill="#6c63ff" d="M 13.152344 24.265625 C 13.992188 26.097656 19.75 29.878906 19.75 29.878906 C 19.75 29.878906 20.617188 23.039062 19.773438 21.210938 C 19.683594 20.976562 19.570312 20.753906 19.4375 20.546875 C 19.300781 20.335938 19.144531 20.140625 18.96875 19.960938 C 18.796875 19.785156 18.605469 19.625 18.398438 19.484375 C 18.1875 19.347656 17.96875 19.230469 17.738281 19.136719 C 17.507812 19.042969 17.269531 18.972656 17.023438 18.925781 C 16.777344 18.882812 16.527344 18.863281 16.277344 18.867188 C 16.027344 18.875 15.78125 18.90625 15.539062 18.960938 C 15.296875 19.019531 15.0625 19.097656 14.835938 19.203125 C 14.605469 19.308594 14.394531 19.433594 14.191406 19.582031 C 13.992188 19.730469 13.808594 19.898438 13.640625 20.085938 C 13.472656 20.273438 13.328125 20.472656 13.203125 20.691406 C 13.078125 20.90625 12.976562 21.132812 12.898438 21.371094 C 12.816406 21.609375 12.765625 21.851562 12.734375 22.101562 C 12.707031 22.347656 12.703125 22.597656 12.722656 22.847656 C 12.746094 23.09375 12.792969 23.339844 12.863281 23.578125 C 12.9375 23.820312 13.03125 24.046875 13.152344 24.269531 Z M 13.152344 24.265625 " fill-opacity="1" fill-rule="nonzero"/><path fill="#6c63ff" d="M 1.484375 36.601562 C 2.007812 38.550781 7.042969 43.253906 7.042969 43.253906 C 7.042969 43.253906 9.050781 36.660156 8.527344 34.710938 C 8.378906 34.269531 8.15625 33.875 7.855469 33.519531 C 7.554688 33.167969 7.199219 32.882812 6.789062 32.664062 C 6.382812 32.445312 5.945312 32.308594 5.488281 32.253906 C 5.027344 32.203125 4.570312 32.234375 4.125 32.355469 C 3.675781 32.476562 3.265625 32.675781 2.894531 32.953125 C 2.519531 33.226562 2.210938 33.5625 1.96875 33.957031 C 1.722656 34.351562 1.558594 34.777344 1.476562 35.234375 C 1.394531 35.691406 1.394531 36.148438 1.484375 36.601562 Z M 1.484375 36.601562 " fill-opacity="1" fill-rule="nonzero"/><g clip-path="url(#b2a52b21d0)"><path fill="#000000" d="M 43.703125 6.351562 C 42.449219 7.929688 35.960938 10.238281 35.960938 10.238281 C 35.960938 10.238281 36.742188 3.378906 37.996094 1.8125 C 38.308594 1.464844 38.671875 1.1875 39.089844 0.980469 C 39.503906 0.773438 39.945312 0.652344 40.410156 0.613281 C 40.875 0.574219 41.328125 0.621094 41.773438 0.757812 C 42.21875 0.890625 42.625 1.105469 42.988281 1.394531 C 43.351562 1.683594 43.648438 2.03125 43.882812 2.4375 C 44.113281 2.839844 44.261719 3.273438 44.328125 3.734375 C 44.394531 4.195312 44.375 4.652344 44.269531 5.105469 C 44.160156 5.558594 43.972656 5.976562 43.707031 6.359375 Z M 43.703125 6.351562 " fill-opacity="0.25" fill-rule="nonzero"/></g><path fill="#000000" d="M 41.476562 18.851562 C 39.566406 19.492188 32.871094 17.894531 32.871094 17.894531 C 32.871094 17.894531 37.246094 12.570312 39.15625 11.929688 C 39.601562 11.808594 40.058594 11.777344 40.519531 11.832031 C 40.980469 11.886719 41.414062 12.023438 41.824219 12.242188 C 42.230469 12.464844 42.585938 12.75 42.882812 13.105469 C 43.183594 13.460938 43.40625 13.859375 43.554688 14.300781 C 43.703125 14.742188 43.765625 15.191406 43.742188 15.65625 C 43.714844 16.121094 43.605469 16.5625 43.414062 16.988281 C 43.222656 17.410156 42.957031 17.78125 42.625 18.105469 C 42.289062 18.425781 41.90625 18.675781 41.476562 18.851562 Z M 41.476562 18.851562 " fill-opacity="0.25" fill-rule="nonzero"/><path fill="#000000" d="M 29.40625 33.625 C 27.433594 33.214844 22.460938 28.449219 22.460938 28.449219 C 22.460938 28.449219 28.917969 26.0625 30.890625 26.472656 C 31.335938 26.597656 31.746094 26.800781 32.113281 27.082031 C 32.484375 27.359375 32.789062 27.699219 33.03125 28.09375 C 33.269531 28.492188 33.429688 28.917969 33.511719 29.375 C 33.589844 29.832031 33.582031 30.289062 33.488281 30.742188 C 33.390625 31.195312 33.21875 31.617188 32.964844 32.007812 C 32.710938 32.394531 32.394531 32.722656 32.015625 32.988281 C 31.636719 33.257812 31.21875 33.445312 30.769531 33.554688 C 30.320312 33.664062 29.863281 33.6875 29.40625 33.621094 Z M 29.40625 33.625 " fill-opacity="0.25" fill-rule="nonzero"/><path fill="#000000" d="M 17.757812 42.746094 C 15.746094 42.671875 10.039062 38.820312 10.039062 38.820312 C 10.039062 38.820312 16.003906 35.382812 18.015625 35.445312 C 18.265625 35.4375 18.511719 35.457031 18.757812 35.5 C 19.007812 35.542969 19.246094 35.609375 19.476562 35.703125 C 19.710938 35.796875 19.929688 35.910156 20.140625 36.050781 C 20.347656 36.1875 20.542969 36.34375 20.71875 36.523438 C 20.894531 36.699219 21.050781 36.894531 21.1875 37.101562 C 21.324219 37.3125 21.4375 37.535156 21.53125 37.765625 C 21.621094 38 21.6875 38.238281 21.730469 38.488281 C 21.773438 38.734375 21.789062 38.980469 21.78125 39.234375 C 21.773438 39.484375 21.738281 39.730469 21.679688 39.972656 C 21.621094 40.214844 21.535156 40.449219 21.429688 40.675781 C 21.320312 40.902344 21.191406 41.117188 21.039062 41.316406 C 20.890625 41.515625 20.71875 41.699219 20.53125 41.863281 C 20.34375 42.027344 20.140625 42.171875 19.921875 42.292969 C 19.703125 42.414062 19.476562 42.515625 19.238281 42.589844 C 19 42.667969 18.753906 42.71875 18.503906 42.742188 C 18.257812 42.769531 18.007812 42.769531 17.757812 42.746094 Z M 17.757812 42.746094 " fill-opacity="0.25" fill-rule="nonzero"/><path fill="#000000" d="M 26.636719 13.429688 C 26.894531 15.429688 31.253906 20.761719 31.253906 20.761719 C 31.253906 20.761719 34.125 14.496094 33.871094 12.496094 C 33.78125 12.039062 33.613281 11.617188 33.359375 11.226562 C 33.109375 10.835938 32.796875 10.503906 32.421875 10.230469 C 32.046875 9.960938 31.632812 9.765625 31.183594 9.652344 C 30.734375 9.539062 30.277344 9.511719 29.816406 9.570312 C 29.359375 9.628906 28.925781 9.773438 28.519531 9.996094 C 28.113281 10.21875 27.761719 10.511719 27.464844 10.871094 C 27.171875 11.230469 26.953125 11.628906 26.808594 12.070312 C 26.667969 12.511719 26.609375 12.964844 26.636719 13.429688 Z M 26.636719 13.429688 " fill-opacity="0.25" fill-rule="nonzero"/><path fill="#000000" d="M 13.152344 24.265625 C 13.992188 26.097656 19.75 29.878906 19.75 29.878906 C 19.75 29.878906 20.617188 23.039062 19.773438 21.210938 C 19.683594 20.976562 19.570312 20.753906 19.4375 20.546875 C 19.300781 20.335938 19.144531 20.140625 18.96875 19.960938 C 18.796875 19.785156 18.605469 19.625 18.398438 19.484375 C 18.1875 19.347656 17.96875 19.230469 17.738281 19.136719 C 17.507812 19.042969 17.269531 18.972656 17.023438 18.925781 C 16.777344 18.882812 16.527344 18.863281 16.277344 18.867188 C 16.027344 18.875 15.78125 18.90625 15.539062 18.960938 C 15.296875 19.019531 15.0625 19.097656 14.835938 19.203125 C 14.605469 19.308594 14.394531 19.433594 14.191406 19.582031 C 13.992188 19.730469 13.808594 19.898438 13.640625 20.085938 C 13.472656 20.273438 13.328125 20.472656 13.203125 20.691406 C 13.078125 20.90625 12.976562 21.132812 12.898438 21.371094 C 12.816406 21.609375 12.765625 21.851562 12.734375 22.101562 C 12.707031 22.347656 12.703125 22.597656 12.722656 22.847656 C 12.746094 23.09375 12.792969 23.339844 12.863281 23.578125 C 12.9375 23.820312 13.03125 24.046875 13.152344 24.269531 Z M 13.152344 24.265625 " fill-opacity="0.25" fill-rule="nonzero"/><path fill="#000000" d="M 1.484375 36.601562 C 2.007812 38.550781 7.042969 43.253906 7.042969 43.253906 C 7.042969 43.253906 9.050781 36.660156 8.527344 34.710938 C 8.378906 34.269531 8.15625 33.875 7.855469 33.519531 C 7.554688 33.167969 7.199219 32.882812 6.789062 32.664062 C 6.382812 32.445312 5.945312 32.308594 5.488281 32.253906 C 5.027344 32.203125 4.570312 32.234375 4.125 32.355469 C 3.675781 32.476562 3.265625 32.675781 2.894531 32.953125 C 2.519531 33.226562 2.210938 33.5625 1.96875 33.957031 C 1.722656 34.351562 1.558594 34.777344 1.476562 35.234375 C 1.394531 35.691406 1.394531 36.148438 1.484375 36.601562 Z M 1.484375 36.601562 " fill-opacity="0.25" fill-rule="nonzero"/></g></g></g><g mask="url(#df43aba19d)"><g transform="matrix(1, 0, 0, 1, 205, 59)"><g clip-path="url(#e5d899f1eb)"><g clip-path="url(#7289fc90a0)"><path stroke-linecap="butt" transform="matrix(0.228363, 0, 0, 0.228688, -154.533637, -68.287406)" fill="none" stroke-linejoin="miter" d="M 708.996129 567.717592 C 708.996129 567.717592 712.554057 492.782765 753.692605 451.002371 C 762.365056 442.291005 769.429597 432.435205 774.903333 421.417889 C 780.377069 410.417655 783.969209 398.819581 785.696857 386.657831 C 787.236345 375.059758 787.715297 363.410441 787.116607 351.726962 " stroke="#535461" stroke-width="2" stroke-opacity="1" stroke-miterlimit="10"/></g><g clip-path="url(#8d2833b665)"><path fill="#6c63ff" d="M 31.125 6.089844 C 30.464844 7.996094 25.109375 12.324219 25.109375 12.324219 C 25.109375 12.324219 23.578125 5.605469 24.238281 3.699219 C 24.304688 3.457031 24.394531 3.222656 24.507812 3 C 24.621094 2.777344 24.753906 2.566406 24.910156 2.371094 C 25.066406 2.175781 25.242188 1.996094 25.433594 1.835938 C 25.628906 1.675781 25.835938 1.539062 26.058594 1.417969 C 26.277344 1.300781 26.511719 1.207031 26.75 1.140625 C 26.992188 1.070312 27.238281 1.023438 27.488281 1.007812 C 27.738281 0.988281 27.984375 0.992188 28.234375 1.027344 C 28.484375 1.058594 28.726562 1.113281 28.960938 1.199219 C 29.199219 1.28125 29.425781 1.386719 29.640625 1.515625 C 29.855469 1.644531 30.054688 1.792969 30.238281 1.960938 C 30.425781 2.132812 30.589844 2.320312 30.734375 2.523438 C 30.882812 2.726562 31.003906 2.945312 31.105469 3.171875 C 31.207031 3.402344 31.285156 3.640625 31.335938 3.886719 C 31.390625 4.132812 31.417969 4.378906 31.417969 4.628906 C 31.421875 4.882812 31.398438 5.128906 31.347656 5.375 C 31.296875 5.621094 31.222656 5.859375 31.125 6.089844 Z M 31.125 6.089844 " fill-opacity="1" fill-rule="nonzero"/></g><g clip-path="url(#e54c8a61cf)"><path fill="#6c63ff" d="M 33.152344 18.613281 C 31.554688 19.855469 24.71875 20.570312 24.71875 20.570312 C 24.71875 20.570312 27.082031 14.09375 28.667969 12.855469 C 28.855469 12.691406 29.058594 12.542969 29.273438 12.417969 C 29.488281 12.292969 29.714844 12.191406 29.953125 12.113281 C 30.191406 12.035156 30.433594 11.984375 30.683594 11.953125 C 30.929688 11.925781 31.179688 11.921875 31.425781 11.945312 C 31.675781 11.96875 31.921875 12.015625 32.160156 12.089844 C 32.398438 12.164062 32.628906 12.257812 32.847656 12.378906 C 33.066406 12.5 33.269531 12.640625 33.460938 12.800781 C 33.652344 12.964844 33.824219 13.140625 33.976562 13.339844 C 34.132812 13.535156 34.261719 13.746094 34.375 13.972656 C 34.484375 14.195312 34.570312 14.429688 34.632812 14.671875 C 34.695312 14.914062 34.734375 15.160156 34.746094 15.410156 C 34.757812 15.660156 34.746094 15.910156 34.707031 16.15625 C 34.667969 16.402344 34.605469 16.644531 34.515625 16.878906 C 34.429688 17.113281 34.316406 17.335938 34.183594 17.546875 C 34.050781 17.757812 33.898438 17.953125 33.722656 18.132812 C 33.550781 18.3125 33.359375 18.472656 33.152344 18.613281 Z M 33.152344 18.613281 " fill-opacity="1" fill-rule="nonzero"/></g><path fill="#6c63ff" d="M 26.65625 36.570312 C 24.660156 36.839844 18.390625 33.996094 18.390625 33.996094 C 18.390625 33.996094 23.695312 29.601562 25.699219 29.332031 C 25.941406 29.285156 26.191406 29.257812 26.441406 29.261719 C 26.691406 29.261719 26.9375 29.289062 27.179688 29.34375 C 27.425781 29.394531 27.660156 29.472656 27.890625 29.574219 C 28.121094 29.671875 28.335938 29.796875 28.539062 29.941406 C 28.742188 30.085938 28.929688 30.25 29.097656 30.433594 C 29.269531 30.617188 29.417969 30.816406 29.546875 31.03125 C 29.675781 31.246094 29.78125 31.472656 29.863281 31.707031 C 29.945312 31.945312 30.003906 32.1875 30.039062 32.433594 C 30.070312 32.683594 30.078125 32.929688 30.0625 33.179688 C 30.042969 33.429688 30 33.675781 29.933594 33.917969 C 29.863281 34.15625 29.773438 34.386719 29.65625 34.609375 C 29.542969 34.832031 29.40625 35.039062 29.246094 35.234375 C 29.089844 35.429688 28.914062 35.605469 28.71875 35.761719 C 28.523438 35.917969 28.316406 36.054688 28.09375 36.171875 C 27.871094 36.285156 27.640625 36.375 27.402344 36.445312 C 27.160156 36.511719 26.914062 36.554688 26.664062 36.570312 Z M 26.65625 36.570312 " fill-opacity="1" fill-rule="nonzero"/><path fill="#6c63ff" d="M 18.6875 49.042969 C 16.765625 49.640625 10.105469 47.898438 10.105469 47.898438 C 10.105469 47.898438 14.589844 42.667969 16.511719 42.066406 C 16.964844 41.957031 17.417969 41.933594 17.878906 41.996094 C 18.339844 42.058594 18.773438 42.207031 19.175781 42.433594 C 19.582031 42.664062 19.929688 42.957031 20.21875 43.320312 C 20.511719 43.683594 20.726562 44.085938 20.867188 44.527344 C 21.003906 44.972656 21.058594 45.425781 21.023438 45.890625 C 20.988281 46.355469 20.871094 46.796875 20.667969 47.214844 C 20.464844 47.632812 20.195312 48 19.851562 48.3125 C 19.511719 48.628906 19.121094 48.871094 18.6875 49.035156 Z M 18.6875 49.042969 " fill-opacity="1" fill-rule="nonzero"/><path fill="#6c63ff" d="M 17.359375 18.4375 C 18.269531 20.238281 24.144531 23.820312 24.144531 23.820312 C 24.144531 23.820312 24.777344 16.960938 23.871094 15.152344 C 23.636719 14.753906 23.339844 14.410156 22.972656 14.121094 C 22.605469 13.835938 22.203125 13.625 21.757812 13.492188 C 21.308594 13.363281 20.855469 13.316406 20.394531 13.359375 C 19.929688 13.398438 19.492188 13.523438 19.078125 13.734375 C 18.664062 13.941406 18.300781 14.21875 17.992188 14.566406 C 17.683594 14.914062 17.449219 15.308594 17.289062 15.742188 C 17.128906 16.179688 17.054688 16.632812 17.066406 17.097656 C 17.078125 17.5625 17.175781 18.007812 17.359375 18.4375 Z M 17.359375 18.4375 " fill-opacity="1" fill-rule="nonzero"/><path fill="#6c63ff" d="M 8.222656 33.140625 C 9.625 34.589844 16.308594 36.246094 16.308594 36.246094 C 16.308594 36.246094 14.863281 29.507812 13.460938 28.058594 C 13.117188 27.746094 12.726562 27.507812 12.292969 27.34375 C 11.855469 27.179688 11.40625 27.101562 10.941406 27.105469 C 10.476562 27.113281 10.03125 27.207031 9.601562 27.386719 C 9.171875 27.5625 8.792969 27.816406 8.457031 28.140625 C 8.125 28.460938 7.863281 28.835938 7.671875 29.261719 C 7.480469 29.683594 7.375 30.128906 7.351562 30.59375 C 7.328125 31.058594 7.394531 31.511719 7.542969 31.953125 C 7.695312 32.390625 7.921875 32.789062 8.222656 33.144531 Z M 8.222656 33.140625 " fill-opacity="1" fill-rule="nonzero"/><g clip-path="url(#b6cf5ef5f3)"><path fill="#6c63ff" d="M 1.304688 48.648438 C 2.445312 50.316406 8.75 53.078125 8.75 53.078125 C 8.75 53.078125 8.460938 46.191406 7.324219 44.527344 C 7.035156 44.167969 6.691406 43.871094 6.292969 43.640625 C 5.894531 43.410156 5.464844 43.261719 5.011719 43.191406 C 4.554688 43.121094 4.101562 43.140625 3.652344 43.242188 C 3.203125 43.347656 2.789062 43.527344 2.40625 43.789062 C 2.027344 44.050781 1.707031 44.371094 1.445312 44.75 C 1.1875 45.132812 1.007812 45.550781 0.90625 46 C 0.804688 46.449219 0.785156 46.902344 0.855469 47.359375 C 0.925781 47.816406 1.074219 48.242188 1.304688 48.644531 Z M 1.304688 48.648438 " fill-opacity="1" fill-rule="nonzero"/></g></g></g></g><path fill="#6c63ff" d="M 130.664062 178.652344 C 139.644531 181.675781 150.597656 179.835938 160.785156 180.046875 C 162.183594 180.078125 163.65625 180.164062 164.777344 180.6875 C 165.894531 181.207031 166.445312 182.058594 167.210938 182.777344 C 170.066406 185.476562 175.914062 186.339844 181.027344 185.882812 C 186.140625 185.425781 190.828125 183.914062 195.644531 182.761719 C 203.984375 180.765625 213.519531 179.859375 221.742188 182.035156 C 222.5 182.230469 223.292969 182.460938 224.101562 182.382812 C 225.90625 182.203125 226.441406 180.757812 227.703125 179.933594 C 229.988281 178.441406 234.925781 178.847656 235.925781 176.882812 C 236.511719 175.738281 235.160156 174.550781 233.695312 173.765625 C 228.070312 170.753906 220.027344 170.257812 212.671875 170.722656 C 205.3125 171.1875 198.078125 172.46875 190.679688 172.472656 C 181.46875 172.472656 172.5625 170.507812 163.4375 169.703125 C 157.117188 169.144531 150.21875 169.214844 144.292969 170.847656 C 137.886719 172.632812 136.46875 176.621094 130.664062 178.652344 Z M 130.664062 178.652344 " fill-opacity="0.1" fill-rule="nonzero"/><path fill="#535461" d="M 145.683594 43.527344 L 147.285156 43.527344 L 147.285156 66.167969 L 145.683594 66.167969 Z M 145.683594 43.527344 " fill-opacity="1" fill-rule="nonzero"/><path fill="#535461" d="M 145.683594 73.945312 L 147.285156 73.945312 L 147.285156 86.75 L 145.683594 86.75 Z M 145.683594 73.945312 " fill-opacity="1" fill-rule="nonzero"/><path fill="#535461" d="M 157.582031 21.34375 L 208.003906 21.34375 C 208.710938 21.34375 209.410156 21.414062 210.101562 21.550781 C 210.796875 21.691406 211.46875 21.894531 212.121094 22.164062 C 212.773438 22.4375 213.394531 22.769531 213.980469 23.160156 C 214.566406 23.554688 215.109375 24 215.609375 24.5 C 216.109375 25 216.554688 25.542969 216.949219 26.132812 C 217.339844 26.71875 217.671875 27.339844 217.941406 27.996094 C 218.210938 28.648438 218.417969 29.320312 218.554688 30.015625 C 218.691406 30.707031 218.761719 31.410156 218.761719 32.117188 L 218.761719 166.996094 C 218.761719 167.703125 218.691406 168.40625 218.554688 169.097656 C 218.417969 169.792969 218.210938 170.464844 217.941406 171.117188 C 217.671875 171.773438 217.339844 172.394531 216.949219 172.980469 C 216.554688 173.570312 216.109375 174.113281 215.609375 174.613281 C 215.109375 175.113281 214.566406 175.558594 213.980469 175.953125 C 213.394531 176.347656 212.773438 176.675781 212.121094 176.949219 C 211.46875 177.21875 210.796875 177.421875 210.101562 177.5625 C 209.410156 177.699219 208.710938 177.769531 208.003906 177.769531 L 157.582031 177.769531 C 156.875 177.769531 156.175781 177.699219 155.484375 177.5625 C 154.792969 177.421875 154.117188 177.21875 153.464844 176.949219 C 152.8125 176.675781 152.195312 176.347656 151.605469 175.953125 C 151.019531 175.558594 150.476562 175.113281 149.976562 174.613281 C 149.476562 174.113281 149.03125 173.570312 148.640625 172.980469 C 148.246094 172.394531 147.914062 171.773438 147.644531 171.117188 C 147.375 170.464844 147.171875 169.792969 147.03125 169.097656 C 146.894531 168.40625 146.828125 167.703125 146.828125 166.996094 L 146.828125 32.117188 C 146.828125 31.410156 146.894531 30.707031 147.03125 30.015625 C 147.171875 29.320312 147.375 28.648438 147.644531 27.996094 C 147.914062 27.339844 148.246094 26.71875 148.640625 26.132812 C 149.03125 25.542969 149.476562 25 149.976562 24.5 C 150.476562 24 151.019531 23.554688 151.605469 23.160156 C 152.195312 22.769531 152.8125 22.4375 153.464844 22.164062 C 154.117188 21.894531 154.792969 21.691406 155.484375 21.550781 C 156.175781 21.414062 156.875 21.34375 157.582031 21.34375 Z M 157.582031 21.34375 " fill-opacity="1" fill-rule="nonzero"/><path fill="#6c63ff" d="M 157.582031 28.664062 L 208.003906 28.664062 C 208.710938 28.664062 209.410156 28.730469 210.101562 28.871094 C 210.796875 29.007812 211.46875 29.210938 212.121094 29.484375 C 212.773438 29.753906 213.394531 30.085938 213.980469 30.480469 C 214.566406 30.871094 215.109375 31.316406 215.609375 31.816406 C 216.109375 32.316406 216.554688 32.863281 216.949219 33.449219 C 217.339844 34.039062 217.671875 34.660156 217.941406 35.3125 C 218.210938 35.964844 218.417969 36.640625 218.554688 37.332031 C 218.691406 38.027344 218.761719 38.726562 218.761719 39.433594 L 218.761719 160.363281 C 218.761719 161.070312 218.691406 161.773438 218.554688 162.464844 C 218.417969 163.160156 218.210938 163.832031 217.941406 164.488281 C 217.671875 165.140625 217.339844 165.761719 216.949219 166.347656 C 216.554688 166.9375 216.109375 167.480469 215.609375 167.980469 C 215.109375 168.480469 214.566406 168.929688 213.980469 169.320312 C 213.394531 169.714844 212.773438 170.046875 212.121094 170.316406 C 211.46875 170.585938 210.796875 170.792969 210.101562 170.929688 C 209.410156 171.066406 208.710938 171.136719 208.003906 171.136719 L 157.582031 171.136719 C 156.875 171.136719 156.175781 171.066406 155.484375 170.929688 C 154.792969 170.792969 154.117188 170.585938 153.464844 170.316406 C 152.8125 170.046875 152.195312 169.714844 151.605469 169.320312 C 151.019531 168.929688 150.476562 168.480469 149.976562 167.980469 C 149.476562 167.480469 149.03125 166.9375 148.640625 166.347656 C 148.246094 165.761719 147.914062 165.140625 147.644531 164.488281 C 147.375 163.832031 147.171875 163.160156 147.03125 162.464844 C 146.894531 161.773438 146.828125 161.070312 146.828125 160.363281 L 146.828125 39.433594 C 146.828125 38.726562 146.894531 38.027344 147.03125 37.332031 C 147.171875 36.640625 147.375 35.964844 147.644531 35.3125 C 147.914062 34.660156 148.246094 34.039062 148.640625 33.449219 C 149.03125 32.863281 149.476562 32.316406 149.976562 31.816406 C 150.476562 31.316406 151.019531 30.871094 151.605469 30.480469 C 152.195312 30.085938 152.8125 29.753906 153.464844 29.484375 C 154.117188 29.210938 154.792969 29.007812 155.484375 28.871094 C 156.175781 28.730469 156.875 28.664062 157.582031 28.664062 Z M 157.582031 28.664062 " fill-opacity="1" fill-rule="nonzero"/><path fill="#eaeaf3" d="M 177.769531 24.777344 L 188.046875 24.777344 C 188.265625 24.777344 188.457031 24.855469 188.609375 25.011719 C 188.765625 25.167969 188.84375 25.355469 188.84375 25.574219 C 188.84375 25.796875 188.765625 25.984375 188.609375 26.140625 C 188.457031 26.296875 188.265625 26.375 188.046875 26.375 L 177.769531 26.375 C 177.550781 26.375 177.359375 26.296875 177.203125 26.140625 C 177.046875 25.984375 176.96875 25.796875 176.96875 25.574219 C 176.96875 25.355469 177.046875 25.167969 177.203125 25.011719 C 177.359375 24.855469 177.550781 24.777344 177.769531 24.777344 Z M 177.769531 24.777344 " fill-opacity="1" fill-rule="nonzero"/><path fill="#eaeaf3" d="M 194.097656 25.691406 C 194.097656 25.84375 194.070312 25.988281 194.011719 26.128906 C 193.953125 26.269531 193.871094 26.390625 193.761719 26.5 C 193.65625 26.605469 193.53125 26.6875 193.394531 26.746094 C 193.253906 26.804688 193.105469 26.832031 192.957031 26.832031 C 192.804688 26.832031 192.660156 26.804688 192.519531 26.746094 C 192.378906 26.6875 192.253906 26.605469 192.148438 26.5 C 192.042969 26.390625 191.957031 26.269531 191.902344 26.128906 C 191.84375 25.988281 191.8125 25.84375 191.8125 25.691406 C 191.8125 25.539062 191.84375 25.394531 191.902344 25.253906 C 191.957031 25.113281 192.042969 24.988281 192.148438 24.882812 C 192.253906 24.773438 192.378906 24.691406 192.519531 24.632812 C 192.660156 24.574219 192.804688 24.546875 192.957031 24.546875 C 193.105469 24.546875 193.253906 24.574219 193.394531 24.632812 C 193.53125 24.691406 193.65625 24.773438 193.761719 24.882812 C 193.871094 24.988281 193.953125 25.113281 194.011719 25.253906 C 194.070312 25.394531 194.097656 25.539062 194.097656 25.691406 Z M 194.097656 25.691406 " fill-opacity="1" fill-rule="nonzero"/><path fill="#ffffff" d="M 164.136719 91.828125 L 164.136719 108.519531 C 164.140625 108.78125 164.117188 109.042969 164.066406 109.300781 C 164.019531 109.558594 163.945312 109.808594 163.847656 110.050781 C 163.75 110.292969 163.628906 110.523438 163.484375 110.742188 C 163.339844 110.960938 163.175781 111.160156 162.992188 111.347656 C 162.808594 111.53125 162.605469 111.699219 162.390625 111.84375 C 162.171875 111.992188 161.945312 112.113281 161.703125 112.214844 C 161.460938 112.3125 161.210938 112.390625 160.957031 112.441406 C 160.699219 112.492188 160.441406 112.515625 160.179688 112.515625 C 157.976562 112.515625 155.839844 110.726562 155.839844 108.519531 L 155.839844 91.828125 C 155.839844 89.648438 157.96875 87.863281 160.179688 87.863281 C 160.703125 87.867188 161.207031 87.96875 161.691406 88.167969 C 162.175781 88.371094 162.601562 88.660156 162.972656 89.03125 C 163.34375 89.402344 163.628906 89.828125 163.832031 90.3125 C 164.03125 90.796875 164.132812 91.300781 164.136719 91.828125 Z M 165.691406 114.453125 C 165.691406 114.734375 165.71875 115.011719 165.773438 115.285156 C 165.824219 115.5625 165.90625 115.828125 166.011719 116.085938 C 166.121094 116.347656 166.25 116.59375 166.40625 116.824219 C 166.5625 117.058594 166.738281 117.273438 166.9375 117.472656 C 167.132812 117.671875 167.347656 117.847656 167.582031 118.003906 C 167.816406 118.15625 168.0625 118.289062 168.320312 118.394531 C 168.578125 118.503906 168.84375 118.582031 169.117188 118.636719 C 169.394531 118.691406 169.671875 118.71875 169.949219 118.71875 L 172.8125 118.71875 L 172.859375 127.523438 C 172.859375 132.84375 180.800781 132.800781 180.800781 127.523438 L 180.800781 118.722656 L 186.15625 118.722656 L 186.15625 127.527344 C 186.15625 132.816406 194.148438 132.832031 194.148438 127.527344 L 194.148438 118.722656 L 197.054688 118.722656 C 197.332031 118.71875 197.609375 118.691406 197.882812 118.636719 C 198.15625 118.582031 198.421875 118.5 198.679688 118.390625 C 198.9375 118.285156 199.179688 118.152344 199.410156 117.996094 C 199.640625 117.839844 199.855469 117.664062 200.054688 117.464844 C 200.25 117.269531 200.425781 117.050781 200.578125 116.820312 C 200.734375 116.585938 200.863281 116.34375 200.96875 116.082031 C 201.074219 115.824219 201.152344 115.558594 201.207031 115.285156 C 201.261719 115.011719 201.289062 114.734375 201.285156 114.457031 L 201.285156 88.589844 L 165.691406 88.589844 Z M 201.382812 87.199219 L 165.53125 87.199219 C 165.53125 81.027344 169.214844 75.671875 174.683594 72.875 L 171.941406 67.789062 C 171.539062 67.082031 172.5625 66.644531 172.90625 67.242188 L 175.699219 72.371094 C 176.925781 71.835938 178.199219 71.425781 179.511719 71.152344 C 180.824219 70.878906 182.148438 70.738281 183.492188 70.738281 C 184.832031 70.738281 186.160156 70.878906 187.472656 71.152344 C 188.785156 71.425781 190.054688 71.835938 191.285156 72.371094 L 194.0625 67.257812 C 194.421875 66.636719 195.429688 67.097656 195.023438 67.804688 L 192.285156 72.875 C 197.699219 75.671875 201.382812 81.03125 201.382812 87.199219 Z M 176.816406 79.195312 C 176.816406 78.996094 176.777344 78.804688 176.699219 78.617188 C 176.625 78.433594 176.515625 78.269531 176.371094 78.125 C 176.230469 77.984375 176.066406 77.875 175.882812 77.796875 C 175.695312 77.722656 175.503906 77.683594 175.304688 77.683594 C 175.109375 77.691406 174.921875 77.734375 174.742188 77.8125 C 174.566406 77.894531 174.40625 78.003906 174.273438 78.144531 C 174.136719 78.285156 174.03125 78.449219 173.960938 78.628906 C 173.886719 78.8125 173.851562 79 173.851562 79.195312 C 173.851562 79.390625 173.886719 79.578125 173.960938 79.761719 C 174.03125 79.941406 174.136719 80.105469 174.273438 80.246094 C 174.40625 80.386719 174.566406 80.496094 174.742188 80.578125 C 174.921875 80.65625 175.109375 80.699219 175.304688 80.707031 C 175.503906 80.707031 175.695312 80.671875 175.878906 80.59375 C 176.066406 80.515625 176.226562 80.410156 176.371094 80.265625 C 176.511719 80.125 176.621094 79.964844 176.699219 79.777344 C 176.773438 79.59375 176.8125 79.402344 176.816406 79.203125 Z M 193.136719 79.195312 C 193.132812 79 193.09375 78.808594 193.015625 78.628906 C 192.9375 78.445312 192.824219 78.289062 192.683594 78.148438 C 192.542969 78.011719 192.378906 77.90625 192.195312 77.832031 C 192.011719 77.761719 191.824219 77.726562 191.625 77.730469 C 191.429688 77.730469 191.238281 77.773438 191.058594 77.851562 C 190.875 77.929688 190.71875 78.039062 190.578125 78.179688 C 190.441406 78.324219 190.335938 78.484375 190.265625 78.667969 C 190.191406 78.851562 190.15625 79.042969 190.160156 79.242188 C 190.160156 79.4375 190.203125 79.628906 190.28125 79.808594 C 190.359375 79.992188 190.46875 80.152344 190.609375 80.289062 C 190.75 80.425781 190.914062 80.53125 191.097656 80.605469 C 191.28125 80.679688 191.46875 80.714844 191.667969 80.710938 C 191.863281 80.707031 192.054688 80.664062 192.234375 80.585938 C 192.414062 80.507812 192.574219 80.398438 192.710938 80.257812 C 192.847656 80.113281 192.953125 79.953125 193.027344 79.769531 C 193.101562 79.589844 193.136719 79.398438 193.136719 79.203125 Z M 206.777344 87.859375 C 206.519531 87.859375 206.261719 87.882812 206.003906 87.933594 C 205.75 87.984375 205.503906 88.058594 205.261719 88.15625 C 205.023438 88.257812 204.792969 88.378906 204.578125 88.523438 C 204.359375 88.667969 204.160156 88.832031 203.976562 89.015625 C 203.792969 89.199219 203.628906 89.402344 203.484375 89.617188 C 203.339844 89.835938 203.21875 90.0625 203.121094 90.304688 C 203.019531 90.542969 202.945312 90.792969 202.894531 91.046875 C 202.84375 91.304688 202.820312 91.5625 202.820312 91.824219 L 202.820312 108.515625 C 202.820312 108.777344 202.84375 109.035156 202.894531 109.292969 C 202.945312 109.550781 203.019531 109.796875 203.117188 110.039062 C 203.214844 110.28125 203.339844 110.511719 203.480469 110.730469 C 203.625 110.949219 203.789062 111.148438 203.972656 111.335938 C 204.15625 111.519531 204.359375 111.683594 204.574219 111.832031 C 204.789062 111.976562 205.019531 112.101562 205.257812 112.203125 C 205.5 112.300781 205.75 112.378906 206.003906 112.429688 C 206.257812 112.484375 206.519531 112.507812 206.777344 112.507812 C 208.996094 112.507812 211.117188 110.722656 211.117188 108.515625 L 211.117188 91.824219 C 211.109375 89.609375 208.980469 87.863281 206.777344 87.863281 Z M 206.777344 87.859375 " fill-opacity="1" fill-rule="nonzero"/><path fill="#535461" d="M 165.894531 131.472656 L 180.738281 131.472656 L 180.738281 132.160156 L 165.894531 132.160156 Z M 165.894531 131.472656 " fill-opacity="1" fill-rule="nonzero"/><path fill="#535461" d="M 186.21875 131.472656 L 196.039062 131.472656 L 196.039062 132.160156 L 186.21875 132.160156 Z M 186.21875 131.472656 " fill-opacity="1" fill-rule="nonzero"/><path fill="#535461" d="M 152.878906 131.472656 L 162.699219 131.472656 L 162.699219 132.160156 L 152.878906 132.160156 Z M 152.878906 131.472656 " fill-opacity="1" fill-rule="nonzero"/><path fill="#535461" d="M 201.746094 131.472656 L 211.566406 131.472656 L 211.566406 132.160156 L 201.746094 132.160156 Z M 201.746094 131.472656 " fill-opacity="1" fill-rule="nonzero"/></svg>